<svg width="120" height="120" viewBox="0 0 120 120" fill="none" xmlns="http://www.w3.org/2000/svg">
<g clip-path="url(#clip0)">
<path d="M56.1 76C56.1 69.8 51.1 64.8 44.9 64.8C38.7 64.8 33.7 69.8 33.7 76C33.7 82.2 38.7 87.2 44.9 87.2C51.1 87.2 56.1 82.2 56.1 76Z" fill="white"/>
<path d="M101.5 34.7999C99.8 31.0999 96.8 28.3999 93 26.9999C91.3 26.3999 89.6 26.0999 87.8 26.0999C86.7 26.0999 85.6 26.1999 84.6 26.4999L55.5 21.3999C54.6 21.2999 53.6 21.7999 53.3 22.6999L49.5 32.9999C49.2 33.8999 49.6 34.8999 50.4 35.3999L63.3 42.9999L41.7 54.5999C31.8 55.9999 23.9 64.0999 22.8 74.0999C22.2 79.3999 23.6 84.4999 26.3 88.4999L17.3 104.1C16.9 104.7 16.9 105.5 17.3 106.1C17.6 106.7 18.3 107.1 19 107.1H70.7C71.4 107.1 72.1 106.7 72.4 106.1C72.8 105.5 72.8 104.7 72.4 104.1L63.4 88.4999C64.2 87.1999 65 85.7999 65.5 84.3999L93.2 55.2999C93.2 55.2999 93.3 55.1999 93.3 55.0999C97.2 53.4999 100.4 50.3999 102 46.2999C103.4 42.4999 103.2 38.3999 101.5 34.7999ZM53.9 32.7999L56.5 25.5999L78.5 29.3999C76.4 31.0999 74.7 33.2999 73.7 35.9999C73.5 36.5999 73.3 37.0999 73.2 37.6999C72.8 39.2999 72.7 40.8999 72.8 42.4999C72.8 42.9999 72.9 43.5999 73 44.0999L71.4 43.1999L67.3 40.7999L53.9 32.7999ZM38 59.2999C39.8 58.5999 41.8 58.0999 43.8 57.9999C44.2 57.9999 44.5 57.8999 44.9 57.8999C54.9 57.8999 63 65.9999 63 75.9999C63 76.9999 62.9 77.9999 62.8 78.8999C62.5 80.3999 62.1 81.8999 61.5 83.2999C61.4 83.5999 61.3 83.7999 61.2 83.9999C60.5 85.2999 59.7 86.5999 58.7 87.6999C55.4 91.5999 50.4 93.9999 44.9 93.9999C39.4 93.9999 34.5 91.5999 31.2 87.6999C30.2 86.5999 29.4 85.2999 28.7 83.9999C27.5 81.5999 26.8 78.7999 26.8 75.8999C26.7 68.4999 31.4 61.9999 38 59.2999ZM67.3 103.2H22.5L29 91.8999C33 95.9999 38.7 98.5999 44.9 98.5999C51.1 98.5999 56.7 95.9999 60.7 91.8999L67.3 103.2ZM67 77.0999C67 76.8999 67 76.6999 67 76.4999C67 65.8999 59.6 57.0999 49.6 54.8999L67.4 45.4L75.9 50.2999C77.6 52.5999 80 54.2999 82.7 55.2999C84.1 55.7999 85.4 56.0999 86.9 56.1999L67 77.0999ZM98.3 44.9999C97.3 47.9999 94.9 50.3 92.1 51.4C90.8 51.9 89.4 52.1999 88 52.1999C87.7 52.1999 87.4 52.1999 87 52.0999C86 51.9999 85.1 51.7999 84.2 51.4999C82.6 50.8999 81.2 49.9999 80 48.7999C79.6 48.3999 79.3 47.9999 78.9 47.4999C78.5 46.9999 78.2 46.3999 77.9 45.7999C77.3 44.6999 77 43.3999 76.9 42.1999C76.8 40.5999 77 38.9999 77.5 37.3999C77.5 37.2999 77.6 37.1999 77.6 36.9999C78.9 33.7999 81.6 31.3999 85 30.4999C85.6 30.3999 86.1 30.2999 86.7 30.1999C87.1 30.1999 87.4 30.0999 87.8 30.0999C89 30.0999 90.3 30.2999 91.6 30.7999C94.4 31.7999 96.6 33.7999 97.8 36.4999C99.2 39.1999 99.3 42.1999 98.3 44.9999Z" fill="white"/>
<path d="M93.4 43.2C94.5 40.1 92.9 36.7 89.9 35.6C86.8 34.5 83.4 36.1 82.3 39.1C81.2 42.2 82.8 45.6 85.8 46.7C88.9 47.9 92.3 46.3 93.4 43.2Z" fill="white"/>
<path d="M53.6 26.4L49.9 24.9C50.3 22.7 50 20.5 49 18.4C46.4 12.8 39.8 10.4 34.2 13C33.2 13.5 32.7 14.7 33.2 15.7C33.7 16.7 34.9 17.2 35.9 16.7C39.5 15 43.7 16.6 45.4 20.2C46.2 22 46.3 23.9 45.6 25.7C45 27.5 43.6 28.9 41.9 29.7C40.1 30.5 38.2 30.6 36.4 29.9C34.6 29.3 33.2 27.9 32.4 26.2C31.9 25.2 30.7 24.7 29.7 25.2C28.7 25.7 28.2 26.9 28.7 27.9C30 30.6 32.2 32.7 35 33.7C36.2 34.2 37.5 34.4 38.8 34.4C40.4 34.4 42 34 43.6 33.2C45.7 32.2 47.4 30.7 48.5 28.8L52.3 30.3C52.5 30.4 52.8 30.4 53 30.4C53.9 30.4 54.5 29.9 54.8 29C55.1 28 54.5 26.8 53.6 26.4Z" fill="white"/>
</g>
<defs>
<clipPath id="clip0">
<rect width="85.9" height="95.2" fill="white" transform="translate(17 12)"/>
</clipPath>
</defs>
</svg>
