<svg width="60" height="60" viewBox="0 0 60 60" fill="none" xmlns="http://www.w3.org/2000/svg">
    <path d="M12.504 20.05 29.904 10l17.4 10.05V40.1l-17.4 10.05-17.4-10.05V20.05z" fill="#fff"/>
    <path d="M29.904 51.15c-.15 0-.35-.05-.5-.15l-17.4-10c-.3-.2-.5-.5-.5-.85v-20.1c0-.35.2-.7.5-.85l17.4-10.05c.3-.2.7-.2 1 0l17.4 10.05c.3.2.5.5.5.85v20.1c0 .35-.2.7-.5.85l-17.4 10.05c-.15.05-.35.1-.5.1zm-16.4-11.6 16.4 9.45 16.4-9.45V20.6l-16.4-9.45-16.4 9.45v18.95z" fill="#696666"/>
    <path d="M29.904 43.6c7.456 0 13.5-6.044 13.5-13.5s-6.044-13.5-13.5-13.5-13.5 6.044-13.5 13.5 6.044 13.5 13.5 13.5z" fill="#EFEFEF"/>
    <path d="M29.904 31.1c-.15 0-.35-.05-.5-.15l-17.4-10c-.5-.3-.65-.9-.35-1.35.3-.5.9-.65 1.35-.35l16.9 9.75 16.9-9.75c.5-.3 1.1-.1 1.35.35.3.5.1 1.1-.35 1.35l-17.4 10c-.15.1-.35.15-.5.15z" fill="#696666"/>
    <path d="M29.904 50.6c-.55 0-1-.45-1-1V30.1c0-.55.45-1 1-1s1 .45 1 1v19.55c0 .5-.45.95-1 .95z" fill="#696666"/>
    <path d="M14.55 20c0-1.25-1-2.25-2.25-2.25S10 18.75 10 20s1 2.25 2.25 2.25 2.3-1 2.3-2.25z" fill="#0479DC"/>
    <path d="M12.25 23.25C10.45 23.25 9 21.8 9 20s1.45-3.25 3.25-3.25S15.5 18.2 15.5 20c.05 1.8-1.45 3.25-3.25 3.25zm0-4.5c-.7 0-1.25.55-1.25 1.25s.55 1.25 1.25 1.25S13.5 20.7 13.5 20c.05-.7-.55-1.25-1.25-1.25zM49.65 20c0-1.25-1-2.25-2.25-2.25s-2.25 1-2.25 2.25 1 2.25 2.25 2.25 2.25-1 2.25-2.25z" fill="#0479DC"/>
    <path d="M47.4 23.25c-1.8 0-3.25-1.45-3.25-3.25s1.45-3.25 3.25-3.25 3.25 1.45 3.25 3.25-1.45 3.25-3.25 3.25zm0-4.5c-.7 0-1.25.55-1.25 1.25s.55 1.25 1.25 1.25 1.25-.55 1.25-1.25-.55-1.25-1.25-1.25zM32.1 30.5c0-1.25-1-2.25-2.25-2.25s-2.25 1-2.25 2.25 1 2.25 2.25 2.25 2.25-1 2.25-2.25z" fill="#0479DC"/>
    <path d="M29.85 33.75c-1.8 0-3.25-1.45-3.25-3.25s1.45-3.25 3.25-3.25 3.25 1.45 3.25 3.25-1.45 3.25-3.25 3.25zm0-4.55c-.7 0-1.25.55-1.25 1.25s.55 1.25 1.25 1.25 1.25-.55 1.25-1.25c0-.65-.55-1.25-1.25-1.25zM14.55 40.05c0-1.25-1-2.25-2.25-2.25s-2.3 1-2.3 2.25 1 2.25 2.25 2.25 2.3-1 2.3-2.25z" fill="#0479DC"/>
    <path d="M12.25 43.35C10.45 43.35 9 41.9 9 40.1s1.45-3.25 3.25-3.25 3.25 1.45 3.25 3.25c.05 1.75-1.45 3.25-3.25 3.25zm0-4.55c-.7 0-1.25.55-1.25 1.25s.55 1.25 1.25 1.25 1.25-.55 1.25-1.25c.05-.7-.55-1.25-1.25-1.25zM49.65 40.05c0-1.25-1-2.25-2.25-2.25s-2.25 1-2.25 2.25 1 2.25 2.25 2.25c1.25.05 2.25-1 2.25-2.25z" fill="#0479DC"/>
    <path d="M47.4 43.35c-1.8 0-3.25-1.45-3.25-3.25s1.45-3.25 3.25-3.25 3.25 1.45 3.25 3.25c0 1.75-1.45 3.25-3.25 3.25zm0-4.55c-.7 0-1.25.55-1.25 1.25s.55 1.25 1.25 1.25 1.25-.55 1.25-1.25-.55-1.25-1.25-1.25zM32.1 50.55c0-1.25-1-2.25-2.25-2.25s-2.25 1-2.25 2.25 1 2.25 2.25 2.25 2.25-1 2.25-2.25z" fill="#0479DC"/>
    <path d="M29.85 53.8c-1.8 0-3.25-1.45-3.25-3.25s1.45-3.25 3.25-3.25 3.25 1.45 3.25 3.25-1.45 3.25-3.25 3.25zm0-4.5c-.7 0-1.25.55-1.25 1.25s.55 1.25 1.25 1.25 1.25-.55 1.25-1.25-.55-1.25-1.25-1.25zM32.1 9.7c0-1.25-1-2.25-2.25-2.25s-2.25 1-2.25 2.25 1 2.25 2.25 2.25c1.25.05 2.25-1 2.25-2.25z" fill="#0479DC"/>
    <path d="M29.85 13c-1.8 0-3.25-1.45-3.25-3.25s1.45-3.25 3.25-3.25 3.25 1.45 3.25 3.25c0 1.75-1.45 3.25-3.25 3.25zm0-4.55c-.7 0-1.25.55-1.25 1.25s.55 1.25 1.25 1.25 1.25-.55 1.25-1.25-.55-1.25-1.25-1.25z" fill="#0479DC"/>
</svg>
