<svg width="60" height="60" viewBox="0 0 60 60" fill="none" xmlns="http://www.w3.org/2000/svg">
    <g clip-path="url(#inz5611qqa)" fill="#fff">
        <path opacity=".15" d="M30.05 43.6c7.45 0 13.5-6.05 13.5-13.5s-6.05-13.5-13.5-13.5-13.5 6.05-13.5 13.5 6.05 13.5 13.5 13.5z"/>
        <path d="m48.05 19.25-17.5-10c-.3-.2-.7-.2-1 0l-17.5 10c-.3.15-.5.5-.5.85v20.05c0 .35.2.65.5.85l17.5 9.95c.15.1.35.15.5.15.15 0 .35-.05.5-.1l17.5-10c.3-.15.5-.5.5-.85V20.1c0-.35-.2-.65-.5-.85zm-18-8.05 15.5 8.85L30.05 29l-15.5-8.95 15.5-8.85zm-16.5 10.55 15.5 8.9v17.7l-15.5-8.85V21.75zm17.5 26.6v-17.7l15.5-8.9V39.5l-15.5 8.85z"/>
        <path d="M12.25 16.75C10.45 16.75 9 18.2 9 20s1.45 3.25 3.25 3.25 3.3-1.45 3.25-3.25c0-1.8-1.45-3.25-3.25-3.25zM47.4 23.25a3.25 3.25 0 1 0 0-6.5 3.25 3.25 0 0 0 0 6.5zM30.05 33.35a3.25 3.25 0 1 0 0-6.5 3.25 3.25 0 0 0 0 6.5zM12.25 36.85C10.45 36.85 9 38.3 9 40.1s1.45 3.25 3.25 3.25 3.3-1.5 3.25-3.25c0-1.8-1.45-3.25-3.25-3.25zM47.4 43.35a3.25 3.25 0 1 0 0-6.5 3.25 3.25 0 0 0 0 6.5zM32.1 50.55c0-1.25-1-2.25-2.25-2.25s-2.25 1-2.25 2.25 1 2.25 2.25 2.25 2.25-1 2.25-2.25z"/>
        <path d="M30.05 53.8c-1.8 0-3.25-1.45-3.25-3.25s1.45-3.25 3.25-3.25 3.25 1.45 3.25 3.25-1.45 3.25-3.25 3.25zm0-4.5c-.7 0-1.25.55-1.25 1.25s.55 1.25 1.25 1.25 1.25-.55 1.25-1.25-.55-1.25-1.25-1.25zM30.05 13a3.25 3.25 0 1 0 0-6.5 3.25 3.25 0 0 0 0 6.5z"/>
    </g>
    <defs>
        <clipPath id="inz5611qqa">
            <path fill="#fff" transform="translate(9 6.5)" d="M0 0h41.65v47.3H0z"/>
        </clipPath>
    </defs>
</svg>
