<svg width="60" height="60" viewBox="0 0 60 60" fill="none" xmlns="http://www.w3.org/2000/svg">
    <path d="M52.99 29.994c0-3.389-4.531-5.808-10.626-7.167 2.076-6.638 1.778-11.291-.871-12.826-1.275-.74-3.606-1-7.47 1.89a.997.997 0 0 0-.555 1.104 1 1 0 0 0 .939.8.993.993 0 0 0 .787-.34c2.3-1.74 4.232-2.38 5.298-1.76 1.434.83 1.917 4.469-.08 10.752a56.113 56.113 0 0 0-5.687-.705 46.331 46.331 0 0 0-7.324-8.657c-3.685-3.254-6.762-4.318-8.904-3.084-4.053 2.35-2.14 11.356 1.992 19.993a56.193 56.193 0 0 0-2.25 5.323c-5.772-1.264-9.302-3.359-9.302-5.313 0-1.405 1.957-2.954 5.228-4.149a.994.994 0 0 0 .855-.892 1.002 1.002 0 0 0-.665-1.042.992.992 0 0 0-.852.095C9.241 25.571 6.99 27.64 6.99 30.014c0 3.384 4.531 5.808 10.626 7.162a35.952 35.952 0 0 0-.921 3.544c-.966 4.833-.349 8.042 1.793 9.282.59.338 1.261.51 1.942.5 4.157 0 9.904-5.723 14.31-12.241a57.48 57.48 0 0 0 5.692-.705c.376 1.163.687 2.346.931 3.544.752 3.764.433 6.458-.856 7.202-1.425.825-4.303-.58-7.514-3.668a.993.993 0 0 0-1.523.766c-.018.23.043.459.173.648 3.043 2.924 5.776 4.444 7.927 4.444.67.007 1.331-.166 1.913-.5 2.14-1.24 2.758-4.449 1.792-9.282a35.952 35.952 0 0 0-.921-3.544c6.105-1.364 10.636-3.788 10.636-7.172zm-31.37 2.204c.358.667.726 1.333 1.105 2 .383.67.782 1.324 1.18 1.969a51.755 51.755 0 0 1-3.715-.5c.414-1.12.892-2.284 1.425-3.469h.005zm-2.142 16.09c-1.29-.745-1.608-3.44-.856-7.203.248-1.197.56-2.38.931-3.544 1.887.332 3.79.567 5.701.705.608.905 1.235 1.79 1.873 2.629a1 1 0 0 0 1.105.554.994.994 0 0 0 .792-.95 1.003 1.003 0 0 0-.349-.789 74.439 74.439 0 0 1-.956-1.31c.762.03 1.524.046 2.28.046.758 0 1.525 0 2.287-.045-5.498 7.707-10.741 11.106-12.813 9.906h.005zm10.517-11.831c-1.262 0-2.482-.034-3.66-.1-.664-1-1.306-2.045-1.927-3.134-.632-1.1-1.21-2.18-1.743-3.239a66.585 66.585 0 0 1 1.743-3.239 55.582 55.582 0 0 1 2.181-3.499c.498-.71.961-1.41 1.45-2.084a1.004 1.004 0 0 0-.321-1.218.993.993 0 0 0-1.253.064c-.498.694-.996 1.42-1.494 2.149a68.646 68.646 0 0 0-2.246 3.634 85.592 85.592 0 0 0-1.11 1.999c-3.755-8.307-4.323-14.825-2.137-16.09 1.29-.744 3.77.325 6.638 2.86a42.243 42.243 0 0 1 6.17 7.047c-.762 0-1.524-.04-2.286-.04a.993.993 0 0 0-1.109.546 1.004 1.004 0 0 0 .273 1.209.994.994 0 0 0 .836.2c1.265 0 2.49.04 3.665.104.664 1 1.304 2.045 1.922 3.134a58.602 58.602 0 0 1 4.222 8.927 58.642 58.642 0 0 1-9.814.77zm11.747-1.16a60.145 60.145 0 0 0-4.482-9.531 68.306 68.306 0 0 0-1.175-1.965c9.042.885 14.938 3.649 14.938 6.183.02 1.974-3.505 4.058-9.282 5.323v-.01z" fill="#fff"/>
    <path d="M38.41 33.787a3.786 3.786 0 0 0 3.78-3.793 3.787 3.787 0 0 0-3.78-3.794 3.786 3.786 0 0 0-3.78 3.794 3.786 3.786 0 0 0 3.78 3.793zM34.636 14.529c1.254 0 2.27-1.02 2.27-2.28a2.275 2.275 0 0 0-2.27-2.278 2.275 2.275 0 0 0-2.27 2.279 2.275 2.275 0 0 0 2.27 2.279zM13.648 27.1c1.254 0 2.27-1.021 2.27-2.28a2.275 2.275 0 0 0-2.27-2.279 2.275 2.275 0 0 0-2.271 2.28 2.275 2.275 0 0 0 2.27 2.278z" fill="#fff"/>
</svg>
