<svg width="60" height="60" viewBox="0 0 60 60" fill="none" xmlns="http://www.w3.org/2000/svg">
    <path d="M45.85 27.5 32 42.05 19.75 29.5l18.3-9.8 7.8 7.8z" fill="#fff"/>
    <path d="M32 43.05c-.25 0-.55-.1-.7-.3L19.05 30.2c-.2-.2-.3-.55-.25-.85.05-.3.25-.6.5-.75l18.3-9.8c.4-.2.85-.15 1.2.15l7.8 7.8c.4.4.4 1 0 1.4l-13.9 14.6c-.15.15-.4.3-.7.3zm-10.6-13.3L32 40.6l12.45-13.1-6.6-6.55-16.45 8.8z" fill="#696666"/>
    <path d="M28.9 41.65H15.95L9.5 52.85h25.85l-6.45-11.2z" fill="#fff"/>
    <path d="M35.35 53.85H9.5c-.35 0-.7-.2-.85-.5-.2-.3-.2-.7 0-1l6.45-11.2c.2-.3.5-.5.85-.5H28.9c.35 0 .7.2.85.5l6.45 11.2c.2.3.2.7 0 1-.15.3-.5.5-.85.5zm-24.1-2h22.4l-5.35-9.2H16.55l-5.3 9.2z" fill="#696666"/>
    <path d="M32.5 38.5c0-5.55-4.5-10.05-10.05-10.05-5.55 0-10.05 4.5-10.05 10.05 0 5.55 4.5 10.05 10.05 10.05 5.55 0 10.05-4.5 10.05-10.05z" fill="#fff"/>
    <path d="M22.45 49.55c-6.1 0-11.1-4.95-11.1-11.05 0-6.1 4.95-11.05 11.05-11.05 6.15 0 11.1 4.95 11.1 11.05 0 6.1-4.95 11.05-11.05 11.05zm0-20.1c-5 0-9.1 4.05-9.1 9.05 0 5 4.05 9.05 9.05 9.05 5.05 0 9.1-4.05 9.1-9.05 0-5-4.05-9.05-9.05-9.05z" fill="#696666"/>
    <path d="M28.05 38.5c0-3.1-2.5-5.6-5.6-5.6-3.1 0-5.6 2.5-5.6 5.6 0 3.1 2.5 5.6 5.6 5.6 3.1 0 5.6-2.5 5.6-5.6z" fill="#0479DC"/>
    <path d="m39.05 25.15-13.35-7.8 1.9-5.2 15.2 2.65" fill="#fff"/>
    <path d="M39.05 26.15c-.15 0-.35-.05-.5-.15L25.2 18.2c-.4-.25-.6-.75-.45-1.2l1.9-5.15c.15-.45.65-.7 1.1-.65L43 13.85c.55.1.9.6.8 1.15-.1.55-.6.9-1.15.8l-14.4-2.5-1.3 3.6 12.6 7.4c.5.3.65.9.35 1.35-.2.35-.5.5-.85.5z" fill="#696666"/>
    <path d="M50.05 23.35c1.25-3.4-.5-7.1-3.9-8.35s-7.1.5-8.35 3.9.5 7.1 3.9 8.35c3.35 1.2 7.1-.55 8.35-3.9z" fill="#fff"/>
    <path d="M43.95 28.6c-.9 0-1.75-.15-2.6-.45-1.9-.7-3.4-2.05-4.25-3.9-.85-1.8-.95-3.85-.25-5.75 1.1-2.95 3.9-4.95 7.05-4.95.9 0 1.75.15 2.6.45 1.9.7 3.4 2.05 4.25 3.9.85 1.8.95 3.85.25 5.75-1.1 2.95-3.95 4.95-7.05 4.95zm0-13c-2.3 0-4.4 1.45-5.15 3.6-.5 1.4-.45 2.9.2 4.2.6 1.35 1.7 2.35 3.1 2.85.6.2 1.25.35 1.9.35 2.3 0 4.4-1.45 5.15-3.6.5-1.4.45-2.9-.2-4.2-.6-1.35-1.7-2.35-3.1-2.85-.65-.25-1.3-.35-1.9-.35z" fill="#696666"/>
    <path d="M46.7 22.1c.55-1.55-.25-3.25-1.75-3.8-1.55-.55-3.25.25-3.8 1.75-.55 1.55.25 3.25 1.75 3.8 1.55.6 3.25-.2 3.8-1.75z" fill="#0479DC"/>
    <path d="M19.35 17.7c-.65 0-1.3-.1-1.9-.35-1.4-.5-2.5-1.55-3.15-2.9-.25-.5 0-1.1.5-1.35s1.1 0 1.35.5c.4.85 1.1 1.55 2 1.85.9.35 1.85.3 2.75-.1.85-.4 1.55-1.1 1.85-2 .35-.9.3-1.85-.1-2.75C21.8 8.8 19.7 8 17.9 8.85c-.5.25-1.1 0-1.35-.5s0-1.1.5-1.35c2.8-1.3 6.1-.1 7.4 2.7.65 1.35.7 2.85.2 4.25-.5 1.4-1.55 2.5-2.9 3.15-.8.4-1.6.6-2.4.6z" fill="#696666"/>
    <path d="M26.4 15.7c-.1 0-.25 0-.35-.05l-2.8-1c-.5-.2-.8-.75-.6-1.3.2-.5.75-.8 1.3-.6l2.8 1c.5.2.8.75.6 1.3-.15.4-.5.65-.95.65z" fill="#696666"/>
</svg>
