<svg width="60" height="60" viewBox="0 0 60 60" fill="none" xmlns="http://www.w3.org/2000/svg">
    <path d="M52.718 44.632c0 2.6-2.15 4.75-4.75 4.75h-36.25c-2.6 0-4.75-2.15-4.75-4.75s2.15-4.75 4.75-4.75h36.25c2.65 0 4.75 2.1 4.75 4.75z" fill="#fff"/>
    <path d="M47.968 50.382h-36.1c-2.65 0-5.05-1.75-5.7-4.35a5.75 5.75 0 0 1 5.6-7.15h36.1c2.65 0 5.05 1.75 5.7 4.35.85 3.75-2 7.15-5.6 7.15zm-36.3-9.5c-2.35 0-4.2 2.2-3.65 4.65.4 1.7 2 2.85 3.7 2.85h36.2c1.75 0 3.35-1.15 3.7-2.85.55-2.45-1.3-4.65-3.65-4.65h-36.3z" fill="#696666"/>
    <path d="M22.768 44.482c0-.95-.8-1.75-1.75-1.75s-1.75.8-1.75 1.75.75 1.75 1.75 1.75 1.75-.8 1.75-1.75z" fill="#fff"/>
    <path d="M21.068 47.232c-1.5 0-2.75-1.25-2.75-2.75s1.25-2.75 2.75-2.75 2.75 1.25 2.75 2.75c-.05 1.5-1.25 2.75-2.75 2.75zm0-3.45c-.4 0-.75.35-.75.75s.35.75.75.75.75-.35.75-.75c-.05-.45-.35-.75-.75-.75z" fill="#696666"/>
    <path d="M31.568 44.482c0-.95-.75-1.75-1.75-1.75-.95 0-1.75.8-1.75 1.75s.8 1.75 1.75 1.75c1 0 1.75-.8 1.75-1.75z" fill="#fff"/>
    <path d="M29.868 47.232c-1.5 0-2.75-1.25-2.75-2.75s1.25-2.75 2.75-2.75 2.75 1.25 2.75 2.75c-.05 1.5-1.25 2.75-2.75 2.75zm0-3.45c-.4 0-.75.35-.75.75s.35.75.75.75.75-.35.75-.75c-.05-.45-.35-.75-.75-.75z" fill="#696666"/>
    <path d="M40.417 44.482c0-.95-.75-1.75-1.75-1.75-.95 0-1.75.8-1.75 1.75s.8 1.75 1.75 1.75 1.75-.8 1.75-1.75z" fill="#fff"/>
    <path d="M38.667 47.232c-1.5 0-2.75-1.25-2.75-2.75s1.25-2.75 2.75-2.75 2.75 1.25 2.75 2.75-1.25 2.75-2.75 2.75zm0-3.45c-.4 0-.75.35-.75.75s.35.75.75.75.75-.35.75-.75c0-.45-.35-.75-.75-.75z" fill="#696666"/>
    <path d="M13.968 44.482c0-.95-.75-1.75-1.75-1.75-.95.05-1.7.8-1.7 1.75s.75 1.75 1.75 1.75c.95 0 1.7-.8 1.7-1.75z" fill="#fff"/>
    <path d="M12.268 47.232c-1.55 0-2.75-1.25-2.75-2.75s1.25-2.75 2.75-2.75 2.75 1.25 2.75 2.75c-.05 1.5-1.25 2.75-2.75 2.75zm0-3.45c-.4 0-.75.35-.75.75s.35.75.75.75.75-.35.75-.75c-.05-.45-.35-.75-.75-.75z" fill="#696666"/>
    <path d="M49.218 44.482c0-.95-.8-1.75-1.75-1.75s-1.75.8-1.75 1.75.8 1.75 1.75 1.75 1.75-.8 1.75-1.75z" fill="#fff"/>
    <path d="M47.468 47.232c-1.5 0-2.75-1.25-2.75-2.75s1.25-2.75 2.75-2.75 2.75 1.25 2.75 2.75-1.25 2.75-2.75 2.75zm0-3.45c-.4 0-.75.35-.75.75s.35.75.75.75.75-.35.75-.75c0-.45-.35-.75-.75-.75z" fill="#696666"/>
    <path d="M27.268 25.882h-13v9.5h13v-9.5z" fill="#fff"/>
    <path d="M27.268 36.382h-13c-.55 0-1-.45-1-1v-9.5c0-.55.45-1 1-1h13c.55 0 1 .45 1 1v9.5c0 .55-.45 1-1 1zm-12-2h11v-7.5h-11v7.5z" fill="#696666"/>
    <path d="M45.768 25.882h-13v9.5h13v-9.5z" fill="#fff"/>
    <path d="M45.768 36.382h-13c-.55 0-1-.45-1-1v-9.5c0-.55.45-1 1-1h13c.55 0 1 .45 1 1v9.5c0 .55-.45 1-1 1zm-12-2h11v-7.5h-11v7.5z" fill="#696666"/>
    <path d="m29.267 10.982-5.6 5.4 5.6 5.4v-2.9h7v-5h-7v-2.9z" fill="#0479DC"/>
    <path d="M29.217 22.782c-.25 0-.55-.1-.75-.3l-5.55-5.4c-.2-.2-.3-.45-.3-.7 0-.25.1-.5.3-.7l5.55-5.4c.3-.3.75-.35 1.1-.2.4.15.65.5.65.9v1.9h6c.55 0 1 .45 1 1v5c0 .55-.45 1-1 1h-6v1.9c0 .4-.25.75-.65.9-.1.05-.2.1-.35.1zm-4.05-6.4 3.1 3v-.5c0-.55.45-1 1-1h6v-3h-6c-.55 0-1-.45-1-1v-.5l-3.1 3z" fill="#0479DC"/>
</svg>
