<svg width="60" height="60" viewBox="0 0 60 60" fill="none" xmlns="http://www.w3.org/2000/svg">
<path d="M28.2452 22.1124C27.3952 22.9624 27.3952 24.3124 28.2452 25.1124C29.0952 25.9624 30.4452 25.9624 31.2452 25.1124C32.0952 24.2624 32.0952 22.9124 31.2452 22.1124C30.4452 21.2624 29.0952 21.2624 28.2452 22.1124Z" fill="#0479DC"/>
<path d="M29.7951 26.7625C28.9451 26.7625 28.1951 26.4125 27.5951 25.8625C26.3951 24.6625 26.3951 22.6625 27.5951 21.4125C28.1951 20.8125 28.9951 20.5125 29.7951 20.5125C30.6451 20.5125 31.3951 20.8625 31.9951 21.4125C32.5951 22.0125 32.8951 22.8125 32.8951 23.6125C32.8951 24.4625 32.5451 25.2125 31.9951 25.8125C31.3951 26.4125 30.5951 26.7625 29.7951 26.7625ZM29.7951 22.4625C29.4951 22.4625 29.1951 22.5625 28.9951 22.8125C28.5451 23.2625 28.5451 23.9625 28.9951 24.4125C29.4451 24.8625 30.1451 24.8625 30.5951 24.4125C30.7951 24.2125 30.9451 23.9125 30.9451 23.6125C30.9451 23.3125 30.8451 23.0125 30.5951 22.8125C30.3451 22.6125 30.0951 22.4625 29.7951 22.4625Z" fill="#0479DC"/>
<path d="M34.895 19.4625C34.645 19.4625 34.395 19.3625 34.195 19.1625C31.745 16.7125 27.795 16.7125 25.345 19.1625C24.945 19.5625 24.345 19.5625 23.945 19.1625C23.545 18.7625 23.545 18.1625 23.945 17.7625C27.145 14.5625 32.395 14.5625 35.645 17.7625C36.045 18.1625 36.045 18.7625 35.645 19.1625C35.445 19.3625 35.145 19.4625 34.895 19.4625Z" fill="#0479DC"/>
<path d="M38.695 15.7125C38.445 15.7125 38.195 15.6125 37.995 15.4125C33.445 10.8625 26.095 10.8625 21.595 15.4125C21.195 15.8125 20.595 15.8125 20.195 15.4125C19.795 15.0125 19.795 14.4125 20.195 14.0125C25.445 8.6625 34.095 8.6625 39.395 14.0125C39.795 14.4125 39.795 15.0125 39.395 15.4125C39.195 15.6125 38.945 15.7125 38.695 15.7125Z" fill="#0479DC"/>
<path d="M23.745 45.2624C23.745 43.0124 21.945 41.2124 19.695 41.2124C17.445 41.2124 15.645 43.0124 15.645 45.2624C15.645 47.5124 17.445 49.3124 19.695 49.3124C21.945 49.3124 23.745 47.5124 23.745 45.2624Z" fill="white"/>
<path d="M19.695 50.3124C16.895 50.3124 14.645 48.0624 14.645 45.2624C14.645 42.4624 16.895 40.2124 19.695 40.2124C22.495 40.2124 24.745 42.4624 24.745 45.2624C24.745 48.0624 22.495 50.3124 19.695 50.3124ZM19.695 42.2124C17.995 42.2124 16.645 43.5624 16.645 45.2624C16.645 46.9624 17.995 48.3124 19.695 48.3124C21.395 48.3124 22.745 46.9624 22.745 45.2624C22.745 43.6124 21.395 42.2124 19.695 42.2124Z" fill="#696666"/>
<path d="M44.0451 45.2624C44.0451 43.0124 42.2451 41.2124 39.9951 41.2124C37.7451 41.2124 35.9451 43.0124 35.9451 45.2624C35.9451 47.5124 37.7451 49.3124 39.9951 49.3124C42.2451 49.3124 44.0451 47.5124 44.0451 45.2624Z" fill="white"/>
<path d="M39.9951 50.3124C37.1951 50.3124 34.9451 48.0624 34.9451 45.2624C34.9951 42.5124 37.2451 40.2124 39.9951 40.2124C42.7451 40.2124 45.0451 42.5124 45.0451 45.2624C45.0451 48.0624 42.7951 50.3124 39.9951 50.3124ZM39.9951 42.2124C38.2951 42.2124 36.9451 43.5624 36.9451 45.2624C36.9451 46.9624 38.2951 48.3124 39.9951 48.3124C41.6951 48.3124 43.0451 46.9624 43.0451 45.2624C43.0451 43.6124 41.6951 42.2124 39.9951 42.2124Z" fill="#696666"/>
<path d="M47.1951 35.4624H45.9451C44.8951 35.0124 42.1951 33.7624 39.8951 31.9124C36.9951 29.5624 22.5451 19.9624 11.3451 34.1624C8.49506 34.9624 6.54506 37.7624 7.04506 40.9624C7.54506 43.9124 10.1951 45.9624 13.1451 45.9624H47.2951C50.4951 45.9624 52.9951 43.1124 52.4951 39.8124C52.0951 37.3124 49.7451 35.4624 47.1951 35.4624Z" fill="white"/>
<path d="M47.295 46.9625H12.895C10.645 46.9625 8.49497 45.8625 7.24497 43.9625C4.44497 39.6625 6.69497 34.6625 10.745 33.2625C14.895 28.1625 19.845 25.5625 25.545 25.5625C33.145 25.5625 39.345 30.2125 40.495 31.1125C42.595 32.8125 44.995 33.9625 46.145 34.4625H47.495C49.795 34.4625 51.945 35.7625 52.895 37.8625C54.995 42.4625 51.645 46.9625 47.295 46.9625ZM25.545 27.5625C20.395 27.5625 15.845 30.0125 12.045 34.8125C11.945 34.9625 11.795 35.0625 11.645 35.0625C8.34497 36.0125 6.54497 40.1625 9.34497 43.4625C10.145 44.4625 11.395 44.9625 12.695 44.9625C18.945 44.9625 41.445 44.9625 47.745 44.9625C49.045 44.9625 50.295 44.2625 50.945 43.1625C52.845 39.8625 50.495 36.4625 47.395 36.4625H45.995C45.895 36.4625 45.745 36.4625 45.645 36.4125C44.595 35.9625 41.745 34.6625 39.295 32.7125C38.595 32.1625 32.595 27.5625 25.545 27.5625Z" fill="#696666"/>
<path d="M15.395 35.4624H39.045C39.045 35.4624 24.045 24.0624 15.395 35.4624Z" fill="#0479DC"/>
<path d="M45.645 36.4624H14.945C14.495 36.4624 14.095 36.2124 13.945 35.8124C13.745 35.1124 14.245 34.4624 14.895 34.4624H45.595C46.045 34.4624 46.445 34.7124 46.595 35.1124C46.845 35.8624 46.345 36.4624 45.645 36.4624Z" fill="#696666"/>
</svg>
