<svg width="60" height="60" viewBox="0 0 60 60" fill="none" xmlns="http://www.w3.org/2000/svg">
    <path d="M15.267 23.262H13.13l-1.292.5-2.23 1.65s-1.65 1.704-1.783 1.764a.326.326 0 0 1-.135 0v.4h7.576c1.4 0 2.533-.965 2.533-2.155s-1.132-2.16-2.533-2.16z" fill="#0479DC"/>
    <path d="M27.73 37.073H7.065C3.722 37.073 1 34.733 1 31.855c0-2.88 2.722-5.219 6.065-5.219h.184l1.153-1.42a14.157 14.157 0 0 1 4.91-3.88 14.07 14.07 0 0 1 6.093-1.373h35.27a3.818 3.818 0 0 1 2.702 1.129c.717.721 1.12 1.7 1.122 2.72 0 1.314-.28 2.614-.82 3.81a9.172 9.172 0 0 1-2.32 3.123l-.59.5c-4.069 3.559-9.538 5.618-15.4 5.793a.927.927 0 0 1-.624-.275.938.938 0 0 1 .57-1.59c5.464-.164 10.5-2.064 14.247-5.338l.59-.5a7.31 7.31 0 0 0 1.838-2.49 7.35 7.35 0 0 0 .646-3.033c0-.53-.209-1.039-.582-1.414a1.981 1.981 0 0 0-1.405-.586H19.38c-1.828.005-3.632.42-5.28 1.214a12.31 12.31 0 0 0-4.252 3.38l-1.43 1.765a.924.924 0 0 1-.72.34h-.622c-2.32 0-4.207 1.5-4.207 3.349 0 1.85 1.887 3.349 4.207 3.349H27.73a.923.923 0 0 1 .92.559.94.94 0 0 1-.544 1.255.923.923 0 0 1-.376.05z" fill="#696666"/>
    <path d="M18.083 28.51H7.691a.926.926 0 0 1-.657-.274.938.938 0 0 1 .657-1.595h10.392c.247 0 .483.098.657.273a.938.938 0 0 1 0 1.322.926.926 0 0 1-.657.274zM24.854 28.28c-.485 0-.958-.144-1.36-.415a2.461 2.461 0 0 1-.903-1.106 2.479 2.479 0 0 1 .531-2.686 2.444 2.444 0 0 1 2.669-.534c.447.187.83.502 1.099.908a2.475 2.475 0 0 1-.305 3.111 2.441 2.441 0 0 1-1.731.722zm0-3.529a1.053 1.053 0 0 0-.981.654 1.07 1.07 0 0 0 .226 1.162 1.056 1.056 0 0 0 1.808-.751 1.073 1.073 0 0 0-.31-.75 1.06 1.06 0 0 0-.743-.315zM31.987 28.28a2.438 2.438 0 0 1-1.36-.418 2.48 2.48 0 0 1-.366-3.79 2.443 2.443 0 0 1 2.67-.532c.447.186.829.502 1.098.907a2.476 2.476 0 0 1-.309 3.112 2.446 2.446 0 0 1-1.733.721zm0-3.529a1.053 1.053 0 0 0-.978.657 1.071 1.071 0 0 0 .23 1.16 1.055 1.055 0 0 0 1.806-.752c0-.282-.111-.553-.31-.753a1.055 1.055 0 0 0-.748-.312zM39.126 28.28c-.485 0-.958-.144-1.36-.415a2.478 2.478 0 0 1-.371-3.792 2.444 2.444 0 0 1 2.668-.534c.447.187.83.502 1.099.908a2.475 2.475 0 0 1-.305 3.111 2.44 2.44 0 0 1-1.731.722zm0-3.529a1.053 1.053 0 0 0-.978.657 1.071 1.071 0 0 0 .23 1.16 1.055 1.055 0 0 0 1.806-.752c0-.282-.112-.553-.31-.753a1.055 1.055 0 0 0-.748-.312zM46.264 28.28c-.484 0-.958-.144-1.36-.415a2.478 2.478 0 0 1-.371-3.792 2.445 2.445 0 0 1 2.668-.534c.448.187.83.502 1.1.908a2.475 2.475 0 0 1-.305 3.111 2.44 2.44 0 0 1-1.732.722zm0-3.529a1.054 1.054 0 0 0-.981.654 1.07 1.07 0 0 0 .226 1.162 1.056 1.056 0 0 0 1.808-.751c0-.282-.11-.552-.308-.751a1.055 1.055 0 0 0-.745-.314zM39.125 48h-4.182a.939.939 0 0 1-.785-.43l-9.06-14.34a.938.938 0 0 1 .784-1.435h13.243c.247 0 .483.098.657.274a.938.938 0 0 1 .272.66v14.342a.938.938 0 0 1-.273.657.926.926 0 0 1-.656.273zm-3.67-1.869h2.742V33.664H27.57l7.883 12.467zM57.535 25.076a.93.93 0 0 1-.657-.277.943.943 0 0 1-.272-.662V13.904H54.69l-5.226 7.533a.931.931 0 0 1-.978.424.926.926 0 0 1-.602-.424.94.94 0 0 1 .06-1.07l5.529-7.957a.93.93 0 0 1 .76-.4h3.333a.92.92 0 0 1 .861.58c.046.114.07.236.068.36v11.166a.94.94 0 0 1-.588.896.923.923 0 0 1-.37.064z" fill="#696666"/>
    <path d="M52.538 21.837a.92.92 0 0 1-.819-.482.935.935 0 0 1 .034-.953l5.027-7.958a.932.932 0 0 1 .947-.43.925.925 0 0 1 .605.385.938.938 0 0 1 .018 1.045l-5.032 7.958a.927.927 0 0 1-.78.435zM39.125 44.37H33.28a.926.926 0 0 1-.657-.274.938.938 0 0 1 .657-1.596h5.846c.247 0 .483.099.657.274a.938.938 0 0 1-.657 1.596z" fill="#696666"/>
</svg>
