<svg width="60" height="60" viewBox="0 0 60 60" fill="none" xmlns="http://www.w3.org/2000/svg">
    <g clip-path="url(#8uaa46t01a)" fill="#fff">
        <path d="m13.45 23.6-4.6 4.6 3.35 3.35 4.6-4.6-3.35-3.35zM19.15 45.35c-1.4 0-2.5-1.15-2.5-2.5 0-1.4 1.15-2.5 2.5-2.5 1.4 0 2.5 1.15 2.5 2.5.05 1.4-1.1 2.5-2.5 2.5zm0-3a.501.501 0 0 0 0 1c.3 0 .5-.25.5-.5.05-.3-.2-.5-.5-.5zM26.9 45.35c-1.4 0-2.5-1.15-2.5-2.5 0-1.4 1.15-2.5 2.5-2.5 1.4 0 2.5 1.15 2.5 2.5 0 1.4-1.1 2.5-2.5 2.5zm0-3a.501.501 0 0 0 0 1c.3 0 .5-.25.5-.5 0-.3-.2-.5-.5-.5zM11.45 45.35c-1.4 0-2.5-1.15-2.5-2.5 0-1.4 1.15-2.5 2.5-2.5 1.4 0 2.5 1.15 2.5 2.5 0 1.4-1.1 2.5-2.5 2.5zm0-3a.501.501 0 0 0 0 1c.3 0 .5-.25.5-.5 0-.3-.2-.5-.5-.5zM46 37.2c0-2.7-2.2-4.95-4.95-4.95-2.7 0-4.95 2.2-4.95 4.95 0 2.7 2.2 4.95 4.95 4.95C43.8 42.1 46 39.9 46 37.2zM39.45 14.6c-.6-1.3-2.15-1.85-3.45-1.25-1.3.6-1.85 2.15-1.25 3.45.6 1.3 2.15 1.85 3.45 1.25 1.3-.6 1.85-2.15 1.25-3.45z"/>
        <path d="M53.45 49.35 49.4 42.3c.9-1.5 1.45-3.25 1.45-5.15 0-2.35-.85-4.55-2.25-6.25L43.65 17c.3-1.35.1-2.8-.5-4.1C42.1 10.55 39.7 9 37.1 9c-.95 0-1.9.2-2.85.55-1.15.6-2.15 1.45-2.85 2.5L20.9 19.5c-.4.3-.55.8-.35 1.25l.6 1.25-.7.35a5.07 5.07 0 0 0-2.3-1.75c-2.6-.95-5.5.4-6.45 3-.2.55.1 1.1.6 1.3.55.2 1.1-.1 1.3-.6.55-1.55 2.3-2.35 3.85-1.8.7.25 1.25.75 1.55 1.4 0 .1.05.15.1.2.05.1.1.2.15.25.25.65.25 1.35 0 2.05-.6 1.55-2.35 2.35-3.9 1.8-.55-.2-1.1.1-1.3.6-.2.55.1 1.1.6 1.3.55.2 1.15.3 1.7.3 2.05 0 3.95-1.25 4.8-3.35.35-.95.4-1.95.15-2.85l.75-.35.6 1.25c.15.4.5.6.9.6.1 0 .15 0 .25-.05l8.7-2.3.15 8.85c-.85 1.45-1.4 3.2-1.4 5 0 .25 0 .45.05.65H11.2c-2.85 0-5.3 2.35-5.2 5.2.1 2.7 2.3 4.8 5 4.8h18.5l-.85 1.45c-.2.3-.2.7 0 1 .15.3.5.5.85.5h23.05c.35 0 .7-.15.85-.5.25-.25.25-.65.05-.95zM48.4 34.6c.3.8.45 1.7.45 2.6 0 1.1-.25 2.1-.65 3.05-.3.7-.7 1.35-1.2 1.9-.05.1-.15.15-.2.25-.7.8-1.55 1.4-2.55 1.85-1 .45-2.1.7-3.25.7-2.4 0-4.55-1.1-5.95-2.8-.5-.55-.9-1.2-1.2-1.9l-.15-.45c-.1-.25-.2-.55-.25-.8-.1-.4-.15-.8-.2-1.2 0-.25-.05-.5-.05-.7 0-1.65.55-3.2 1.4-4.5 1.4-2 3.75-3.3 6.4-3.3 2.25 0 4.3.95 5.7 2.5.8.85 1.35 1.75 1.7 2.8zm-5.9-14.95 3.05 8.8c-1.35-.7-2.9-1.1-4.55-1.1-2.45 0-4.7.95-6.45 2.45l-.15-7 1.8-.45c.25.05.55.05.8.05 1 0 1.95-.2 2.8-.6a6.47 6.47 0 0 0 2.7-2.15zm-9.85-5.55c.1-.25.2-.45.3-.65.15-.3.35-.55.6-.8.45-.5.95-.9 1.55-1.2.65-.3 1.3-.45 2-.45 1.85 0 3.5 1.05 4.25 2.75.35.8.5 1.6.4 2.4-.05.4-.15.8-.25 1.2-.15.45-.4.85-.7 1.25-.45.6-1.05 1.1-1.75 1.4-.6.3-1.25.45-1.9.45h-.1c-.3 0-.6-.05-.9-.1-.15-.05-.3-.05-.45-.1-.85-.25-1.6-.75-2.2-1.45-.3-.35-.55-.7-.7-1.1a4.51 4.51 0 0 1-.15-3.6zm-8.6 9.4-1.35-2.85 7.7-5.4c-.1 1.1.1 2.25.6 3.25.35.75.85 1.45 1.4 2 .25.25.5.45.75.65l-9.1 2.35zm-12.7 22.35c-1.55 0-2.9-1.1-3.1-2.6-.25-1.8 1.2-3.4 2.95-3.4h20.4c.25.9.6 1.7 1.1 2.5l-2.05 3.5h-19.3zm19.85 3 .6-1 1.15-2L34 44c.7.75 1.55 1.35 2.45 1.85 1.35.7 2.9 1.15 4.55 1.15 1.85 0 3.55-.5 5.05-1.4.75-.45 1.4-1 2-1.6l2.8 4.85H31.2z"/>
        <path d="M29.4 30.85h-6.5v5h6.5v-5z"/>
    </g>
    <defs>
        <clipPath id="8uaa46t01a">
            <path fill="#fff" transform="translate(6 9)" d="M0 0h47.6v41.85H0z"/>
        </clipPath>
    </defs>
</svg>
