<svg width="60" height="60" viewBox="0 0 60 60" fill="none" xmlns="http://www.w3.org/2000/svg">
    <path d="m13.91 23.603-4.596 4.596 3.358 3.359 4.597-4.596-3.36-3.36z" fill="#0479DC"/>
    <path d="M47.2 43c0 2.3-1.85 4.1-4.1 4.1H11.6c-2.25 0-4.1-1.8-4.1-4.1s1.85-4.1 4.1-4.1h31.45c2.3 0 4.15 1.85 4.15 4.1z" fill="#fff"/>
    <path d="M43.05 48.1H11.6c-2.8 0-5.1-2.25-5.1-5.1 0-2.8 2.3-5.1 5.1-5.1h31.45c2.8 0 5.1 2.3 5.1 5.1.05 2.85-2.25 5.1-5.1 5.1zM11.6 39.9c-1.7 0-3.1 1.4-3.1 3.1 0 1.7 1.4 3.1 3.1 3.1h31.45c1.7 0 3.1-1.4 3.1-3.1 0-1.7-1.4-3.1-3.1-3.1H11.6z" fill="#696666"/>
    <path d="M21.15 43c0-.85-.7-1.5-1.5-1.5-.85 0-1.5.7-1.5 1.5 0 .85.7 1.5 1.5 1.5s1.5-.65 1.5-1.5z" fill="#fff"/>
    <path d="M19.6 45.5c-1.4 0-2.5-1.15-2.5-2.5 0-1.4 1.15-2.5 2.5-2.5 1.4 0 2.5 1.15 2.5 2.5.05 1.4-1.1 2.5-2.5 2.5zm0-3a.501.501 0 0 0 0 1c.3 0 .5-.25.5-.5.05-.3-.2-.5-.5-.5z" fill="#696666"/>
    <path d="M28.85 43c0-.85-.7-1.5-1.5-1.5-.85 0-1.5.7-1.5 1.5 0 .85.7 1.5 1.5 1.5.85 0 1.5-.65 1.5-1.5z" fill="#fff"/>
    <path d="M27.35 45.5c-1.4 0-2.5-1.15-2.5-2.5 0-1.4 1.15-2.5 2.5-2.5 1.4 0 2.5 1.15 2.5 2.5 0 1.4-1.1 2.5-2.5 2.5zm0-3a.501.501 0 0 0 0 1c.3 0 .5-.25.5-.5 0-.3-.2-.5-.5-.5z" fill="#696666"/>
    <path d="M13.4 43c0-.85-.7-1.5-1.5-1.5-.85 0-1.5.7-1.5 1.5 0 .85.7 1.5 1.5 1.5.85 0 1.5-.65 1.5-1.5z" fill="#fff"/>
    <path d="M11.9 45.5c-1.4 0-2.5-1.15-2.5-2.5 0-1.4 1.15-2.5 2.5-2.5 1.4 0 2.5 1.15 2.5 2.5 0 1.4-1.1 2.5-2.5 2.5zm0-3a.501.501 0 0 0 0 1c.3 0 .5-.25.5-.5 0-.3-.2-.5-.5-.5z" fill="#696666"/>
    <path d="m43.05 16.95 5.85 16.6-14.7 4.55-.35-18.2 9.2-2.95z" fill="#fff"/>
    <path d="M34.2 39.1c-.2 0-.4-.05-.6-.2-.25-.2-.4-.5-.4-.8l-.35-18.2c0-.45.25-.85.7-.95l9.2-2.95c.5-.15 1.05.1 1.25.6l5.85 16.6c.1.25.05.55-.05.8s-.35.45-.6.5l-14.7 4.55c-.1.05-.2.05-.3.05zm.7-18.45.3 16.15 12.4-3.85-5.15-14.75-7.55 2.45z" fill="#696666"/>
    <path d="M47.2 39.95H35.85l-5.65 9.8h22.65l-5.65-9.8z" fill="#fff"/>
    <path d="M52.85 50.75H30.2c-.35 0-.7-.2-.85-.5-.2-.3-.2-.7 0-1l5.65-9.8c.2-.3.5-.5.85-.5H47.2c.35 0 .7.2.85.5l5.65 9.8c.2.3.2.7 0 1-.15.35-.5.5-.85.5zm-20.95-2h19.2l-4.5-7.8H36.45l-4.55 7.8z" fill="#696666"/>
    <path d="M50.35 37.2c0-4.85-3.95-8.8-8.8-8.8-4.85 0-8.8 3.95-8.8 8.8 0 4.85 3.9 8.8 8.75 8.8 4.9 0 8.85-3.95 8.85-8.8z" fill="#fff"/>
    <path d="M41.5 47c-5.4 0-9.8-4.4-9.8-9.8s4.4-9.85 9.8-9.85 9.8 4.4 9.8 9.8S46.95 47 41.5 47zm0-17.65c-4.3 0-7.8 3.5-7.8 7.8 0 4.35 3.5 7.85 7.8 7.85s7.8-3.5 7.8-7.8c.05-4.3-3.45-7.85-7.8-7.85z" fill="#696666"/>
    <path d="M46.45 37.2c0-2.7-2.2-4.95-4.95-4.95-2.7 0-4.95 2.2-4.95 4.95 0 2.7 2.2 4.95 4.95 4.95 2.75-.05 4.95-2.25 4.95-4.95z" fill="#0479DC"/>
    <path d="m37.05 21.25-13.1 3.45-2.05-4.4L33 12.5" fill="#fff"/>
    <path d="M23.95 25.7c-.4 0-.75-.2-.9-.6L21 20.75c-.2-.45-.05-.95.35-1.25l11.05-7.8c.45-.35 1.1-.2 1.4.25.35.45.2 1.05-.25 1.4l-10.4 7.3 1.35 2.85 12.3-3.2c.55-.15 1.1.2 1.2.7.15.55-.2 1.1-.7 1.2l-13.1 3.45c-.1.05-.15.05-.25.05z" fill="#696666"/>
    <path d="M42.75 13.3c-1.35-2.85-4.75-4.1-7.6-2.75-2.85 1.35-4.1 4.7-2.75 7.6 1.35 2.85 4.7 4.1 7.6 2.75 2.85-1.35 4.05-4.75 2.75-7.6z" fill="#fff"/>
    <path d="M37.55 22.4c-2.6 0-5-1.5-6.1-3.9-.75-1.6-.85-3.45-.2-5.15.6-1.7 1.85-3 3.45-3.8.95-.35 1.9-.55 2.85-.55 2.6 0 5 1.55 6.1 3.9.75 1.6.85 3.45.2 5.1-.6 1.7-1.85 3-3.5 3.8-.85.4-1.8.6-2.8.6zm0-11.4c-.7 0-1.35.15-2 .45-1.15.55-2 1.45-2.45 2.65-.45 1.2-.4 2.45.15 3.6.75 1.65 2.45 2.75 4.25 2.75.7 0 1.35-.15 2-.45 1.15-.55 2-1.45 2.45-2.65.45-1.2.4-2.45-.15-3.6-.75-1.7-2.4-2.75-4.25-2.75z" fill="#696666"/>
    <path d="M39.9 14.6c-.6-1.3-2.15-1.85-3.45-1.25-1.3.6-1.85 2.15-1.25 3.45.6 1.3 2.15 1.85 3.45 1.25 1.3-.6 1.85-2.15 1.25-3.45z" fill="#0479DC"/>
    <path d="M16.75 30.4c-.55 0-1.15-.1-1.7-.3-.5-.2-.8-.75-.6-1.3.2-.5.75-.8 1.3-.6 1.55.55 3.3-.25 3.9-1.8.55-1.55-.25-3.3-1.8-3.9-1.55-.55-3.3.25-3.85 1.8-.2.5-.75.8-1.3.6-.5-.2-.8-.75-.6-1.3.95-2.6 3.85-3.95 6.45-3 2.6.95 3.95 3.85 3 6.45-.85 2.1-2.75 3.35-4.8 3.35z" fill="#696666"/>
    <path d="M20.4 24.7c-.4 0-.75-.2-.9-.6-.25-.5 0-1.1.5-1.35l2.35-1.1c.5-.25 1.1 0 1.35.5s0 1.1-.5 1.35l-2.35 1.1c-.2.05-.3.1-.45.1z" fill="#696666"/>
    <path d="M29.8 30.8h-6.5v4.75h6.5V30.8z" fill="#0479DC"/>
</svg>
