<svg width="60" height="60" viewBox="0 0 60 60" fill="none" xmlns="http://www.w3.org/2000/svg">
    <path d="M29.8 26.75c-.85 0-1.6-.35-2.2-.9-1.2-1.2-1.2-3.2 0-4.45.6-.6 1.4-.9 2.2-.9.85 0 1.6.35 2.2.9.6.6.9 1.4.9 2.2 0 .85-.35 1.6-.9 2.2-.6.6-1.4.95-2.2.95zm0-4.3c-.3 0-.6.1-.8.35-.45.45-.45 1.15 0 1.6.45.45 1.15.45 1.6 0 .2-.2.35-.5.35-.8 0-.3-.1-.6-.35-.8-.25-.2-.5-.35-.8-.35zM34.9 19.45c-.25 0-.5-.1-.7-.3a6.247 6.247 0 0 0-8.85 0c-.4.4-1 .4-1.4 0-.4-.4-.4-1 0-1.4 3.2-3.2 8.45-3.2 11.7 0 .4.4.4 1 0 1.4-.2.2-.5.3-.75.3z" fill="#fff"/>
    <path d="M38.7 15.7c-.25 0-.5-.1-.7-.3-4.55-4.55-11.9-4.55-16.4 0-.4.4-1 .4-1.4 0-.4-.4-.4-1 0-1.4 5.25-5.35 13.9-5.35 19.2 0 .4.4.4 1 0 1.4-.2.2-.45.3-.7.3zM15.4 35.25h23.65s-15-11.4-23.65 0zM19.7 48.3c-1.15 0-2.1-.6-2.65-1.55H14.9c.65 2.05 2.5 3.5 4.8 3.5s4.15-1.45 4.8-3.5h-2.15c-.55.9-1.5 1.55-2.65 1.55zM40 48.3c-1.15 0-2.1-.6-2.65-1.55H35.2c.65 2.05 2.5 3.5 4.8 3.5s4.15-1.45 4.8-3.5h-2.15c-.55.9-1.5 1.55-2.65 1.55z" fill="#fff"/>
    <path d="M52.9 37.65c-.95-2.1-3.1-3.4-5.4-3.4h-1.35c-1.15-.5-3.55-1.65-5.65-3.35-1.15-.9-7.35-5.55-14.95-5.55-5.7 0-10.65 2.6-14.8 7.7-4.05 1.4-6.3 6.4-3.5 10.7 1.25 1.9 3.4 3 5.65 3H47.25c4.4 0 7.75-4.5 5.65-9.1zm-1.95 5.3c-.65 1.1-1.9 1.8-3.2 1.8H12.65c-1.3 0-2.55-.5-3.35-1.5-2.8-3.3-1-7.45 2.3-8.4.15 0 .3-.1.4-.25 3.8-4.8 8.35-7.25 13.5-7.25 7.05 0 13.05 4.6 13.75 5.15.85.65 1.7 1.25 2.55 1.75H14.9c-.65 0-1.15.65-.95 1.35.15.4.55.65 1 .65H47.4c3.1 0 5.45 3.4 3.55 6.7z" fill="#fff"/>
</svg>
