<svg width="60" height="60" viewBox="0 0 60 60" fill="none" xmlns="http://www.w3.org/2000/svg">
    <path d="M47.95 50.4h-36.1c-2.65 0-5.05-1.75-5.7-4.35a5.75 5.75 0 0 1 5.6-7.15h36.1c2.65 0 5.05 1.75 5.7 4.35.85 3.75-2 7.15-5.6 7.15zm-36.3-9.5c-2.35 0-4.2 2.2-3.65 4.65.4 1.7 2 2.85 3.7 2.85h36.2c1.75 0 3.35-1.15 3.7-2.85.55-2.45-1.3-4.65-3.65-4.65h-36.3z" fill="#fff"/>
    <path d="M21.05 47.25c-1.5 0-2.75-1.25-2.75-2.75s1.25-2.75 2.75-2.75S23.8 43 23.8 44.5c-.05 1.5-1.25 2.75-2.75 2.75zm0-3.45c-.4 0-.75.35-.75.75s.35.75.75.75.75-.35.75-.75c-.05-.45-.35-.75-.75-.75zM29.85 47.25c-1.5 0-2.75-1.25-2.75-2.75s1.25-2.75 2.75-2.75S32.6 43 32.6 44.5c-.05 1.5-1.25 2.75-2.75 2.75zm0-3.45c-.4 0-.75.35-.75.75s.35.75.75.75.75-.35.75-.75c-.05-.45-.35-.75-.75-.75zM38.65 47.25c-1.5 0-2.75-1.25-2.75-2.75s1.25-2.75 2.75-2.75S41.4 43 41.4 44.5s-1.25 2.75-2.75 2.75zm0-3.45c-.4 0-.75.35-.75.75s.35.75.75.75.75-.35.75-.75c0-.45-.35-.75-.75-.75zM12.25 47.25C10.7 47.25 9.5 46 9.5 44.5s1.25-2.75 2.75-2.75S15 43 15 44.5c-.05 1.5-1.25 2.75-2.75 2.75zm0-3.45c-.4 0-.75.35-.75.75s.35.75.75.75.75-.35.75-.75c-.05-.45-.35-.75-.75-.75zM47.45 47.25c-1.5 0-2.75-1.25-2.75-2.75s1.25-2.75 2.75-2.75S50.2 43 50.2 44.5s-1.25 2.75-2.75 2.75zm0-3.45c-.4 0-.75.35-.75.75s.35.75.75.75.75-.35.75-.75c0-.45-.35-.75-.75-.75zM27.15 36.4h-13c-.55 0-1-.45-1-1v-9.5c0-.55.45-1 1-1h13c.55 0 1 .45 1 1v9.5c0 .55-.45 1-1 1zm-12-2h11v-7.5h-11v7.5zM45.65 36.4h-13c-.55 0-1-.45-1-1v-9.5c0-.55.45-1 1-1h13c.55 0 1 .45 1 1v9.5c0 .55-.45 1-1 1zm-12-2h11v-7.5h-11v7.5zM36.15 12.9h-6V11c0-.4-.25-.75-.65-.9-.35-.15-.8-.1-1.1.2l-5.55 5.4c-.2.2-.3.45-.3.7 0 .25.1.5.3.7l5.55 5.4c.2.2.5.3.75.3.15 0 .25-.05.35-.1.4-.15.65-.5.65-.9v-1.9h6c.55 0 1-.45 1-1v-5c0-.55-.45-1-1-1z" fill="#fff"/>
</svg>
