<svg width="60" height="60" viewBox="0 0 60 60" fill="none" xmlns="http://www.w3.org/2000/svg">
    <g clip-path="url(#zcqdykpx0a)" fill="#fff">
        <path d="M28.05 38c0-3.1-2.5-5.6-5.6-5.6-3.1 0-5.6 2.5-5.6 5.6 0 3.1 2.5 5.6 5.6 5.6 3.1 0 5.6-2.5 5.6-5.6z"/>
        <path d="M50.75 17.4c-.85-1.85-2.35-3.2-4.25-3.9-.85-.3-1.7-.45-2.6-.45-.55 0-1.1.05-1.6.2L27.75 10.7c-.45-.05-.95.2-1.1.65l-1.9 5.15c-.15.45.05.95.45 1.2l6.45 3.8-10.8 5.8c-4.95.7-8.9 4.75-9.45 9.75-.3 2.65.4 5.2 1.75 7.2l-4.5 7.8c-.2.3-.2.7 0 1 .15.3.5.5.85.5h25.85c.35 0 .7-.2.85-.5.2-.3.2-.7 0-1l-4.5-7.8c.4-.65.8-1.35 1.05-2.05L46.6 27.65s.05-.05.05-.1c1.95-.8 3.55-2.35 4.35-4.4.7-1.9.6-3.95-.25-5.75zm-23.8-1 1.3-3.6 11 1.9c-1.05.85-1.9 1.95-2.4 3.3-.1.3-.2.55-.25.85-.2.8-.25 1.6-.2 2.4 0 .25.05.55.1.8l-.8-.45-2.05-1.2-6.7-4zM19 29.65c.9-.35 1.9-.6 2.9-.65.2 0 .35-.05.55-.05 5 0 9.05 4.05 9.05 9.05 0 .5-.05 1-.1 1.45-.15.75-.35 1.5-.65 2.2-.05.15-.1.25-.15.35-.35.65-.75 1.3-1.25 1.85C27.7 45.8 25.2 47 22.45 47s-5.2-1.2-6.85-3.15c-.5-.55-.9-1.2-1.25-1.85-.6-1.2-.95-2.6-.95-4.05-.05-3.7 2.3-6.95 5.6-8.3zM33.65 51.6h-22.4l3.25-5.65c2 2.05 4.85 3.35 7.95 3.35 3.1 0 5.9-1.3 7.9-3.35l3.3 5.65zm-.15-13.05v-.3c0-5.3-3.7-9.7-8.7-10.8l8.9-4.75 4.25 2.45c.85 1.15 2.05 2 3.4 2.5.7.25 1.35.4 2.1.45L33.5 38.55zM49.15 22.5c-.5 1.5-1.7 2.65-3.1 3.2-.65.25-1.35.4-2.05.4-.15 0-.3 0-.5-.05-.5-.05-.95-.15-1.4-.3-.8-.3-1.5-.75-2.1-1.35-.2-.2-.35-.4-.55-.65-.2-.25-.35-.55-.5-.85-.3-.55-.45-1.2-.5-1.8-.05-.8.05-1.6.3-2.4 0-.05.05-.1.05-.2.65-1.6 2-2.8 3.7-3.25.3-.05.55-.1.85-.15.2 0 .35-.05.55-.05.6 0 1.25.1 1.9.35 1.4.5 2.5 1.5 3.1 2.85.7 1.35.75 2.85.25 4.25z"/>
        <path d="M46.7 21.6c.55-1.55-.25-3.25-1.75-3.8-1.55-.55-3.25.25-3.8 1.75-.55 1.55.25 3.25 1.75 3.8 1.55.6 3.25-.2 3.8-1.75zM26.8 13.2l-1.85-.75c.2-1.1.05-2.2-.45-3.25-1.3-2.8-4.6-4-7.4-2.7-.5.25-.75.85-.5 1.35.25.5.85.75 1.35.5 1.8-.85 3.9-.05 4.75 1.75.4.9.45 1.85.1 2.75-.3.9-1 1.6-1.85 2-.9.4-1.85.45-2.75.1-.9-.3-1.6-1-2-1.85-.25-.5-.85-.75-1.35-.5-.5.25-.75.85-.5 1.35.65 1.35 1.75 2.4 3.15 2.9.6.25 1.25.35 1.9.35.8 0 1.6-.2 2.4-.6 1.05-.5 1.9-1.25 2.45-2.2l1.9.75c.1.05.25.05.35.05.45 0 .75-.25.9-.7.15-.5-.15-1.1-.6-1.3z"/>
    </g>
    <defs>
        <clipPath id="zcqdykpx0a">
            <path fill="#fff" transform="translate(8.5 6)" d="M0 0h42.95v47.6H0z"/>
        </clipPath>
    </defs>
</svg>
