<svg width="60" height="60" viewBox="0 0 60 60" fill="none" xmlns="http://www.w3.org/2000/svg">
<path d="M30.0001 36.1001C29.8501 35.7501 29.6501 35.4001 29.4501 35.1001C28.3001 33.4501 26.4001 32.4001 24.2501 32.4001C22.0501 32.4001 20.1001 33.5501 18.9501 35.2501C18.7501 35.5501 18.5501 35.9001 18.4001 36.2501C18.2501 36.5501 18.1501 36.9001 18.0501 37.2501C17.9501 37.7501 17.8501 38.2001 17.8501 38.7501C17.8501 39.4501 17.9501 40.1001 18.1501 40.7501C18.2501 41.1001 18.4001 41.4501 18.6001 41.7501C18.8001 42.1001 19.0001 42.4501 19.2501 42.7501C20.4001 44.2001 22.2001 45.1001 24.1501 45.1001C26.1501 45.1001 27.9001 44.2001 29.0501 42.7501C29.3001 42.4501 29.5501 42.1001 29.7001 41.7501C29.8501 41.4501 30.0001 41.1001 30.1501 40.7501C30.3501 40.1001 30.4501 39.4501 30.4501 38.7501C30.4501 38.2001 30.3501 37.6501 30.2501 37.1501C30.3001 36.7501 30.1501 36.4501 30.0001 36.1001ZM27.4001 41.7501C27.0001 42.1501 26.5001 42.5001 25.9501 42.7501C25.4501 42.9501 24.8501 43.1001 24.2501 43.1001C23.6501 43.1001 23.1001 43.0001 22.5501 42.7501C22.0001 42.5001 21.5001 42.1501 21.1001 41.7501C20.8001 41.4501 20.5501 41.1001 20.4001 40.7501C20.1001 40.1501 19.9001 39.5001 19.9001 38.7501C19.9001 38.2001 20.0001 37.7001 20.1501 37.2501C20.3001 36.9001 20.4501 36.5501 20.7001 36.2501C21.0001 35.8501 21.3001 35.5001 21.7001 35.2501C22.4001 34.7501 23.3001 34.4501 24.2001 34.4501C25.1001 34.4501 25.9501 34.7501 26.6501 35.2001C27.0501 35.4501 27.4001 35.8001 27.7001 36.2001C27.9501 36.5001 28.1001 36.8501 28.2501 37.2001C28.4501 37.7001 28.5501 38.2501 28.5501 38.8001C28.5501 39.5001 28.3501 40.2001 28.0501 40.8001C27.9001 41.1001 27.7001 41.4501 27.4001 41.7501Z" fill="white"/>
<path d="M36.3 24.9001C36.7 24.9001 37.05 24.7001 37.2 24.3001L39.4 19.5501C39.6 19.1001 39.45 18.6001 39.05 18.3001L27.55 10.2001C26.85 9.10011 25.8 8.20012 24.6 7.65012C23.4 7.10012 22.15 6.90012 20.8 7.00012C18.7 7.20012 16.75 8.40012 15.6 10.1501C14.3 12.1501 14.05 14.5001 14.8 16.6501C14.85 16.8001 14.9 16.9501 15 17.1001C15 17.1501 15 17.1501 15 17.2001L14.55 34.6001C14.05 35.8501 13.75 37.2001 13.75 38.6501C13.75 40.7501 14.35 42.7001 15.45 44.3501L11.15 51.8001C10.95 52.1001 10.95 52.5001 11.15 52.8001C11.35 53.1001 11.65 53.3001 12 53.3001H36.55C37.1 53.3001 37.55 52.8501 37.55 52.3001C37.55 52.0501 37.45 51.8501 37.35 51.7001L33.15 44.4001C34.2 42.7501 34.85 40.8001 34.85 38.7001C34.85 35.8001 33.65 33.1501 31.75 31.2501L29.3 23.1001L36.1 24.8501C36.1 24.9001 36.2 24.9001 36.3 24.9001ZM32.8 38.7501C32.8 40.0501 32.5 41.3001 31.95 42.4501C31.8 42.8001 31.6 43.1501 31.4 43.4501C31.2 43.7501 31 44.0501 30.75 44.3001C29.2 46.1001 26.85 47.3001 24.3 47.3001C21.7 47.3001 19.4 46.1501 17.85 44.3001C17.6 44.0501 17.4 43.7501 17.2 43.4501C17 43.1501 16.8 42.8001 16.65 42.4501C16.1 41.3501 15.8 40.1001 15.8 38.7501C15.8 38.2501 15.85 37.7501 15.95 37.3001C16 36.9501 16.1 36.6001 16.2 36.3001C16.3 35.9001 16.45 35.5501 16.65 35.1501C18 32.2501 20.95 30.2001 24.4 30.2001C26.6 30.2001 28.6 31.0501 30.1 32.4001C30.75 33.0001 31.3 33.6501 31.75 34.4001C32.2 35.2001 32.55 36.0501 32.75 36.9501C32.75 37.5501 32.8 38.1501 32.8 38.7501ZM13.75 51.3001L16.75 46.0501C18.65 48.0001 21.3 49.2001 24.25 49.2001C27.2 49.2001 29.85 48.0001 31.75 46.0501L34.75 51.3001H13.75ZM21.55 9.05011C22.3 9.05011 23.05 9.20011 23.7 9.55011C24.4 9.85011 25 10.3501 25.5 10.9001C25.7 11.1501 25.9 11.4001 26.05 11.7001C26.05 11.7001 26.05 11.7001 26.05 11.7501C26.2 12.0001 26.3 12.2501 26.4 12.5001C26.85 13.7501 26.8 15.0501 26.3 16.3001C26.3 16.3501 26.25 16.4001 26.25 16.4501C26.1 16.7501 25.95 17.0001 25.75 17.3001C25.5 17.7001 25.15 18.0001 24.8 18.3001C24.15 18.8501 23.35 19.2001 22.55 19.3501H22.5C22.2 19.4001 21.9 19.4501 21.55 19.4501C20.8 19.4501 20.05 19.3001 19.4 18.9501C19 18.7501 18.65 18.5501 18.3 18.2501C17.95 17.9501 17.65 17.6001 17.35 17.2501C17.15 16.9501 16.95 16.6001 16.8 16.2501C16.75 16.1501 16.75 16.1001 16.7 16.0001C16.2 14.7001 16.3 13.3001 16.85 12.0501C17.7 10.2501 19.55 9.05011 21.55 9.05011ZM24.25 28.2001C21.25 28.2001 18.55 29.4501 16.6 31.5001L16.9 19.7001C17.4 20.1001 17.9 20.4501 18.5 20.7501C19.45 21.2001 20.45 21.4001 21.5 21.4001C21.8 21.4001 22.05 21.4001 22.35 21.3501L26.95 22.5501L29 29.3501C27.6 28.6001 26 28.2001 24.25 28.2001ZM27.45 20.6001L26.3 20.3001L25.6 20.1001C25.8 20.0001 25.95 19.8501 26.1 19.7001C26.4 19.4501 26.65 19.2001 26.9 18.9001C27.15 18.6001 27.4 18.2501 27.65 17.9001C27.8 17.7001 27.9 17.4501 28 17.2001C28.55 16.0001 28.75 14.7501 28.65 13.5001L37.2 19.5001L35.7 22.7001L28.55 20.8501L27.45 20.6001Z" fill="white"/>
<path d="M18.7 16.25C19 16.65 19.35 17 19.8 17.25C19.9 17.3 20 17.35 20.1 17.4C20.55 17.6 21.05 17.7 21.55 17.7C22.2 17.7 22.75 17.5 23.3 17.2C23.4 17.15 23.5 17.1 23.6 17C23.9 16.8 24.2 16.5 24.4 16.2C24.5 16.05 24.65 15.85 24.7 15.65C24.95 15.1 25.05 14.5 25 13.9C24.95 13.6 24.9 13.3 24.8 13C24.5 12.15 23.85 11.45 23 11.1C22.55 10.9 22.05 10.8 21.55 10.8C20.2 10.8 18.95 11.6 18.4 12.8C18 13.65 17.95 14.6 18.3 15.45C18.4 15.75 18.55 16 18.7 16.25ZM20.2 13.6C20.45 13.1 20.95 12.75 21.55 12.75C21.75 12.75 21.95 12.8 22.15 12.9C22.5 13.05 22.8 13.35 22.9 13.75C23.05 14.1 23 14.5 22.85 14.9C22.5 15.6 21.6 15.95 20.9 15.6C20.55 15.45 20.25 15.15 20.15 14.75C20 14.4 20.05 13.95 20.2 13.6Z" fill="white"/>
<path d="M44.0499 30.0501C43.2999 30.0501 42.4999 29.9001 41.7999 29.5501C40.4999 28.9501 39.4999 27.9001 39.0499 26.5501C38.5499 25.2001 38.5999 23.7501 39.1999 22.4501C39.7999 21.1501 40.8499 20.1501 42.1999 19.7001C44.9499 18.7001 48.0499 20.1001 49.0499 22.9001C49.2499 23.4001 48.9499 24.0001 48.4499 24.2001C47.9499 24.4001 47.3499 24.1001 47.1499 23.6001C46.4999 21.8501 44.5999 20.9501 42.8499 21.6001C41.9999 21.9001 41.3499 22.5001 40.9499 23.3501C40.5499 24.1501 40.5499 25.0501 40.8499 25.9001C41.1499 26.7501 41.7499 27.4001 42.5999 27.8001C43.3999 28.2001 44.2999 28.2001 45.1499 27.9001C45.6499 27.7001 46.2499 28.0001 46.4499 28.5001C46.6499 29.0001 46.3499 29.6001 45.8499 29.8001C45.2999 29.9501 44.6999 30.0501 44.0499 30.0501Z" fill="white"/>
<path d="M40.1499 23.8502C39.9999 23.8502 39.8499 23.8002 39.7499 23.7502L37.1999 22.5502C36.6999 22.3002 36.4999 21.7002 36.6999 21.2002C36.9499 20.7002 37.5499 20.5002 38.0499 20.7002L40.5999 21.9002C41.0999 22.1502 41.2999 22.7502 41.0999 23.2502C40.8499 23.6502 40.4999 23.8502 40.1499 23.8502Z" fill="white"/>
</svg>
