<svg width="60" height="60" viewBox="0 0 60 60" fill="none" xmlns="http://www.w3.org/2000/svg">
    <path d="m3.955 47.207 1.34 3.166c.195.485.53.903.965 1.2.434.296.948.459 1.475.467h39.543a2.62 2.62 0 0 0 1.76-.693l3.076-2.83c.46-.42.905-.86 1.345-1.31H3.955zM44.953 14.679c1.248 0 2.26-1.001 2.26-2.236 0-1.235-1.012-2.236-2.26-2.236-1.248 0-2.26 1.001-2.26 2.236 0 1.235 1.012 2.236 2.26 2.236z" fill="#0479DC"/>
    <path d="M59.75 38.417c-.157-.289-.39-.53-.674-.699a1.84 1.84 0 0 0-.942-.255H34.882v-3.601a1.89 1.89 0 0 0-.562-1.339 1.93 1.93 0 0 0-1.353-.556h-5.835V25.18c-.002-.5-.203-.98-.561-1.334a1.926 1.926 0 0 0-1.35-.555h-.114l15.4-7.643a5.509 5.509 0 0 0 3.501 2.157v14.028a.95.95 0 0 0 .258.723.971.971 0 0 0 .71.306.98.98 0 0 0 .71-.306.958.958 0 0 0 .257-.723V17.795a5.528 5.528 0 0 0 2.533-1.17 5.444 5.444 0 0 0 1.625-2.25 5.386 5.386 0 0 0-.81-5.288 5.494 5.494 0 0 0-2.225-1.673 5.555 5.555 0 0 0-5.368.646 5.452 5.452 0 0 0-1.755 2.152L13.096 23.29H10.64c-.507 0-.994.199-1.353.553a1.884 1.884 0 0 0-.562 1.336v6.787H8.14a1.93 1.93 0 0 0-1.353.556 1.89 1.89 0 0 0-.563 1.339v3.6h-3.92a2.294 2.294 0 0 0-1.077.274c-.331.178-.612.434-.818.746a2.402 2.402 0 0 0-.22 2.275l4.225 9.987c.267.66.726 1.227 1.32 1.628.592.402 1.292.62 2.01.628h39.543a3.581 3.581 0 0 0 2.416-.95l3.08-2.83a32.62 32.62 0 0 0 5.44-6.504l1.47-2.315a1.915 1.915 0 0 0 .055-1.984zM36.476 15.51l-2.14-.436 2.76-1.345-.614 1.78h-.005zm-4.26.598 2.165.445-2.86 1.43.645-1.835.05-.04zm-2.545 2.76-2.115-.494 2.76-1.346-.645 1.84zm-4.165.495 2.17.495-2.915 1.444.71-1.934.035-.005zm-2.635 2.889-2.316-.495 3.056-1.484-.74 1.979zm15.46-7.677.61-1.756.5-.253c.01.457.078.911.206 1.35l-1.315.659zM44.954 8.9a3.598 3.598 0 0 1 1.982.598 3.54 3.54 0 0 1 1.313 1.586 3.497 3.497 0 0 1-.777 3.847 3.606 3.606 0 0 1-3.89.763 3.563 3.563 0 0 1-1.602-1.3 3.505 3.505 0 0 1-.601-1.962 3.512 3.512 0 0 1 1.05-2.493 3.59 3.59 0 0 1 2.525-1.03V8.9zM18.416 22.816l2.265.465h-3.215l.95-.465zM8.131 33.87h1.555a.967.967 0 0 0 .893-.588.942.942 0 0 0 .072-.366v-7.722h14.54v6.787h-8.8a.974.974 0 0 0-.64.303.954.954 0 0 0 0 1.308.974.974 0 0 0 .64.303h16.556v3.581H8.151l-.02-3.606zm48.453 7.796a30.652 30.652 0 0 1-5.13 6.144l-3.076 2.82c-.297.277-.69.433-1.1.435H7.735a1.708 1.708 0 0 1-.937-.304 1.68 1.68 0 0 1-.608-.77l-4.225-9.987a.49.49 0 0 1 .045-.494.327.327 0 0 1 .285-.169H58.06l-1.475 2.325z" fill="#696666"/>
    <path d="M48.658 30.977h-7.35a.527.527 0 0 0-.53.525v3.65c0 .29.237.525.53.525h7.35c.293 0 .53-.235.53-.524v-3.651a.527.527 0 0 0-.53-.524z" fill="#0479DC"/>
</svg>
