<svg width="184" height="32" viewBox="0 0 184 32" fill="none" xmlns="http://www.w3.org/2000/svg">
<g style="mix-blend-mode:darken" clip-path="url(#clip0)">
<path d="M4.06784 0H0V19.8601H4.06784V0Z" fill="#00235D"/>
<path d="M16.2156 19.8601H11.9248L6.0181 11.9161C5.73948 11.5804 5.51659 11.3007 5.29369 10.965C5.01507 10.5734 4.8479 10.2378 4.8479 9.95804C4.8479 9.56643 5.23797 8.83916 6.0181 7.77622L11.8134 0H16.1598L8.86001 9.95804L16.2156 19.8601Z" fill="#00235D"/>
<path d="M51.2657 32H55.6679L46.6964 19.8601H42.2942L51.2657 32Z" fill="#F15C21"/>
<path d="M49.3713 11.8041C48.8698 11.1328 49.7056 10.8531 49.7056 10.8531C50.1514 10.6852 50.5972 10.5734 50.9873 10.4055C51.043 10.3496 51.1544 10.3496 51.2102 10.2936C52.8819 9.51042 54.1078 7.94398 54.275 5.98594C54.275 5.81811 54.3307 5.59433 54.3307 5.4265C54.3307 5.20273 54.3307 5.03489 54.275 4.81112C54.0521 2.18175 51.8231 0.111816 49.0926 0.111816C49.0926 0.111816 49.0926 0.111816 49.0369 0.111816C48.814 0.111816 48.7026 0.111816 48.7026 0.111816C48.5354 0.111816 48.424 0.111816 48.2568 0.111816H41.0127C40.957 0.111816 40.957 0.111816 40.9013 0.111816C40.5112 0.111816 40.1768 0.223705 39.8982 0.335593C39.8425 0.335593 39.8425 0.391537 39.7868 0.391537C39.7868 0.391537 39.7868 0.391537 39.7311 0.391537C39.2853 0.615313 38.9509 1.00692 38.728 1.39853C38.5609 1.79014 38.5051 2.18175 38.5051 2.46147V2.51741V19.8601H42.3501V4.36357V2.96496H43.2416H44.4118H47.8667H48.0339C48.0339 2.96496 48.0339 2.96496 48.0896 2.96496H48.1453C49.3155 2.96496 49.7613 3.1328 49.7613 3.1328C50.43 3.30063 50.9315 3.80412 51.2102 4.36357C51.2659 4.47545 51.2659 4.5314 51.3216 4.64329C51.3773 4.75517 51.3773 4.86706 51.3773 4.97895V5.03489C51.3773 5.14678 51.3773 5.20273 51.3773 5.31461V5.37056C51.3773 5.37056 51.3773 5.37056 51.3773 5.4265V5.48245C51.3773 5.59433 51.3773 5.70622 51.3216 5.81811C51.2101 6.4335 50.8758 6.93699 50.3743 7.27266C50.3186 7.3286 49.8728 7.66426 49.0926 7.99993C48.9812 8.05587 48.814 8.11182 48.6469 8.22371C47.6996 8.67126 46.9751 8.95098 46.5851 9.11881C46.4179 9.17475 46.3065 9.28664 46.195 9.34259C46.1393 9.34259 46.1393 9.39853 46.0836 9.39853C45.9721 9.45447 45.9164 9.51042 45.8607 9.62231C45.6935 9.79014 45.582 9.90203 45.5263 9.95797C45.3592 10.1817 45.2477 10.5174 45.192 10.7971C45.192 10.909 45.1363 11.4685 45.3592 12.0838C45.4149 12.1957 45.4706 12.3076 45.582 12.4755C45.582 12.5314 45.6378 12.5314 45.6378 12.5314C45.8049 12.8111 45.9721 13.0349 46.2507 13.3706L60.0145 31.944H64.361L49.3713 11.8041Z" fill="#00235D"/>
<path d="M30.0908 2.18178L30.0351 2.06989C29.5893 1.0629 28.6977 0.279684 27.5832 0.0559082C27.5832 0.0559082 27.5832 0.0559082 27.5275 0.0559082C27.4718 0.0559082 27.4161 0.0559082 27.3603 0.0559082C27.1932 0.0559082 27.026 0.0559082 26.8588 0.0559082C26.6917 0.0559082 26.5245 0.0559082 26.3573 0.0559082C26.3016 0.0559082 26.2459 0.0559082 26.1901 0.0559082C26.1901 0.0559082 26.1901 0.0559082 26.1344 0.0559082C25.0199 0.279684 24.1284 1.0629 23.6826 2.06989L23.6268 2.18178L16.2156 19.8601H20.2834L25.8558 6.76919L26.8588 4.3636L27.8618 6.76919L33.4342 19.8601H37.5021L30.0908 2.18178Z" fill="#00235D"/>
<path d="M27.4159 0.0559441C27.2488 0 27.0816 0 26.8587 0C26.6915 0 26.5243 0 26.3572 0.0559441C26.5243 0 26.6915 0 26.8587 0C27.0816 0 27.2488 0 27.4159 0.0559441Z" fill="#00235D"/>
<path d="M76.5643 8.72749C76.9544 9.00721 77.2887 9.34287 77.5116 9.79042C77.7345 10.238 77.846 10.6855 77.846 11.1331C77.846 12.0282 77.5116 12.7555 76.7872 13.3708C76.1185 13.9862 75.2827 14.3219 74.3354 14.3219C73.3881 14.3219 72.5522 13.9862 71.8835 13.3708C71.2148 12.7555 70.8248 11.9722 70.8248 11.1331C70.8248 10.6296 70.9362 10.182 71.1591 9.79042C71.382 9.34287 71.7163 9.00721 72.1064 8.72749H70.3232V7.44077H73.2209V5.76245H75.5056V7.44077H78.4032V8.72749H76.5643V8.72749ZM75.1155 18.5736H82.2481V19.8604H74.3911C73.9453 19.8604 73.5552 19.7485 73.2766 19.4687C72.998 19.189 72.8308 18.8534 72.8308 18.3499V15.3289H75.1155V18.5736ZM73.3881 9.73448C73.1094 10.1261 72.9423 10.5736 72.9423 11.1331C72.9423 11.6925 73.1094 12.1401 73.3881 12.5317C73.6667 12.9233 74.001 13.1471 74.3354 13.1471C74.6697 13.1471 75.004 12.9233 75.2827 12.5317C75.5613 12.1401 75.6727 11.6925 75.6727 11.1331C75.6727 10.5736 75.5613 10.1261 75.2827 9.73448C75.004 9.34287 74.6697 9.17504 74.3354 9.17504C73.9453 9.17504 73.6667 9.34287 73.3881 9.73448ZM79.5177 16.224V5.93028H81.8024V9.17504H84.087V10.4618H81.8024V16.224H79.5177Z" fill="black"/>
<path d="M86.3718 6.04199H96.0677V9.11892C96.0677 9.51052 96.012 9.90213 95.9006 10.3497C95.7891 10.7972 95.6777 11.1329 95.5105 11.3007H97.6837V12.5874H92.3342V14.8252H96.012V19.8602H93.7273V16.1119H86.3161V14.8252H90.0496V12.5874H84.8115V11.3007H93.5044C93.6159 11.021 93.6716 10.6853 93.7273 10.2937C93.783 9.90213 93.7831 9.51052 93.7831 9.11892V7.27276H86.3718V6.04199Z" fill="black"/>
<path d="M108.216 9.5664V7.44052H100.804V6.15381H110.5V10.8531H103.2V12.7552H110.779V14.0419H106.823V16.5594H111.893V17.8461H99.5227V16.5594H104.594V14.0419H102.42C101.919 14.0419 101.584 13.93 101.306 13.6503C101.027 13.4265 100.916 13.0349 100.916 12.5874V9.5664H108.216Z" fill="black"/>
<path d="M126.549 14.042H113.732V12.7553H119.026V11.4686H116.964C116.518 11.4686 116.128 11.3008 115.85 11.0211C115.571 10.7413 115.404 10.3497 115.404 9.90217V5.98608H117.689V7.49657H122.704V5.98608H124.988V11.4127H121.366V12.6994H126.66V14.042H126.549ZM122.648 17.9022C123.595 18.5735 124.71 18.9092 125.991 18.9651L124.877 20.084C123.985 20.084 123.094 19.9162 122.091 19.5805C121.088 19.2448 120.419 18.7413 120.14 18.07C119.806 18.7413 119.193 19.2448 118.19 19.5805C117.187 19.9162 116.295 20.084 115.46 20.084L114.345 18.9651C115.627 18.9092 116.741 18.5735 117.633 17.9022C118.524 17.2308 118.97 16.5036 118.97 15.7763V14.8252H121.311V15.7763C121.311 16.5036 121.756 17.2308 122.648 17.9022ZM122.648 8.83923H117.633V10.1259H122.648V8.83923Z" fill="black"/>
<path d="M133.068 6.15371V8.33553C133.068 9.62224 133.403 10.6852 134.127 11.5243C134.851 12.3635 135.632 12.867 136.579 13.0348L135.464 13.9859C134.74 13.9299 134.016 13.6502 133.291 13.1467C132.567 12.6432 132.121 12.0838 131.898 11.4684C131.731 12.0838 131.285 12.6432 130.505 13.1467C129.781 13.6502 129.056 13.9299 128.332 14.0418L127.217 13.0908C128.165 12.9229 128.945 12.4194 129.669 11.5803C130.394 10.7411 130.728 9.67818 130.728 8.44741V6.15371H133.068ZM132.678 18.5733H139.978V19.86H132.01C131.564 19.86 131.174 19.7481 130.895 19.4684C130.616 19.1887 130.449 18.853 130.449 18.3495V15.2166H132.734V18.5733H132.678ZM137.192 16.2236V5.92993H139.477V8.89497H141.761V10.1817H139.477V16.2236H137.192Z" fill="black"/>
<path d="M154.578 5.92997V13.1467H152.293V9.95794H150.399C150.287 10.7971 149.841 11.5244 149.117 12.1398C148.393 12.7551 147.557 13.0349 146.554 13.0349C145.495 13.0349 144.603 12.6992 143.823 11.9719C143.043 11.3006 142.709 10.4614 142.709 9.45444C142.709 8.50339 143.099 7.66423 143.823 6.93696C144.603 6.26563 145.495 5.87402 146.554 5.87402C147.501 5.87402 148.281 6.15374 149.005 6.65724C149.674 7.16074 150.176 7.83206 150.343 8.61528H152.293V5.87402H154.578V5.92997ZM145.495 7.88801C145.161 8.33556 144.993 8.83906 144.993 9.51039C144.993 10.1258 145.161 10.6852 145.439 11.1328C145.774 11.5803 146.108 11.8041 146.554 11.8041C146.999 11.8041 147.334 11.5803 147.668 11.1328C148.002 10.6852 148.17 10.1817 148.17 9.51039C148.17 8.895 148.002 8.33556 147.724 7.88801C147.39 7.44046 147.055 7.21668 146.609 7.21668C146.164 7.21668 145.829 7.44046 145.495 7.88801ZM147.501 14.0978V15.7761H152.182V14.0978H154.466V19.916H146.832C146.331 19.916 145.941 19.7481 145.662 19.4684C145.383 19.1887 145.216 18.7971 145.216 18.3495V14.0419H147.501V14.0978ZM152.182 17.0628H147.501V18.6293H152.182V17.0628Z" fill="black"/>
<path d="M163.661 8.61539C163.772 8.67133 163.884 8.78322 163.939 8.89511C164.051 9.007 164.106 9.11889 164.218 9.23077H166.781V5.93008H169.066V13.7622H166.781V12.9231H163.828C163.494 13.2028 163.159 13.4266 162.713 13.5944C162.268 13.7622 161.822 13.8741 161.32 13.8741C160.373 13.8741 159.593 13.5944 158.868 12.979C158.2 12.3636 157.865 11.6364 157.865 10.8532C157.865 10.4056 157.977 10.014 158.144 9.62238C158.367 9.23077 158.59 8.89511 158.924 8.61539H157.252V7.38462H160.15V5.7063H162.435V7.38462H165.332V8.61539H163.661V8.61539ZM161.933 14.5455V16H166.67V14.5455H168.954V19.9161H161.265C160.819 19.9161 160.429 19.7483 160.15 19.4685C159.871 19.1888 159.704 18.7972 159.704 18.3497V14.5455H161.933ZM160.373 9.51049C160.094 9.9021 159.983 10.2937 159.983 10.8532C159.983 11.3566 160.094 11.8042 160.373 12.1399C160.652 12.5315 160.93 12.6993 161.32 12.6993C161.655 12.6993 161.989 12.5315 162.268 12.1399C162.546 11.7483 162.658 11.3566 162.658 10.8532C162.658 10.3497 162.546 9.9021 162.268 9.51049C161.989 9.11889 161.71 8.95105 161.32 8.95105C160.93 8.95105 160.652 9.11889 160.373 9.51049ZM166.614 17.2867H161.878V18.6294H166.614V17.2867ZM166.781 10.4615H164.719C164.719 10.5175 164.719 10.5734 164.719 10.6294C164.719 10.6853 164.719 10.7413 164.719 10.7972C164.719 10.965 164.719 11.0769 164.664 11.2448C164.664 11.4126 164.608 11.5245 164.552 11.6364H166.725V10.4615H166.781Z" fill="black"/>
<path d="M172.019 7.49644H174.917V5.81812H177.202V7.49644H180.099V8.78315H178.539C178.818 9.06287 179.096 9.39853 179.264 9.79014C179.431 10.1818 179.542 10.5734 179.542 11.0209C179.542 11.6922 179.319 12.3076 178.873 12.8671C178.428 13.4265 177.87 13.8181 177.202 14.0419V15.0489H178.929C179.431 15.0489 179.876 14.9929 180.267 14.937C180.657 14.8811 180.991 14.8251 181.27 14.7132V5.93H183.554V19.8601H181.27V15.7762C180.935 15.944 180.601 16.0559 180.155 16.1118C179.709 16.2237 179.263 16.2237 178.818 16.2237H171.908V14.937H174.917V13.9859C174.248 13.7622 173.691 13.3706 173.245 12.8111C172.8 12.2517 172.577 11.6363 172.577 10.965C172.577 10.5174 172.688 10.1258 172.855 9.7342C173.022 9.34259 173.301 9.00693 173.58 8.72721H172.019V7.49644V7.49644ZM175.14 9.62231C174.861 10.0139 174.75 10.4615 174.75 11.0209C174.75 11.5244 174.861 11.972 175.14 12.4195C175.419 12.8111 175.697 13.0349 176.032 13.0349C176.366 13.0349 176.7 12.8111 176.979 12.4195C177.257 12.0279 177.369 11.5804 177.369 11.0209C177.369 10.5174 177.257 10.0139 176.979 9.62231C176.7 9.2307 176.422 9.00693 176.032 9.00693C175.753 9.00693 175.419 9.2307 175.14 9.62231Z" fill="black"/>
<path d="M70.0447 22.042H70.7134V24.5595C70.8249 24.3357 70.992 24.1679 71.1035 24L72.7195 22.042H73.5553L71.6607 24.2798L73.6668 27.3007H72.8867L71.1592 24.7273L70.6577 25.2867V27.3007H69.989V22.042H70.0447Z" fill="black"/>
<path d="M77.5674 25.3426C77.5674 26.7412 76.62 27.3565 75.7285 27.3565C74.7254 27.3565 73.9453 26.6293 73.9453 25.3985C73.9453 24.1677 74.7812 23.3845 75.7842 23.3845C76.8429 23.4405 77.5674 24.2237 77.5674 25.3426ZM74.614 25.3985C74.614 26.2377 75.0598 26.8531 75.7285 26.8531C76.3972 26.8531 76.8429 26.2377 76.8429 25.3985C76.8429 24.7831 76.5086 23.944 75.7285 23.944C74.9483 23.944 74.614 24.6712 74.614 25.3985Z" fill="black"/>
<path d="M78.4034 24.6712C78.4034 24.2237 78.4034 23.8321 78.3477 23.4964H78.9606V24.2237H79.0163C79.1835 23.7202 79.5736 23.3845 80.0751 23.3845C80.1308 23.3845 80.1865 23.3845 80.2423 23.3845V23.9999C80.1865 23.9999 80.0751 23.9999 80.0194 23.9999C79.5179 23.9999 79.1835 24.3915 79.1278 24.895C79.1278 25.0069 79.0721 25.1188 79.0721 25.2307V27.2447H78.4034V24.6712V24.6712Z" fill="black"/>
<path d="M81.2453 25.5106C81.2453 26.4057 81.8583 26.7973 82.5269 26.7973C83.0284 26.7973 83.3071 26.6854 83.5857 26.6295L83.6971 27.133C83.4742 27.2449 83.0284 27.3568 82.4712 27.3568C81.301 27.3568 80.6323 26.5735 80.6323 25.4547C80.6323 24.3358 81.301 23.4407 82.3598 23.4407C83.5857 23.4407 83.92 24.5036 83.92 25.2309C83.92 25.3428 83.92 25.4547 83.92 25.5665H81.2453V25.5106ZM83.2513 25.0071C83.2513 24.5596 83.0842 23.8882 82.304 23.8882C81.6354 23.8882 81.301 24.5036 81.2453 25.0071H83.2513Z" fill="black"/>
<path d="M87.3747 26.3498C87.3747 26.6854 87.3747 26.9652 87.4305 27.2449H86.8175L86.7618 26.7973C86.5389 27.077 86.1488 27.3568 85.5916 27.3568C84.8115 27.3568 84.4214 26.7973 84.4214 26.2938C84.4214 25.3987 85.2015 24.8952 86.6503 24.8952V24.8393C86.6503 24.5036 86.5389 23.9442 85.8145 23.9442C85.4801 23.9442 85.0901 24.0561 84.8672 24.2239L84.7 23.7763C85.0343 23.5526 85.4801 23.4407 85.9259 23.4407C87.0961 23.4407 87.3747 24.2239 87.3747 24.9512V26.3498ZM86.7061 25.3428C85.9817 25.3428 85.1458 25.4547 85.1458 26.1819C85.1458 26.6295 85.4244 26.8533 85.7588 26.8533C86.2603 26.8533 86.5389 26.5176 86.6503 26.2379C86.6503 26.1819 86.7061 26.07 86.7061 26.0141V25.3428V25.3428Z" fill="black"/>
<path d="M90.9412 25.6224L90.384 27.2448H89.7153L91.4985 22.042H92.3343L94.1175 27.2448H93.3931L92.8359 25.6224H90.9412V25.6224ZM92.6687 25.1189L92.1672 23.6084C92.0557 23.2728 91.9443 22.9371 91.8885 22.6574C91.8328 22.993 91.7214 23.2728 91.6099 23.6084L91.1084 25.1189H92.6687Z" fill="black"/>
<path d="M94.6747 26.5735C94.8976 26.6854 95.2319 26.8533 95.5663 26.8533C96.0678 26.8533 96.2907 26.6295 96.2907 26.2938C96.2907 25.9582 96.1235 25.7903 95.622 25.6225C94.9533 25.3987 94.619 25.0071 94.619 24.5596C94.619 23.9442 95.1205 23.4407 95.9006 23.4407C96.2907 23.4407 96.625 23.5526 96.8479 23.6644L96.6807 24.1679C96.5136 24.0561 96.2907 23.9442 95.9006 23.9442C95.5105 23.9442 95.2876 24.1679 95.2876 24.4477C95.2876 24.7833 95.5105 24.8952 96.012 25.0631C96.6807 25.2868 97.0151 25.6225 97.0151 26.1819C97.0151 26.8533 96.5136 27.3008 95.622 27.3008C95.2319 27.3008 94.8418 27.1889 94.5632 27.0211L94.6747 26.5735Z" fill="black"/>
<path d="M97.7394 26.5735C97.9623 26.6854 98.2967 26.8533 98.631 26.8533C99.1325 26.8533 99.3554 26.6295 99.3554 26.2938C99.3554 25.9582 99.1883 25.7903 98.6867 25.6225C98.0181 25.3987 97.6837 25.0071 97.6837 24.5596C97.6837 23.9442 98.1852 23.4407 98.9654 23.4407C99.3554 23.4407 99.6898 23.5526 99.8569 23.6644L99.6898 24.1679C99.5226 24.0561 99.2997 23.9442 98.9096 23.9442C98.5196 23.9442 98.2967 24.1679 98.2967 24.4477C98.2967 24.7833 98.5196 24.8952 99.0211 25.0631C99.6898 25.2868 100.024 25.6225 100.024 26.1819C100.024 26.8533 99.5226 27.3008 98.631 27.3008C98.241 27.3008 97.8509 27.1889 97.5723 27.0211L97.7394 26.5735Z" fill="black"/>
<path d="M104.259 25.3426C104.259 26.7412 103.312 27.3565 102.42 27.3565C101.417 27.3565 100.637 26.6293 100.637 25.3985C100.637 24.1677 101.473 23.3845 102.476 23.3845C103.535 23.4405 104.259 24.2237 104.259 25.3426ZM101.306 25.3985C101.306 26.2377 101.752 26.8531 102.42 26.8531C103.089 26.8531 103.535 26.2377 103.535 25.3985C103.535 24.7831 103.201 23.944 102.42 23.944C101.64 23.944 101.306 24.6712 101.306 25.3985Z" fill="black"/>
<path d="M107.77 27.133C107.603 27.2449 107.212 27.3568 106.711 27.3568C105.596 27.3568 104.872 26.5735 104.872 25.4547C104.872 24.2798 105.652 23.4407 106.878 23.4407C107.268 23.4407 107.658 23.5526 107.825 23.6085L107.658 24.112C107.491 24.0001 107.212 23.9442 106.878 23.9442C106.042 23.9442 105.541 24.5596 105.541 25.3428C105.541 26.1819 106.098 26.7414 106.822 26.7414C107.212 26.7414 107.491 26.6295 107.658 26.5735L107.77 27.133Z" fill="black"/>
<path d="M109.33 22.4336C109.33 22.6574 109.163 22.8252 108.884 22.8252C108.661 22.8252 108.494 22.6574 108.494 22.4336C108.494 22.2099 108.661 21.9861 108.94 21.9861C109.163 22.042 109.33 22.2099 109.33 22.4336ZM108.606 23.4966H109.274V27.2448H108.606V23.4966Z" fill="black"/>
<path d="M113.008 26.3498C113.008 26.6854 113.008 26.9652 113.064 27.2449H112.451L112.395 26.7973C112.172 27.077 111.782 27.3568 111.225 27.3568C110.445 27.3568 110.054 26.7973 110.054 26.2938C110.054 25.3987 110.835 24.8952 112.283 24.8952V24.8393C112.283 24.5036 112.172 23.9442 111.448 23.9442C111.113 23.9442 110.723 24.0561 110.5 24.2239L110.333 23.7763C110.667 23.5526 111.113 23.4407 111.559 23.4407C112.729 23.4407 112.952 24.2239 112.952 24.9512V26.3498H113.008ZM112.339 25.3428C111.615 25.3428 110.779 25.4547 110.779 26.1819C110.779 26.6295 111.057 26.8533 111.392 26.8533C111.893 26.8533 112.172 26.5176 112.283 26.2379C112.283 26.1819 112.339 26.07 112.339 26.0141V25.3428V25.3428Z" fill="black"/>
<path d="M114.902 22.6013V23.4964H115.85V24.0559H114.902V26.0698C114.902 26.5174 115.014 26.7971 115.404 26.7971C115.571 26.7971 115.683 26.7971 115.794 26.7412L115.85 27.2447C115.738 27.3006 115.515 27.3566 115.237 27.3566C114.902 27.3566 114.68 27.2447 114.512 27.0768C114.345 26.8531 114.234 26.5174 114.234 26.1258V24.0559H113.677V23.4964H114.234V22.8251L114.902 22.6013Z" fill="black"/>
<path d="M117.41 22.4336C117.41 22.6574 117.243 22.8252 116.964 22.8252C116.741 22.8252 116.574 22.6574 116.574 22.4336C116.574 22.2099 116.741 21.9861 117.02 21.9861C117.243 22.042 117.41 22.2099 117.41 22.4336ZM116.63 23.4966H117.299V27.2448H116.63V23.4966Z" fill="black"/>
<path d="M121.812 25.3426C121.812 26.7412 120.865 27.3565 119.973 27.3565C118.97 27.3565 118.19 26.6293 118.19 25.3985C118.19 24.1677 119.026 23.3845 120.029 23.3845C121.088 23.4405 121.812 24.2237 121.812 25.3426ZM118.859 25.3985C118.859 26.2377 119.305 26.8531 119.973 26.8531C120.642 26.8531 121.088 26.2377 121.088 25.3985C121.088 24.7831 120.753 23.944 119.973 23.944C119.193 23.944 118.859 24.6712 118.859 25.3985Z" fill="black"/>
<path d="M122.704 24.5034C122.704 24.1118 122.704 23.7761 122.648 23.4964H123.261L123.317 24.1118C123.484 23.7761 123.93 23.3845 124.543 23.3845C125.044 23.3845 125.88 23.7202 125.88 25.0069V27.2447H125.211V25.0628C125.211 24.4475 124.988 23.944 124.32 23.944C123.874 23.944 123.54 24.2796 123.428 24.6153C123.372 24.7272 123.372 24.8391 123.372 24.951V27.1887H122.704V24.5034V24.5034Z" fill="black"/>
<path d="M131.954 25.3426C131.954 26.7412 131.007 27.3565 130.115 27.3565C129.112 27.3565 128.332 26.6293 128.332 25.3985C128.332 24.1677 129.168 23.3845 130.171 23.3845C131.285 23.4405 131.954 24.2237 131.954 25.3426ZM129 25.3985C129 26.2377 129.446 26.8531 130.115 26.8531C130.784 26.8531 131.229 26.2377 131.229 25.3985C131.229 24.7831 130.895 23.944 130.115 23.944C129.391 23.944 129 24.6712 129 25.3985Z" fill="black"/>
<path d="M132.901 27.2448V24.056H132.4V23.4965H132.901V23.3287C132.901 22.8252 133.013 22.3217 133.347 22.042C133.626 21.8182 133.96 21.7063 134.239 21.7063C134.461 21.7063 134.684 21.7622 134.796 21.8182L134.684 22.3217C134.573 22.2657 134.461 22.2098 134.239 22.2098C133.681 22.2098 133.514 22.7133 133.514 23.2727V23.4965H134.406V24.056H133.514V27.3007H132.901V27.2448Z" fill="black"/>
<path d="M136.746 22.098C137.08 22.042 137.582 21.9861 138.028 21.9861C138.752 21.9861 139.198 22.098 139.532 22.4336C139.811 22.6574 139.922 23.049 139.922 23.4406C139.922 24.112 139.477 24.6155 138.919 24.7833C139.309 24.8952 139.532 25.2868 139.699 25.8462C139.867 26.5735 139.978 27.077 140.09 27.3008H139.421C139.309 27.1329 139.198 26.6854 139.087 26.07C138.919 25.3427 138.641 25.063 138.028 25.063H137.415V27.3008H136.746V22.098ZM137.415 24.5036H138.083C138.808 24.5036 139.254 24.112 139.254 23.4966C139.254 22.8252 138.752 22.5455 138.083 22.5455C137.749 22.5455 137.526 22.6015 137.415 22.6015V24.5036Z" fill="black"/>
<path d="M144.269 25.3426C144.269 26.7412 143.321 27.3565 142.43 27.3565C141.427 27.3565 140.647 26.6293 140.647 25.3985C140.647 24.1677 141.483 23.3845 142.486 23.3845C143.544 23.4405 144.269 24.2237 144.269 25.3426ZM141.315 25.3985C141.315 26.2377 141.761 26.8531 142.43 26.8531C143.099 26.8531 143.544 26.2377 143.544 25.3985C143.544 24.7831 143.21 23.944 142.43 23.944C141.705 23.944 141.315 24.6712 141.315 25.3985Z" fill="black"/>
<path d="M145.16 21.7622H145.829V24.1119C146.052 23.7202 146.498 23.4405 147.111 23.4405C148.058 23.4405 148.671 24.2237 148.671 25.3426C148.671 26.6853 147.835 27.3566 146.999 27.3566C146.442 27.3566 146.052 27.1328 145.773 26.6293L145.718 27.2447H145.16C145.16 26.965 145.216 26.6293 145.216 26.2937V21.7622H145.16ZM145.829 25.7902C145.829 25.8461 145.829 25.958 145.885 26.014C145.996 26.4615 146.386 26.7972 146.888 26.7972C147.612 26.7972 148.002 26.2377 148.002 25.3426C148.002 24.6154 147.612 23.944 146.888 23.944C146.442 23.944 145.996 24.2797 145.829 24.7832C145.829 24.8391 145.773 24.951 145.773 25.0629V25.7902H145.829Z" fill="black"/>
<path d="M152.906 25.3426C152.906 26.7412 151.959 27.3565 151.067 27.3565C150.064 27.3565 149.284 26.6293 149.284 25.3985C149.284 24.1677 150.12 23.3845 151.123 23.3845C152.182 23.4405 152.906 24.2237 152.906 25.3426ZM149.953 25.3985C149.953 26.2377 150.398 26.8531 151.067 26.8531C151.736 26.8531 152.182 26.2377 152.182 25.3985C152.182 24.7831 151.847 23.944 151.067 23.944C150.287 23.944 149.953 24.6712 149.953 25.3985Z" fill="black"/>
<path d="M154.578 22.6013V23.4964H155.525V24.0559H154.578V26.0698C154.578 26.5174 154.689 26.7971 155.079 26.7971C155.246 26.7971 155.358 26.7971 155.469 26.7412L155.525 27.2447C155.414 27.3006 155.191 27.3566 154.912 27.3566C154.578 27.3566 154.355 27.2447 154.188 27.0768C154.02 26.8531 153.909 26.5174 153.909 26.1258V24.0559H153.352V23.4964H153.909V22.8251L154.578 22.6013Z" fill="black"/>
<path d="M158.757 22.4336C158.757 22.6574 158.59 22.8252 158.311 22.8252C158.088 22.8252 157.921 22.6574 157.921 22.4336C157.921 22.2099 158.088 21.9861 158.367 21.9861C158.59 22.042 158.757 22.2099 158.757 22.4336ZM157.977 23.4966H158.646V27.2448H157.977V23.4966Z" fill="black"/>
<path d="M159.76 24.5034C159.76 24.1118 159.76 23.7761 159.704 23.4964H160.317L160.373 24.1118C160.54 23.7761 160.986 23.3845 161.599 23.3845C162.1 23.3845 162.936 23.7202 162.936 25.0069V27.2447H162.268V25.0628C162.268 24.4475 162.045 23.944 161.432 23.944C160.986 23.944 160.652 24.2796 160.54 24.6153C160.484 24.7272 160.484 24.8391 160.484 24.951V27.1887H159.816V24.5034H159.76Z" fill="black"/>
<path d="M167.283 21.7622V26.2937C167.283 26.6294 167.283 27.021 167.339 27.2448H166.726L166.67 26.5734C166.447 27.021 166.001 27.3007 165.388 27.3007C164.497 27.3007 163.772 26.5175 163.772 25.3986C163.772 24.1678 164.552 23.3846 165.444 23.3846C166.001 23.3846 166.391 23.6643 166.558 23.9441V21.7063H167.283V21.7622ZM166.614 25.0629C166.614 24.9511 166.614 24.8392 166.558 24.7832C166.447 24.3357 166.113 24 165.555 24C164.831 24 164.441 24.6154 164.441 25.4546C164.441 26.2378 164.831 26.8532 165.555 26.8532C166.001 26.8532 166.447 26.5734 166.558 26.014C166.558 25.9021 166.614 25.8462 166.614 25.7343V25.0629Z" fill="black"/>
<path d="M171.573 26.2378C171.573 26.6294 171.573 26.9651 171.629 27.2448H171.016L170.96 26.6294C170.793 26.9092 170.403 27.3008 169.735 27.3008C169.122 27.3008 168.453 26.9651 168.453 25.6784V23.4966H169.122V25.5665C169.122 26.2938 169.344 26.7413 169.957 26.7413C170.403 26.7413 170.738 26.4057 170.849 26.126C170.905 26.0141 170.905 25.9022 170.905 25.7903V23.4966H171.573V26.2378Z" fill="black"/>
<path d="M172.577 26.5735C172.8 26.6854 173.134 26.8533 173.468 26.8533C173.97 26.8533 174.193 26.6295 174.193 26.2938C174.193 25.9582 173.97 25.7903 173.524 25.6225C172.855 25.3987 172.521 25.0071 172.521 24.5596C172.521 23.9442 173.022 23.4407 173.803 23.4407C174.193 23.4407 174.527 23.5526 174.694 23.6644L174.527 24.1679C174.36 24.0561 174.081 23.9442 173.747 23.9442C173.357 23.9442 173.134 24.1679 173.134 24.4477C173.134 24.7833 173.357 24.8952 173.858 25.0631C174.527 25.2868 174.861 25.6225 174.861 26.1819C174.861 26.8533 174.36 27.3008 173.468 27.3008C173.078 27.3008 172.688 27.1889 172.409 27.0211L172.577 26.5735Z" fill="black"/>
<path d="M176.533 22.6013V23.4964H177.48V24.0559H176.533V26.0698C176.533 26.5174 176.644 26.7971 177.035 26.7971C177.202 26.7971 177.313 26.7971 177.425 26.7412L177.48 27.2447C177.369 27.3006 177.146 27.3566 176.867 27.3566C176.533 27.3566 176.31 27.2447 176.143 27.0768C175.92 26.8531 175.864 26.5174 175.864 26.1258V24.0559H175.307V23.4964H175.864V22.8251L176.533 22.6013Z" fill="black"/>
<path d="M178.316 24.6712C178.316 24.2237 178.316 23.8321 178.26 23.4964H178.873V24.2237H178.929C179.096 23.7202 179.486 23.3845 179.988 23.3845C180.043 23.3845 180.099 23.3845 180.155 23.3845V23.9999C180.099 23.9999 180.043 23.9999 179.932 23.9999C179.43 23.9999 179.096 24.3915 179.04 24.895C179.04 25.0069 178.985 25.1188 178.985 25.2307V27.2447H178.316V24.6712Z" fill="black"/>
<path d="M181.269 23.4966L182.105 25.7343C182.217 25.9581 182.272 26.2938 182.328 26.5176C182.384 26.2938 182.495 26.0141 182.551 25.7343L183.331 23.4966H184.056L183.052 26.1819C182.551 27.4686 182.217 28.1399 181.771 28.5315C181.437 28.8113 181.102 28.9232 180.935 28.9791L180.768 28.4197C180.935 28.3637 181.158 28.2518 181.381 28.084C181.548 27.9162 181.827 27.6924 181.938 27.3008C181.994 27.2448 181.994 27.1889 181.994 27.1329C181.994 27.077 181.994 27.0211 181.938 26.9651L180.545 23.4966H181.269Z" fill="black"/>
</g>
<defs>
<clipPath id="clip0">
<rect width="184" height="32" fill="white"/>
</clipPath>
</defs>
</svg>
