<svg width="169" height="32" viewBox="0 0 169 32" fill="none" xmlns="http://www.w3.org/2000/svg">
<g clip-path="url(#clip0)">
<path d="M106.623 17.1082H106.33C106.167 17.1082 106.036 17.2059 105.971 17.3363C105.971 17.3688 105.939 17.434 105.939 17.4666V23.8536C105.939 24.0491 106.102 24.212 106.297 24.212H106.59C106.753 24.212 106.884 24.1143 106.916 23.9839C106.949 23.9513 106.949 23.8862 106.949 23.8536V17.4666C106.982 17.2711 106.819 17.1082 106.623 17.1082Z" fill="#005F9E"/>
<path d="M129.694 17.1082H129.401C129.271 17.1082 129.14 17.2059 129.075 17.3363C129.043 17.3688 129.043 17.434 129.043 17.4666V23.8536C129.043 24.0491 129.206 24.212 129.401 24.212H129.694C129.825 24.212 129.988 24.1143 130.02 23.9839C130.053 23.9513 130.053 23.8862 130.053 23.8536V17.4666C130.053 17.2711 129.89 17.1082 129.694 17.1082Z" fill="#005F9E"/>
<path d="M79.4459 18.6724H78.2402C77.2951 18.6724 76.5457 19.4219 76.5457 20.3017V22.5827C76.5457 23.4952 77.3277 24.2447 78.2402 24.2447H79.4459C79.8695 24.2447 80.2605 24.1143 80.5538 23.8536C80.7819 23.6581 80.9448 23.43 81.0426 23.1693C81.0752 23.0715 81.0752 22.9412 81.01 22.8434C80.9448 22.7457 80.8471 22.6805 80.7167 22.6805H80.3909C80.2279 22.6805 80.0976 22.7783 80.065 22.876C79.9347 23.1041 79.7066 23.2671 79.4459 23.2671H78.2402C77.8817 23.2671 77.5558 22.9738 77.5558 22.6153V21.9636H80.6516C80.9448 21.9636 81.173 21.7355 81.173 21.4748V20.3343C81.173 19.3893 80.3909 18.6724 79.4459 18.6724ZM77.5558 20.3017C77.5558 19.9432 77.8817 19.65 78.2402 19.65H79.4459C79.8369 19.65 80.1302 19.9432 80.1302 20.3017V20.9534H77.5558V20.3017Z" fill="#005F9E"/>
<path d="M84.1058 19.6498H85.3115C85.5721 19.6498 85.8328 19.7802 85.9306 19.9757C85.9958 20.106 86.1261 20.2038 86.2891 20.2038H86.6149C86.7453 20.2038 86.843 20.1386 86.9082 20.0409C86.9734 19.9431 86.9734 19.8128 86.9408 19.715C86.843 19.4543 86.6801 19.1936 86.452 19.0307C86.1587 18.77 85.7677 18.6396 85.344 18.6396H84.1383C83.1933 18.6396 82.4438 19.3891 82.4438 20.269V22.55C82.4438 23.4625 83.2259 24.212 84.1383 24.212H85.344C85.7677 24.212 86.1587 24.0816 86.452 23.8209C86.6801 23.6254 86.843 23.3973 86.9408 23.1366C86.9734 23.0388 86.9734 22.9085 86.9082 22.8107C86.843 22.713 86.7127 22.6478 86.6149 22.6478H86.2891C86.1261 22.6478 85.9958 22.7456 85.9632 22.8433C85.8328 23.0714 85.6047 23.2344 85.344 23.2344H84.1383C83.7473 23.2344 83.454 22.9411 83.454 22.5826V20.3016C83.4214 19.9431 83.7147 19.6498 84.1058 19.6498Z" fill="#005F9E"/>
<path d="M90.9815 18.6722H89.0915V17.4991C89.0915 17.3036 88.9285 17.1406 88.733 17.1406H88.4398C88.2768 17.1406 88.1465 17.2384 88.1139 17.3687C88.0813 17.4013 88.0813 17.4665 88.0813 17.4991V23.886C88.0813 24.0816 88.2442 24.2445 88.4398 24.2445H88.733C88.896 24.2445 89.0263 24.1467 89.0589 24.0164C89.0915 23.9838 89.0915 23.9186 89.0915 23.886V19.6498H90.9815C91.3725 19.6498 91.6658 19.9431 91.6658 20.3015V23.886C91.6658 24.0816 91.8288 24.2445 92.0243 24.2445H92.3175C92.5131 24.2445 92.676 24.0816 92.676 23.886V20.3015C92.7086 19.3891 91.9591 18.6722 90.9815 18.6722Z" fill="#005F9E"/>
<path d="M96.9773 18.6724H94.4356C94.2401 18.6724 94.0771 18.8353 94.0771 19.0308V23.8862C94.0771 24.0817 94.2401 24.2447 94.4356 24.2447H94.7289C94.9244 24.2447 95.0873 24.0817 95.0873 23.8862V19.65H96.9773C97.3684 19.65 97.6617 19.9432 97.6617 20.3017V23.8536C97.6617 24.0491 97.8246 24.2121 98.0201 24.2121H98.3134C98.5089 24.2121 98.6718 24.0491 98.6718 23.8536V20.3017C98.6718 19.3893 97.9224 18.6724 96.9773 18.6724Z" fill="#005F9E"/>
<path d="M102.843 18.6724H101.637C100.692 18.6724 99.9429 19.4219 99.9429 20.3017V22.5828C99.9429 23.4952 100.725 24.2121 101.637 24.2121H102.843C103.788 24.2121 104.57 23.4952 104.57 22.5828V20.3017C104.57 19.3893 103.788 18.6724 102.843 18.6724ZM100.986 20.3017C100.986 19.9432 101.279 19.65 101.67 19.65H102.876C103.267 19.65 103.56 19.9432 103.56 20.3017V22.5828C103.56 22.9412 103.234 23.2345 102.876 23.2345H101.67C101.312 23.2345 100.986 22.9412 100.986 22.5828V20.3017Z" fill="#005F9E"/>
<path d="M111.283 18.6724H110.077C109.132 18.6724 108.383 19.4219 108.383 20.3017V22.5828C108.383 23.4952 109.165 24.2121 110.077 24.2121H111.283C112.228 24.2121 113.01 23.4952 113.01 22.5828V20.3017C113.01 19.3893 112.228 18.6724 111.283 18.6724ZM109.393 20.3017C109.393 19.9432 109.686 19.65 110.077 19.65H111.283C111.674 19.65 111.967 19.9432 111.967 20.3017V22.5828C111.967 22.9412 111.674 23.2345 111.283 23.2345H110.077C109.719 23.2345 109.393 22.9412 109.393 22.5828V20.3017Z" fill="#005F9E"/>
<path d="M124.448 18.6724H124.252C124.057 18.6724 123.861 18.8027 123.764 18.9982L122.297 22.7783L120.831 18.9982C120.766 18.8027 120.57 18.6724 120.342 18.6724H120.147C120.016 18.6724 119.918 18.7375 119.853 18.8353C119.788 18.9331 119.756 19.0634 119.821 19.1612L121.776 24.2121L121.352 25.2874C121.32 25.3852 121.32 25.5155 121.385 25.6133C121.45 25.7111 121.548 25.7762 121.678 25.7762H121.906C122.102 25.7762 122.297 25.6459 122.395 25.4504L124.806 19.1612C124.839 19.0634 124.839 18.9331 124.774 18.8353C124.709 18.7375 124.578 18.6724 124.448 18.6724Z" fill="#005F9E"/>
<path d="M134.485 18.6724H131.943C131.747 18.6724 131.584 18.8353 131.584 19.0308V23.8862C131.584 24.0817 131.747 24.2447 131.943 24.2447H132.236C132.432 24.2447 132.595 24.0817 132.595 23.8862V19.65H134.485C134.876 19.65 135.169 19.9432 135.169 20.3017V23.8536C135.169 24.0491 135.332 24.2121 135.527 24.2121H135.821C136.016 24.2121 136.179 24.0491 136.179 23.8536V20.3017C136.179 19.3893 135.43 18.6724 134.485 18.6724Z" fill="#005F9E"/>
<path d="M158.045 18.6724H157.751C157.556 18.6724 157.393 18.8353 157.393 19.0308V23.2345H155.503C155.112 23.2345 154.819 22.9412 154.819 22.5827V19.0308C154.819 18.8353 154.656 18.6724 154.46 18.6724H154.134C153.939 18.6724 153.776 18.8353 153.776 19.0308V22.5827C153.776 23.4952 154.558 24.2447 155.503 24.2447H158.045C158.24 24.2447 158.403 24.0817 158.403 23.8862V19.0308C158.403 18.8027 158.24 18.6724 158.045 18.6724Z" fill="#005F9E"/>
<path d="M167.625 21.9637C167.918 21.9637 168.147 21.7356 168.147 21.4749V20.3344C168.147 19.422 167.365 18.7051 166.419 18.7051H165.214C164.269 18.7051 163.519 19.4546 163.519 20.3344V22.6155C163.519 23.5279 164.301 24.2774 165.214 24.2774H166.419C166.843 24.2774 167.234 24.147 167.527 23.8863C167.756 23.6908 167.918 23.4627 168.016 23.202C168.049 23.1043 168.049 22.9739 167.984 22.8762C167.918 22.7784 167.788 22.7132 167.69 22.7132H167.364C167.202 22.7132 167.071 22.811 167.039 22.9087C166.908 23.1369 166.68 23.2998 166.419 23.2998H165.214C164.823 23.2998 164.529 23.0065 164.529 22.6481V21.9963H167.625V21.9637ZM165.214 19.6501H166.419C166.811 19.6501 167.104 19.9434 167.104 20.3018V20.9536H164.562V20.3018C164.562 19.9434 164.855 19.6501 165.214 19.6501Z" fill="#005F9E"/>
<path d="M145.759 23.2344C145.727 23.2018 145.662 23.2018 145.629 23.2018H144.749C144.358 23.2018 144.065 22.9085 144.065 22.5501V19.6173H145.531C145.727 19.6173 145.89 19.4544 145.89 19.2588V18.9656C145.89 18.8352 145.792 18.7049 145.662 18.6397C145.629 18.6071 145.564 18.6071 145.531 18.6071H144.032V17.9554C144.032 17.7599 143.869 17.5969 143.674 17.5969H143.381C143.185 17.5969 143.022 17.7599 143.022 17.9554V22.5175C143.022 23.4299 143.804 24.1468 144.749 24.1468H145.629C145.825 24.1468 145.988 23.9839 145.988 23.7884V23.4951C145.955 23.4299 145.89 23.2996 145.759 23.2344Z" fill="#005F9E"/>
<path d="M152.505 23.2344C152.472 23.2018 152.407 23.2018 152.375 23.2018H151.495C151.136 23.2018 150.81 22.9085 150.81 22.5501V19.6173H152.277C152.472 19.6173 152.635 19.4544 152.635 19.2588V18.9656C152.635 18.8352 152.57 18.7049 152.44 18.6397C152.407 18.6071 152.342 18.6071 152.309 18.6071H150.843V17.9554C150.843 17.7599 150.68 17.5969 150.484 17.5969H150.191C149.996 17.5969 149.833 17.7599 149.833 17.9554V22.5175C149.833 23.4299 150.615 24.1468 151.527 24.1468H152.44C152.635 24.1468 152.798 23.9839 152.798 23.7884V23.4951C152.7 23.4299 152.635 23.2996 152.505 23.2344Z" fill="#005F9E"/>
<path d="M162.444 23.2344C162.411 23.2018 162.346 23.2018 162.313 23.2018H161.433C161.042 23.2018 160.749 22.9085 160.749 22.5501V19.6173H162.216C162.411 19.6173 162.574 19.4544 162.574 19.2588V18.9656C162.574 18.8352 162.509 18.7049 162.346 18.6397C162.313 18.6071 162.248 18.6071 162.216 18.6071H160.749V17.9554C160.749 17.7599 160.586 17.5969 160.391 17.5969H160.097C159.902 17.5969 159.739 17.7599 159.739 17.9554V22.5175C159.739 23.4299 160.488 24.1468 161.433 24.1468H162.313C162.509 24.1468 162.672 23.9839 162.672 23.7884V23.4951C162.672 23.4299 162.574 23.2996 162.444 23.2344Z" fill="#005F9E"/>
<path d="M147.91 17.1082H147.617C147.454 17.1082 147.324 17.2059 147.291 17.3363C147.259 17.3688 147.259 17.434 147.259 17.4666V18.3464C147.259 18.542 147.421 18.7049 147.617 18.7049H147.91C148.073 18.7049 148.204 18.6071 148.236 18.4768C148.269 18.4442 148.269 18.379 148.269 18.3464V17.4666C148.301 17.2711 148.138 17.1082 147.91 17.1082Z" fill="#005F9E"/>
<path d="M147.91 19.3892H147.617C147.454 19.3892 147.324 19.4869 147.291 19.6173C147.259 19.6499 147.259 19.715 147.259 19.7476V23.8861C147.259 24.0816 147.421 24.2446 147.617 24.2446H147.91C148.073 24.2446 148.204 24.1468 148.236 24.0164C148.269 23.9839 148.269 23.9187 148.269 23.8861V19.7476C148.301 19.5521 148.138 19.3892 147.91 19.3892Z" fill="#005F9E"/>
<path d="M76.1872 17.1407C76.1546 17.1082 76.0895 17.1082 76.0243 17.1082H71.2667C71.2341 17.1082 71.1689 17.1082 71.1363 17.1407C71.006 17.2059 70.9082 17.3363 70.9082 17.4666V17.7599C70.9082 17.9554 71.0711 18.1183 71.2667 18.1183H73.1241V23.8536C73.1241 24.0491 73.287 24.212 73.4825 24.212H73.7758C73.9713 24.212 74.1343 24.0491 74.1343 23.8536V18.1183H75.9917C76.1872 18.1183 76.3502 17.9554 76.3502 17.7599V17.4666C76.3827 17.3363 76.3176 17.2059 76.1872 17.1407Z" fill="#005F9E"/>
<path d="M118.452 18.6724H115.91C114.965 18.6724 114.216 19.4219 114.216 20.3017V22.2569C114.216 23.1693 114.998 23.9188 115.91 23.9188H117.8V24.1143C117.8 24.4728 117.474 24.7661 117.116 24.7661H115.226C115.161 24.7661 115.128 24.7661 115.096 24.7986C114.965 24.8638 114.9 24.9942 114.9 25.1245V25.4178C114.9 25.6133 115.063 25.7762 115.259 25.7762H117.149C118.094 25.7762 118.876 25.0267 118.876 24.1143V19.0308C118.811 18.8353 118.648 18.6724 118.452 18.6724ZM115.226 20.3017C115.226 19.9432 115.519 19.65 115.91 19.65H117.8V22.876H115.91C115.552 22.876 115.226 22.5828 115.226 22.2243V20.3017Z" fill="#005F9E"/>
<path d="M140.187 20.9533H139.047C138.884 20.9533 138.721 20.8881 138.558 20.7578C138.428 20.66 138.33 20.4971 138.33 20.3342C138.33 20.1712 138.395 19.9757 138.525 19.8454C138.656 19.715 138.819 19.6498 139.014 19.6498H141.1C141.295 19.6498 141.458 19.4869 141.458 19.2914V18.9981C141.458 18.8678 141.36 18.7374 141.23 18.6722C141.197 18.6396 141.132 18.6396 141.1 18.6396H139.047C138.591 18.6396 138.134 18.8352 137.776 19.1284C137.45 19.4543 137.287 19.8454 137.287 20.3016C137.32 20.7252 137.483 21.1488 137.808 21.4421C138.134 21.7354 138.558 21.8983 139.014 21.8983H140.22C140.383 21.8983 140.578 21.9635 140.709 22.0612C140.839 22.1916 140.937 22.3219 140.937 22.4849C140.937 22.6804 140.872 22.8433 140.741 22.9737C140.611 23.104 140.448 23.1692 140.252 23.1692H137.906C137.711 23.1692 137.548 23.3321 137.548 23.5276V23.8209C137.548 23.9513 137.646 24.0816 137.776 24.1468C137.808 24.1794 137.874 24.1794 137.906 24.1794H140.252C140.709 24.1794 141.132 24.0164 141.458 23.7232C141.784 23.4299 141.947 23.0063 141.98 22.5826C141.98 22.1264 141.817 21.7354 141.491 21.4095C141.1 21.1162 140.644 20.9533 140.187 20.9533Z" fill="#005F9E"/>
<path d="M80.8144 9.25464H79.6087C78.6637 9.25464 77.8816 10.0041 77.8816 10.884V13.165C77.8816 14.0774 78.6637 14.7944 79.6087 14.7944H80.8144C81.7594 14.7944 82.5415 14.0774 82.5415 13.165V10.884C82.5415 10.0041 81.7594 9.25464 80.8144 9.25464ZM78.9569 10.9166C78.9569 10.5581 79.2828 10.2648 79.6413 10.2648H80.847C81.238 10.2648 81.5313 10.5581 81.5313 10.9166V13.1976C81.5313 13.5561 81.2054 13.8493 80.847 13.8493H79.6413C79.2502 13.8493 78.9569 13.5561 78.9569 13.1976V10.9166Z" fill="#005F9E"/>
<path d="M90.6556 9.25464H89.4499C88.5049 9.25464 87.7554 10.0041 87.7554 10.884V13.165C87.7554 14.0774 88.5049 14.8269 89.4499 14.8269H90.6556C91.0792 14.8269 91.4702 14.6966 91.7635 14.4359C91.9916 14.2404 92.1546 14.0123 92.2523 13.7516C92.2849 13.6538 92.2849 13.5235 92.2197 13.4257C92.1546 13.328 92.0242 13.2628 91.8939 13.2628H91.568C91.4051 13.2628 91.2747 13.3605 91.2421 13.4583C91.1118 13.6864 90.8837 13.8493 90.623 13.8493H89.4173C89.0262 13.8493 88.733 13.5561 88.733 13.1976V12.5459H91.7961C92.0894 12.5459 92.3175 12.3178 92.3175 12.0245V10.884C92.3501 10.0041 91.6006 9.25464 90.6556 9.25464ZM88.7656 10.9166C88.7656 10.5581 89.0588 10.2648 89.4499 10.2648H90.6556C91.0466 10.2648 91.3399 10.5581 91.3399 10.9166V11.5683H88.7656V10.9166V10.9166Z" fill="#005F9E"/>
<path d="M109.686 7.72314H109.393C109.23 7.72314 109.1 7.8209 109.067 7.95125C109.034 7.98384 109.034 8.04901 109.034 8.0816V14.4686C109.034 14.6641 109.197 14.827 109.393 14.827H109.686C109.817 14.827 109.947 14.7293 110.012 14.5989C110.045 14.5663 110.045 14.5011 110.045 14.4686V8.0816C110.045 7.88608 109.882 7.72314 109.686 7.72314Z" fill="#005F9E"/>
<path d="M114.378 9.25464H113.173C112.228 9.25464 111.446 10.0041 111.446 10.884V13.165C111.446 14.0774 112.195 14.8269 113.173 14.8269H114.378C114.802 14.8269 115.193 14.6966 115.486 14.4359C115.714 14.2404 115.877 14.0123 115.975 13.7516C116.008 13.6538 116.008 13.5235 115.942 13.4257C115.877 13.328 115.747 13.2628 115.649 13.2628H115.323C115.16 13.2628 115.03 13.3605 114.997 13.4583C114.867 13.6864 114.639 13.8493 114.378 13.8493H113.173C112.814 13.8493 112.488 13.5561 112.488 13.1976V12.5459H115.584C115.877 12.5459 116.105 12.3178 116.105 12.0245V10.884C116.073 10.0041 115.323 9.25464 114.378 9.25464ZM112.488 10.9166C112.488 10.5581 112.782 10.2648 113.173 10.2648H114.378C114.769 10.2648 115.063 10.5581 115.063 10.9166V11.5683H112.488V10.9166V10.9166Z" fill="#005F9E"/>
<path d="M119.006 10.2648H120.211C120.472 10.2648 120.733 10.3952 120.831 10.5907C120.863 10.721 121.026 10.8188 121.189 10.8188H121.515C121.645 10.8188 121.743 10.7536 121.808 10.6559C121.873 10.5581 121.873 10.4278 121.841 10.33C121.743 10.0693 121.58 9.80861 121.352 9.64568C121.059 9.38499 120.668 9.25464 120.244 9.25464H119.038C118.093 9.25464 117.311 10.0041 117.311 10.884V13.165C117.311 14.0774 118.093 14.8269 119.038 14.8269H120.244C120.668 14.8269 121.059 14.6966 121.352 14.4359C121.58 14.2404 121.743 14.0123 121.841 13.7516C121.873 13.6538 121.873 13.5235 121.808 13.4257C121.743 13.328 121.613 13.2628 121.515 13.2628H121.189C121.026 13.2628 120.896 13.3605 120.863 13.4583C120.733 13.6864 120.505 13.8493 120.244 13.8493H119.038C118.647 13.8493 118.354 13.5561 118.354 13.1976V10.9166C118.321 10.5581 118.615 10.2648 119.006 10.2648Z" fill="#005F9E"/>
<path d="M133.833 9.25464H132.627C131.682 9.25464 130.933 10.0041 130.933 10.884V13.165C130.933 14.0774 131.715 14.7944 132.627 14.7944H133.833C134.778 14.7944 135.56 14.0774 135.56 13.165V10.884C135.527 10.0041 134.778 9.25464 133.833 9.25464ZM131.943 10.9166C131.943 10.5581 132.236 10.2648 132.627 10.2648H133.833C134.224 10.2648 134.517 10.5581 134.517 10.9166V13.1976C134.517 13.5561 134.224 13.8493 133.833 13.8493H132.627C132.269 13.8493 131.943 13.5561 131.943 13.1976V10.9166Z" fill="#005F9E"/>
<path d="M139.633 9.25464H137.091C136.896 9.25464 136.733 9.41757 136.733 9.61309V14.4685C136.733 14.664 136.896 14.8269 137.091 14.8269H137.385C137.58 14.8269 137.743 14.664 137.743 14.4685V10.2648H139.633C140.024 10.2648 140.317 10.5581 140.317 10.9166V14.4685C140.317 14.664 140.48 14.8269 140.676 14.8269H140.969C141.165 14.8269 141.328 14.664 141.328 14.4685V10.9166C141.36 10.0041 140.578 9.25464 139.633 9.25464Z" fill="#005F9E"/>
<path d="M146.835 10.2648H148.04C148.301 10.2648 148.562 10.3952 148.659 10.5907C148.692 10.721 148.855 10.8188 149.018 10.8188H149.344C149.474 10.8188 149.572 10.7536 149.637 10.6559C149.702 10.5581 149.702 10.4278 149.67 10.33C149.572 10.0693 149.409 9.80861 149.148 9.64568C148.855 9.38499 148.464 9.25464 148.04 9.25464H146.835C145.89 9.25464 145.14 10.0041 145.14 10.884V13.165C145.14 14.0774 145.922 14.8269 146.835 14.8269H148.04C148.464 14.8269 148.855 14.6966 149.148 14.4359C149.376 14.2404 149.539 14.0123 149.67 13.7516C149.702 13.6538 149.702 13.5235 149.637 13.4257C149.572 13.328 149.442 13.2628 149.344 13.2628H149.018C148.855 13.2628 148.725 13.3605 148.692 13.4583C148.562 13.6864 148.334 13.8493 148.073 13.8493H146.867C146.509 13.8493 146.183 13.5561 146.183 13.1976V10.9166C146.15 10.5581 146.444 10.2648 146.835 10.2648Z" fill="#005F9E"/>
<path d="M74.851 11.1446L76.9366 8.30959C77.0343 8.21183 77.0343 8.04889 76.9691 7.95113C76.904 7.82079 76.7736 7.75562 76.6433 7.75562H76.35C76.1871 7.75562 76.0241 7.82079 75.9264 7.95113L73.9712 10.5906C73.906 10.6558 73.8082 10.721 73.7105 10.721H72.9936V8.11407C72.9936 7.91855 72.8306 7.75562 72.6351 7.75562H72.3419C72.1789 7.75562 72.0486 7.85338 72.016 7.98372C71.9834 8.01631 71.9834 8.08148 71.9834 8.11407V14.501C71.9834 14.6966 72.1463 14.8595 72.3419 14.8595H72.6351C72.7981 14.8595 72.9284 14.7617 72.961 14.6314C72.9936 14.5988 72.9936 14.5336 72.9936 14.501V11.7312H73.8082C73.906 11.7312 74.0364 11.7963 74.0689 11.8615L76.1545 14.664C76.2522 14.7943 76.4152 14.8595 76.5781 14.8595H76.8714C77.0017 14.8595 77.1321 14.7943 77.1973 14.664C77.2624 14.5336 77.2624 14.4033 77.1647 14.2729L74.851 11.1446Z" fill="#005F9E"/>
<path d="M86.7452 9.28723C86.7126 9.25464 86.6474 9.25464 86.5823 9.25464H85.5395C84.5945 9.25464 83.845 10.0041 83.845 10.884V14.4685C83.845 14.664 84.0079 14.8269 84.2034 14.8269H84.4967C84.6922 14.8269 84.8552 14.664 84.8552 14.4685V10.884C84.8552 10.5581 85.1484 10.2648 85.4743 10.2648H86.5823C86.7778 10.2648 86.9407 10.1019 86.9407 9.90637V9.61309C86.9407 9.48274 86.8755 9.3524 86.7452 9.28723Z" fill="#005F9E"/>
<path d="M129.955 9.28723C129.922 9.25464 129.857 9.25464 129.792 9.25464H128.749C127.804 9.25464 127.055 10.0041 127.055 10.884V14.4685C127.055 14.664 127.218 14.8269 127.413 14.8269H127.706C127.902 14.8269 128.065 14.664 128.065 14.4685V10.884C128.065 10.5581 128.358 10.2648 128.684 10.2648H129.792C129.987 10.2648 130.15 10.1019 130.15 9.90637V9.61309C130.183 9.48274 130.085 9.3524 129.955 9.28723Z" fill="#005F9E"/>
<path d="M96.2604 9.25464H94.3052C94.2727 9.25464 94.2075 9.25464 94.1749 9.28723C94.0446 9.3524 93.9794 9.48274 93.9794 9.61309V9.90637C93.9794 10.1019 94.1423 10.2648 94.3378 10.2648H96.293C96.6841 10.2648 96.9773 10.5581 96.9773 10.9166V11.3402H95.0873C94.1423 11.3402 93.3928 12.0897 93.3928 12.9695V13.1976C93.3928 14.11 94.1749 14.8595 95.0873 14.8595H97.4987C97.792 14.8595 98.0201 14.6314 98.0201 14.3381V10.9166C97.9875 10.0041 97.2054 9.25464 96.2604 9.25464ZM94.3704 12.9695C94.3704 12.6111 94.6637 12.3178 95.0547 12.3178H96.9448V13.8168H95.0547C94.6963 13.8168 94.3704 13.5235 94.3704 13.165V12.9695Z" fill="#005F9E"/>
<path d="M107.372 7.75573C107.34 7.72314 107.275 7.72314 107.209 7.72314H103.234C102.941 7.72314 102.712 7.95125 102.712 8.24453V14.3382C102.712 14.5989 102.941 14.827 103.201 14.827H107.209C107.405 14.827 107.568 14.6641 107.568 14.4686V14.1753C107.568 14.0449 107.47 13.9146 107.34 13.8494C107.307 13.8168 107.242 13.8168 107.209 13.8168H103.723V11.6335H106.492C106.688 11.6335 106.851 11.4706 106.851 11.2751V10.9818C106.851 10.8515 106.753 10.7211 106.623 10.6559C106.59 10.6233 106.525 10.6233 106.492 10.6233H103.723V8.70074H107.209C107.405 8.70074 107.568 8.53781 107.568 8.34229V8.04901C107.6 7.91866 107.503 7.78832 107.372 7.75573Z" fill="#005F9E"/>
<path d="M125.751 13.8494C125.719 13.8494 125.654 13.8168 125.621 13.8168H124.741C124.383 13.8168 124.057 13.5235 124.057 13.1651V10.2323H125.523C125.719 10.2323 125.882 10.0693 125.882 9.87383V9.58055C125.882 9.4502 125.784 9.31986 125.654 9.25468C125.621 9.2221 125.556 9.2221 125.523 9.2221H124.057V8.57037C124.057 8.37485 123.894 8.21191 123.698 8.21191H123.405C123.21 8.21191 123.047 8.37485 123.047 8.57037V13.1325C123.047 14.0449 123.829 14.7618 124.741 14.7618H125.621C125.816 14.7618 125.979 14.5989 125.979 14.4034V14.1101C125.947 14.0449 125.849 13.9146 125.751 13.8494Z" fill="#005F9E"/>
<path d="M143.413 7.72314H143.12C142.957 7.72314 142.827 7.8209 142.794 7.95125C142.761 7.98384 142.761 8.04901 142.761 8.0816V8.96143C142.761 9.15695 142.924 9.31988 143.12 9.31988H143.413C143.576 9.31988 143.706 9.22212 143.739 9.09178C143.772 9.05919 143.772 8.99402 143.772 8.96143V8.04901C143.772 7.88608 143.609 7.72314 143.413 7.72314Z" fill="#005F9E"/>
<path d="M143.413 9.97168H143.12C142.957 9.97168 142.827 10.0694 142.794 10.1998C142.761 10.2324 142.761 10.2975 142.761 10.3301V14.4686C142.761 14.6641 142.924 14.8271 143.12 14.8271H143.413C143.576 14.8271 143.706 14.7293 143.739 14.599C143.772 14.5664 143.772 14.5012 143.772 14.4686V10.3627C143.772 10.1346 143.609 9.97168 143.413 9.97168Z" fill="#005F9E"/>
<path d="M153.482 11.5683H152.342C152.179 11.5683 152.016 11.5031 151.853 11.3728C151.723 11.2424 151.625 11.1121 151.625 10.9491C151.625 10.7536 151.69 10.5907 151.82 10.4603C151.951 10.33 152.114 10.2648 152.309 10.2648H154.395C154.59 10.2648 154.753 10.1019 154.753 9.90637V9.61309C154.753 9.48274 154.655 9.3524 154.525 9.28723C154.493 9.25464 154.427 9.25464 154.395 9.25464H152.374C151.918 9.25464 151.462 9.45016 151.104 9.74344C150.778 10.0693 150.615 10.4603 150.615 10.9166C150.615 11.3728 150.81 11.7638 151.136 12.0571C151.462 12.3504 151.886 12.5459 152.309 12.5459H153.515C153.678 12.5459 153.873 12.6111 154.004 12.7088C154.134 12.8392 154.232 12.9695 154.232 13.1324C154.232 13.328 154.167 13.4909 154.036 13.6212C153.906 13.7516 153.743 13.8168 153.548 13.8168H151.201C151.006 13.8168 150.843 13.9797 150.843 14.1752V14.4685C150.843 14.5988 150.908 14.7292 151.038 14.7944C151.071 14.8269 151.136 14.8269 151.169 14.8269H153.515C153.971 14.8269 154.395 14.664 154.721 14.3707C155.047 14.0774 155.209 13.6538 155.242 13.2302C155.242 12.774 155.079 12.3829 154.753 12.0571C154.427 11.7312 153.971 11.5683 153.482 11.5683Z" fill="#005F9E"/>
<path d="M58.0367 7.78833H64.0978V24.212H58.0367V7.78833ZM51.5194 11.2751V24.212H45.5234V11.2751H40.0815V7.78833H56.9613V11.2751H51.5194V11.2751ZM29.6864 11.0796H24.6354V14.3708H34.2811C33.6619 14.827 33.3035 15.4136 33.3035 16.0001C33.3035 16.6193 33.6619 17.1733 34.2811 17.6295H24.6354V20.9207H29.7189C29.0998 21.3769 28.8065 21.9309 28.8065 22.55C28.8065 23.1692 29.0998 23.7232 29.7189 24.1794H19.7475H18.6069V7.78833C22.2892 7.78833 26.0041 7.78833 29.6864 7.78833C29.0672 8.24454 28.7739 8.79851 28.7739 9.41766C28.7739 10.0694 29.0998 10.6234 29.6864 11.0796ZM10.5255 7.78833H17.5642L12.057 16.0001L17.5642 24.212H10.5255L6.0611 16.4564V24.212H0V7.78833H6.0611V15.5439L10.5255 7.78833Z" fill="#005F9E"/>
<path d="M29.4581 32C32.3909 32 34.7371 30.6965 34.7371 29.1324C34.7371 27.5356 32.3583 26.2648 29.4581 26.2648C26.5905 26.2648 24.2117 27.5356 24.2117 29.1324C24.2117 30.7291 26.5579 32 29.4581 32ZM34.0202 25.4501C36.8878 25.4501 39.2667 24.1792 39.2667 22.5825C39.2667 20.9857 36.9204 19.7149 34.0202 19.7149C31.1526 19.7149 28.8064 20.9857 28.8064 22.5825C28.7738 24.1466 31.12 25.4501 34.0202 25.4501ZM29.4581 5.73523C32.3909 5.73523 34.7371 4.46436 34.7371 2.86762C34.7371 1.27088 32.3583 0 29.4581 0C26.5905 0 24.2117 1.27088 24.2117 2.86762C24.2117 4.46436 26.5579 5.73523 29.4581 5.73523ZM34.0202 12.3177C36.8878 12.3177 39.2667 11.0468 39.2667 9.4501C39.2667 7.85336 36.9204 6.58249 34.0202 6.58249C31.1526 6.58249 28.8064 7.85336 28.8064 9.4501C28.7738 11.0143 31.12 12.3177 34.0202 12.3177ZM38.5823 18.8676C41.45 18.8676 43.7962 17.5967 43.7962 16C43.7962 14.4033 41.45 13.1324 38.5823 13.1324C35.6496 13.1324 33.3033 14.4033 33.3033 16C33.3033 17.5967 35.6496 18.8676 38.5823 18.8676Z" fill="#67CDF2"/>
</g>
<defs>
<clipPath id="clip0">
<rect width="168.147" height="32" fill="white"/>
</clipPath>
</defs>
</svg>
