<svg width="113" height="32" viewBox="0 0 113 32" fill="none" xmlns="http://www.w3.org/2000/svg">
<g clip-path="url(#clip0)">
<path d="M20.1218 10.1053C19.2353 10.9917 18.1716 11.5236 17.1079 11.7008C16.842 11.7008 16.6647 11.7895 16.3988 11.7895C16.2215 11.7895 16.1329 11.8781 15.9556 11.8781C16.9306 12.144 17.8171 12.6759 18.5262 13.385C19.2353 14.0942 19.7672 14.9806 20.0331 15.9557C20.0331 15.7784 20.1218 15.6898 20.1218 15.5125C20.1218 15.3352 20.1218 15.0693 20.2104 14.8033C20.3877 13.651 21.0082 12.5873 21.806 11.7895C23.047 10.5485 24.8198 9.92798 26.504 10.1053C25.3517 9.92798 24.288 9.30748 23.4902 8.5097C22.6038 7.62327 22.0719 6.55956 21.8946 5.49585C21.9833 7.09142 21.4514 8.77563 20.1218 10.1053Z" fill="#92858B"/>
<path d="M5.40702 21.8949C5.31838 21.8949 5.31838 21.8949 5.22974 21.8949C5.31838 21.8062 5.31838 21.8949 5.40702 21.8949Z" fill="#7FBE26"/>
<path d="M21.8946 5.49591C21.8946 5.40727 21.8946 5.31862 21.8946 5.22998C21.806 5.22998 21.8946 5.31862 21.8946 5.49591C21.8946 5.40727 21.8946 5.40727 21.8946 5.49591Z" fill="#7FBE26"/>
<path d="M21.8947 5.49596C21.8947 5.40731 21.8947 5.40731 21.8947 5.49596C21.8947 5.40731 21.8947 5.31867 21.8947 5.23003C21.8947 5.14139 21.8947 5.05274 21.8061 4.87546V4.78682V4.69817C21.8061 4.60953 21.7175 4.43225 21.7175 4.3436C21.7175 4.25496 21.7175 4.16632 21.6288 4.16632C21.6288 4.07767 21.5402 3.98903 21.5402 3.90039C21.5402 3.81175 21.4515 3.81175 21.4515 3.7231C21.3629 3.45718 21.2742 3.36853 21.2742 3.27989C21.2742 3.19125 21.1856 3.19125 21.1856 3.10261C21.097 3.01396 21.0083 2.83668 21.0083 2.74803C21.0083 2.65939 20.9197 2.65939 20.9197 2.57075C20.831 2.48211 20.7424 2.39346 20.7424 2.30482C20.7424 2.21618 20.6537 2.21618 20.6537 2.12754C20.3878 2.03889 20.2992 1.86161 20.1219 1.77297C17.8172 -0.531744 14.0942 -0.531744 11.7895 1.77297C11.7008 1.86161 11.5236 2.03889 11.4349 2.12754C11.3463 2.21618 11.3463 2.21618 11.3463 2.30482C11.2576 2.39346 11.2576 2.48211 11.169 2.57075C11.169 2.65939 11.0803 2.65939 11.0803 2.74803C10.9917 2.83668 10.9031 3.01396 10.8144 3.10261C10.8144 3.10261 10.8144 3.19125 10.7258 3.19125C10.6371 3.36853 10.6371 3.45718 10.5485 3.63446C10.5485 3.7231 10.5485 3.7231 10.4598 3.81175C10.3712 3.90039 10.3712 4.07767 10.3712 4.16632C10.3712 4.25496 10.3712 4.25496 10.2826 4.3436C10.2826 4.43225 10.1939 4.60953 10.1939 4.69817V4.78682C10.1939 4.78682 10.1939 4.78682 10.1939 4.87546C10.1939 5.05274 10.1053 5.14139 10.1053 5.31867V5.40731C9.92798 6.55967 9.30749 7.62338 8.5097 8.42117C7.62327 9.30759 6.55956 9.83945 5.49585 10.0167C7.18006 9.83945 8.86427 10.4599 10.1053 11.7009C10.9917 12.5874 11.5236 13.6511 11.7008 14.7148C11.7008 14.8921 11.7895 15.158 11.7895 15.3353C11.7895 15.5126 11.8781 15.6012 11.8781 15.7785C12.1441 14.8034 12.6759 13.917 13.385 13.2079C14.0942 12.4987 14.9806 11.9669 15.9557 11.7009C16.133 11.7009 16.2216 11.6123 16.3989 11.6123C16.5762 11.6123 16.8421 11.5237 17.108 11.5237C18.2604 11.3464 19.3241 10.7259 20.1219 9.92809C21.4515 8.77574 21.9834 7.09152 21.8947 5.49596Z" fill="#7FBE26"/>
<path d="M10.9915 29.2522C10.9915 29.1636 10.9028 29.1636 10.9028 29.075C10.9028 29.075 10.9915 29.1636 10.9915 29.2522Z" fill="#92858B"/>
<path d="M11.7894 30.2274C11.7007 30.1387 11.5235 29.9614 11.4348 29.8728C11.6121 29.9614 11.7007 30.1387 11.7894 30.2274Z" fill="#92858B"/>
<path d="M10.2825 27.6566C10.2825 27.5679 10.1938 27.4793 10.1938 27.3906C10.2825 27.4793 10.2825 27.5679 10.2825 27.6566Z" fill="#92858B"/>
<path d="M10.1939 27.1248C10.1939 27.0362 10.1939 26.8589 10.1052 26.7703C10.1052 26.8589 10.1939 26.9475 10.1939 27.1248Z" fill="#92858B"/>
<path d="M10.4597 28.1885C10.4597 28.0999 10.3711 28.0112 10.3711 27.9226C10.3711 28.0112 10.4597 28.0999 10.4597 28.1885Z" fill="#92858B"/>
<path d="M10.637 28.6317C10.637 28.543 10.5483 28.4544 10.5483 28.3657C10.5483 28.4544 10.637 28.543 10.637 28.6317Z" fill="#92858B"/>
<path d="M11.2576 29.6067C11.169 29.5181 11.169 29.5181 11.0803 29.4294C11.169 29.5181 11.2576 29.6067 11.2576 29.6067Z" fill="#92858B"/>
<path d="M13.3849 18.5265C12.6758 17.8174 12.1439 16.9309 11.878 15.9559C11.878 15.7786 11.7894 15.6899 11.7894 15.5127C11.7894 15.3354 11.7007 15.0694 11.7007 14.8922C11.5234 13.7398 10.9029 12.6761 10.1052 11.8783C8.86415 10.6373 7.0913 10.0168 5.49573 10.1941C5.40709 10.1941 5.40709 10.1941 5.31845 10.1941C5.14116 10.1941 5.05252 10.1941 4.87523 10.2827C4.69795 10.2827 4.52066 10.3714 4.34338 10.3714H4.25474C4.16609 10.3714 3.98881 10.46 3.90016 10.5487C3.90016 10.5487 3.81152 10.5487 3.81152 10.6373C3.27967 10.6373 3.01374 10.8146 2.65917 10.9919L2.57053 11.0805C2.48188 11.1692 2.39324 11.2578 2.21595 11.3465L2.12731 11.4351C1.95003 11.5237 1.86138 11.701 1.6841 11.7897C-0.620611 14.0944 -0.620611 17.8174 1.6841 20.1221C1.77274 20.2107 1.95003 20.388 2.03867 20.4767C2.12731 20.4767 2.12731 20.5653 2.21595 20.5653C2.3046 20.6539 2.39324 20.7426 2.48188 20.7426C2.57052 20.7426 2.57052 20.8312 2.65917 20.8312C2.74781 20.9199 2.9251 21.0085 3.01374 21.0085C3.10238 21.0085 3.10238 21.0971 3.19102 21.0971C3.27967 21.1858 3.45695 21.1858 3.54559 21.2744C3.63424 21.2744 3.63424 21.2744 3.72288 21.3631C3.81152 21.3631 3.98881 21.4517 4.07745 21.4517C4.16609 21.4517 4.16609 21.4517 4.25474 21.5404C4.43202 21.629 4.60931 21.629 4.78659 21.629C4.96388 21.629 5.05252 21.7176 5.2298 21.7176C5.31845 21.7176 5.31845 21.7176 5.40709 21.7176C5.40709 21.7176 5.40709 21.7176 5.49573 21.7176C6.64809 21.8949 7.7118 22.5154 8.50958 23.3132C9.39601 24.1996 9.92787 25.2634 10.1052 26.3271C9.92787 24.6429 10.5484 22.9586 11.7894 21.629C12.6758 20.7426 13.7395 20.2107 14.8032 20.0334C15.0691 19.9448 15.2464 19.9448 15.5124 19.9448C15.6896 19.9448 15.7783 19.8562 15.9556 19.8562C15.0691 19.8562 14.1827 19.3243 13.3849 18.5265Z" fill="#92858B"/>
<path d="M11.4349 29.8726C11.3462 29.784 11.3462 29.6953 11.2576 29.6953C11.3462 29.6953 11.4349 29.784 11.4349 29.8726Z" fill="#004A9F"/>
<path d="M11.169 29.4295C11.0803 29.3409 11.0803 29.2522 10.9917 29.1636C11.0803 29.3409 11.0803 29.3409 11.169 29.4295Z" fill="#004A9F"/>
<path d="M10.5484 28.3658C10.5484 28.2771 10.4597 28.1885 10.4597 28.1885C10.4597 28.1885 10.5484 28.2771 10.5484 28.3658Z" fill="#004A9F"/>
<path d="M10.3711 27.834C10.3711 27.7454 10.3711 27.6567 10.2825 27.6567C10.2825 27.7454 10.3711 27.834 10.3711 27.834Z" fill="#004A9F"/>
<path d="M10.9029 28.9862C10.8142 28.8975 10.7256 28.7202 10.7256 28.6316C10.7256 28.7202 10.8142 28.8975 10.9029 28.9862Z" fill="#004A9F"/>
<path d="M10.1938 27.1248C10.1938 27.2134 10.1938 27.302 10.2825 27.3907C10.2825 27.302 10.2825 27.302 10.2825 27.2134C10.1938 27.1248 10.1938 27.1248 10.1938 27.1248Z" fill="#004A9F"/>
<path d="M30.2271 11.7897C30.1385 11.6124 29.9612 11.5238 29.7839 11.4351L29.6953 11.3465C29.6066 11.2578 29.4293 11.1692 29.3407 11.0805C29.3407 11.0805 29.2521 11.0805 29.2521 10.9919C28.8975 10.8146 28.6316 10.6373 28.277 10.4601C28.277 10.4601 28.277 10.4601 28.1883 10.4601C28.0111 10.3714 27.8338 10.3714 27.7451 10.2828C27.7451 10.2828 27.7451 10.2828 27.6565 10.2828C27.4792 10.1941 27.3019 10.1941 27.1246 10.1941C26.9473 10.1941 26.7701 10.1055 26.6814 10.1055C26.5928 10.1055 26.5928 10.1055 26.5041 10.1055C24.8199 9.92819 23.1357 10.5487 21.8061 11.7897C20.9196 12.6761 20.3878 13.7398 20.2105 14.8035C20.2105 14.9808 20.1219 15.2468 20.1219 15.5127C20.1219 15.69 20.0332 15.8673 20.0332 15.9559C19.7673 16.931 19.2354 17.8174 18.5263 18.5265C17.8171 19.2357 16.9307 19.7675 15.9557 20.0335C15.7784 20.0335 15.6897 20.1221 15.5124 20.1221C15.3352 20.1221 15.0692 20.2107 14.8033 20.2107C13.6509 20.388 12.5872 20.9199 11.7894 21.8063C10.5484 23.0473 9.92795 24.8202 10.1052 26.5044C10.1052 26.593 10.1052 26.593 10.1052 26.6817C10.1052 26.7703 10.1052 26.9476 10.1939 27.0362V27.1249C10.1939 27.2135 10.1939 27.2135 10.1939 27.3022C10.1939 27.3908 10.2825 27.4794 10.2825 27.5681C10.2825 27.6567 10.2825 27.7454 10.3712 27.7454C10.3712 27.834 10.4598 27.9227 10.4598 28.0113C10.4598 28.0999 10.5484 28.1886 10.5484 28.1886C10.5484 28.2772 10.6371 28.3659 10.6371 28.4545C10.7257 28.5432 10.7257 28.7204 10.8144 28.8091C10.8144 28.8977 10.903 28.8977 10.903 28.9864C10.9917 29.075 10.9917 29.1637 11.0803 29.2523C11.1689 29.3409 11.1689 29.3409 11.2576 29.4296C11.3462 29.5182 11.3462 29.6069 11.4349 29.6069C11.5235 29.6955 11.6122 29.8728 11.7894 29.9614C14.0942 32.2661 17.8171 32.2661 20.1219 29.9614C20.2105 29.8728 20.3878 29.6955 20.4764 29.6069C20.5651 29.5182 20.5651 29.5182 20.6537 29.4296C20.7424 29.3409 20.7424 29.2523 20.831 29.1637C20.9196 29.075 20.9196 28.9864 21.0083 28.9864C21.0969 28.8977 21.0969 28.8091 21.0969 28.8091C21.1856 28.6318 21.2742 28.5432 21.3629 28.3659C21.3629 28.2772 21.4515 28.1886 21.4515 28.1886C21.4515 28.0999 21.5401 28.0113 21.5401 27.9227C21.5401 27.834 21.6288 27.7454 21.6288 27.7454C21.6288 27.6567 21.7174 27.5681 21.7174 27.4794C21.7174 27.3908 21.8061 27.3022 21.8061 27.2135C21.8061 27.1249 21.8061 27.1249 21.8061 27.0362V26.9476C21.8061 26.8589 21.8061 26.6817 21.8947 26.593C21.8947 26.5044 21.8947 26.5044 21.8947 26.4157C22.072 25.2634 22.6925 24.1997 23.4903 23.4019C24.3767 22.5155 25.4404 21.9836 26.5041 21.8063C26.5041 21.8063 26.5041 21.8063 26.5928 21.8063C26.6814 21.8063 26.6814 21.8063 26.7701 21.8063C26.9473 21.8063 27.1246 21.8063 27.2133 21.7177C27.3906 21.7177 27.5678 21.629 27.7451 21.629H27.8338C27.9224 21.629 28.0997 21.5404 28.1883 21.4517C28.277 21.4517 28.277 21.4517 28.3656 21.3631C28.5429 21.2745 28.6316 21.2745 28.8088 21.1858C28.9861 21.0972 29.0748 21.0085 29.2521 20.9199C29.3407 20.9199 29.3407 20.8312 29.4293 20.8312C29.518 20.7426 29.6066 20.654 29.6953 20.654C29.7839 20.654 29.7839 20.5653 29.8726 20.5653C30.0498 20.4767 30.1385 20.2994 30.3158 20.2107C32.5318 17.8174 32.5318 14.0944 30.2271 11.7897Z" fill="#004A9F"/>
<path d="M27.6565 14.3601C28.5429 15.2466 28.5429 16.7535 27.6565 17.6399C26.7701 18.5263 25.2632 18.5263 24.3767 17.6399C23.4903 16.7535 23.4903 15.2466 24.3767 14.3601C25.3518 13.4737 26.7701 13.4737 27.6565 14.3601Z" fill="white"/>
<path d="M39.3572 2.48193H43.0802V8.15506L47.2464 2.48193H51.6785L46.5373 8.95285L52.0331 16.3988H47.335L42.9915 10.1052V16.3988H39.2686V2.48193H39.3572Z" fill="#004A9F"/>
<path d="M54.781 2.48193H58.504V16.3988H54.781V2.48193Z" fill="#004A9F"/>
<path d="M64.5318 5.22986H61.1633V2.48193H71.7118V5.22986H68.2547V16.3988H64.5318V5.22986Z" fill="#004A9F"/>
<path d="M74.0166 2.48193H83.7673V5.14121H77.651V7.97778H83.4127V10.6371H77.651V13.7396H83.9446V16.3988H74.0166V2.48193Z" fill="#004A9F"/>
<path d="M98.3047 16.0443C97.241 16.3102 96.0886 16.5762 94.2271 16.5762C90.5041 16.5762 86.2493 14.7147 86.2493 9.48476C86.2493 4.69806 89.6177 2.21606 94.2271 2.21606C95.6454 2.21606 96.975 2.57064 98.3047 2.92521L98.0387 5.93906C96.8864 5.31856 95.734 4.96399 94.4044 4.96399C91.7451 4.96399 90.0609 6.91413 90.0609 9.48476C90.0609 12.2327 92.011 13.8283 94.6703 13.8283C95.9113 13.8283 97.1523 13.4737 98.1274 13.1191L98.3047 16.0443Z" fill="#004A9F"/>
<path d="M100.875 2.48193H104.598V7.80049H108.942V2.48193H112.665V16.3988H108.942V10.4598H104.598V16.3988H100.875V2.48193Z" fill="#004A9F"/>
<path d="M45.8283 21.3628H44.5873V28.1883H40.8643V26.2381H39.7119V28.3656C39.7119 28.6315 39.8006 28.8088 39.8892 28.8974C39.9778 28.9861 40.1551 29.0747 40.3324 29.0747H45.8283V24.3766H47.0693V23.4016H45.8283V21.3628V21.3628Z" fill="#92858B"/>
<path d="M54.4265 21.3628H48.3101V22.3379H53.2741V23.9334H48.0442V24.9085H50.7035V26.0609H48.3101V27.0359H53.2741V29.1633H54.4265V26.0609H51.9445V24.9085H54.781V23.9334H54.4265V21.3628Z" fill="#92858B"/>
<path d="M66.5706 24.1107C66.8365 24.5539 67.1025 24.9085 67.6343 25.1744C68.0775 25.4404 68.6094 25.529 69.1413 25.6176V24.6426C68.4321 24.5539 67.8116 24.0221 67.5457 23.4902C67.2798 23.047 67.2798 22.3379 67.2798 21.3628H65.9501C65.9501 22.2492 65.9501 23.047 65.6842 23.4016C65.3296 23.9334 64.7978 24.4653 64.0886 24.5539V25.529C64.5318 25.529 65.0637 25.3517 65.5069 25.0858C65.9501 24.9085 66.3047 24.5539 66.5706 24.1107Z" fill="#92858B"/>
<path d="M70.7367 21.3628H69.5843V28.1883H65.7727V26.3268H64.6204V28.4542C64.6204 28.7201 64.709 28.8974 64.7976 28.9861C64.8863 29.0747 65.0636 29.0747 65.2409 29.0747H70.8253V28.0996V24.0221H71.8004V23.047H70.7367V21.3628Z" fill="#92858B"/>
<path d="M79.3352 21.3628H78.1829V29.252H79.3352V21.3628Z" fill="#92858B"/>
<path d="M72.8643 22.5154H76.0554C76.0554 23.6677 75.7895 24.7314 75.2577 25.4406C74.7258 26.1497 73.7507 26.6816 72.687 26.6816V27.7453C73.8394 27.6566 74.8144 27.3907 75.6122 26.6816C76.6759 25.7951 77.2078 24.3768 77.2078 22.4267V21.5403H72.8643V22.5154V22.5154Z" fill="#92858B"/>
<path d="M80.9307 24.9973H83.8559V25.6178H81.2852V26.5042H86.4265V26.9474H81.2852V28.6316C81.2852 28.8976 81.3739 29.0749 81.4625 29.1635C81.5512 29.2521 81.7284 29.2521 81.9057 29.2521H87.6675V28.2771H82.5262V27.7452H87.6675V25.6178H85.0969V24.9973H88.0221V24.0222H80.9307V24.9973Z" fill="#92858B"/>
<path d="M95.1136 22.072H93.7839C93.6953 21.9833 93.6067 21.8947 93.518 21.806C93.0748 21.3628 92.4543 21.1855 91.8338 21.1855C91.2133 21.1855 90.5928 21.3628 90.1496 21.806C89.6177 22.2493 89.3518 22.7811 89.3518 23.4903C89.3518 24.1108 89.6177 24.7313 90.1496 25.1745C90.6814 25.6177 91.2133 25.795 91.8338 25.795C92.4543 25.795 93.0748 25.6177 93.518 25.1745C93.6067 25.0858 93.6953 24.9972 93.7839 24.9972H95.2022V28.277H91.3019V26.4155H90.1496V28.5429C90.1496 28.8088 90.2382 28.9861 90.3269 29.0747C90.4155 29.1634 90.5928 29.1634 90.7701 29.1634H95.2909H96.4432V28.1883V21.3628H95.2909V22.072H95.1136ZM92.6316 24.3767C92.3657 24.6426 92.0997 24.7313 91.7452 24.7313C91.3906 24.7313 91.1247 24.6426 90.8587 24.3767C90.5928 24.1108 90.5042 23.8448 90.5042 23.4016C90.5042 23.047 90.6814 22.6925 90.8587 22.4265C91.1247 22.1606 91.3906 22.072 91.7452 22.072C92.0997 22.072 92.3657 22.1606 92.6316 22.4265C92.8975 22.6925 92.9862 23.047 92.9862 23.4016C92.9862 23.7562 92.8975 24.1108 92.6316 24.3767ZM95.1136 23.9335H94.1385C94.2271 23.7562 94.2272 23.6675 94.2272 23.4903C94.2272 23.313 94.2272 23.2243 94.2272 23.047H95.1136V23.9335Z" fill="#92858B"/>
<path d="M104.244 21.3628H98.2159V22.3379H103.003V24.9085H97.7727V25.8836H100.609V29.252H101.762V25.8836H104.598V24.9085H104.244V21.3628Z" fill="#92858B"/>
<path d="M61.7838 22.7811H61.0746V21.3628H60.0109V24.1107C59.1245 23.9334 58.7699 22.9584 58.7699 22.9584C58.4154 22.5151 58.5926 21.3628 58.5926 21.3628H57.3516V21.806C57.3516 22.7811 56.9971 23.2243 56.9971 23.2243C56.3766 24.1107 55.8447 24.1107 55.8447 24.1107V25.0858C57.3517 24.9085 57.9722 23.6675 57.9722 23.6675C58.3267 24.288 58.7699 24.6426 59.1245 24.8199C58.0608 25.1744 57.3516 26.0609 57.3516 27.1246C57.3516 28.4542 58.504 29.6066 60.0109 29.6066C61.4292 29.6066 62.6702 28.5428 62.6702 27.1246C62.6702 26.1495 62.0497 25.3517 61.1633 24.9085V23.6675H61.8724V25.0858H62.9361V21.3628H61.8724V22.7811H61.7838ZM60.0109 28.6315C59.2131 28.6315 58.5926 28.011 58.5926 27.2132C58.5926 26.4154 59.2131 25.7949 60.0109 25.7949C60.8087 25.7949 61.4292 26.4154 61.4292 27.2132C61.4292 27.9223 60.8087 28.6315 60.0109 28.6315Z" fill="#92858B"/>
<path d="M84.4763 22.6925C84.7422 23.0471 85.2741 23.2244 85.9832 23.4017C86.5151 23.4903 87.1356 23.5789 87.6674 23.5789V22.6039C86.9583 22.6039 86.5151 22.5152 86.0718 22.3379C85.4513 22.072 85.1854 21.7174 85.1854 21.1856V21.0083H83.9444V21.1856C83.9444 21.6288 83.5898 22.072 82.9693 22.3379C82.5261 22.5152 82.0829 22.6039 81.3738 22.6039V23.5789C81.9056 23.5789 82.5261 23.4903 82.9693 23.4017C83.6785 23.2244 84.2103 23.0471 84.4763 22.6925Z" fill="#92858B"/>
<path d="M39.2686 24.0222C39.2686 25.1745 40.3323 26.061 41.5733 26.061C42.8143 26.061 43.878 25.1745 43.878 24.0222C43.878 23.4903 43.6121 22.9585 43.2575 22.6039H44.144V21.6288H42.1052V20.9197H40.8642V21.6288H39.0027V22.6039H39.8891C39.5345 22.9585 39.2686 23.4903 39.2686 24.0222ZM41.5733 25.2632C40.9528 25.2632 40.421 24.7313 40.421 24.1108C40.421 23.4903 40.9528 22.9585 41.5733 22.9585C42.1938 22.9585 42.7257 23.4903 42.7257 24.1108C42.8143 24.6427 42.1938 25.2632 41.5733 25.2632Z" fill="#92858B"/>
<path d="M111.424 21.3629V24.554H109.917C110.449 24.1994 110.803 23.6676 110.803 22.9584C110.803 21.8947 109.828 21.0083 108.587 21.0083C107.346 21.0083 106.282 21.8947 106.282 22.9584C106.282 23.5789 106.637 24.1994 107.169 24.554H105.75V25.5291H108.232V27.3906H109.385V25.5291H111.335V25.7064V26.4155H110.36V27.3906H111.335V28.1884H107.435V26.0609H106.194V28.4543C106.194 28.7202 106.282 28.8975 106.371 28.9861C106.46 29.0748 106.637 29.0748 106.814 29.0748H112.487V21.2742H111.424V21.3629ZM108.587 21.8947C109.208 21.8947 109.651 22.4266 109.651 23.0471C109.651 23.6676 109.208 24.1994 108.587 24.1994C107.967 24.1994 107.523 23.6676 107.523 23.0471C107.523 22.3379 107.967 21.8947 108.587 21.8947Z" fill="#92858B"/>
</g>
<defs>
<clipPath id="clip0">
<rect width="112.665" height="32" fill="white"/>
</clipPath>
</defs>
</svg>
