<svg width="136" height="32" viewBox="0 0 136 32" fill="none" xmlns="http://www.w3.org/2000/svg">
<g clip-path="url(#clip0)">
<path d="M24.717 15.2749C21.9134 13.3736 18.3686 14.147 16.4995 16.9829C14.9527 19.3676 12.568 19.6576 11.6657 19.6576C8.70091 19.6576 6.67069 17.5629 6.05841 15.4038C6.05841 15.3716 6.05841 15.3716 6.05841 15.3394C6.05841 15.3071 6.05841 15.2749 6.02618 15.2749C5.8006 14.3726 5.73615 13.9537 5.73615 12.9869C5.73615 7.79859 11.0211 2.03021 18.6908 2.03021C26.5216 2.03021 31.001 7.99194 32.1611 11.3112C32.1289 11.2467 32.1289 11.1823 32.0967 11.15C29.8731 4.67271 23.718 0 16.4995 0C7.37966 0 0 7.37966 0 16.4995C0 24.6526 5.86506 31.6133 14.0181 31.6133C20.5277 31.6133 24.8781 27.9718 26.8761 22.9446C27.9718 20.2054 27.1984 16.9507 24.717 15.2749Z" fill="#003763"/>
<path d="M32.2577 11.6335C31.291 8.41094 26.7794 2.03027 18.6908 2.03027C11.0533 2.03027 5.73608 7.79865 5.73608 12.9547C5.73608 13.9215 5.80054 14.3404 6.02611 15.2428C5.92944 14.8561 5.86499 14.4371 5.86499 14.0504C5.86499 8.66874 11.2467 4.93058 16.8217 4.93058C24.3302 4.93058 30.4209 11.0212 30.4209 18.5298C30.4209 24.4271 27.0372 29.5187 22.1067 31.9678C28.4551 29.6798 32.9667 23.5892 32.9667 16.4673C32.9667 14.7916 32.7411 13.3092 32.2577 11.6335Z" fill="#E4022D"/>
<path d="M44.6647 9.86108L48.7251 16.3384L47.4361 17.1763L44.6647 12.6647L41.9577 17.3052L40.6042 16.4351L44.6647 9.86108ZM43.0856 18.4331V21.3978H51.9477V22.848H41.4421V18.4331H43.0856ZM51.6254 18.3686H50.0141V9.92553H51.6254V12.9547H53.5267V14.566H51.6254V18.3686Z" fill="#575756"/>
<path d="M61.6153 13.2125C61.6153 13.6315 61.5186 14.0504 61.3575 14.4371C61.1963 14.8238 60.9385 15.1461 60.6485 15.4361C60.3585 15.7261 60.004 15.9517 59.5851 16.1128C59.1661 16.274 58.7472 16.3707 58.296 16.3707C57.8449 16.3707 57.4259 16.274 57.007 16.1128C56.5881 15.9517 56.2336 15.7261 55.9436 15.4361C55.6535 15.1461 55.3957 14.8238 55.2346 14.4371C55.0413 14.0504 54.9768 13.6637 54.9768 13.2125C54.9768 12.7936 55.0735 12.3747 55.2346 11.988C55.3957 11.6013 55.6535 11.279 55.9436 10.989C56.2336 10.699 56.5881 10.4734 57.007 10.28C57.4259 10.1189 57.8449 10.0222 58.296 10.0222C58.7472 10.0222 59.1661 10.1189 59.5851 10.28C60.004 10.4411 60.3585 10.6667 60.6485 10.989C60.9385 11.279 61.1963 11.6013 61.3575 11.988C61.5186 12.3747 61.6153 12.7936 61.6153 13.2125ZM55.9113 17.1118H57.5226V18.4009H64.6445V17.1118H66.2558V22.848H55.9113V17.1118ZM60.0362 13.2125C60.0362 12.7292 59.8751 12.3102 59.5206 11.9557C59.1661 11.6013 58.7472 11.4401 58.2638 11.4401C57.7804 11.4401 57.3615 11.6013 57.0392 11.9557C56.6848 12.3102 56.5236 12.7292 56.5236 13.2125C56.5236 13.6959 56.6848 14.1149 57.0392 14.4371C57.3937 14.7916 57.7804 14.9527 58.2638 14.9527C58.7472 14.9527 59.1661 14.7916 59.5206 14.4371C59.8751 14.1149 60.0362 13.6959 60.0362 13.2125ZM64.6767 19.6899H57.5549V21.4945H64.6767V19.6899ZM64.6445 9.92554H66.288V16.1773H64.6445V13.6959H62.4209V12.278H64.6445V9.92554Z" fill="#575756"/>
<path d="M80.6283 17.4663H68.5115V16.1129H73.7642V15.2428H69.5105V10.0867H79.6615V11.4401H71.1217V12.0847H79.6615V13.3092H71.1217V13.986H79.6937V15.275H75.4077V16.1129H80.6605V17.4663H80.6283ZM77.8247 20.6889C77.8247 21.1078 77.728 21.4945 77.5669 21.849C77.4057 22.2035 77.1802 22.5257 76.8901 22.7835C76.6001 23.0736 76.2456 23.2669 75.8589 23.4281C75.4722 23.5892 75.0533 23.6859 74.6021 23.6859C74.1509 23.6859 73.732 23.5892 73.3453 23.4281C72.9586 23.2669 72.6041 23.0414 72.3141 22.7835C72.0241 22.5257 71.7985 22.2035 71.6374 21.849C71.4762 21.4945 71.3795 21.1078 71.3795 20.6889C71.3795 20.27 71.4762 19.8832 71.6374 19.5288C71.7985 19.1743 72.0241 18.852 72.3141 18.5942C72.6041 18.3042 72.9586 18.1108 73.3453 17.9497C73.732 17.7886 74.1509 17.6919 74.6021 17.6919C75.0533 17.6919 75.4722 17.7886 75.8589 17.9497C76.2456 18.1108 76.5679 18.3364 76.8901 18.5942C77.1802 18.852 77.4057 19.1743 77.5669 19.5288C77.728 19.9155 77.8247 20.3022 77.8247 20.6889ZM76.2456 20.6889C76.2456 20.2377 76.0845 19.851 75.7622 19.5288C75.44 19.2065 75.0533 19.0454 74.6021 19.0454C74.1509 19.0454 73.7642 19.2065 73.442 19.5288C73.1197 19.851 72.9586 20.2377 72.9586 20.6889C72.9586 21.14 73.1197 21.5268 73.442 21.8168C73.7642 22.139 74.1509 22.3002 74.6021 22.3002C75.0533 22.3002 75.44 22.139 75.7622 21.8168C76.0845 21.4945 76.2456 21.14 76.2456 20.6889Z" fill="#575756"/>
<path d="M88.556 16.4351L85.8168 12.4391L83.0776 16.5318L81.7563 15.6617L85.8168 9.7644L89.8772 15.5328L88.556 16.4351ZM92.1975 20.3022C92.1975 20.7533 92.1008 21.1723 91.9397 21.559C91.7463 21.9457 91.5207 22.3002 91.2307 22.5902C90.9084 22.8802 90.554 23.1058 90.135 23.2991C89.7161 23.4603 89.2649 23.5569 88.8138 23.5569C88.3626 23.5569 87.9114 23.4603 87.4925 23.2991C87.0736 23.138 86.6869 22.8802 86.3968 22.5902C86.1068 22.3002 85.849 21.9457 85.6556 21.559C85.4623 21.1723 85.3656 20.7533 85.3656 20.3022C85.3656 19.851 85.4623 19.4321 85.6556 19.0454C85.849 18.6587 86.0746 18.3042 86.3968 18.0142C86.7191 17.7241 87.0736 17.4985 87.4925 17.3052C87.9114 17.1441 88.3626 17.0474 88.8138 17.0474C89.2649 17.0474 89.7161 17.1441 90.135 17.3052C90.554 17.4663 90.9084 17.7241 91.2307 18.0142C91.5207 18.3042 91.7785 18.6587 91.9397 19.0454C92.1008 19.4321 92.1975 19.851 92.1975 20.3022ZM90.5862 20.3022C90.5862 19.8188 90.3928 19.3998 90.0383 19.0454C89.6839 18.6909 89.2327 18.4975 88.7493 18.4975C88.2659 18.4975 87.847 18.6587 87.4603 19.0454C87.1058 19.3998 86.9125 19.8188 86.9125 20.3022C86.9125 20.8178 87.1058 21.2367 87.4603 21.5912C87.8148 21.9457 88.2337 22.1068 88.7493 22.1068C89.2327 22.1068 89.6839 21.9457 90.0383 21.5912C90.425 21.2045 90.5862 20.7855 90.5862 20.3022ZM92.842 12.278H94.7433V13.8893H92.842V16.6929H91.2307V9.92553H92.842V12.278Z" fill="#575756"/>
<path d="M95.7744 12.1813V10.7312H103.637V12.1813H100.318L103.992 20.7856L102.574 21.3978L99.7382 14.6627L96.9668 21.4945L95.4844 20.8822L99.1581 12.1813H95.7744ZM106.667 23.1058H105.055V9.92554H106.667V15.0494H108.568V16.6929H106.667V23.1058Z" fill="#575756"/>
<path d="M114.852 17.5308V19.3032H113.241V17.5308H109.664V16.1773H118.461V17.5308H114.852ZM112.08 18.6909V21.4301H121.49V22.848H110.437V18.6909H112.08ZM117.075 12.7292C117.075 13.1481 116.979 13.5026 116.818 13.8893C116.657 14.2438 116.431 14.566 116.141 14.856C115.851 15.1139 115.529 15.3394 115.142 15.5006C114.755 15.6617 114.336 15.7261 113.917 15.7261C113.498 15.7261 113.079 15.6617 112.693 15.5006C112.306 15.3394 111.984 15.1461 111.662 14.856C111.372 14.566 111.146 14.276 110.985 13.8893C110.824 13.5348 110.727 13.1481 110.727 12.7292C110.727 12.3102 110.824 11.9557 110.985 11.6013C111.146 11.2468 111.372 10.9245 111.662 10.6667C111.952 10.3767 112.306 10.1833 112.693 10.0222C113.079 9.86108 113.498 9.79663 113.917 9.79663C114.336 9.79663 114.755 9.86108 115.142 10.0222C115.529 10.1833 115.851 10.3767 116.141 10.6667C116.431 10.9568 116.657 11.2468 116.818 11.6013C116.979 11.9235 117.075 12.3102 117.075 12.7292ZM115.529 12.7292C115.529 12.278 115.368 11.9235 115.045 11.6013C114.723 11.279 114.336 11.1501 113.885 11.1501C113.434 11.1501 113.047 11.3112 112.725 11.6013C112.403 11.9235 112.242 12.278 112.242 12.7292C112.242 13.1803 112.403 13.5348 112.725 13.8571C113.047 14.1793 113.434 14.3082 113.885 14.3082C114.336 14.3082 114.723 14.1471 115.045 13.8571C115.368 13.567 115.529 13.1803 115.529 12.7292ZM119.525 15.0172H117.656V13.6637H119.525V9.92553H121.136V19.4321H119.525V15.0172Z" fill="#575756"/>
<path d="M123.585 18.2397H135.702V19.6899H130.449V23.0736H128.806V19.6899H123.585V18.2397ZM126.163 11.8269H133.092V10.1511H134.703V16.4996H124.552V10.1511H126.163V11.8269ZM133.092 13.2448H126.163V15.0494H133.092V13.2448Z" fill="#575756"/>
</g>
<defs>
<clipPath id="clip0">
<rect width="135.702" height="32" fill="white"/>
</clipPath>
</defs>
</svg>
