<svg width="120" height="120" viewBox="0 0 120 120" fill="none" xmlns="http://www.w3.org/2000/svg">
    <path d="M60.213 67.42a16.82 16.82 0 1 1 16.82-16.82 16.84 16.84 0 0 1-16.82 16.82zm0-28.77a11.95 11.95 0 1 0 11.95 12 12 12 0 0 0-11.95-12z" fill="#696666"/>
    <path d="M62.033 48.64h-3.65v9.04h3.65v-9.04zM62.033 43.52h-3.65v3.29h3.65v-3.29z" fill="#0479DC"/>
    <path d="M85.703 102h-47a10.39 10.39 0 0 1-9.596-6.398 10.381 10.381 0 0 1-.794-3.972V24.4a6.41 6.41 0 0 1 6.4-6.4h51a6.41 6.41 0 0 1 6.4 6.4v71.2a6.41 6.41 0 0 1-6.41 6.4zm-51-79.13a1.54 1.54 0 0 0-1.53 1.53v67.23a5.51 5.51 0 0 0 5.5 5.5h47a1.54 1.54 0 0 0 1.53-1.53V24.4a1.54 1.54 0 0 0-1.53-1.53h-50.97z" fill="#696666"/>
    <path d="M89.673 102h-51.58a9.785 9.785 0 0 1-7.117-2.75 9.78 9.78 0 0 1 7.117-16.8h51.58a2.429 2.429 0 0 1 2.43 2.44v14.68a2.43 2.43 0 0 1-2.43 2.43zm-51.58-14.67a4.91 4.91 0 1 0 0 9.81h49.14v-9.81h-49.14z" fill="#696666"/>
</svg>
