<svg width="120" height="120" viewBox="0 0 120 120" fill="none" xmlns="http://www.w3.org/2000/svg">
    <path d="M90.131 79.819h-2.857v-24a29.19 29.19 0 0 0-22.228-28.305V26.22A6.219 6.219 0 0 0 58.836 20h-1.419a6.229 6.229 0 0 0-6.219 6.219v1.295a29.19 29.19 0 0 0-22.22 28.305v24h-2.856a2.572 2.572 0 0 0 0 5.143h16.676a15.305 15.305 0 0 0 30.6 0h16.733a2.572 2.572 0 0 0 0-5.143zM58.093 94.848a10.181 10.181 0 0 1-10.152-9.886h20.305a10.162 10.162 0 0 1-10.153 9.886zm-24-15.029v-24a24 24 0 0 1 48 0v24h-48z" fill="#696666"/>
    <path d="M19.912 45.514a2.573 2.573 0 0 0-3.495 1.02 27.761 27.761 0 0 0-.21 26.2 2.573 2.573 0 0 0 4.553-2.4A22.676 22.676 0 0 1 20.93 49a2.56 2.56 0 0 0-1.019-3.486z" fill="#0479DC"/>
    <path d="M8.131 59.828a29.363 29.363 0 0 1 8.915-21.161 2.57 2.57 0 0 0-1.721-4.526 2.571 2.571 0 0 0-1.86.85 34.704 34.704 0 0 0 .39 50.047 2.533 2.533 0 0 0 1.762.705 2.572 2.572 0 0 0 1.771-4.438 29.313 29.313 0 0 1-9.257-21.477zM102.065 72.733a27.762 27.762 0 0 0-.21-26.2 2.57 2.57 0 0 0-4.725.51A2.572 2.572 0 0 0 97.34 49a22.6 22.6 0 0 1 .172 21.333 2.573 2.573 0 1 0 4.553 2.4z" fill="#0479DC"/>
    <path d="M104.817 34.99a2.57 2.57 0 1 0-3.59 3.677 29.52 29.52 0 0 1 8.933 21.39 29.513 29.513 0 0 1-9.267 21.248 2.574 2.574 0 0 0 1.772 4.438 2.534 2.534 0 0 0 1.762-.705 34.707 34.707 0 0 0 .39-50.048z" fill="#0479DC"/>
</svg>
