<svg width="120" height="120" viewBox="0 0 120 120" fill="none" xmlns="http://www.w3.org/2000/svg">
    <path d="M98.62 75.503a4.109 4.109 0 0 0 3-3.94v-12.73a5.738 5.738 0 0 0-5.61-5.73 5.69 5.69 0 0 0-.89-6.93l-10-10a2.47 2.47 0 0 0-3.49 0 2.15 2.15 0 0 1-3.05-3 2.471 2.471 0 0 0 0-3.5l-10-10a5.75 5.75 0 0 0-8.11 0l-33.4 33.41h-2.34a5.74 5.74 0 0 0-5.73 5.73v12.69a4.11 4.11 0 0 0 3 3.94 2.15 2.15 0 0 1 0 4.15 4.13 4.13 0 0 0-3 3.94v12.71a5.742 5.742 0 0 0 5.73 5.74h71.16a5.747 5.747 0 0 0 5.74-5.74v-12.67a4.129 4.129 0 0 0-3-3.94 2.15 2.15 0 0 1 0-4.15l-.01.02zm-34.61-52.31a.8.8 0 0 1 1.13 0l8.54 8.53a7.09 7.09 0 0 0 9.4 9.41l8.54 8.54a.78.78 0 0 1 .23.56.79.79 0 0 1-.23.56l-2.31 2.31h-11l-22.09-22.09 7.79-7.82zm-11.33 11.31 18.59 18.6H34.08l18.6-18.6zm-28.67 61.78v-12.07a7.1 7.1 0 0 0 0-13.3v-12.08a.79.79 0 0 1 .79-.79h55.16v39h-55.2a.79.79 0 0 1-.75-.76zm72.75-25.37a7.1 7.1 0 0 0 0 13.3v12.07a.789.789 0 0 1-.8.79h-11.1v-39h11.06a.8.8 0 0 1 .8.79l.04 12.05z" fill="#696666"/>
    <path d="M68.9 65.023H38.16c-.565 0-1.106.264-1.506.733-.4.469-.624 1.104-.624 1.767 0 .663.224 1.3.624 1.768.4.47.941.732 1.506.732H68.9c.565 0 1.107-.263 1.506-.732.4-.469.624-1.105.624-1.768s-.224-1.298-.624-1.767c-.4-.47-.941-.733-1.506-.733zM68.9 75.023H38.16c-.565 0-1.106.264-1.506.733-.4.469-.624 1.104-.624 1.767 0 .663.224 1.3.624 1.768.4.469.941.732 1.506.732H68.9c.565 0 1.107-.263 1.506-.732.4-.469.624-1.105.624-1.768s-.224-1.298-.624-1.767c-.4-.47-.941-.733-1.506-.733zM68.9 85.023H38.16c-.565 0-1.106.264-1.506.733-.4.469-.624 1.104-.624 1.767 0 .663.224 1.3.624 1.768.4.469.941.732 1.506.732H68.9c.565 0 1.107-.263 1.506-.732.4-.469.624-1.105.624-1.768s-.224-1.298-.624-1.767c-.4-.47-.941-.733-1.506-.733z" fill="#0479DC"/>
</svg>
