<svg width="64" height="75" viewBox="0 0 64 75" fill="none" xmlns="http://www.w3.org/2000/svg">
    <g clip-path="url(#a)">
        <path d="M54.678 45.507c-9.165-2.447-12.712-5.969-14.069-7.809a16.462 16.462 0 0 0 5.628-7.63 22.67 22.67 0 0 0 1.487-8.335v-5.55c.054-2.106-.32-4.201-1.097-6.162A15.77 15.77 0 0 0 43.2 4.765a15.957 15.957 0 0 0-5.223-3.525 16.09 16.09 0 0 0-12.39 0 15.956 15.956 0 0 0-5.223 3.525 15.77 15.77 0 0 0-3.428 5.256 15.642 15.642 0 0 0-1.097 6.161v6.566c-.03 1.99.23 3.973.774 5.888a16.453 16.453 0 0 0 6.35 9.042c-1.306 1.9-4.843 5.392-14.068 7.849a12.261 12.261 0 0 0-6.639 4.584A12.048 12.048 0 0 0-.05 57.79c.025 2.737.267 5.468.724 8.167.104.452.35.86.703 1.164C1.749 67.45 10.713 75 31.756 75s30.017-7.55 30.379-7.878c.359-.301.61-.71.713-1.164.45-2.68.691-5.39.724-8.107.15-2.75-.649-5.47-2.264-7.713a12.279 12.279 0 0 0-6.63-4.631zM20.943 27.373a16.078 16.078 0 0 1-.593-4.645v-6.546c-.046-1.52.218-3.035.774-4.453a11.358 11.358 0 0 1 2.466-3.803 11.49 11.49 0 0 1 3.767-2.552 11.588 11.588 0 0 1 8.948 0 11.49 11.49 0 0 1 3.767 2.552 11.358 11.358 0 0 1 2.466 3.803c.557 1.418.82 2.933.775 4.453v5.57a18.255 18.255 0 0 1-1.176 6.735 11.451 11.451 0 0 1-5.025 6.227c-.229.07-.446.174-.643.308-1.452.635-3.026.95-4.613.925a11.303 11.303 0 0 1-4.612-.994 2.349 2.349 0 0 0-.674-.329 11.806 11.806 0 0 1-3.557-3.06 11.67 11.67 0 0 1-2.07-4.191zm37.775 36.804c-2.16 1.483-10.522 6.377-26.892 6.377-16.37 0-24.741-4.904-26.881-6.377a58.037 58.037 0 0 1-.473-6.575 7.663 7.663 0 0 1 1.44-4.914 7.798 7.798 0 0 1 4.228-2.944c10.944-2.914 15.245-7.37 16.923-10.146 1.541.478 3.148.72 4.763.716 1.623.016 3.238-.21 4.794-.666 1.698 2.775 6.03 7.192 16.882 10.086a7.857 7.857 0 0 1 4.26 2.988 7.722 7.722 0 0 1 1.428 4.97 60.548 60.548 0 0 1-.472 6.505v-.02z" fill="#0479DC"/>
    </g>
    <defs>
        <clipPath id="a">
            <path fill="#fff" d="M0 0h64v75H0z"/>
        </clipPath>
    </defs>
</svg>
