<svg width="85" height="75" viewBox="0 0 85 75" fill="none" xmlns="http://www.w3.org/2000/svg">
    <g clip-path="url(#a)" fill="#0479DC">
        <path d="M81.982 61.24H64.893c-.535 0-1.049-.21-1.427-.586a1.99 1.99 0 0 1 0-2.828 2.029 2.029 0 0 1 1.427-.586h16.03V4.04H4.067V57.2h23.448c.535 0 1.049.21 1.427.586a1.99 1.99 0 0 1 0 2.828 2.028 2.028 0 0 1-1.427.586H3.018a3.043 3.043 0 0 1-2.141-.878A2.986 2.986 0 0 1-.01 58.2V2.99c0-.795.319-1.558.887-2.121A3.043 3.043 0 0 1 3.018-.01h78.964c.803 0 1.573.316 2.141.879.568.563.887 1.326.887 2.121v55.26a2.986 2.986 0 0 1-.89 2.115 3.043 3.043 0 0 1-2.138.875z"/>
        <path d="M82.95 12.06H2.04c-.536 0-1.05-.211-1.428-.586a1.99 1.99 0 0 1 0-2.829A2.028 2.028 0 0 1 2.04 8.06H82.95c.535 0 1.049.21 1.427.585a1.99 1.99 0 0 1 0 2.829 2.028 2.028 0 0 1-1.427.586zM39.992 64.98a24.619 24.619 0 0 1-15.527-5.507 24.21 24.21 0 0 1-8.476-14.016 24.052 24.052 0 0 1 2.423-16.162 24.397 24.397 0 0 1 12.222-10.97 24.693 24.693 0 0 1 16.473-.8 24.46 24.46 0 0 1 13.245 9.736 24.077 24.077 0 0 1 4.004 15.85 24.158 24.158 0 0 1-7.053 14.77 24.424 24.424 0 0 1-7.94 5.26 24.606 24.606 0 0 1-9.371 1.84zm0-44.46a20.517 20.517 0 0 0-12.937 4.6A20.177 20.177 0 0 0 20 36.804a20.045 20.045 0 0 0 2.028 13.467 20.333 20.333 0 0 0 10.19 9.136 20.579 20.579 0 0 0 13.73.658 20.385 20.385 0 0 0 11.032-8.12 20.065 20.065 0 0 0 3.33-13.21 20.133 20.133 0 0 0-5.884-12.305 20.383 20.383 0 0 0-6.623-4.38 20.534 20.534 0 0 0-7.811-1.53z"/>
        <path d="M39.992 58.41a17.938 17.938 0 0 1-11.31-4.023 17.64 17.64 0 0 1-6.166-10.217c-.8-4.01-.174-8.17 1.775-11.773a17.778 17.778 0 0 1 8.91-7.987 17.993 17.993 0 0 1 12.001-.575 17.824 17.824 0 0 1 9.647 7.098c2.29 3.4 3.32 7.481 2.913 11.548a17.603 17.603 0 0 1-5.143 10.76 17.808 17.808 0 0 1-5.793 3.833 17.942 17.942 0 0 1-6.834 1.336zm0-31.33c-3.19 0-6.281 1.097-8.747 3.102a13.638 13.638 0 0 0-4.775 7.895c-.622 3.1-.14 6.317 1.364 9.104a13.742 13.742 0 0 0 6.884 6.18 13.909 13.909 0 0 0 9.28.45 13.778 13.778 0 0 0 7.46-5.483 13.562 13.562 0 0 0-1.716-17.248 13.767 13.767 0 0 0-4.472-2.963 13.87 13.87 0 0 0-5.278-1.037zM67.901 75a2.035 2.035 0 0 1-1.433-.59l-11.104-11a2 2 0 0 1-.607-1.43 1.984 1.984 0 0 1 .608-1.43l5.097-5.05a2.02 2.02 0 0 1 1.443-.602 2.035 2.035 0 0 1 1.444.602l11.103 11a2 2 0 0 1 .602 1.425 1.984 1.984 0 0 1-.602 1.425l-5.128 5.06a2.029 2.029 0 0 1-1.423.59zm-8.236-13 8.236 8.16 2.22-2.2-8.236-8.16-2.22 2.2z"/>
        <path d="m57.532 54.804-2.876 2.85 3.24 3.21 2.876-2.85-3.24-3.21z"/>
        <path d="M57.898 62.92a2.036 2.036 0 0 1-1.443-.59l-3.28-3.25a1.999 1.999 0 0 1-.603-1.425 1.984 1.984 0 0 1 .602-1.425l2.877-2.85a2.019 2.019 0 0 1 1.438-.597 2.036 2.036 0 0 1 1.439.597l3.25 3.21c.38.381.593.894.595 1.43a1.982 1.982 0 0 1-.595 1.43L59.3 62.3a2.028 2.028 0 0 1-1.403.62zM37.135 47.56h-5.814c-.535 0-1.049-.21-1.427-.586a1.99 1.99 0 0 1-.592-1.414v-7.74c0-.53.213-1.039.592-1.414a2.028 2.028 0 0 1 1.427-.586h5.814c.535 0 1.049.211 1.428.586.378.375.59.884.59 1.414v7.74c0 .53-.212 1.04-.59 1.414a2.028 2.028 0 0 1-1.428.586zm-3.775-4h1.736v-3.7H33.36v3.7zM49.793 47.56h-5.804c-.536 0-1.05-.211-1.428-.586a1.991 1.991 0 0 1-.59-1.414v-13c0-.53.212-1.04.59-1.415a2.028 2.028 0 0 1 1.428-.585h5.804c.535 0 1.049.21 1.427.585.379.375.592.884.592 1.415v13c0 .53-.213 1.039-.592 1.414a2.028 2.028 0 0 1-1.427.586zm-3.765-4h1.726v-8.94h-1.726v8.94zM67.8 47.56h-5.804c-.535 0-1.049-.21-1.427-.585a1.99 1.99 0 0 1 0-2.829 2.028 2.028 0 0 1 1.427-.586h3.765v-18h-1.736v10.1c0 .53-.213 1.04-.591 1.415a2.028 2.028 0 0 1-2.855 0 1.99 1.99 0 0 1-.592-1.415V23.48c0-.53.213-1.039.592-1.414a2.028 2.028 0 0 1 1.427-.585h5.804c.536 0 1.05.21 1.428.585.378.375.591.884.591 1.415v22.06a1.983 1.983 0 0 1-.588 1.43 2.019 2.019 0 0 1-1.44.59z"/>
    </g>
    <defs>
        <clipPath id="a">
            <path fill="#fff" d="M0 0h85v75H0z"/>
        </clipPath>
    </defs>
</svg>
