<svg width="36" height="24" viewBox="0 0 36 24" fill="none" xmlns="http://www.w3.org/2000/svg">
    <path d="M23.77 0H12.23C5.472 0 0 5.37 0 12s5.473 12 12.23 12h11.534c6.756 0 12.229-5.37 12.229-12S30.52 0 23.77 0zm6.885 12.452c-.234 3.597-3.446 6.324-7.125 6.324h-.15c-1.254 0-2.381-.606-3.218-1.517A2.937 2.937 0 0 0 18 16.313c-.858 0-1.63.362-2.162.946-.837.911-1.971 1.517-3.219 1.517h-.149c-3.68 0-6.884-2.72-7.125-6.324-.262-3.944 2.921-7.22 6.891-7.22h11.535c3.963 0 7.146 3.276 6.884 7.22z" fill="#0479DC"/>
    <path d="M12.23 14.47c1.39 0 2.516-1.106 2.516-2.47s-1.127-2.47-2.517-2.47S9.712 10.636 9.712 12s1.127 2.47 2.517 2.47z" fill="#0479DC"/>
    <path d="M12.23 14.47c1.39 0 2.516-1.106 2.516-2.47s-1.127-2.47-2.517-2.47S9.712 10.636 9.712 12s1.127 2.47 2.517 2.47zM23.764 14.47c1.39 0 2.516-1.106 2.516-2.47s-1.126-2.47-2.516-2.47c-1.39 0-2.517 1.106-2.517 2.47s1.127 2.47 2.517 2.47z" fill="#0479DC"/>
</svg>
