<svg width="120" height="120" viewBox="0 0 120 120" fill="none" xmlns="http://www.w3.org/2000/svg">
<g clip-path="url(#clip0)">
<path opacity="0.1" d="M60.1 87.1999C75 87.1999 87.1 75.1 87.1 60.2C87.1 45.3 75 33.2 60.1 33.2C45.2 33.2 33.1 45.3 33.1 60.2C33.1 75.1 45.2 87.1999 60.1 87.1999Z" fill="black"/>
<path d="M96.1 38.5L61.1 18.5C60.5 18.1 59.7 18.1 59.1 18.5L24.1 38.5C23.5 38.8 23.1 39.5 23.1 40.2V80.3C23.1 81 23.5 81.6 24.1 82L59.1 101.9C59.4 102.1 59.8 102.2 60.1 102.2C60.4 102.2 60.8 102.1 61.1 102L96.1 82C96.7 81.7 97.1 81 97.1 80.3V40.2C97.1 39.5 96.7 38.9 96.1 38.5ZM60.1 22.4L91.1 40.1L60.1 58L29.1 40.1L60.1 22.4ZM27.1 43.5L58.1 61.2999V96.7L27.1 79V43.5ZM62.1 96.7V61.2999L93.1 43.5V79L62.1 96.7Z" fill="#696666"/>
<path d="M24.5 33.5C20.9 33.5 18 36.4 18 40C18 43.6 20.9 46.5 24.5 46.5C28.1 46.5 31.1 43.6 31 40C31 36.4 28.1 33.5 24.5 33.5Z" fill="#0479DC"/>
<path d="M94.8 46.5C98.3898 46.5 101.3 43.5899 101.3 40C101.3 36.4101 98.3898 33.5 94.8 33.5C91.2101 33.5 88.3 36.4101 88.3 40C88.3 43.5899 91.2101 46.5 94.8 46.5Z" fill="#0479DC"/>
<path d="M60.1 66.7C63.6898 66.7 66.6 63.7898 66.6 60.2C66.6 56.6101 63.6898 53.7 60.1 53.7C56.5101 53.7 53.6 56.6101 53.6 60.2C53.6 63.7898 56.5101 66.7 60.1 66.7Z" fill="#0479DC"/>
<path d="M24.5 73.7C20.9 73.7 18 76.5999 18 80.1999C18 83.7999 20.9 86.6999 24.5 86.6999C28.1 86.6999 31.1 83.6999 31 80.1999C31 76.5999 28.1 73.7 24.5 73.7Z" fill="#0479DC"/>
<path d="M94.8 86.6999C98.3898 86.6999 101.3 83.7898 101.3 80.1999C101.3 76.6101 98.3898 73.7 94.8 73.7C91.2101 73.7 88.3 76.6101 88.3 80.1999C88.3 83.7898 91.2101 86.6999 94.8 86.6999Z" fill="#0479DC"/>
<path d="M64.2 101.1C64.2 98.6 62.2 96.6 59.7 96.6C57.2 96.6 55.2 98.6 55.2 101.1C55.2 103.6 57.2 105.6 59.7 105.6C62.2 105.6 64.2 103.6 64.2 101.1Z" fill="#0479DC"/>
<path d="M60.1 107.6C56.5 107.6 53.6 104.7 53.6 101.1C53.6 97.5 56.5 94.6 60.1 94.6C63.7 94.6 66.6 97.5 66.6 101.1C66.6 104.7 63.7 107.6 60.1 107.6ZM60.1 98.6C58.7 98.6 57.6 99.7 57.6 101.1C57.6 102.5 58.7 103.6 60.1 103.6C61.5 103.6 62.6 102.5 62.6 101.1C62.6 99.7 61.5 98.6 60.1 98.6Z" fill="#0479DC"/>
<path d="M60.1 26C63.6898 26 66.6 23.0899 66.6 19.5C66.6 15.9101 63.6898 13 60.1 13C56.5101 13 53.6 15.9101 53.6 19.5C53.6 23.0899 56.5101 26 60.1 26Z" fill="#0479DC"/>
</g>
<defs>
<clipPath id="clip0">
<rect width="83.3" height="94.6" fill="white" transform="translate(18 13)"/>
</clipPath>
</defs>
</svg>
