<svg width="120" height="120" viewBox="0 0 120 120" fill="none" xmlns="http://www.w3.org/2000/svg">
<g clip-path="url(#clip0)">
<path d="M37.4 32.5C38 33.3 38.7 34 39.6 34.5C39.8 34.6 40 34.7 40.2 34.8C41.1 35.2 42.1 35.4 43.1 35.4C44.4 35.4 45.5 35 46.6 34.4C46.8 34.3 47 34.2 47.2 34C47.8 33.6 48.4 33 48.8 32.4C49 32.1 49.3 31.7 49.4 31.3C49.9 30.2 50.1 29 50 27.8C49.9 27.2 49.8 26.6 49.6 26C49 24.3 47.7 22.9 46 22.2C45.1 21.8 44.1 21.6 43.1 21.6C40.4 21.6 37.9 23.2 36.8 25.6C36 27.3 35.9 29.2 36.6 30.9C36.8 31.5 37.1 32 37.4 32.5Z" fill="white"/>
<path d="M98.1 45.8C96.1 40.2 89.9 37.4 84.4 39.4C82.4 40.1 80.7 41.3 79.5 43L77.4 42L78.8 39.1C79.2 38.2 78.9 37.2 78.1 36.6L55.1 20.4C53.7 18.2 51.6 16.4 49.2 15.3C46.8 14.2 44.3 13.8 41.6 14C37.4 14.4 33.5 16.8 31.2 20.3C28.6 24.3 28.1 29 29.6 33.3C29.7 33.6 29.8 33.9 30 34.2C30 34.3 30 34.3 30 34.4L29.1 69.2C28.1 71.7 27.5 74.4 27.5 77.3C27.5 81.5 28.7 85.4 30.9 88.7L22.3 103.6C21.9 104.2 21.9 105 22.3 105.6C22.7 106.2 23.3 106.6 24 106.6H73.1C74.2 106.6 75.1 105.7 75.1 104.6C75.1 104.1 74.9 103.7 74.7 103.4L66.3 88.8C68.4 85.5 69.7 81.6 69.7 77.4C69.7 71.6 67.3 66.3 63.5 62.5L58.6 46.2L72.2 49.7C72.2 49.8 72.4 49.8 72.6 49.8C73.4 49.8 74.1 49.4 74.4 48.6L75.7 45.7L77.7 46.7C77.2 48.8 77.3 51 78 53.1C78.9 55.8 80.9 57.9 83.5 59.1C84.9 59.8 86.5 60.1 88 60.1C89.3 60.1 90.5 59.9 91.6 59.6C92.6 59.2 93.2 58 92.8 57C92.4 56 91.2 55.4 90.2 55.8C88.5 56.4 86.7 56.4 85.1 55.6C83.4 54.8 82.2 53.5 81.6 51.8C81 50.2 81 48.6 81.6 47.1C81.8 46.9 81.9 46.8 82.1 46.5C82.2 46.3 82.2 46.1 82.2 46C83 44.7 84.1 43.7 85.6 43.2C89.1 41.9 92.9 43.7 94.2 47.2C94.6 48.2 95.8 48.8 96.8 48.4C97.8 48 98.5 46.8 98.1 45.8ZM33.7 24.1C35.4 20.5 39.1 18.1 43.1 18.1C44.6 18.1 46.1 18.4 47.4 19.1C48.8 19.7 50 20.7 51 21.8C51.4 22.3 51.8 22.8 52.1 23.4C52.1 23.4 52.1 23.4 52.1 23.5C52.4 24 52.6 24.5 52.8 25C53.7 27.5 53.6 30.1 52.6 32.6C52.6 32.7 52.5 32.8 52.5 32.9C52.2 33.5 51.9 34 51.5 34.6C51 35.4 50.3 36 49.6 36.6C48.3 37.7 46.7 38.4 45.1 38.7H45C44.4 38.8 43.8 38.9 43.1 38.9C41.6 38.9 40.1 38.6 38.8 37.9C38 37.5 37.3 37.1 36.6 36.5C35.9 35.9 35.3 35.2 34.7 34.5C34.3 33.9 33.9 33.2 33.6 32.5C33.5 32.3 33.5 32.2 33.4 32C32.4 29.4 32.6 26.6 33.7 24.1ZM53.9 45.1L58 58.7C55.2 57.2 52 56.4 48.5 56.4C42.5 56.4 37.1 58.9 33.2 63L33.8 39.4C34.8 40.2 35.8 40.9 37 41.5C38.9 42.4 40.9 42.8 43 42.8C43.6 42.8 44.1 42.8 44.7 42.7L53.9 45.1ZM69.5 102.6H27.5L33.5 92.1C37.3 96 42.6 98.4 48.5 98.4C54.4 98.4 59.7 96 63.5 92.1L69.5 102.6ZM60.2 64.8C61.5 66 62.6 67.3 63.5 68.8C64.4 70.4 65.1 72.1 65.5 73.9C65.5 75.1 65.6 76.3 65.6 77.5C65.6 80.1 65 82.6 63.9 84.9C63.6 85.6 63.2 86.3 62.8 86.9C62.4 87.5 62 88.1 61.5 88.6C58.4 92.2 53.7 94.6 48.6 94.6C43.4 94.6 38.8 92.3 35.7 88.6C35.2 88.1 34.8 87.5 34.4 86.9C34 86.3 33.6 85.6 33.3 84.9C32.2 82.7 31.6 80.2 31.6 77.5C31.6 76.5 31.7 75.5 31.9 74.6C32 73.9 32.2 73.2 32.4 72.6C32.6 71.8 32.9 71.1 33.3 70.3C36 64.5 41.9 60.4 48.8 60.4C53.2 60.4 57.2 62.1 60.2 64.8ZM71.4 45.4L57.1 41.7L54.9 41.2L52.6 40.6L51.2 40.2C51.6 40 51.9 39.7 52.2 39.4C52.8 38.9 53.3 38.4 53.8 37.8C54.3 37.2 54.8 36.5 55.3 35.8C55.6 35.4 55.8 34.9 56 34.4C57.1 32 57.5 29.5 57.3 27L74.4 39L71.4 45.4Z" fill="white"/>
<path d="M48.3 90C55.2035 90 60.8 84.4036 60.8 77.5C60.8 70.5964 55.2035 65 48.3 65C41.3964 65 35.8 70.5964 35.8 77.5C35.8 84.4036 41.3964 90 48.3 90Z" fill="white"/>
</g>
<defs>
<clipPath id="clip0">
<rect width="76.2" height="92.6" fill="white" transform="translate(22 14)"/>
</clipPath>
</defs>
</svg>
