<svg width="120" height="120" viewBox="0 0 120 120" fill="none" xmlns="http://www.w3.org/2000/svg">
<g clip-path="url(#clip0)">
<path d="M64 42.8C62.8 41.7 61.3 41 59.6 41C58 41 56.4 41.6 55.2 42.8C52.8 45.3 52.8 49.3 55.2 51.7C56.4 52.8 57.9 53.5 59.6 53.5C61.2 53.5 62.8 52.8 64 51.6C65.1 50.4 65.8 48.9 65.8 47.2C65.8 45.6 65.2 44 64 42.8Z" fill="#0479DC"/>
<path d="M69.8 38.9C69.3 38.9 68.8 38.7 68.4 38.3C63.5 33.4 55.6 33.4 50.7 38.3C49.9 39.1 48.7 39.1 47.9 38.3C47.1 37.5 47.1 36.3 47.9 35.5C54.3 29.1 64.8 29.1 71.3 35.5C72.1 36.3 72.1 37.5 71.3 38.3C70.9 38.7 70.3 38.9 69.8 38.9Z" fill="#0479DC"/>
<path d="M77.4 31.4C76.9 31.4 76.4 31.2 76 30.8C66.9 21.7 52.2 21.7 43.2 30.8C42.4 31.6 41.2 31.6 40.4 30.8C39.6 30 39.6 28.8 40.4 28C50.9 17.3 68.2 17.3 78.8 28C79.6 28.8 79.6 30 78.8 30.8C78.4 31.2 77.9 31.4 77.4 31.4Z" fill="#0479DC"/>
<path d="M30.8 70.5H78.1C78.1 70.5 48.1 47.7 30.8 70.5Z" fill="#0479DC"/>
<path d="M39.4 96.6C37.1 96.6 35.2 95.4 34.1 93.5H29.8C31.1 97.6 34.8 100.5 39.4 100.5C44 100.5 47.7 97.6 49 93.5H44.7C43.6 95.3 41.7 96.6 39.4 96.6Z" fill="#696666"/>
<path d="M80 96.6C77.7 96.6 75.8 95.4 74.7 93.5H70.4C71.7 97.6 75.4 100.5 80 100.5C84.6 100.5 88.3 97.6 89.6 93.5H85.3C84.2 95.3 82.3 96.6 80 96.6Z" fill="#696666"/>
<path d="M105.8 75.2999C103.9 71.0999 99.6 68.5 95 68.5H92.3C90 67.5 85.2 65.1999 81 61.7999C78.7 59.9999 66.3 50.7 51.1 50.7C39.7 50.7 29.8 55.8999 21.5 66.0999C13.4 68.8999 8.90001 78.9 14.5 87.5C17 91.3 21.3 93.5 25.8 93.5H29.8H34.1H44.6H48.9H70.4H74.7H85.2H89.5H94.5C103.3 93.5 110 84.4999 105.8 75.2999ZM101.9 85.9C100.6 88.1 98.1 89.5 95.5 89.5C94 89.5 92.2 89.5 89.9 89.5C88.7 89.5 87.3 89.5 85.9 89.5C82.4 89.5 78.3 89.5 74 89.5C72.7 89.5 71.4 89.5 70 89.5C63.2 89.5 56 89.5 49.3 89.5C47.9 89.5 46.6 89.5 45.3 89.5C40.9 89.5 36.9 89.5 33.4 89.5C32 89.5 30.6 89.5 29.4 89.5C27.8 89.5 26.5 89.5 25.3 89.5C22.7 89.5 20.2 88.5 18.6 86.5C13 79.9 16.6 71.6 23.2 69.7C23.5 69.7 23.8 69.5 24 69.2C31.6 59.6 40.7 54.7 51 54.7C65.1 54.7 77.1 63.9 78.5 65C80.2 66.3 81.9 67.5 83.6 68.5H29.8C28.5 68.5 27.5 69.8 27.9 71.2C28.2 72 29 72.5 29.9 72.5H94.8C101 72.5 105.7 79.3 101.9 85.9Z" fill="#696666"/>
</g>
<defs>
<clipPath id="clip0">
<rect width="95.1" height="80.5" fill="white" transform="translate(12 20)"/>
</clipPath>
</defs>
</svg>
