<svg width="152" height="24" viewBox="0 0 152 24" fill="none" xmlns="http://www.w3.org/2000/svg">
<path d="M57.2525 13.8269C57.2525 13.866 57.2232 14.3249 57.1645 15.2037H45.6041C45.8389 16.024 46.2888 16.6587 46.9538 17.1079C47.6384 17.5375 48.4893 17.7523 49.5065 17.7523C50.2694 17.7523 50.9246 17.6449 51.4723 17.4301C52.0396 17.2153 52.6069 16.8637 53.1741 16.3755L56.1082 19.4221C54.5629 21.1407 52.3037 22 49.3304 22C47.4722 22 45.8389 21.6485 44.4305 20.9454C43.0221 20.2423 41.9267 19.2659 41.1443 18.016C40.3814 16.7661 40 15.3502 40 13.7683C40 12.2059 40.3717 10.8096 41.115 9.57923C41.8778 8.32934 42.9243 7.35286 44.2545 6.6498C45.5846 5.94674 47.081 5.59521 48.7436 5.59521C50.328 5.59521 51.7658 5.92721 53.0568 6.59121C54.3478 7.23569 55.3649 8.18287 56.1082 9.43276C56.8711 10.6631 57.2525 12.1278 57.2525 13.8269ZM48.773 9.54993C47.9123 9.54993 47.1886 9.79405 46.6017 10.2823C46.0345 10.7705 45.6726 11.4345 45.5161 12.2743H52.0298C51.8733 11.4345 51.5017 10.7705 50.9149 10.2823C50.3476 9.79405 49.6336 9.54993 48.773 9.54993Z" fill="white"/>
<path d="M69.0653 16.2876H65.8964V21.7364H60.0869V1.23036H69.476C71.3343 1.23036 72.9481 1.54283 74.3173 2.16778C75.6866 2.77319 76.7428 3.65202 77.4862 4.80426C78.2295 5.93697 78.6011 7.27474 78.6011 8.81758C78.6011 10.3018 78.249 11.6005 77.5448 12.7137C76.8602 13.8074 75.8724 14.6667 74.5814 15.2916L79.0119 21.7364H72.7916L69.0653 16.2876ZM72.7329 8.81758C72.7329 7.86063 72.4297 7.11851 71.8233 6.59121C71.2169 6.06391 70.3172 5.80027 69.124 5.80027H65.8964V11.8056H69.124C70.3172 11.8056 71.2169 11.5517 71.8233 11.0439C72.4297 10.5166 72.7329 9.77452 72.7329 8.81758Z" fill="white"/>
<path d="M89.5229 22C87.8211 22 86.2856 21.6485 84.9163 20.9454C83.5471 20.2423 82.4712 19.2659 81.6888 18.016C80.9259 16.7661 80.5445 15.3502 80.5445 13.7683C80.5445 12.2059 80.9259 10.7998 81.6888 9.54993C82.4712 8.30004 83.5373 7.33333 84.887 6.6498C86.2562 5.94674 87.8015 5.59521 89.5229 5.59521C91.2442 5.59521 92.7895 5.94674 94.1587 6.6498C95.528 7.33333 96.594 8.30004 97.3569 9.54993C98.1198 10.7803 98.5012 12.1864 98.5012 13.7683C98.5012 15.3502 98.1198 16.7661 97.3569 18.016C96.594 19.2659 95.528 20.2423 94.1587 20.9454C92.7895 21.6485 91.2442 22 89.5229 22ZM89.5229 17.5766C90.5009 17.5766 91.3029 17.2446 91.9288 16.5806C92.5548 15.897 92.8677 14.9596 92.8677 13.7683C92.8677 12.5965 92.5548 11.6786 91.9288 11.0146C91.3029 10.3506 90.5009 10.0186 89.5229 10.0186C88.5448 10.0186 87.7428 10.3506 87.1169 11.0146C86.4909 11.6786 86.178 12.5965 86.178 13.7683C86.178 14.9596 86.4909 15.897 87.1169 16.5806C87.7428 17.2446 88.5448 17.5766 89.5229 17.5766Z" fill="white"/>
<path d="M111.089 5.59521C112.536 5.59521 113.847 5.92721 115.021 6.59121C116.214 7.25522 117.153 8.21216 117.837 9.46205C118.542 10.6924 118.894 12.1278 118.894 13.7683C118.894 15.4088 118.542 16.854 117.837 18.1039C117.153 19.3537 116.214 20.3205 115.021 21.004C113.847 21.668 112.536 22 111.089 22C108.996 22 107.431 21.3848 106.394 20.1545V21.7364H101.084V0H106.658V7.23568C107.734 6.14203 109.211 5.59521 111.089 5.59521ZM109.915 17.5766C110.893 17.5766 111.695 17.2446 112.321 16.5806C112.947 15.897 113.26 14.9596 113.26 13.7683C113.26 12.5965 112.947 11.6786 112.321 11.0146C111.695 10.3506 110.893 10.0186 109.915 10.0186C108.937 10.0186 108.135 10.3506 107.509 11.0146C106.883 11.6786 106.57 12.5965 106.57 13.7683C106.57 14.9596 106.883 15.897 107.509 16.5806C108.135 17.2446 108.937 17.5766 109.915 17.5766Z" fill="white"/>
<path d="M129.466 22C127.764 22 126.228 21.6485 124.859 20.9454C123.49 20.2423 122.414 19.2659 121.632 18.016C120.869 16.7661 120.487 15.3502 120.487 13.7683C120.487 12.2059 120.869 10.7998 121.632 9.54993C122.414 8.30004 123.48 7.33333 124.83 6.6498C126.199 5.94674 127.744 5.59521 129.466 5.59521C131.187 5.59521 132.732 5.94674 134.102 6.6498C135.471 7.33333 136.537 8.30004 137.3 9.54993C138.063 10.7803 138.444 12.1864 138.444 13.7683C138.444 15.3502 138.063 16.7661 137.3 18.016C136.537 19.2659 135.471 20.2423 134.102 20.9454C132.732 21.6485 131.187 22 129.466 22ZM129.466 17.5766C130.444 17.5766 131.246 17.2446 131.872 16.5806C132.498 15.897 132.811 14.9596 132.811 13.7683C132.811 12.5965 132.498 11.6786 131.872 11.0146C131.246 10.3506 130.444 10.0186 129.466 10.0186C128.488 10.0186 127.686 10.3506 127.06 11.0146C126.434 11.6786 126.121 12.5965 126.121 13.7683C126.121 14.9596 126.434 15.897 127.06 16.5806C127.686 17.2446 128.488 17.5766 129.466 17.5766Z" fill="white"/>
<path d="M152 21.0919C151.531 21.3848 150.953 21.6094 150.269 21.7656C149.604 21.9219 148.89 22 148.127 22C146.054 22 144.459 21.4922 143.344 20.4767C142.229 19.4612 141.672 17.9476 141.672 15.9361V10.6045H139.354V6.44474H141.672V2.31425H147.247V6.44474H150.885V10.6045H147.247V15.8775C147.247 16.4439 147.393 16.893 147.687 17.225C148 17.5375 148.411 17.6937 148.919 17.6937C149.565 17.6937 150.132 17.5277 150.621 17.1957L152 21.0919Z" fill="white"/>
<g clip-path="url(#clip0)">
<path d="M23.3935 0H12.0351C5.38615 0 0 5.37044 0 12C0 18.6296 5.38615 24 12.0351 24H23.3865C30.0354 24 35.4216 18.6296 35.4216 12C35.4216 5.37044 30.0354 0 23.3935 0ZM30.168 12.4522C29.9378 16.0487 26.7772 18.7757 23.1562 18.7757H23.0097C21.7748 18.7757 20.6655 18.1704 19.8422 17.2591C19.319 16.6817 18.5585 16.313 17.7143 16.313C16.8701 16.313 16.1096 16.6748 15.5863 17.2591C14.7631 18.1704 13.6468 18.7757 12.4188 18.7757H12.2723C8.65133 18.7757 5.49778 16.0557 5.26056 12.4522C5.00242 8.50783 8.13504 5.2313 12.0421 5.2313H23.3935C27.2935 5.2313 30.4262 8.50783 30.168 12.4522Z" fill="white"/>
<path d="M12.0351 14.4696C13.403 14.4696 14.5119 13.3639 14.5119 12C14.5119 10.6361 13.403 9.53046 12.0351 9.53046C10.6672 9.53046 9.55832 10.6361 9.55832 12C9.55832 13.3639 10.6672 14.4696 12.0351 14.4696Z" fill="white"/>
<path d="M12.0351 14.4696C13.403 14.4696 14.5119 13.3639 14.5119 12C14.5119 10.6361 13.403 9.53046 12.0351 9.53046C10.6672 9.53046 9.55832 10.6361 9.55832 12C9.55832 13.3639 10.6672 14.4696 12.0351 14.4696Z" fill="white"/>
<path d="M23.3865 14.4696C24.7544 14.4696 25.8633 13.3639 25.8633 12C25.8633 10.6361 24.7544 9.53046 23.3865 9.53046C22.0186 9.53046 20.9097 10.6361 20.9097 12C20.9097 13.3639 22.0186 14.4696 23.3865 14.4696Z" fill="white"/>
</g>
<defs>
<clipPath id="clip0">
<rect width="35.4286" height="24" fill="white"/>
</clipPath>
</defs>
</svg>
