<svg width="173" height="32" viewBox="0 0 173 32" fill="none" xmlns="http://www.w3.org/2000/svg">
<g clip-path="url(#clip0)">
<path d="M0 16.5093C0 16.5093 5.92247 13.2643 16.7684 13.1932L24.9267 7.4375C24.9267 7.4375 13.1531 7.88754 8.44368 10.9194C3.71046 13.9512 0 16.5093 0 16.5093Z" fill="url(#paint0_linear)"/>
<path d="M74.7563 8.74023L65.7893 14.4486C66.2888 14.6144 66.931 14.7565 67.3829 14.8749L76.3499 9.19027C75.8979 9.07184 75.2557 8.92972 74.7563 8.74023Z" fill="#264C88"/>
<path d="M73.5908 8.21908C73.3054 8.10065 72.9724 7.95854 72.5681 7.74536L63.4822 13.5248C64.0054 13.7143 64.5049 13.9038 64.9806 14.0459L73.9476 8.33752C73.8287 8.31383 73.7097 8.26646 73.5908 8.21908Z" fill="#002D74"/>
<path d="M24.9267 7.43738L20.7168 10.3982C20.7168 10.3982 32.3952 2.20274 47.0944 7.12946C54.111 9.47439 58.9869 11.7483 62.6974 13.1457L71.7594 7.34264C65.4802 4.3345 44.5732 -7.60333 24.9267 7.43738Z" fill="url(#paint1_linear)"/>
<path d="M77.1823 9.59277L68.2153 15.3011C68.9765 15.5143 69.69 15.6327 70.3798 15.7038L79.5846 9.85332C78.8472 9.85332 78.0623 9.78226 77.1823 9.59277Z" fill="#456699"/>
<path d="M80.988 9.85342L71.7832 15.7039C73.3054 15.846 74.9466 15.5618 76.2072 14.7564C80.9404 11.7009 84.7698 9.09546 84.7698 9.09546C84.7698 9.09546 83.1524 9.82973 80.988 9.85342Z" fill="#7F96B9"/>
<path d="M18.1717 29.2524H23.5471L23.9277 29.9866C24.4747 31.0288 25.545 31.6683 26.7343 31.6683H27.7333C27.8522 31.6683 27.9235 31.5499 27.8522 31.4552L23.2379 22.6676C22.9287 22.0518 22.4054 21.5543 21.7394 21.3175C20.455 20.8675 19.1231 21.4596 18.5285 22.5729L13.7239 31.6683H14.9845C16.1499 31.6683 17.2441 31.0288 17.7911 29.9866L18.1717 29.2524ZM20.8594 24.1125L22.2151 26.7179H19.5036L20.8594 24.1125Z" fill="#001F60"/>
<path d="M8.53881 25.3204L12.5347 21.7674C12.7725 21.5543 12.6298 21.1753 12.2968 21.1753H10.4654C9.53778 21.1753 8.65773 21.5069 7.96797 22.1227L4.47157 25.2493V21.5306C4.47157 21.2937 4.32886 21.2227 4.23372 21.199C2.78283 21.3174 1.68872 22.5017 1.68872 23.9229V31.6683H4.47157V28.968L6.46951 27.1916L9.01451 30.1997C9.79941 31.1235 10.9411 31.6683 12.1541 31.6683H13.7953L8.53881 25.3204Z" fill="#001F60"/>
<path d="M39.2215 21.1753H39.1739H29.874C28.4945 21.1753 27.3766 22.2649 27.3528 23.6387C27.3528 23.6623 27.3766 23.7097 27.4479 23.7097H31.9909V31.6683H34.7737V23.7097H36.8906C38.2225 23.7097 39.2929 22.6912 39.4118 21.3885C39.388 21.2227 39.2691 21.1753 39.2215 21.1753Z" fill="#001F60"/>
<path d="M51.3518 29.1338H42.7178V27.8074H46.8326C48.1408 27.8074 49.2111 26.8126 49.3538 25.5572C49.33 25.3204 49.0922 25.273 48.997 25.273H42.7416C42.7416 24.4677 43.4076 23.686 44.2163 23.686H49.5203C50.8047 23.686 51.875 22.7149 52.0177 21.4832C51.9702 21.199 51.6372 21.1753 51.6372 21.1753H44.7395C42.0994 21.1753 39.9587 23.307 39.9587 25.9362V31.6683H49.116C50.4717 31.6683 51.542 30.6261 51.6372 29.2996C51.5896 29.1812 51.4469 29.1575 51.3518 29.1338Z" fill="#001F60"/>
<path d="M79.204 21.1753C77.8007 21.1753 76.6828 22.2885 76.6828 23.686V25.1546H70.1419V21.4122C70.1419 21.27 70.023 21.1516 69.8803 21.1516C68.4769 21.1516 67.3591 22.2649 67.3591 23.6623V31.4551C67.3591 31.4551 67.3353 31.6446 67.5731 31.6209H67.5969C69.024 31.5025 70.1181 30.3182 70.1181 28.8733V27.6416H76.659V31.5025C76.659 31.5498 76.7066 31.6446 76.8255 31.6683C78.2764 31.5735 79.4181 30.3892 79.4181 28.9207V21.4122C79.4656 21.2937 79.3467 21.1753 79.204 21.1753Z" fill="#001F60"/>
<path d="M65.0284 29.1338C63.2207 29.1338 58.6302 29.1338 58.535 29.1338C57.0604 29.1338 55.8711 27.8785 55.8711 26.4099C55.8711 24.9888 56.989 23.7571 58.4161 23.686C58.4637 23.686 60.6995 23.686 62.6499 23.686C64.0056 23.686 65.0997 22.6438 65.1949 21.2937C65.1949 21.199 65.1235 21.1516 65.0521 21.1516C63.078 21.1516 58.0356 21.1516 57.8929 21.1516C55.2289 21.3411 53.1121 23.686 53.1121 26.3863C53.1121 29.1575 55.3241 31.5735 58.0831 31.6446H62.6499C64.0056 31.6446 65.0997 30.5787 65.1711 29.2286C65.1473 29.1338 65.0284 29.1338 65.0284 29.1338Z" fill="#001F60"/>
<path d="M89.3365 30.0103V28.3049H87.9094V30.3893C87.9094 30.792 88.0521 31.0999 88.3375 31.2894C88.623 31.5026 89.0035 31.5973 89.4792 31.5973H94.7595V30.3183H89.6695C89.4554 30.3183 89.3365 30.2235 89.3365 30.0103Z" fill="#001F60"/>
<path d="M94.7121 20.8911H93.2612V28.2812H94.7121V25.0362H96.3295V23.7571H94.7121V20.8911Z" fill="#001F60"/>
<path d="M97.1382 26.552H101.419V27.7126H98.5415V28.968H104.155V31.6445H105.582V27.7126H102.847V26.552H107.128V25.2966H97.1382V26.552Z" fill="#001F60"/>
<path d="M113.478 27.0259C113.122 26.6706 112.812 26.2442 112.575 25.7942C112.384 25.3915 112.242 24.9889 112.17 24.6099C112.146 24.5151 112.123 24.3967 112.123 24.2783C112.099 24.1599 112.099 24.0177 112.099 23.8756C112.099 23.7335 112.075 23.6151 112.075 23.473C112.075 23.3545 112.075 23.2361 112.075 23.1414H114.144V21.886H108.626V23.1414H110.6C110.6 23.3545 110.577 23.5914 110.577 23.8756C110.553 24.1599 110.529 24.3967 110.505 24.5862C110.458 24.7994 110.41 24.9889 110.339 25.202C110.267 25.3915 110.196 25.6047 110.077 25.7942C109.839 26.2679 109.53 26.6943 109.173 27.0733C108.817 27.4522 108.388 27.8075 107.96 28.1154H107.937L108.84 29.0866C109.34 28.7313 109.792 28.3049 110.244 27.8312C110.672 27.3575 111.052 26.8127 111.338 26.2442C111.599 26.789 111.956 27.2627 112.384 27.7128C112.812 28.1628 113.288 28.5892 113.811 28.9445L114.668 28.0207H114.644C114.24 27.7128 113.859 27.3812 113.478 27.0259Z" fill="#001F60"/>
<path d="M116.689 20.8911H115.262V31.8815H116.689V26.1258H118.426V24.8704H116.689V20.8911Z" fill="#001F60"/>
<path d="M126.322 27.8785C126.18 27.7838 126.037 27.6891 125.894 27.618C125.751 27.5469 125.585 27.4759 125.395 27.4048C125.228 27.3574 125.038 27.3101 124.824 27.2864C124.633 27.2627 124.419 27.239 124.205 27.239C123.777 27.239 123.397 27.2864 123.04 27.4048C122.683 27.5232 122.374 27.6891 122.112 27.9022C121.97 27.997 121.851 28.1154 121.755 28.2338C121.66 28.3523 121.565 28.4944 121.494 28.6365C121.351 28.9207 121.28 29.2523 121.28 29.5839C121.28 29.9629 121.351 30.2945 121.494 30.5788C121.613 30.8393 121.827 31.0762 122.112 31.313C122.35 31.5025 122.659 31.6446 123.04 31.7868C123.206 31.8341 123.397 31.8815 123.587 31.9052C123.777 31.9289 123.991 31.9526 124.182 31.9526C124.562 31.9526 124.966 31.9052 125.347 31.7868C125.537 31.7157 125.704 31.6446 125.847 31.5736C125.989 31.5025 126.132 31.4078 126.275 31.313C126.536 31.0999 126.727 30.863 126.893 30.5788C127.036 30.2945 127.107 29.9629 127.107 29.6076C127.107 29.2287 127.036 28.897 126.893 28.5891C126.798 28.3286 126.584 28.0917 126.322 27.8785ZM123.658 28.5891C123.753 28.5654 123.825 28.5654 123.92 28.5418C124.015 28.5418 124.11 28.5181 124.229 28.5181C124.324 28.5181 124.419 28.5181 124.515 28.5418C124.61 28.5418 124.705 28.5654 124.8 28.5891C124.966 28.6365 125.133 28.7076 125.276 28.8023C125.395 28.8734 125.514 28.9918 125.609 29.1576C125.68 29.3234 125.728 29.4892 125.728 29.6787C125.728 29.8445 125.68 30.0103 125.609 30.1287C125.49 30.2945 125.395 30.413 125.276 30.484C125.133 30.5788 124.966 30.6498 124.8 30.6972C124.61 30.7446 124.419 30.7683 124.229 30.7683C124.086 30.7683 123.896 30.7446 123.682 30.7209C123.492 30.6735 123.325 30.6024 123.206 30.5077C123.064 30.413 122.945 30.2945 122.873 30.1524C122.778 30.034 122.754 29.8682 122.754 29.6787C122.754 29.4892 122.802 29.2997 122.873 29.1576C122.921 29.0392 123.04 28.9207 123.206 28.8023C123.349 28.6839 123.516 28.6128 123.658 28.5891Z" fill="#001F60"/>
<path d="M124.943 24.9888H127.892V23.7334H122.493C122.398 23.7334 122.303 23.7097 122.255 23.6386C122.207 23.5676 122.16 23.4965 122.16 23.4018V22.478H127.773V21.2227H120.733V23.7571C120.733 24.1597 120.875 24.4677 121.161 24.6808C121.446 24.894 121.827 24.9888 122.303 24.9888H123.539V25.6757H119.258V26.931H129.272V25.6757H124.99V24.9888H124.943Z" fill="#001F60"/>
<path d="M145.041 30.0102V27.8311H143.614V30.3892C143.614 30.7918 143.757 31.0761 144.042 31.2892C144.328 31.4787 144.708 31.5972 145.184 31.5972H150.559V30.3181H145.374C145.16 30.3181 145.041 30.2234 145.041 30.0102Z" fill="#001F60"/>
<path d="M149.061 28.0206H150.488V20.8911H149.061V22.0517H147.539V23.2124H149.061V24.4914H147.539V25.6757H149.061V28.0206Z" fill="#001F60"/>
<path d="M145.802 26.4573C146.135 26.3389 146.421 26.1494 146.682 25.8888C146.92 25.652 147.134 25.3677 147.277 25.0125C147.42 24.6808 147.491 24.3019 147.491 23.8992C147.491 23.4965 147.42 23.1176 147.277 22.786C147.11 22.4543 146.92 22.1464 146.682 21.9096C146.397 21.649 146.111 21.4595 145.802 21.3411C145.445 21.199 145.065 21.1516 144.708 21.1516C144.328 21.1516 143.947 21.2227 143.614 21.3411C143.305 21.4595 142.996 21.649 142.734 21.9096C142.496 22.1227 142.306 22.4307 142.139 22.786C141.997 23.1412 141.925 23.5202 141.925 23.8992C141.925 24.3256 141.997 24.7045 142.139 25.0125C142.306 25.3914 142.496 25.6757 142.734 25.8888C142.972 26.1494 143.281 26.3152 143.614 26.4573C143.947 26.5994 144.304 26.6705 144.708 26.6705C145.112 26.6705 145.469 26.5994 145.802 26.4573ZM143.757 25.0125C143.495 24.7519 143.376 24.3729 143.376 23.8992C143.376 23.4255 143.519 23.0465 143.757 22.786C144.018 22.5254 144.351 22.3833 144.732 22.3833C145.089 22.3833 145.422 22.5254 145.683 22.786C145.945 23.0702 146.064 23.4492 146.064 23.8992C146.064 24.1361 146.04 24.3729 145.969 24.5387C145.897 24.7282 145.802 24.894 145.683 25.0125C145.564 25.1546 145.422 25.2493 145.255 25.2967C145.089 25.3677 144.922 25.3914 144.732 25.3914C144.328 25.4151 144.018 25.273 143.757 25.0125Z" fill="#001F60"/>
<path d="M152.414 28.0681H156.672V31.8816H158.123V28.0681H162.404V26.8127H152.414V28.0681Z" fill="#001F60"/>
<path d="M159.598 24.2071C159.55 24.7756 159.455 25.3677 159.312 25.9125V25.9362L160.62 26.1494H160.644C160.787 25.6046 160.906 24.894 161.001 24.0887C161.072 23.2833 161.12 22.3596 161.12 21.3411V21.3174H153.747V22.5727H159.693C159.645 23.0938 159.621 23.6386 159.598 24.2071Z" fill="#001F60"/>
<path d="M165.33 24.4204C165.567 24.5862 165.829 24.7283 166.138 24.823C166.448 24.9178 166.804 24.9651 167.161 24.9651C167.518 24.9651 167.851 24.9178 168.16 24.823C168.469 24.7283 168.755 24.6098 168.993 24.444C169.23 24.2782 169.421 24.0651 169.563 23.8045C169.706 23.544 169.777 23.2597 169.777 22.9281C169.777 22.6202 169.706 22.336 169.587 22.0991C169.468 21.8386 169.302 21.6254 169.064 21.4359C168.85 21.2464 168.564 21.1043 168.255 21.0096C167.946 20.9148 167.565 20.8438 167.185 20.8438C166.828 20.8438 166.495 20.8911 166.186 20.9859C165.877 21.0806 165.591 21.2227 165.377 21.3885C165.139 21.5543 164.973 21.7912 164.83 22.0281C164.687 22.2886 164.64 22.5965 164.64 22.9281C164.64 23.2361 164.711 23.5203 164.83 23.7808C164.925 24.0414 165.116 24.2546 165.33 24.4204ZM165.924 22.9281C165.924 22.5965 166.043 22.3597 166.257 22.2175C166.471 22.0517 166.781 21.9807 167.185 21.9807C167.542 21.9807 167.827 22.0754 168.065 22.2175C168.303 22.3834 168.422 22.6202 168.422 22.9281C168.422 23.0466 168.398 23.1887 168.327 23.2834C168.255 23.4019 168.16 23.4966 168.065 23.5677C167.946 23.6624 167.827 23.7098 167.684 23.7808C167.542 23.8282 167.375 23.8519 167.209 23.8519C166.852 23.8519 166.566 23.7808 166.329 23.615C166.043 23.4729 165.924 23.2361 165.924 22.9281Z" fill="#001F60"/>
<path d="M166.257 28.2574H167.589V26.6704C167.851 26.6468 168.113 26.6468 168.351 26.6231C168.612 26.5994 168.85 26.5757 169.112 26.552C169.611 26.481 170.087 26.4099 170.539 26.3152L170.42 25.2256V25.2019H170.396C169.825 25.344 169.254 25.4388 168.684 25.4861C168.398 25.5335 168.089 25.5572 167.804 25.5572C167.518 25.5572 167.209 25.5809 166.923 25.5809H163.808V26.6941H166.257V28.2574Z" fill="#001F60"/>
<path d="M168.945 28.1628H171.157V29.1339H172.608V20.8911H171.157V27.0969H168.945V28.1628Z" fill="#001F60"/>
<path d="M167.256 30.4366C167.042 30.4366 166.923 30.3419 166.923 30.1287V28.6128H165.496V30.5077C165.496 30.9104 165.639 31.1946 165.924 31.4078C166.21 31.5972 166.59 31.7157 167.066 31.7157H172.679V30.4603H167.256V30.4366Z" fill="#001F60"/>
<path d="M89.2176 27.7129C89.5268 27.7129 89.8598 27.6655 90.169 27.5471C90.4782 27.4523 90.7637 27.2865 91.0253 27.0734C91.2869 26.8602 91.4772 26.6233 91.6437 26.3154C91.8102 26.0075 91.8816 25.6759 91.8816 25.2732C91.8816 24.9653 91.834 24.6574 91.7151 24.3968C91.5961 24.1363 91.4534 23.9231 91.2632 23.7099H92.3335V22.5967H86.1018V23.7099H87.1721C87.0056 23.8994 86.8391 24.1126 86.744 24.3731C86.6251 24.6337 86.5775 24.9416 86.5775 25.2732C86.5775 25.6522 86.6489 25.9838 86.7916 26.2917C86.9343 26.576 87.1483 26.8365 87.3862 27.0497C87.624 27.2629 87.9095 27.4287 88.2187 27.5234C88.5517 27.6655 88.8847 27.7129 89.2176 27.7129ZM88.29 24.3495C88.5041 24.0889 88.8133 23.9705 89.2414 23.9705C89.622 23.9705 89.955 24.0889 90.169 24.3495C90.4069 24.5863 90.502 24.9179 90.502 25.3206C90.502 25.6996 90.3831 26.0075 90.169 26.268C89.955 26.5286 89.622 26.647 89.2414 26.647C88.8609 26.647 88.5279 26.5286 88.3138 26.268C88.0997 26.0075 87.9808 25.6996 87.9808 25.3206C87.957 24.9416 88.076 24.61 88.29 24.3495Z" fill="#001F60"/>
<path d="M90.7876 20.8911H87.6956V22.028H90.7876V20.8911Z" fill="#001F60"/>
<path d="M134.98 20.8911H131.888V22.028H134.98V20.8911Z" fill="#001F60"/>
<path d="M135.979 27.6181C135.717 27.3813 135.456 27.1207 135.242 26.8365C135.028 26.5523 134.837 26.2443 134.671 25.9364C134.504 25.6285 134.385 25.2732 134.338 24.8942C134.266 24.5626 134.243 24.231 134.243 23.8994H136.383V22.6677H130.508V23.8994H132.673C132.673 24.0652 132.673 24.231 132.649 24.3968C132.625 24.5626 132.602 24.7284 132.554 24.9179C132.483 25.2732 132.364 25.6048 132.197 25.9127C132.031 26.2206 131.84 26.5286 131.626 26.8128C131.412 27.097 131.174 27.3813 130.913 27.6181C130.651 27.8787 130.366 28.1155 130.08 28.3524L131.056 29.3472C131.531 28.9446 131.983 28.4945 132.435 28.0208C132.863 27.5471 133.22 27.0023 133.482 26.4338C133.719 26.9312 134.052 27.4286 134.457 27.9024C134.885 28.3761 135.361 28.8261 135.908 29.2525L136.811 28.234C136.526 28.0682 136.241 27.855 135.979 27.6181Z" fill="#001F60"/>
<path d="M138.785 20.8911H137.358V31.8815H138.785V26.1258H140.546V24.8704H138.785V20.8911Z" fill="#001F60"/>
<path d="M104.226 23.5676C104.202 23.8518 104.155 24.136 104.107 24.444H105.487C105.534 24.136 105.582 23.7807 105.629 23.3781C105.677 22.8096 105.701 22.1227 105.701 21.3411V21.3174H98.5889V22.5727H104.297C104.273 22.9044 104.25 23.236 104.226 23.5676Z" fill="#001F60"/>
<path d="M86.1018 15.2776H86.5537V16.4382L87.6716 15.2776H88.2662L87.1959 16.3672L88.29 17.9541H87.7192L86.8867 16.6988L86.5537 17.0304V17.9778H86.1018V15.2776Z" fill="#001F60"/>
<path d="M89.7884 15.2302C90.1928 15.2302 90.502 15.3487 90.7398 15.6092C90.9777 15.8698 91.0966 16.2014 91.0966 16.6277C91.0966 17.0541 90.9777 17.3857 90.7398 17.6462C90.502 17.9068 90.1928 18.0252 89.7884 18.0252C89.3841 18.0252 89.0749 17.9068 88.8608 17.6462C88.623 17.3857 88.5278 17.0541 88.5278 16.6277C88.5278 16.2014 88.6468 15.8698 88.8608 15.6092C89.0749 15.3487 89.3841 15.2302 89.7884 15.2302ZM89.7884 15.5855C89.5268 15.5855 89.3365 15.6803 89.1938 15.8698C89.0511 16.0592 88.9797 16.2961 88.9797 16.6277C88.9797 16.9356 89.0511 17.1725 89.1938 17.362C89.3365 17.5515 89.5268 17.6462 89.7647 17.6462C90.0025 17.6462 90.1928 17.5515 90.3355 17.362C90.4782 17.1725 90.5733 16.9119 90.5733 16.6277C90.5733 16.3198 90.502 16.0829 90.3355 15.8698C90.2166 15.6803 90.0263 15.5855 89.7884 15.5855Z" fill="#001F60"/>
<path d="M91.5248 15.2776H92.7378C92.9994 15.2776 93.2373 15.3486 93.38 15.4671C93.5465 15.5855 93.6179 15.775 93.6179 16.0119C93.6179 16.1777 93.5941 16.3198 93.5227 16.4382C93.4751 16.533 93.4038 16.604 93.3086 16.6277C93.4751 16.6988 93.5703 16.8646 93.5703 17.1251L93.5941 17.4804C93.5941 17.6699 93.6416 17.812 93.713 17.8594V17.9541H93.1897C93.1659 17.8831 93.1422 17.7883 93.1184 17.6225L93.0946 17.1962C93.0946 17.0777 93.047 16.983 92.9994 16.9119C92.9281 16.8646 92.8329 16.8409 92.6665 16.8409H91.9529V17.9541H91.501V15.2776H91.5248ZM91.9767 16.4856H92.6902C92.9994 16.4856 93.1422 16.3435 93.1422 16.0592C93.1422 15.7987 92.9994 15.6566 92.7378 15.6566H91.9767V16.4856Z" fill="#001F60"/>
<path d="M94.165 15.2776H96.1154V15.6566H94.617V16.3908H95.9965V16.7461H94.617V17.5751H96.1392V17.9541H94.165V15.2776V15.2776Z" fill="#001F60"/>
<path d="M97.376 15.2776H97.8754L98.8031 17.9541H98.3036L98.0657 17.1962H97.1619L96.9003 17.9541H96.4246L97.376 15.2776ZM97.6138 15.8934L97.2808 16.8646H97.9468L97.6138 15.8934Z" fill="#001F60"/>
<path d="M101.158 15.2776H101.657L102.585 17.9541H102.085L101.847 17.1962H100.944L100.682 17.9541H100.206L101.158 15.2776ZM101.396 15.8934L101.063 16.8646H101.729L101.396 15.8934Z" fill="#001F60"/>
<path d="M103.417 15.2776V16.9119C103.417 17.4093 103.608 17.6462 103.988 17.6462C104.392 17.6462 104.583 17.4093 104.583 16.9119V15.2776H105.058V16.7698C105.058 17.1962 104.987 17.5041 104.821 17.6936C104.654 17.9068 104.392 18.0252 104.012 18.0252C103.631 18.0252 103.37 17.9068 103.203 17.6936C103.037 17.5041 102.965 17.1962 102.965 16.7698V15.2776H103.417Z" fill="#001F60"/>
<path d="M107.532 15.2776V15.6566H106.7V17.9541H106.224V15.6566H105.391V15.2776H107.532Z" fill="#001F60"/>
<path d="M108.983 15.2302C109.387 15.2302 109.697 15.3487 109.934 15.6092C110.172 15.8698 110.291 16.2014 110.291 16.6277C110.291 17.0541 110.172 17.3857 109.934 17.6462C109.697 17.9068 109.387 18.0252 108.983 18.0252C108.579 18.0252 108.269 17.9068 108.055 17.6462C107.818 17.3857 107.722 17.0541 107.722 16.6277C107.722 16.2014 107.841 15.8698 108.055 15.6092C108.269 15.3487 108.579 15.2302 108.983 15.2302ZM108.983 15.5855C108.721 15.5855 108.531 15.6803 108.388 15.8698C108.246 16.0592 108.174 16.2961 108.174 16.6277C108.174 16.9356 108.246 17.1725 108.388 17.362C108.531 17.5515 108.721 17.6462 108.959 17.6462C109.197 17.6462 109.387 17.5515 109.53 17.362C109.673 17.1725 109.768 16.9119 109.768 16.6277C109.768 16.3198 109.697 16.0829 109.53 15.8698C109.411 15.6803 109.221 15.5855 108.983 15.5855Z" fill="#001F60"/>
<path d="M112.004 17.3146L112.67 15.2776H113.264V17.9541H112.812V16.1066L112.218 17.9541H111.766L111.147 16.1066V17.9541H110.719V15.2776H111.314L112.004 17.3146Z" fill="#001F60"/>
<path d="M115.001 15.2302C115.405 15.2302 115.714 15.3487 115.952 15.6092C116.19 15.8698 116.309 16.2014 116.309 16.6277C116.309 17.0541 116.19 17.3857 115.952 17.6462C115.714 17.9068 115.405 18.0252 115.001 18.0252C114.596 18.0252 114.287 17.9068 114.073 17.6462C113.835 17.3857 113.74 17.0541 113.74 16.6277C113.74 16.2014 113.859 15.8698 114.073 15.6092C114.311 15.3487 114.62 15.2302 115.001 15.2302ZM115.001 15.5855C114.739 15.5855 114.549 15.6803 114.406 15.8698C114.263 16.0592 114.192 16.2961 114.192 16.6277C114.192 16.9356 114.263 17.1725 114.406 17.362C114.549 17.5515 114.739 17.6462 114.977 17.6462C115.215 17.6462 115.405 17.5515 115.548 17.362C115.69 17.1725 115.785 16.9119 115.785 16.6277C115.785 16.3198 115.714 16.0829 115.548 15.8698C115.429 15.6803 115.238 15.5855 115.001 15.5855Z" fill="#001F60"/>
<path d="M118.664 15.2776V15.6566H117.831V17.9541H117.355V15.6566H116.523V15.2776H118.664Z" fill="#001F60"/>
<path d="M119.02 15.2776H119.496V17.9541H119.02V15.2776Z" fill="#001F60"/>
<path d="M121.042 17.3383L121.708 15.2776H122.207L121.28 17.9541H120.828L119.876 15.2776H120.376L121.042 17.3383Z" fill="#001F60"/>
<path d="M122.588 15.2776H124.539V15.6566H123.04V16.3908H124.42V16.7461H123.04V17.5751H124.562V17.9541H122.588V15.2776V15.2776Z" fill="#001F60"/>
<path d="M128.225 15.2776V15.6566H127.393V17.9541H126.917V15.6566H126.084V15.2776H128.225Z" fill="#001F60"/>
<path d="M128.606 15.2776H130.556V15.6566H129.058V16.3908H130.437V16.7461H129.058V17.5751H130.58V17.9541H128.606V15.2776V15.2776Z" fill="#001F60"/>
<path d="M130.937 16.604C130.937 16.2014 131.032 15.8934 131.246 15.6329C131.46 15.3723 131.769 15.2302 132.173 15.2302C132.506 15.2302 132.792 15.325 132.982 15.5381C133.149 15.7039 133.244 15.9171 133.267 16.154H132.816C132.792 16.0119 132.744 15.8934 132.649 15.7987C132.53 15.6803 132.387 15.6092 132.197 15.6092C131.959 15.6092 131.793 15.7039 131.65 15.8934C131.507 16.0829 131.436 16.3435 131.436 16.6751C131.436 17.0067 131.507 17.2435 131.626 17.4094C131.769 17.5752 131.935 17.6699 132.173 17.6699C132.364 17.6699 132.53 17.5988 132.649 17.433C132.744 17.3146 132.816 17.1488 132.839 16.9356H133.291C133.244 17.2435 133.149 17.5041 132.982 17.6936C132.768 17.9304 132.483 18.0252 132.126 18.0252C131.745 18.0252 131.46 17.9068 131.246 17.6462C131.055 17.4094 130.937 17.0541 130.937 16.604Z" fill="#001F60"/>
<path d="M133.743 15.2776H134.219V16.3672H135.408V15.2776H135.884V17.9541H135.408V16.7461H134.219V17.9541H133.743V15.2776Z" fill="#001F60"/>
<path d="M138.143 17.2435V15.3013H138.595V17.9778H138.096L136.93 16.0355V17.9778H136.479V15.2776H137.002L138.143 17.2435Z" fill="#001F60"/>
<path d="M140.332 15.2302C140.736 15.2302 141.045 15.3487 141.283 15.6092C141.521 15.8698 141.64 16.2014 141.64 16.6277C141.64 17.0541 141.521 17.3857 141.283 17.6462C141.045 17.9068 140.736 18.0252 140.332 18.0252C139.927 18.0252 139.618 17.9068 139.404 17.6462C139.166 17.3857 139.071 17.0541 139.071 16.6277C139.071 16.2014 139.19 15.8698 139.404 15.6092C139.618 15.3487 139.927 15.2302 140.332 15.2302ZM140.332 15.5855C140.07 15.5855 139.88 15.6803 139.737 15.8698C139.594 16.0592 139.523 16.2961 139.523 16.6277C139.523 16.9356 139.594 17.1725 139.737 17.362C139.88 17.5515 140.07 17.6462 140.308 17.6462C140.546 17.6462 140.736 17.5515 140.879 17.362C141.021 17.1725 141.117 16.9119 141.117 16.6277C141.117 16.3198 141.045 16.0829 140.879 15.8698C140.76 15.6803 140.569 15.5855 140.332 15.5855Z" fill="#001F60"/>
<path d="M142.068 15.2776H142.544V17.5751H143.804V17.9541H142.068V15.2776Z" fill="#001F60"/>
<path d="M145.35 15.2302C145.755 15.2302 146.064 15.3487 146.302 15.6092C146.539 15.8698 146.658 16.2014 146.658 16.6277C146.658 17.0541 146.539 17.3857 146.302 17.6462C146.064 17.9068 145.755 18.0252 145.35 18.0252C144.946 18.0252 144.637 17.9068 144.423 17.6462C144.185 17.3857 144.09 17.0541 144.09 16.6277C144.09 16.2014 144.209 15.8698 144.423 15.6092C144.66 15.3487 144.97 15.2302 145.35 15.2302ZM145.35 15.5855C145.089 15.5855 144.898 15.6803 144.756 15.8698C144.613 16.0592 144.542 16.2961 144.542 16.6277C144.542 16.9356 144.613 17.1725 144.756 17.362C144.898 17.5515 145.089 17.6462 145.326 17.6462C145.564 17.6462 145.755 17.5515 145.897 17.362C146.04 17.1725 146.135 16.9119 146.135 16.6277C146.135 16.3198 146.064 16.0829 145.897 15.8698C145.778 15.6803 145.588 15.5855 145.35 15.5855Z" fill="#001F60"/>
<path d="M147.015 16.6514C147.015 16.225 147.134 15.8698 147.348 15.6092C147.586 15.3487 147.871 15.2065 148.252 15.2065C148.585 15.2065 148.847 15.3013 149.037 15.4671C149.227 15.6329 149.346 15.8461 149.394 16.1303H148.918C148.894 15.9645 148.823 15.8224 148.704 15.7276C148.585 15.6329 148.418 15.5855 148.252 15.5855C148.062 15.5855 147.871 15.6566 147.752 15.8224C147.586 16.0119 147.491 16.2961 147.491 16.6514C147.491 16.983 147.562 17.2436 147.681 17.4094C147.824 17.5752 148.014 17.6699 148.252 17.6699C148.49 17.6699 148.656 17.5988 148.799 17.4567C148.918 17.3146 148.989 17.1251 148.989 16.8646H148.204V16.5093H149.417V17.9778H149.084L149.037 17.7173C148.965 17.812 148.87 17.8831 148.728 17.9541C148.585 18.0252 148.395 18.0489 148.204 18.0489C147.824 18.0489 147.538 17.9305 147.324 17.6699C147.11 17.3857 147.015 17.0777 147.015 16.6514Z" fill="#001F60"/>
<path d="M149.75 15.2776H150.274L150.94 16.4382L151.606 15.2776H152.129L151.154 16.8646V17.9541H150.702V16.8646L149.75 15.2776Z" fill="#001F60"/>
<path d="M153.77 15.2776H154.246V17.9541H153.77V15.2776Z" fill="#001F60"/>
<path d="M156.506 17.2435V15.3013H156.957V17.9778H156.458L155.292 16.0355V17.9778H154.841V15.2776H155.364L156.506 17.2435Z" fill="#001F60"/>
<path d="M157.433 17.0541H157.885C157.909 17.4567 158.099 17.6699 158.527 17.6699C158.694 17.6699 158.836 17.6462 158.932 17.5752C159.05 17.5041 159.122 17.3857 159.122 17.2436C159.122 17.1251 159.074 17.0304 158.979 16.9593C158.908 16.9119 158.789 16.8646 158.622 16.8172L158.289 16.7461C158.028 16.6988 157.837 16.604 157.719 16.5093C157.6 16.3909 157.528 16.2487 157.528 16.0592C157.528 15.7987 157.623 15.6092 157.79 15.4434C157.956 15.3013 158.194 15.2065 158.48 15.2065C158.789 15.2065 159.027 15.2776 159.217 15.4434C159.407 15.6092 159.502 15.8224 159.502 16.1066H159.05C159.027 15.7513 158.836 15.5855 158.48 15.5855C158.337 15.5855 158.194 15.6329 158.123 15.704C158.028 15.775 157.98 15.8698 157.98 15.9882C157.98 16.1066 158.028 16.1777 158.099 16.2487C158.17 16.2961 158.313 16.3435 158.527 16.3909L158.884 16.4619C159.336 16.5567 159.574 16.7935 159.574 17.1962C159.574 17.4804 159.479 17.6936 159.265 17.8357C159.074 17.9778 158.813 18.0252 158.503 18.0252C158.17 18.0252 157.909 17.9305 157.719 17.7646C157.528 17.5988 157.433 17.362 157.433 17.0541Z" fill="#001F60"/>
<path d="M161.952 15.2776V15.6566H161.12V17.9541H160.644V15.6566H159.812V15.2776H161.952Z" fill="#001F60"/>
<path d="M162.309 15.2776H162.785V17.9541H162.309V15.2776Z" fill="#001F60"/>
<path d="M165.282 15.2776V15.6566H164.45V17.9541H163.974V15.6566H163.165V15.2776H165.282Z" fill="#001F60"/>
<path d="M166.115 15.2776V16.9119C166.115 17.4093 166.305 17.6462 166.685 17.6462C167.09 17.6462 167.28 17.4093 167.28 16.9119V15.2776H167.756V16.7698C167.756 17.1962 167.684 17.5041 167.518 17.6936C167.351 17.9068 167.09 18.0252 166.709 18.0252C166.329 18.0252 166.067 17.9068 165.9 17.6936C165.734 17.5041 165.663 17.1962 165.663 16.7698V15.2776H166.115Z" fill="#001F60"/>
<path d="M170.253 15.2776V15.6566H169.421V17.9541H168.945V15.6566H168.113V15.2776H170.253Z" fill="#001F60"/>
<path d="M170.61 15.2776H172.56V15.6566H171.062V16.3908H172.441V16.7461H171.062V17.5751H172.584V17.9541H170.61V15.2776V15.2776Z" fill="#001F60"/>
</g>
<defs>
<linearGradient id="paint0_linear" x1="-5.13716" y1="17.623" x2="18.6808" y2="9.81661" gradientUnits="userSpaceOnUse">
<stop stop-color="#00586F"/>
<stop offset="1" stop-color="#00C1DE"/>
</linearGradient>
<linearGradient id="paint1_linear" x1="24.0175" y1="5.80422" x2="62.1575" y2="6.75379" gradientUnits="userSpaceOnUse">
<stop stop-color="#4197CB"/>
<stop offset="0.1928" stop-color="#2E74AB"/>
<stop offset="0.4292" stop-color="#1A4F8B"/>
<stop offset="0.65" stop-color="#0C3573"/>
<stop offset="0.8469" stop-color="#032565"/>
<stop offset="1" stop-color="#001F60"/>
</linearGradient>
<clipPath id="clip0">
<rect width="172.679" height="32" fill="white"/>
</clipPath>
</defs>
</svg>
