<svg width="214" height="32" viewBox="0 0 214 32" fill="none" xmlns="http://www.w3.org/2000/svg">
<g clip-path="url(#clip0)">
<path d="M71.7968 5.3335C70.6967 5.3335 69.8118 6.2184 69.8118 7.31855V24.6818C69.8118 25.7819 70.6967 26.6668 71.7968 26.6668C72.897 26.6668 73.7819 25.7819 73.7819 24.6818V7.31855C73.758 6.2184 72.8731 5.3335 71.7968 5.3335Z" fill="#E74010"/>
<path d="M39.6293 9.23188C40.6816 9.23188 41.5426 8.37089 41.5426 7.31858C41.5426 6.26626 40.6816 5.40527 39.6293 5.40527H25.9252C24.8251 5.40527 23.9402 6.29018 23.9402 7.39033V24.6579C23.9402 25.758 24.8251 26.6429 25.9252 26.6429C27.0254 26.6429 27.9103 25.758 27.9103 24.6579V17.8657H37.8116C38.864 17.8657 39.701 17.0286 39.701 15.9763C39.701 14.924 38.864 14.0869 37.8116 14.0869H27.9103V9.23188H39.6293Z" fill="#E74010"/>
<path d="M63.5935 23.3662L58.0928 17.8654C61.3932 17.7219 64.024 14.9716 64.024 11.6711C64.024 8.25108 61.2258 5.42896 57.7818 5.42896H47.7609C46.6608 5.42896 45.7759 6.31386 45.7759 7.41401V24.6816C45.7759 25.7817 46.6608 26.6666 47.7609 26.6666C48.8611 26.6666 49.746 25.7817 49.746 24.6816V9.23164H57.5905C58.9298 9.23164 60.03 10.3318 60.03 11.6711C60.03 13.0104 58.9298 14.1106 57.5905 14.1106H53.5487C53.0464 14.1106 52.5681 14.3019 52.1854 14.6846C51.444 15.426 51.444 16.6457 52.1854 17.411L60.891 26.1165C61.6324 26.858 62.8521 26.858 63.6174 26.1165C64.3349 25.3512 64.3349 24.1315 63.5935 23.3662Z" fill="#E74010"/>
<path d="M1.98505 5.3335C0.884903 5.3335 0 6.2184 0 7.31855V24.6818C0 25.7819 0.884903 26.6668 1.98505 26.6668C3.0852 26.6668 3.9701 25.7819 3.9701 24.6818V7.31855C3.9701 6.2184 3.0852 5.3335 1.98505 5.3335Z" fill="#E74010"/>
<path d="M18.009 23.3663L10.4753 15.8565L17.698 8.6099C18.4395 7.8685 18.4395 6.64877 17.698 5.88345C16.9566 5.14204 15.7369 5.14204 14.9716 5.88345L6.38564 14.4933C5.64424 15.2347 5.64424 16.4544 6.38564 17.2198L15.2825 26.1166C16.0239 26.858 17.2436 26.858 18.009 26.1166C18.7504 25.3513 18.7504 24.1316 18.009 23.3663Z" fill="#E74010"/>
<path d="M69.4768 29.4888C69.4768 30.8759 68.3527 32 66.9656 32C65.5784 32 64.4543 30.8759 64.4543 29.4888C64.4543 28.1016 65.5784 26.9775 66.9656 26.9775C68.3527 26.9775 69.4768 28.1016 69.4768 29.4888Z" fill="#F6AE8C"/>
<path d="M21.0942 0C22.4814 0 23.6054 1.12407 23.6054 2.51121C23.6054 3.89836 22.4814 5.02242 21.0942 5.02242C19.7071 5.02242 18.583 3.89836 18.583 2.51121C18.583 1.12407 19.7071 0 21.0942 0Z" fill="#F6AE8C"/>
<path d="M122.738 15.8327V13.9911H120.251C120.538 13.3693 120.801 12.5083 120.801 11.5517V8.58607C120.801 8.08382 120.418 7.67725 119.916 7.67725H107.599V9.5188H118.29V11.5517C118.29 12.5323 118.099 13.3932 117.836 13.9911H105.662V15.8327H112.933V18.2722H107.599V20.1137H118.29V25.2079H120.801V19.2049C120.801 18.7027 120.418 18.2961 119.916 18.2961H115.444V15.8327H122.738Z" fill="#5A5959"/>
<path d="M203.025 23.3902V19.9224H200.514V23.6055C200.514 24.5143 201.208 25.2318 202.069 25.2318H213.333V23.3902H203.025Z" fill="#5A5959"/>
<path d="M201.973 19.3243H204.508V16.9566H210.631V18.4633H206.733V20.4006H213.142V7.27051H210.631V15.139H197.74V16.9566H201.973V19.3243Z" fill="#5A5959"/>
<path d="M203.265 14.5171C206.159 14.5171 208.024 12.9625 208.024 10.834C208.024 8.70544 206.159 7.15088 203.265 7.15088C200.371 7.15088 198.505 8.70544 198.505 10.834C198.505 12.9625 200.371 14.5171 203.265 14.5171ZM203.265 8.89677C204.652 8.89677 205.513 9.75776 205.513 10.8101C205.513 11.8863 204.652 12.7234 203.265 12.7234C201.878 12.7234 201.017 11.8624 201.017 10.8101C201.017 9.75776 201.878 8.89677 203.265 8.89677Z" fill="#5A5959"/>
<path d="M102.242 11.7189V7.27051H99.7549V20.0179H102.242V13.5366H104.729V11.7189H102.242Z" fill="#5A5959"/>
<path d="M92.1494 18.9895H89.6382V23.6053C89.6382 24.5142 90.3318 25.2317 91.1927 25.2317H102.433V23.3901H92.1255V18.9895H92.1494Z" fill="#5A5959"/>
<path d="M97.4111 13.154C97.4111 11.9343 96.9328 10.9537 96.0718 10.284H98.1765V8.44248H93.8237V6.84009H91.3125V8.44248H86.9358V10.284H89.0404C88.1794 10.9537 87.7011 11.9343 87.7011 13.154C87.7011 15.5935 89.6144 17.435 92.5561 17.435C95.4739 17.435 97.4111 15.5695 97.4111 13.154ZM90.308 13.154C90.308 11.719 91.169 10.6906 92.5561 10.6906C93.9433 10.6906 94.8043 11.719 94.8043 13.154C94.8043 14.589 93.9433 15.5935 92.5561 15.5935C91.169 15.5935 90.308 14.589 90.308 13.154Z" fill="#5A5959"/>
<path d="M139.886 7.27051H137.375V17.0284H139.886V7.27051Z" fill="#5A5959"/>
<path d="M129.602 13.154C130.583 14.9477 132.64 16.0957 134.936 16.5262V14.6368C132.401 13.9672 130.87 11.9104 130.87 8.68166V7.50977H128.359V8.68166C128.359 11.9343 126.828 13.9672 124.293 14.6368V16.5262C126.565 16.0957 128.622 14.9477 129.602 13.154Z" fill="#5A5959"/>
<path d="M139.002 18.0808H127.067V19.9224H137.375V25.2318H139.887V19.0135C139.887 18.4874 139.504 18.0808 139.002 18.0808Z" fill="#5A5959"/>
<path d="M159.833 17.1721V15.3306H142.757V17.1721H150.027V18.7028H144.813V23.6056C144.813 24.5144 145.507 25.2319 146.368 25.2319H157.776V19.6116C157.776 19.1093 157.393 18.7028 156.915 18.7028H152.562V17.1721H159.833ZM155.289 20.5443V23.3904H147.325V20.5443H155.289Z" fill="#5A5959"/>
<path d="M158.565 12.3648H156.341V9.30347H158.47V7.46191H144.168V9.30347H146.296V12.3648H144.072V14.2063H158.565V12.3648ZM153.83 12.3648H148.784V9.30347H153.83V12.3648Z" fill="#5A5959"/>
<path d="M193.579 16.4546C193.914 15.8328 194.224 14.9001 194.224 13.7999V8.8014C194.224 8.29915 193.842 7.89258 193.363 7.89258H181.047V9.73413H191.737V13.8238C191.737 14.924 191.498 15.8567 191.187 16.4785H179.109V18.3201H186.38V25.2558H188.891V18.3201H196.162V16.4785H193.579V16.4546Z" fill="#5A5959"/>
<path d="M166.601 23.39V18.7024H164.114V23.6052C164.114 24.5141 164.807 25.2315 165.668 25.2315H176.933V23.39H166.601Z" fill="#5A5959"/>
<path d="M170.691 15.139H174.23V20.0179H176.718V7.27051H174.23V9.20773H170.619C169.734 8.17933 168.371 7.53359 166.649 7.53359C163.54 7.53359 161.603 9.63822 161.603 12.2451C161.603 14.852 163.54 16.9566 166.649 16.9566C168.419 16.9327 169.83 16.2391 170.691 15.139ZM174.23 11.0493V13.2974H171.576C171.647 12.9626 171.695 12.6038 171.695 12.2212C171.695 11.8146 171.647 11.4319 171.552 11.0493H174.23ZM164.185 12.2212C164.185 10.6427 165.118 9.35123 166.625 9.35123C168.132 9.35123 169.064 10.6427 169.064 12.2212C169.064 13.7997 168.132 15.0911 166.625 15.0911C165.118 15.0911 164.185 13.8236 164.185 12.2212Z" fill="#5A5959"/>
</g>
<defs>
<clipPath id="clip0">
<rect width="213.333" height="32" fill="white"/>
</clipPath>
</defs>
</svg>
