<svg width="179" height="32" viewBox="0 0 179 32" fill="none" xmlns="http://www.w3.org/2000/svg">
<g clip-path="url(#clip0)">
<path d="M23.308 0L0 6.53287L23.1419 3.76471L46.0069 6.53287L23.308 0Z" fill="#E60012"/>
<path d="M0.221436 8.5813H3.65396V15.5017L7.86157 8.5813H11.2941L6.9204 15.8893L11.2941 23.3079H7.86157L3.65396 16.4429V23.3079H0.221436V8.5813Z" fill="#08287F"/>
<path d="M11.7371 8.52588H14.9481V23.1972H11.7371V8.52588Z" fill="#08287F"/>
<path d="M16.9412 8.5813H21.2041L23.7509 17.3841L26.3529 8.5813H30.4498V23.1972H27.6816V14.5605L25.0242 23.1419H22.3668L19.8201 14.3944V23.0865H16.9412V8.5813Z" fill="#08287F"/>
<path d="M32.7751 8.5813H36.9828L39.5848 17.5502L42.2976 8.5813H46.2284V23.1972H43.5156V14.3944L40.9136 23.1972H38.2008L35.654 14.3391V23.1419H32.7751V8.5813Z" fill="#08287F"/>
<path d="M22.7543 32L46.0069 25.3564L22.8651 28.2353L0 25.5779L22.7543 32Z" fill="#E60012"/>
<path d="M54.6437 6.64353L58.6299 6.69889V5.42554H61.0105V6.69889H65.7164V8.63661H54.5884L54.6437 6.64353Z" fill="black"/>
<path d="M63.2804 9.13501H56.6922C54.2008 9.74401 54.4223 12.2354 54.4223 12.2354C54.533 14.7267 56.6922 14.8928 56.6922 14.8928H63.4465C65.9932 14.5053 65.9932 12.2354 65.9932 12.2354C65.9378 9.3011 63.2804 9.13501 63.2804 9.13501ZM63.1697 12.8997H57.2458C57.2458 12.8997 56.5814 12.9551 56.5261 12.0693C56.5261 12.0693 56.5261 11.4049 57.1351 11.3495H63.1143C63.1143 11.3495 63.834 11.4049 63.834 12.18C63.7787 12.18 63.7787 12.7336 63.1697 12.8997Z" fill="black"/>
<path d="M67.5989 5.92383H69.9795V9.02417H71.8619V11.0726H70.0349V19.3771H56.637C56.637 19.3771 55.0314 19.4325 54.9761 17.4948V15.6124H57.3567V17.0519C57.3567 17.0519 57.3013 17.5501 57.7442 17.4394H67.7096L67.5989 5.92383Z" fill="black"/>
<path d="M73.8549 5.92383H87.6403C87.6403 5.92383 89.3012 6.03455 89.412 7.69545V12.6228H82.8791V14.1176H87.7511C87.7511 14.1176 89.3566 14.173 89.412 16.1107V19.5986H87.0867V17.1072C87.0867 17.1072 87.1974 16.5536 86.5331 16.3875H73.7441V14.173H80.3324V12.6782H73.8549V10.6297H87.0867V8.96881C87.0867 8.96881 87.1974 8.19372 86.5331 8.30445H73.9102L73.8549 5.92383Z" fill="black"/>
<path d="M91.6265 8.24909V5.92383H99.9863V12.2352C99.9863 12.2352 99.2666 18.7681 91.6818 18.602V16.6089C91.6818 16.6089 96.7199 16.7197 97.6611 12.0692V8.24909H91.6265Z" fill="black"/>
<path d="M106.685 5.86841H104.36V19.6539H106.685V5.86841Z" fill="black"/>
<path d="M118.09 5.97919V8.24909H116.263V5.92383H108.9V8.24909H113.993V12.6228C113.882 16.2214 108.955 16.7197 108.955 16.7197V18.7128C114.436 18.6574 115.986 14.7266 115.986 14.7266H118.035V19.6539H120.471V5.97919H118.09ZM117.979 12.346H116.318V10.1868H117.979V12.346Z" fill="black"/>
<path d="M124.014 5.97925H121.633V19.654H124.014V5.97925Z" fill="black"/>
<path d="M140.069 5.86841V7.0864H136.526C136.028 6.25595 134.201 5.92377 134.201 5.92377H129.495C126.063 6.42204 126.339 9.90993 126.339 9.90993C126.339 13.5085 129.606 13.5639 129.606 13.5639H134.588C136.415 13.1764 136.692 12.4013 136.692 12.4013H140.18V17.384H130.436C129.827 17.4393 129.772 16.7196 129.772 16.7196V14.5051H127.447V17.2733C127.613 19.7646 129.55 19.5431 129.55 19.5431H142.45V5.86841H140.069ZM133.979 11.4047H130.049C130.049 11.4047 128.665 11.4047 128.609 9.90993C128.609 9.90993 128.554 8.30439 129.883 8.19367H133.813C133.813 8.19367 135.197 8.1383 135.197 9.85457C135.197 9.85457 135.253 11.2387 133.979 11.4047ZM140.014 10.2421H137.301C137.412 9.7992 137.246 9.46702 137.246 9.46702H140.014V10.2421Z" fill="black"/>
<path d="M145.495 6.08984H158.837C158.837 6.08984 160.443 6.3113 160.554 7.91683V14.8372H154.574V19.5431H152.249V14.8926H145.55V12.6227H158.173V9.07946C158.173 9.07946 158.228 8.35974 157.509 8.35974H145.439V6.08984H145.495Z" fill="black"/>
<path d="M173.453 9.19013C173.453 6.08979 170.574 6.03442 170.574 6.03442H164.872C162.104 6.42197 162.159 9.2455 162.159 9.2455C162.159 12.0137 164.983 12.2905 164.983 12.2905H170.796C173.619 11.9029 173.453 9.19013 173.453 9.19013ZM170.574 9.96522H165.481C165.481 9.96522 164.817 10.1313 164.651 9.19013C164.651 9.19013 164.54 8.47041 165.315 8.35968H170.464C170.464 8.35968 171.073 8.47041 171.128 9.19013C171.128 9.19013 171.183 9.57768 170.574 9.96522Z" fill="black"/>
<path d="M174.228 12.1244V9.85449H176V6.03442H178.325V19.5431H164.872C164.872 19.5431 163.1 19.7092 162.934 17.6054V15.8337H165.204V16.941C165.204 16.941 165.149 17.4393 165.702 17.4393H176.055V12.069L174.228 12.1244Z" fill="black"/>
<path d="M162.934 12.8442H174.173V14.8373H169.633V16.6643H167.197V14.8373H162.934V12.8442Z" fill="black"/>
<path d="M54.4775 22.699H54.9758V24.8028L56.8582 22.699H57.5779L55.9723 24.4152L57.6332 26.962H56.9689L55.6402 24.8028L55.0312 25.4671V26.962H54.5329V22.699H54.4775Z" fill="black"/>
<path d="M59.6265 26.5743C59.1282 26.5743 58.796 26.4082 58.5746 26.076C58.3531 25.7438 58.2424 25.3563 58.2424 24.858C58.2424 24.249 58.3531 23.8061 58.63 23.5293C58.8514 23.2525 59.1836 23.0864 59.5711 23.0864C59.9587 23.0864 60.2909 23.2525 60.5123 23.5293C60.7338 23.8615 60.8445 24.249 60.8445 24.7473C60.8445 25.2456 60.7338 25.6331 60.5677 26.0207C60.4016 26.4082 60.0694 26.5743 59.6265 26.5743ZM59.5711 22.5881C58.9068 22.5881 58.4639 22.865 58.1317 23.3632C57.8549 23.7508 57.7441 24.249 57.7441 24.858C57.7441 25.5224 57.9102 26.0207 58.187 26.4636C58.5192 26.9065 58.9621 27.1279 59.5711 27.1279C60.1801 27.1279 60.6784 26.8511 61.0106 26.4082C61.2874 25.9653 61.4535 25.467 61.4535 24.8027C61.4535 24.1937 61.3428 23.7508 61.0659 23.3632C60.7338 22.8096 60.2355 22.5881 59.5711 22.5881Z" fill="black"/>
<path d="M62.6161 24.6919V23.2524H63.8341C64.0002 23.2524 64.1663 23.2524 64.2217 23.3631C64.3878 23.4739 64.4985 23.6953 64.4985 23.9721C64.4985 24.249 64.4431 24.4704 64.277 24.5811C64.1663 24.6919 63.9448 24.7472 63.7234 24.7472H62.6161V24.6919ZM62.1179 27.0171H62.6161V25.1901H63.7234C63.9448 25.1901 64.0556 25.1901 64.1663 25.2455C64.3324 25.3562 64.3878 25.5223 64.4431 25.7991L64.4985 26.5189C64.4985 26.6849 64.4985 26.7957 64.4985 26.851C64.4985 26.9064 64.4985 26.9618 64.5538 27.0171H65.1628V26.9064C65.1075 26.851 65.0521 26.7957 64.9968 26.6296C64.9968 26.5742 64.9414 26.4081 64.9414 26.2974V25.7438C64.9414 25.467 64.886 25.3009 64.8307 25.1901C64.7753 25.0794 64.6646 24.9687 64.4985 24.9133C64.6646 24.8026 64.7753 24.6919 64.886 24.5258C64.9967 24.3597 65.0521 24.1382 65.0521 23.9168C65.0521 23.4185 64.886 23.0863 64.4985 22.9202C64.3324 22.8095 64.0556 22.7542 63.7788 22.7542H62.0625V27.0171H62.1179Z" fill="black"/>
<path d="M65.9377 22.699H68.6505V23.2526H66.436V24.526H68.4845V25.0242H66.436V26.4637H68.7059V26.962H65.9377V22.699Z" fill="black"/>
<path d="M70.1454 25.2455L70.7544 23.3631L71.3633 25.2455H70.1454ZM69.0381 27.0171H69.5364L69.9239 25.7438H71.4187L71.8063 27.0171H72.3599L70.9758 22.7542H70.4222L69.0381 27.0171Z" fill="black"/>
<path d="M74.187 22.699H74.6853V26.962H74.187V22.699Z" fill="black"/>
<path d="M75.571 22.699H76.18L78.0624 26.1869V22.699H78.5607V26.962H78.007L76.0693 23.4741V26.962H75.571V22.699Z" fill="black"/>
<path d="M79.6679 25.5779C79.6679 25.7994 79.7233 26.0208 79.834 26.1869C80.0001 26.4638 80.2769 26.6298 80.7198 26.6298C80.8859 26.6298 81.052 26.5745 81.2181 26.5191C81.4949 26.4084 81.661 26.1869 81.661 25.8548C81.661 25.6333 81.6056 25.4672 81.4949 25.3565C81.3841 25.2458 81.1627 25.1904 80.8859 25.0797L80.3876 24.9689C80.0554 24.8582 79.834 24.8029 79.6679 24.6921C79.4464 24.526 79.3357 24.2492 79.3357 23.8617C79.3357 23.4741 79.4464 23.142 79.6679 22.9205C79.8893 22.699 80.2215 22.533 80.6644 22.533C81.052 22.533 81.3842 22.6437 81.661 22.8651C81.9378 23.0866 82.0485 23.4188 82.0485 23.917H81.5502C81.5502 23.6956 81.4949 23.5295 81.3842 23.3634C81.2181 23.142 80.9966 23.0312 80.6091 23.0312C80.3323 23.0312 80.1108 23.0866 80.0001 23.2527C79.8893 23.4188 79.834 23.5849 79.834 23.751C79.834 23.9724 79.8893 24.1385 80.0554 24.1939C80.1662 24.2492 80.3876 24.3599 80.7198 24.4153L81.2181 24.526C81.4949 24.5814 81.661 24.6921 81.7717 24.8029C81.9931 25.0243 82.1039 25.3011 82.1039 25.6887C82.1039 26.1869 81.9378 26.5191 81.661 26.6852C81.3842 26.9067 80.9966 27.0174 80.6091 27.0174C80.1662 27.0174 79.7786 26.9067 79.5018 26.6298C79.225 26.353 79.1143 25.9655 79.1143 25.5226H79.6679V25.5779Z" fill="black"/>
<path d="M85.5919 22.699V23.1972H84.3185V26.962H83.8202V23.1972H82.5469V22.699H85.5919Z" fill="black"/>
<path d="M86.2007 22.699H86.699V26.962H86.2007V22.699Z" fill="black"/>
<path d="M90.2977 22.699V23.1972H89.0243V26.962H88.526V23.1972H87.2527V22.699H90.2977Z" fill="black"/>
<path d="M91.2942 22.699V25.3564C91.2942 25.6886 91.3495 25.91 91.4603 26.1315C91.6264 26.4637 91.9032 26.5744 92.2354 26.5744C92.6783 26.5744 92.9551 26.4083 93.1212 26.0761C93.2319 25.91 93.2319 25.6332 93.2319 25.3564V22.699H93.7302V25.0796C93.7302 25.6332 93.6748 26.0208 93.5641 26.2976C93.3426 26.7959 92.8997 27.0727 92.2354 27.0727C91.571 27.0727 91.1834 26.7959 90.962 26.2976C90.8513 26.0208 90.7959 25.6332 90.7959 25.0796V22.699H91.2942Z" fill="black"/>
<path d="M97.3289 22.699V23.1972H96.0556V26.962H95.5573V23.1972H94.2839V22.699H97.3289Z" fill="black"/>
<path d="M97.8271 22.699H100.595V23.2526H98.3254V24.526H100.374V25.0242H98.3254V26.4637H100.595V26.962H97.8271V22.699Z" fill="black"/>
<path d="M104.415 26.5743C103.917 26.5743 103.585 26.4082 103.363 26.076C103.142 25.7438 103.031 25.3563 103.031 24.858C103.031 24.249 103.142 23.8061 103.419 23.5293C103.64 23.2525 103.972 23.0864 104.36 23.0864C104.748 23.0864 105.08 23.2525 105.301 23.5293C105.523 23.8615 105.633 24.249 105.633 24.7473C105.633 25.2456 105.523 25.6331 105.357 26.0207C105.19 26.4082 104.914 26.5743 104.415 26.5743ZM104.415 22.5881C103.751 22.5881 103.308 22.865 102.976 23.3632C102.699 23.7508 102.588 24.249 102.588 24.858C102.588 25.5224 102.754 26.0207 103.031 26.4636C103.363 26.9065 103.806 27.1279 104.415 27.1279C105.024 27.1279 105.523 26.8511 105.855 26.4082C106.132 25.9653 106.298 25.467 106.298 24.8027C106.298 24.1937 106.187 23.7508 105.91 23.3632C105.523 22.8096 105.08 22.5881 104.415 22.5881Z" fill="black"/>
<path d="M106.907 22.699H109.509V23.2526H107.405V24.526H109.232V25.0242H107.405V26.962H106.907V22.699Z" fill="black"/>
<path d="M111.502 22.699H112.222L113.329 26.2976L114.381 22.699H115.101V26.962H114.602V24.4152C114.602 24.3599 114.602 24.1938 114.602 23.9723C114.602 23.7509 114.602 23.5848 114.602 23.308L113.55 26.9066H113.052L111.945 23.308V23.4187C111.945 23.5294 111.945 23.6955 111.945 23.917C111.945 24.1384 111.945 24.3045 111.945 24.4152V26.962H111.447V22.699H111.502Z" fill="black"/>
<path d="M116.706 25.2455L117.315 23.3631L117.924 25.2455H116.706ZM115.599 27.0171H116.153L116.54 25.7438H118.035L118.422 27.0171H118.976L117.592 22.7542H117.038L115.599 27.0171Z" fill="black"/>
<path d="M122.132 23.0312C122.408 23.308 122.519 23.6402 122.574 24.0277H122.076C122.021 23.7509 121.91 23.5295 121.744 23.3634C121.578 23.1973 121.356 23.1419 121.024 23.1419C120.637 23.1419 120.36 23.308 120.139 23.5848C119.917 23.8617 119.806 24.3599 119.806 24.9689C119.806 25.4672 119.917 25.8547 120.139 26.1869C120.36 26.5191 120.637 26.6298 121.08 26.6298C121.467 26.6298 121.744 26.4637 121.91 26.1316C122.021 25.9655 122.076 25.744 122.132 25.4672H122.63C122.574 25.9101 122.464 26.2976 122.187 26.5745C121.91 26.962 121.467 27.1281 120.969 27.1281C120.526 27.1281 120.139 26.962 119.862 26.6852C119.474 26.2976 119.253 25.6886 119.253 24.8582C119.253 24.1938 119.419 23.6956 119.696 23.308C120.028 22.8651 120.471 22.6437 121.024 22.6437C121.523 22.5883 121.855 22.7544 122.132 23.0312Z" fill="black"/>
<path d="M123.239 22.699H123.737V24.4706H125.675V22.699H126.173V26.962H125.675V24.9689H123.737V26.962H123.239V22.699Z" fill="black"/>
<path d="M127.17 22.699H127.668V26.962H127.17V22.699Z" fill="black"/>
<path d="M128.499 22.699H129.108L130.99 26.1869V22.699H131.488V26.962H130.934L128.997 23.4741V26.962H128.499V22.699Z" fill="black"/>
<path d="M132.374 22.699H135.142V23.2526H132.872V24.526H134.921V25.0242H132.872V26.4637H135.142V26.962H132.374V22.699Z" fill="black"/>
<path d="M136.415 24.6919V23.2524H137.633C137.799 23.2524 137.91 23.2524 138.021 23.3631C138.187 23.4739 138.298 23.6953 138.298 23.9721C138.298 24.249 138.242 24.4704 138.076 24.5811C137.965 24.6919 137.744 24.7472 137.523 24.7472H136.415V24.6919ZM135.917 27.0171H136.415V25.1901H137.523C137.744 25.1901 137.855 25.1901 137.965 25.2455C138.132 25.3562 138.242 25.5223 138.242 25.7991L138.298 26.5189C138.298 26.6849 138.298 26.7957 138.298 26.851C138.298 26.9064 138.298 26.9618 138.353 27.0171H139.017V26.9064C138.907 26.851 138.851 26.7957 138.851 26.6296C138.851 26.5742 138.796 26.4081 138.796 26.2974V25.7438C138.796 25.467 138.741 25.3009 138.685 25.1901C138.63 25.0794 138.519 24.9687 138.353 24.9133C138.519 24.8026 138.63 24.6919 138.741 24.5258C138.851 24.3597 138.907 24.1382 138.907 23.9168C138.907 23.4185 138.741 23.0863 138.408 22.9202C138.242 22.8095 137.965 22.7542 137.689 22.7542H135.972V27.0171H135.917Z" fill="black"/>
<path d="M139.239 22.699H139.848L140.955 24.7474L142.062 22.699H142.671L141.232 25.2457V26.962H140.734V25.2457L139.239 22.699Z" fill="black"/>
<path d="M145.495 24.3597C145.384 24.1936 145.273 24.0275 145.218 23.9168C145.163 23.8061 145.163 23.6953 145.163 23.5846C145.163 23.4739 145.163 23.4185 145.218 23.3631C145.273 23.2524 145.439 23.1417 145.606 23.1417C145.716 23.1417 145.827 23.1971 145.882 23.2524C145.938 23.3631 145.993 23.4739 145.993 23.5846C145.993 23.7507 145.938 23.9168 145.827 24.0275C145.827 24.1382 145.661 24.249 145.495 24.3597ZM145.384 26.6296C145.218 26.6296 145.052 26.5742 144.886 26.4635C144.72 26.3528 144.664 26.1867 144.664 25.9099C144.664 25.6884 144.72 25.5223 144.83 25.3562C144.886 25.2455 145.052 25.1348 145.329 24.9133L146.159 26.0759C146.104 26.1867 145.993 26.2974 145.827 26.4081C145.772 26.5742 145.606 26.6296 145.384 26.6296ZM145.107 24.6365C144.83 24.858 144.609 25.024 144.498 25.1348C144.332 25.3562 144.221 25.633 144.221 25.9652C144.221 26.242 144.332 26.5189 144.498 26.7957C144.664 27.0171 144.941 27.1279 145.329 27.1279C145.606 27.1279 145.827 27.0725 146.048 26.9064C146.159 26.851 146.27 26.6849 146.436 26.5189L146.768 27.0171H147.322L146.657 26.1313C146.657 26.1867 146.713 26.0759 146.768 25.7991C146.879 25.5223 146.934 25.3009 146.934 25.024H146.491C146.491 25.1348 146.436 25.2455 146.436 25.3562C146.436 25.4116 146.381 25.5777 146.325 25.7438L145.661 24.8026C145.882 24.6365 146.048 24.4704 146.104 24.3597C146.27 24.1382 146.325 23.9168 146.325 23.64C146.325 23.4185 146.27 23.1971 146.104 23.031C145.938 22.8649 145.772 22.7542 145.495 22.7542C145.218 22.7542 144.997 22.8649 144.83 23.031C144.664 23.1971 144.609 23.4185 144.609 23.6953C144.609 23.8061 144.609 23.9721 144.664 24.1382C144.83 24.249 144.941 24.4151 145.107 24.6365Z" fill="black"/>
<path d="M149.37 22.699H150.09L151.197 26.2976L152.249 22.699H152.969V26.962H152.471V24.4152C152.471 24.3599 152.471 24.1938 152.471 23.9723C152.471 23.7509 152.471 23.5848 152.471 23.308L151.364 26.9066H150.865L149.758 23.308V23.4187C149.758 23.5294 149.758 23.6955 149.758 23.917C149.758 24.1384 149.758 24.3045 149.758 24.4152V26.962H149.26V22.699H149.37Z" fill="black"/>
<path d="M154.575 25.2455L155.184 23.3631L155.737 25.2455H154.575ZM153.467 27.0171H153.966L154.353 25.7438H155.848L156.235 27.0171H156.789L155.405 22.7542H154.851L153.467 27.0171Z" fill="black"/>
<path d="M159.668 22.699V23.1972H158.395V26.962H157.896V23.1972H156.623V22.699H159.668Z" fill="black"/>
<path d="M160.166 22.699H162.879V23.2526H160.665V24.526H162.713V25.0242H160.665V26.4637H162.934V26.962H160.166V22.699Z" fill="black"/>
<path d="M164.208 24.6919V23.2524H165.426C165.592 23.2524 165.758 23.2524 165.813 23.3631C165.979 23.4739 166.09 23.6953 166.09 23.9721C166.09 24.249 166.035 24.4704 165.869 24.5811C165.758 24.6919 165.536 24.7472 165.315 24.7472H164.208V24.6919ZM163.709 27.0171H164.208V25.1901H165.315C165.536 25.1901 165.647 25.1901 165.758 25.2455C165.924 25.3562 166.035 25.5223 166.035 25.7991L166.09 26.5189C166.09 26.6849 166.09 26.7957 166.09 26.851C166.09 26.9064 166.09 26.9618 166.145 27.0171H166.754V26.9064C166.699 26.851 166.644 26.7957 166.588 26.6296C166.588 26.5742 166.533 26.4081 166.533 26.2974V25.7438C166.533 25.467 166.478 25.3009 166.422 25.1901C166.367 25.0794 166.256 24.9687 166.09 24.9133C166.256 24.8026 166.367 24.6919 166.478 24.5258C166.588 24.3597 166.588 24.1382 166.588 23.9168C166.588 23.4185 166.422 23.0863 166.09 22.9202C165.924 22.8095 165.647 22.7542 165.37 22.7542H163.654V27.0171H163.709Z" fill="black"/>
<path d="M167.585 22.699H168.083V26.962H167.585V22.699Z" fill="black"/>
<path d="M169.689 25.2455L170.298 23.3631L170.851 25.2455H169.689ZM168.581 27.0171H169.135L169.522 25.7438H171.017L171.405 27.0171H171.958L170.574 22.7542H170.021L168.581 27.0171Z" fill="black"/>
<path d="M172.457 22.699H172.955V26.4637H174.837V26.962H172.457V22.699V22.699Z" fill="black"/>
<path d="M175.723 25.5779C175.723 25.7994 175.779 26.0208 175.89 26.1869C176.056 26.4638 176.332 26.6298 176.775 26.6298C176.941 26.6298 177.108 26.5745 177.274 26.5191C177.55 26.4084 177.717 26.1869 177.717 25.8548C177.717 25.6333 177.661 25.4672 177.55 25.3565C177.44 25.2458 177.218 25.1904 176.941 25.0797L176.443 24.9689C176.111 24.8582 175.89 24.8029 175.779 24.6921C175.557 24.526 175.447 24.2492 175.447 23.8617C175.447 23.4741 175.557 23.142 175.779 22.9205C176 22.699 176.332 22.533 176.775 22.533C177.163 22.533 177.495 22.6437 177.772 22.8651C178.049 23.0866 178.159 23.4188 178.159 23.917H177.661C177.661 23.6956 177.606 23.5295 177.495 23.3634C177.329 23.142 177.108 23.0312 176.72 23.0312C176.443 23.0312 176.222 23.0866 176.111 23.2527C176 23.4188 175.945 23.5849 175.945 23.751C175.945 23.9724 176 24.1385 176.166 24.1939C176.277 24.2492 176.499 24.3599 176.831 24.4153L177.329 24.526C177.55 24.5814 177.772 24.6921 177.883 24.8029C178.104 25.0243 178.215 25.3011 178.215 25.6887C178.215 26.1869 178.049 26.5191 177.772 26.6852C177.495 26.9067 177.108 27.0174 176.72 27.0174C176.277 27.0174 175.89 26.9067 175.668 26.6298C175.391 26.353 175.281 25.9655 175.281 25.5226H175.723V25.5779Z" fill="black"/>
</g>
<defs>
<clipPath id="clip0">
<rect width="178.381" height="32" fill="white"/>
</clipPath>
</defs>
</svg>
