<svg width="103" height="32" viewBox="0 0 103 32" fill="none" xmlns="http://www.w3.org/2000/svg">
<g clip-path="url(#clip0)">
<path d="M17.2361 14.4366L17.4392 14.4141V13.7368H14.8093H14.798H12.4276V14.4028C12.4276 14.4028 12.8001 14.4592 12.8114 14.4592C12.8114 14.4705 12.8001 14.4705 12.8001 14.4818C12.5066 14.8656 12.1228 15.3058 11.6826 15.7347C11.6149 15.7911 11.5585 15.8476 11.5133 15.8927V14.9672C11.5133 14.4705 11.5133 14.4705 11.931 14.4366L12.1341 14.4141V13.7368H9.50415V14.4141L9.71861 14.4366C10.1701 14.4818 10.1701 14.4818 10.1701 14.9672V17.9132C10.1701 18.4098 10.1701 18.4098 9.74119 18.4437L9.53801 18.4663V19.1435H12.168V18.455L11.9535 18.4324C11.4907 18.3873 11.4907 18.3873 11.4907 17.9019V16.9086C12.1116 17.7552 12.7211 18.5566 13.1049 19.0419L13.1726 19.1322H14.7867H14.9109H17.428V18.455L17.2248 18.4324C16.7846 18.3873 16.7846 18.3873 16.7846 17.9132V14.9333C16.7959 14.4705 16.7959 14.4705 17.2361 14.4366ZM15.4526 17.9245C15.4526 18.3985 15.4526 18.3985 15.0012 18.4437L14.8318 18.455L14.7303 18.4437C14.4819 18.4098 14.3465 18.3534 14.0079 17.9583C13.7257 17.6197 13.0484 16.7844 12.4615 15.9717C12.8227 15.5993 13.1726 15.2381 13.5225 14.9107C13.9176 14.5495 14.132 14.4705 14.6061 14.4254L14.798 14.4028L15.0124 14.4254C15.4639 14.4705 15.4639 14.4705 15.4639 14.9446V17.9245H15.4526Z" fill="#A7A9AC"/>
<path d="M30.1601 18.489C29.7876 18.4551 29.7424 18.4438 29.5054 17.823C29.1668 16.92 28.8281 15.9832 28.5008 15.0576L27.9816 13.6128L27.3269 13.7934L25.7241 17.8343C25.487 18.4325 25.4419 18.4325 25.0581 18.489H25.013L24.9452 18.4777C24.505 18.4438 24.505 18.4438 24.505 17.9585V14.9786C24.505 14.5045 24.505 14.5045 24.9452 14.4594L25.1484 14.4368V13.7708H22.4959V14.4594L22.699 14.4819C23.1505 14.5271 23.1505 14.5271 23.1505 15.0012V17.981C23.1505 18.4551 23.1505 18.4551 22.699 18.5003L22.4959 18.5228C22.383 18.489 22.2814 18.489 22.1234 18.3197C21.9653 18.1504 21.8073 17.9246 21.559 17.5408C21.3897 17.2925 21.1865 16.9426 21.0398 16.683C21.7509 16.2992 21.9089 15.7348 21.9089 15.3172C21.9089 14.8093 21.6944 14.3803 21.2994 14.1094C20.9269 13.8498 20.4528 13.7934 19.8546 13.7934H17.5858V14.4819L17.789 14.5045C18.2179 14.5497 18.2179 14.5497 18.2179 15.0124V17.9923C18.2179 18.4664 18.2179 18.4664 17.7664 18.5116L17.5632 18.5341V19.2227H20.2158V18.5116L20.0126 18.489C19.5611 18.4438 19.5611 18.4438 19.5611 17.9698V17.0442C19.7304 17.0555 19.7869 17.1006 19.8659 17.2474L20.0465 17.5634C20.2158 17.8682 20.3851 18.1729 20.5544 18.4213C20.9495 19.0082 21.3445 19.1437 22.1911 19.1775L22.5071 19.1888H24.8549H25.1484H26.9996V18.5116L26.7964 18.489C26.5819 18.4664 26.5029 18.4325 26.4803 18.4325H26.4691C26.4691 18.4213 26.4691 18.3648 26.5255 18.2068C26.6045 17.9585 26.6835 17.7214 26.7625 17.4957H27.959C28.0719 17.8004 28.1847 18.1052 28.2525 18.3197C28.275 18.3874 28.2863 18.4213 28.2976 18.4325C28.2638 18.4438 28.196 18.4664 28.038 18.489L27.8461 18.5228V19.1888H30.3632V18.5116L30.1601 18.489ZM20.2158 16.1525C20.0916 16.2541 19.8997 16.2992 19.5837 16.2992H19.5498V14.6625C19.5498 14.5835 19.5498 14.5384 19.5498 14.5271C19.5724 14.5158 19.6401 14.5045 19.7643 14.5045C19.99 14.5045 20.5093 14.5948 20.5093 15.3962C20.5206 15.7461 20.419 15.9832 20.2158 16.1525ZM27.0447 16.6604C27.0447 16.6604 27.3043 15.9606 27.3608 15.7913L27.6655 16.6604H27.0447Z" fill="#A7A9AC"/>
<path d="M13.2855 18.9631C12.8679 18.4326 12.2358 17.5973 11.6489 16.7959C11.4795 16.5814 11.378 16.5363 11.2651 16.5588V17.9472C11.2651 18.6019 11.3328 18.6583 11.931 18.7148V18.9631H9.75256V18.7148C10.3169 18.6583 10.3847 18.6019 10.3847 17.9472V15.0012C10.3847 14.3352 10.3169 14.2901 9.72998 14.2336V13.9966H11.8859V14.2449C11.3215 14.3013 11.2651 14.3465 11.2651 15.0125V16.3218C11.4231 16.2767 11.6037 16.1638 11.8295 15.938C12.3148 15.464 12.6873 15.035 12.9695 14.6513C13.1727 14.4029 13.1501 14.3126 12.8002 14.2675L12.6422 14.2449V13.9966H14.5723V14.2449C14.0644 14.3013 13.7935 14.3804 13.3533 14.798C12.9695 15.1592 12.5631 15.5881 12.1568 15.9945C12.676 16.7282 13.342 17.5634 13.8273 18.1504C14.1772 18.568 14.3578 18.6696 14.6965 18.7148V18.9631H13.2855V18.9631Z" fill="#002459"/>
<path d="M15.0239 18.9631V18.7148C15.6109 18.6583 15.6786 18.6132 15.6786 17.9698V14.9899C15.6786 14.3465 15.6109 14.3013 15.0239 14.2449V13.9966H17.2137V14.2449C16.6267 14.3013 16.559 14.3465 16.559 14.9899V17.9698C16.559 18.6132 16.6267 18.6583 17.2137 18.7148V18.9631H15.0239Z" fill="#002459"/>
<path d="M22.4284 19.0308C22.372 19.0308 22.2817 19.0195 22.1914 19.0195C21.3674 18.9856 21.0739 18.7825 20.7466 18.2971C20.5208 17.9585 20.2951 17.5296 20.0693 17.1345C19.9452 16.92 19.8097 16.8185 19.5049 16.8185H19.3356V17.9698C19.3356 18.6019 19.4034 18.6583 19.9903 18.7147V18.9631H17.8005V18.7147C18.3875 18.6583 18.4665 18.6019 18.4665 17.9698V14.9899C18.4665 14.3578 18.3988 14.3013 17.8344 14.2449V13.9966H19.8661C20.4982 13.9966 20.882 14.0643 21.1755 14.2675C21.4803 14.4707 21.6834 14.8093 21.6834 15.2834C21.6834 15.9493 21.2545 16.3331 20.724 16.5476C20.8482 16.7846 21.1416 17.2812 21.3787 17.6311C21.6496 18.0488 21.8076 18.2745 21.9769 18.4438C22.1462 18.6357 22.293 18.726 22.4736 18.7825L22.4284 19.0308ZM19.584 16.5363C19.9226 16.5363 20.1822 16.4798 20.3628 16.3331C20.6337 16.1073 20.7466 15.8026 20.7466 15.4075C20.7466 14.5835 20.2499 14.2901 19.7646 14.2901C19.5614 14.2901 19.4485 14.3126 19.3921 14.3578C19.3356 14.4029 19.3243 14.4932 19.3243 14.6625V16.5363H19.584V16.5363Z" fill="#002459"/>
<path d="M22.7332 18.9631V18.7148C23.3201 18.6583 23.3878 18.6132 23.3878 17.9698V14.9899C23.3878 14.3465 23.3201 14.3013 22.7332 14.2449V13.9966H24.9229V14.2449C24.336 14.3013 24.2683 14.3465 24.2683 14.9899V17.9698C24.2683 18.6132 24.3247 18.6583 24.9229 18.7148V18.9631H22.7332Z" fill="#002459"/>
<path d="M28.0719 18.9631V18.7148C28.5234 18.647 28.5799 18.568 28.467 18.2407C28.388 17.9924 28.2525 17.6312 28.1171 17.2587H26.6046C26.503 17.5409 26.4014 17.8343 26.3111 18.1391C26.1756 18.5455 26.2208 18.647 26.7739 18.7148V18.9631H25.092V18.7148C25.5887 18.6583 25.6903 18.5793 25.9499 17.9246L27.5188 13.9853L27.8575 13.895C28.3428 15.2269 28.8169 16.5927 29.3135 17.9134C29.5619 18.5793 29.6635 18.6696 30.1488 18.7261V18.9744H28.0719V18.9631ZM27.3834 15.1366H27.3608C27.1351 15.7236 26.9206 16.3218 26.7174 16.8975H27.9929L27.3834 15.1366Z" fill="#002459"/>
<path d="M13.5112 7.38201C12.326 5.80176 10.8361 4.49241 9.25583 3.31851C7.86747 2.29135 6.42267 1.37707 4.84243 0.699819C4.28934 0.462782 3.72497 0.24832 3.13802 0.124158C2.74296 0.033858 2.33661 -0.0112919 1.93026 -4.40238e-06C1.3546 0.033858 0.778934 0.214458 0.406448 0.665957C0.0903981 1.07231 -0.0224767 1.60282 9.83063e-05 2.11075C0.0226733 2.61869 0.191985 3.10405 0.383873 3.56684C0.880522 4.75202 1.61421 5.82433 2.42691 6.81763C3.17188 7.73192 3.99587 8.57848 4.88758 9.33474C5.01174 9.43633 5.11333 9.60564 5.27135 9.42504C5.4068 9.25573 5.28264 9.15414 5.21491 9.01869C4.98916 8.58977 4.79728 8.14955 4.63925 7.69806C4.5038 7.31428 4.37964 6.93051 4.31191 6.53545C4.25548 6.17425 4.2329 5.81305 4.3232 5.46314C4.39093 5.20352 4.51509 4.94391 4.70698 4.75202C4.9553 4.49241 5.30521 4.34567 5.65512 4.28924C6.11791 4.21023 6.59199 4.28924 7.04348 4.40211C7.8449 4.60529 8.60116 4.93262 9.33484 5.29382C10.6893 5.97107 11.9535 6.79506 13.1726 7.68677C13.308 7.78836 13.4096 7.92381 13.5902 7.78836C13.7708 7.64162 13.6015 7.51746 13.5112 7.38201ZM10.8699 5.77918C10.1475 5.3164 9.39128 4.89876 8.61244 4.54885C8.26253 4.39082 7.91262 4.25538 7.55142 4.1425C7.2128 4.04091 6.87417 3.95061 6.52426 3.90546C6.20821 3.8716 5.89216 3.86031 5.5874 3.90546C5.39551 3.93933 5.20363 3.98448 5.02303 4.06349C4.7747 4.17636 4.53766 4.34568 4.36835 4.56014C4.10874 4.8649 3.962 5.25996 3.91685 5.65502C3.8717 6.00493 3.90557 6.35485 3.98458 6.69347C4.0523 6.97566 4.1426 7.25784 4.25548 7.52874C4.45865 8.03668 4.72955 8.51075 5.02303 8.96225C4.15389 8.25114 3.39763 7.44973 2.69781 6.60317C1.90768 5.63245 1.18528 4.594 0.699922 3.43139C0.519322 3.00246 0.372585 2.55097 0.338723 2.08818C0.316148 1.65926 0.39516 1.21904 0.654772 0.880419C0.824084 0.677244 1.03855 0.541795 1.28687 0.462782C1.52391 0.38377 1.78352 0.349907 2.04313 0.349907C2.75424 0.33862 3.43149 0.530507 4.08617 0.767544C5.768 1.38836 7.28052 2.31393 8.72532 3.36366C10.3507 4.53756 11.8858 5.84691 13.1049 7.42716C12.3937 6.84021 11.6488 6.27583 10.8699 5.77918Z" fill="#A7A9AC"/>
<path d="M5.06821 9.12028C5.13594 9.18801 5.22624 9.109 5.1698 9.02998C4.66186 8.28501 4.24423 7.46102 4.06363 6.68219C3.89431 5.93721 3.95075 5.24868 4.37968 4.69559C5.31654 3.4201 7.48373 4.00705 9.57192 5.1358C10.87 5.83563 12.168 6.77249 13.1952 7.64162C13.2629 7.69806 13.3532 7.60776 13.2855 7.54004C13.071 7.31429 12.8566 7.08854 12.6421 6.87407C12.01 6.23069 11.344 5.64374 10.6555 5.05679C9.33488 3.92804 7.81107 2.83315 6.26468 1.96402C5.01177 1.26419 3.47668 0.564369 2.20119 0.507931C1.62553 0.485356 1.1176 0.609519 0.790258 0.982006C0.609659 1.21904 0.508071 1.50123 0.496784 1.81728C0.474209 2.43809 0.722534 3.17178 1.08373 3.90546C1.67068 5.09065 2.48338 6.24197 3.38638 7.303C3.93946 7.94639 4.51513 8.55591 5.06821 9.12028Z" fill="#003874"/>
<path d="M24.1552 24.8099C24.0649 24.1891 23.8504 23.5909 23.5795 23.0265C23.1055 22.0219 22.4846 21.0963 21.7735 20.2498C21.4688 20.2498 21.1527 20.2498 20.848 20.2498C20.8592 20.2836 20.8705 20.3175 20.8818 20.3401C21.0737 20.8141 21.1753 21.3108 21.2543 21.8187C21.322 22.3154 21.3559 22.8233 21.2204 23.3087C21.085 23.7827 20.7802 24.2342 20.3739 24.4713C19.9562 24.7196 19.4257 24.7535 18.9291 24.7083C17.9019 24.6293 16.9651 24.2568 16.0508 23.8392C15.1252 23.4215 14.1996 22.97 13.3531 22.4057C13.195 22.3041 13.0709 22.1348 12.879 22.3267C12.6758 22.5185 12.879 22.6427 13.0032 22.7782C13.624 23.4554 14.3125 24.0649 15.0236 24.6293C16.0508 25.4533 17.1457 26.1983 18.3196 26.7852C19.121 27.1803 19.9675 27.5076 20.8592 27.6656C21.4462 27.7785 22.0557 27.8124 22.6314 27.6431C22.9361 27.5528 23.2296 27.4173 23.4667 27.2029C23.715 26.9771 23.8956 26.6836 24.0197 26.3789C24.2003 25.8822 24.2229 25.3291 24.1552 24.8099ZM23.8843 25.5775C23.8617 25.8145 23.8166 26.0515 23.7263 26.2773C23.636 26.503 23.5118 26.7175 23.3538 26.8868C23.2183 27.0335 23.049 27.169 22.8684 27.248C22.6878 27.3383 22.4846 27.3834 22.2815 27.4173C21.8074 27.485 21.322 27.4512 20.848 27.3722C20.3739 27.2819 19.9111 27.1351 19.4709 26.9658C18.376 26.5482 17.3601 25.9725 16.4007 25.2953C15.746 24.8325 15.1139 24.3245 14.5157 23.8053C14.1996 23.5344 13.8949 23.2635 13.6127 22.97C13.545 22.9023 13.624 22.812 13.703 22.8685C14.3238 23.2748 14.9785 23.6473 15.6444 23.9746C16.6377 24.46 17.6649 24.8776 18.7598 24.9905C19.3354 25.0469 19.9337 25.0244 20.4529 24.7648C20.7125 24.6293 20.9608 24.4374 21.1414 24.2004C21.3107 23.9633 21.4236 23.6924 21.4913 23.4103C21.7397 22.4057 21.5365 21.3334 21.1076 20.3739C21.243 20.3739 21.3672 20.3739 21.5026 20.3739C22.0896 21.0625 22.6088 21.8074 23.0377 22.5976C23.2522 22.9926 23.4441 23.399 23.6021 23.8279C23.7037 24.1101 23.7827 24.3923 23.8391 24.6857C23.8843 24.9792 23.9069 25.284 23.8843 25.5775Z" fill="#A7A9AC"/>
<path d="M13.3079 22.4621C13.2288 22.4057 13.1498 22.5073 13.2176 22.5637C13.3643 22.6992 13.4997 22.8346 13.6465 22.9588C13.8722 23.1619 14.098 23.3651 14.335 23.5683C14.5608 23.7715 14.7978 23.9634 15.0348 24.1552C15.2719 24.3471 15.5089 24.5277 15.7572 24.7083C16.0056 24.8889 16.2539 25.0695 16.5022 25.2388C16.7505 25.4081 17.0102 25.5775 17.2698 25.7355C17.5294 25.8935 17.789 26.0402 18.0599 26.187C18.3308 26.3337 18.6017 26.4692 18.8839 26.5933C19.1661 26.7175 19.4482 26.8304 19.7304 26.932C20.0126 27.0335 20.3061 27.1238 20.6109 27.1916C20.9043 27.2593 21.2091 27.3044 21.5139 27.327C21.8186 27.3496 22.1234 27.3383 22.4281 27.2706C22.7216 27.2029 23.0151 27.0674 23.2408 26.8642C23.4666 26.6611 23.6246 26.3902 23.7036 26.0967C23.7939 25.8032 23.8052 25.4984 23.7826 25.1937C23.7601 24.8889 23.7036 24.5842 23.6246 24.2907C23.5456 23.9972 23.444 23.715 23.3199 23.4328C23.1957 23.1507 23.0715 22.8798 22.9248 22.6089C22.7781 22.338 22.6313 22.0671 22.4733 21.8074C22.3153 21.5478 22.146 21.2882 21.9766 21.0399C21.8073 20.7916 21.6267 20.5432 21.4461 20.2949C21.2768 20.2949 21.1188 20.2949 20.9608 20.2949C21.1414 20.6787 21.2768 21.0738 21.3671 21.4914C21.4687 21.9316 21.5139 22.3831 21.48 22.8572C21.4461 23.32 21.322 23.8053 21.0285 24.1665C20.7463 24.5277 20.2835 24.7535 19.832 24.8551C19.3692 24.9454 18.9064 24.9115 18.4437 24.8212C17.9922 24.7422 17.5519 24.618 17.123 24.4713C16.6941 24.3245 16.2765 24.1439 15.8588 23.9521C15.4525 23.7602 15.0461 23.5457 14.6511 23.32C14.256 23.0942 13.8722 22.8572 13.4997 22.5976C13.432 22.5524 13.3643 22.5073 13.3079 22.4621Z" fill="#004A8F"/>
<path d="M19.6291 10.1702C19.5049 9.23332 19.313 8.31904 19.0421 7.41604C18.8954 6.94196 18.7261 6.46789 18.5003 6.01639C18.3649 5.74549 18.2181 5.49717 18.0375 5.24884C17.8005 4.93279 17.5183 4.63932 17.1797 4.43614C16.9314 4.27812 16.6492 4.17653 16.3557 4.15396C16.0284 4.13138 15.701 4.21039 15.4075 4.35713C14.9673 4.57159 14.6061 4.94408 14.3239 5.35043C13.974 5.83579 13.7257 6.38888 13.579 6.97583C13.5112 7.25801 13.7821 7.30316 13.9853 7.15643C14.2336 6.97583 14.5158 6.8178 14.8093 6.75008C15.0915 6.68235 15.3963 6.71621 15.6784 6.80651C15.9606 6.89681 16.2202 7.06613 16.4573 7.25801C16.683 7.4499 16.8862 7.68694 17.0668 7.92397C17.6425 8.69152 18.0714 9.56066 18.3874 10.4637C18.6245 11.1296 18.8164 11.8069 18.9631 12.4954C18.9631 12.518 18.9744 12.5293 18.9744 12.5518C19.234 12.5518 19.4823 12.5518 19.7419 12.5518C19.7419 12.5293 19.7419 12.518 19.7419 12.4954C19.7871 11.7053 19.7307 10.9377 19.6291 10.1702ZM19.2792 12.2245H19.2001C18.8502 10.6443 18.3423 9.3462 17.6538 8.24002C17.3151 7.69822 16.9991 7.31445 16.6492 7.00969C16.3331 6.73879 15.9945 6.55819 15.6559 6.46789C15.4866 6.42274 15.3172 6.40016 15.1479 6.40016C15.0576 6.40016 14.9673 6.41145 14.877 6.42274C14.64 6.4566 14.403 6.5469 14.1546 6.68235C14.3014 6.25343 14.5158 5.85837 14.7867 5.49717C14.9448 5.29399 15.1028 5.12468 15.2608 5.00052C15.4075 4.87636 15.5769 4.78606 15.7462 4.71833C15.8816 4.66189 16.0171 4.62803 16.1412 4.61674C16.1638 4.61674 16.1977 4.61674 16.2202 4.61674C16.3218 4.61674 16.4347 4.62803 16.5363 4.66189C16.7959 4.72962 17.0668 4.88764 17.3151 5.13597C17.5409 5.35043 17.7328 5.61004 17.9247 5.93738C18.1391 6.30986 18.3197 6.71621 18.489 7.23544C18.6245 7.6305 18.7374 8.04814 18.8502 8.51092C18.9744 9.05272 19.076 9.6171 19.155 10.1928C19.2566 10.949 19.3017 11.615 19.2792 12.2245Z" fill="#A7A9AC"/>
<path d="M19.471 12.4615C19.4597 12.2696 19.4484 12.089 19.4259 11.8971C19.4146 11.7052 19.392 11.5246 19.3694 11.3327C19.3469 11.1408 19.3243 10.9602 19.3017 10.7684C19.2791 10.5765 19.2566 10.3959 19.2227 10.204C19.2001 10.0121 19.1663 9.83149 19.1324 9.6396C19.0985 9.44772 19.0647 9.26712 19.0308 9.08652C18.9969 8.90592 18.9518 8.71403 18.9066 8.53343C18.8615 8.35283 18.8163 8.16094 18.7712 7.98034C18.726 7.79974 18.6696 7.61914 18.6132 7.43854C18.5567 7.25794 18.5003 7.07734 18.4326 6.89674C18.3648 6.71615 18.2971 6.54683 18.2181 6.36623C18.1391 6.19692 18.0488 6.02761 17.9472 5.86958C17.8456 5.71156 17.744 5.55354 17.6312 5.39551C17.5183 5.24877 17.3941 5.10204 17.2474 4.97787C17.1006 4.85371 16.9426 4.75212 16.7733 4.67311C16.604 4.5941 16.4121 4.53766 16.2202 4.52637C16.0283 4.51509 15.8477 4.56024 15.6671 4.63925C15.4865 4.70697 15.3285 4.81985 15.1818 4.93272C15.035 5.05689 14.8996 5.19234 14.7754 5.32779C14.6513 5.47452 14.5384 5.62126 14.4368 5.77928C14.3352 5.93731 14.2449 6.10662 14.1546 6.27593C14.0643 6.44525 13.9966 6.61456 13.9176 6.79516C13.8837 6.87417 13.8498 6.9419 13.816 7.02091C13.7821 7.09992 13.8724 7.16764 13.9289 7.08863C14.1885 6.78387 14.6174 6.53555 15.035 6.51297C15.464 6.47911 15.8929 6.65971 16.2428 6.90803C16.604 7.14507 16.8862 7.43854 17.1345 7.76588C17.3828 8.08193 17.5973 8.43184 17.7779 8.79304C17.9585 9.15424 18.1278 9.51544 18.2633 9.88793C18.41 10.2604 18.5342 10.6329 18.6357 11.0167C18.7486 11.4004 18.8389 11.7842 18.9066 12.168C18.9292 12.2696 18.9405 12.3712 18.9631 12.4615C19.1211 12.4615 19.471 12.4615 19.471 12.4615Z" fill="#005AAA"/>
<path d="M13.3533 24.4035C13.3759 24.3132 13.2743 24.2681 13.2292 24.3471C12.9357 24.855 12.5971 25.3517 12.1117 25.679C11.5135 26.0741 10.7008 26.2095 10.0122 25.995C9.32369 25.7806 8.74803 25.2275 8.29653 24.6405C7.84503 24.0536 7.5064 23.4215 7.24679 22.7668C6.98718 22.1009 6.80658 21.4123 6.67113 20.7125C6.53568 20.0127 6.45667 19.3129 6.41152 18.613C6.36637 17.9132 6.35508 17.2021 6.38895 16.5023C6.42281 15.8024 6.47925 15.0913 6.58083 14.4028C6.68242 13.703 6.80658 13.0144 6.97589 12.3259C7.14521 11.6374 7.35967 10.9714 7.67572 10.328C7.70958 10.249 7.75473 10.17 7.78859 10.091C7.83374 10.012 7.72087 9.94425 7.66443 10.0233C7.43868 10.3506 7.23551 10.6892 7.05491 11.0391C6.85173 11.4229 6.65985 11.8067 6.49053 12.2017C6.32122 12.5968 6.1632 13.0032 6.01646 13.4095C5.86972 13.8159 5.74556 14.2335 5.6214 14.6398C5.49724 15.0575 5.39565 15.4751 5.29406 15.8927C5.19247 16.3104 5.10217 16.7393 5.03445 17.1569C4.95544 17.5859 4.88771 18.0148 4.83127 18.4324C4.77484 18.8614 4.72969 19.2903 4.69583 19.7192C4.66196 20.1481 4.6281 20.577 4.61681 21.0173C4.60553 21.4462 4.59424 21.8864 4.59424 22.3153C4.59424 22.7442 4.60553 23.1845 4.6281 23.6134C4.65068 24.0423 4.68454 24.4712 4.74098 24.9002C4.78613 25.3291 4.85385 25.758 4.93286 26.1756C5.01187 26.6046 5.11346 27.0222 5.22634 27.4398C5.33921 27.8575 5.47466 28.2638 5.64397 28.6702C5.802 29.0652 5.99388 29.4603 6.23092 29.8215C6.45667 30.1827 6.73886 30.5213 7.07748 30.7922C7.41611 31.0631 7.83374 31.255 8.26267 31.2776C8.6803 31.3114 9.12051 31.176 9.493 30.9615C9.87677 30.7471 10.2041 30.4649 10.4976 30.1488C10.7911 29.8328 11.062 29.4942 11.299 29.133C11.536 28.7718 11.7618 28.3993 11.965 28.0155C12.1681 27.6317 12.3487 27.2367 12.518 26.8416C12.6874 26.4465 12.8454 26.0402 12.9808 25.6338C13.105 25.2275 13.2404 24.8211 13.3533 24.4035Z" fill="#002459"/>
<path d="M13.1951 24.3246C12.9581 24.6519 12.7097 24.968 12.3937 25.2276C12.0776 25.4872 11.7164 25.6678 11.3214 25.7694C10.9263 25.8597 10.5087 25.8597 10.1249 25.7468C9.74113 25.6339 9.39122 25.3969 9.09775 25.126C8.79298 24.8551 8.54466 24.5391 8.31891 24.2004C8.09316 23.8618 7.88999 23.5119 7.72067 23.1507C7.55136 22.7895 7.40462 22.4057 7.28046 22.022C7.1563 21.6382 7.066 21.2431 6.98699 20.8481C6.90797 20.453 6.84025 20.0579 6.7951 19.6516C6.74995 19.2452 6.7048 18.8502 6.68222 18.4438C6.65965 18.0375 6.64836 17.6424 6.64836 17.2361C6.64836 16.8297 6.65965 16.4347 6.68222 16.0283C6.7048 15.622 6.72737 15.2269 6.77252 14.8206C6.80639 14.4142 6.86282 14.0191 6.91926 13.6128C6.9757 13.2177 7.04342 12.8114 7.12244 12.4163C7.20145 12.0213 7.30304 11.6262 7.4272 11.2424C7.55136 10.8587 7.68681 10.4749 7.83355 10.1024C7.90127 9.94437 8.01415 9.80892 7.82226 9.66218C7.61909 9.51545 7.54007 9.70733 7.44977 9.85407C6.63707 10.9941 5.9824 12.2244 5.45189 13.5225C4.8085 15.1253 4.36829 16.8071 4.10868 18.5116C3.83778 20.374 3.78134 22.2703 3.92808 24.144C3.98452 24.81 4.06353 25.4759 4.1764 26.1419C4.33443 27.011 4.54889 27.8689 4.85365 28.7041C5.10198 29.3701 5.41803 30.0248 5.85824 30.5891C6.11785 30.9165 6.41133 31.2212 6.74995 31.4583C7.1563 31.7405 7.61909 31.9324 8.09316 31.9775C8.5108 32.0114 8.92843 31.9436 9.32349 31.7969C9.84272 31.605 10.3055 31.289 10.7006 30.9165C11.2085 30.4424 11.6149 29.8667 11.9535 29.2685C12.1792 28.8734 12.3711 28.4558 12.5517 28.0382C13.0371 26.8869 13.3644 25.6678 13.5902 24.4375C13.703 24.0086 13.4434 23.9747 13.1951 24.3246ZM12.2695 27.914C12.0325 28.4784 11.7616 29.0315 11.423 29.5394C11.0956 30.0473 10.7006 30.5214 10.2378 30.9052C9.87658 31.1987 9.45894 31.447 9.00745 31.5712C8.72526 31.6502 8.43178 31.684 8.13831 31.6615C7.81097 31.6276 7.48364 31.5147 7.19016 31.3454C6.67094 31.0519 6.2533 30.5891 5.92596 30.0925C5.58734 29.5846 5.33901 29.0315 5.13584 28.4558C4.93267 27.8802 4.77464 27.2932 4.63919 26.695C4.37958 25.4985 4.25542 24.2682 4.21027 23.0378C4.14254 20.9271 4.32314 18.8163 4.79722 16.762C5.0794 15.5655 5.45189 14.3916 5.93725 13.2629C6.42261 12.1454 7.00956 11.0618 7.72067 10.0685C7.68681 10.1475 7.65295 10.2153 7.6078 10.2943C7.12244 11.2876 6.85154 12.3825 6.64836 13.4661C6.54678 14.0079 6.46776 14.5497 6.41133 15.1027C6.29845 16.096 6.26459 17.0893 6.29845 18.0939C6.33231 19.0872 6.44519 20.0805 6.65965 21.0625C6.77252 21.6043 6.91926 22.1574 7.12244 22.6766C7.35947 23.3087 7.67552 23.9183 8.07058 24.4713C8.40921 24.9567 8.80427 25.4082 9.30092 25.7355C9.53796 25.8936 9.80886 26.029 10.091 26.0967C10.3732 26.1757 10.6667 26.1983 10.9602 26.1645C11.502 26.108 12.0212 25.871 12.4276 25.5211C12.7775 25.205 13.0484 24.7987 13.2741 24.3923C13.0597 25.5888 12.7436 26.7853 12.2695 27.914Z" fill="#A7A9AC"/>
<path d="M33.3884 15.3397V14.4141H35.2057V13.7708H36.2442V14.4141H38.0502V15.3397H36.199C36.6731 15.4526 37.0681 15.6896 37.3729 16.0847C37.689 16.4685 37.847 16.92 37.847 17.4392C37.847 18.0261 37.6438 18.5341 37.2262 18.9517C36.8085 19.3693 36.3119 19.5838 35.7362 19.5838C35.1493 19.5838 34.6526 19.3693 34.2463 18.9517C33.8286 18.5341 33.6255 18.0261 33.6255 17.4392C33.6255 16.92 33.7835 16.4685 34.0995 16.0847C34.4156 15.7009 34.8107 15.4526 35.296 15.3397H33.3884ZM34.0883 23.2635V19.9676H35.1267V22.3379H39.732V23.2635H34.0883ZM36.4812 16.6039C36.2667 16.3669 36.0184 16.254 35.7249 16.254C35.4315 16.254 35.1719 16.3669 34.9574 16.6039C34.7429 16.8409 34.6413 17.1118 34.6413 17.4505C34.6413 17.7778 34.7429 18.06 34.9574 18.297C35.1719 18.5341 35.4202 18.6469 35.7249 18.6469C36.0184 18.6469 36.278 18.5341 36.4812 18.297C36.6957 18.06 36.7972 17.7778 36.7972 17.4505C36.7972 17.1118 36.6957 16.8297 36.4812 16.6039ZM39.5062 17.4166V21.1753H38.4678V13.9626H39.5062V16.5023H40.3415V17.4279H39.5062V17.4166Z" fill="#626466"/>
<path d="M45.1162 18.1842V19.787H47.3059V23.2522H46.2675V20.7126H41.6509V19.787H44.0777V18.1842H41.2559V17.2586H46.2675V14.8882H41.6622V13.9626H47.3059V17.2586H47.938V18.1842H45.1162Z" fill="#626466"/>
<path d="M49.0442 22.067V21.1414H51.8661V19.6176H49.6763V16.3217H54.0558V14.8995H49.6763V13.9739H55.0943V17.2585H50.7147V18.7033H55.3313V19.6289H52.9045V21.1527H55.7264V22.0783H49.0442V22.067Z" fill="#626466"/>
<path d="M56.8438 19.5048V18.5792H59.6656V17.902H57.4758V13.9626H58.5143V14.8882H61.8554V13.9626H62.8938V17.902H60.7041L60.7266 18.5792H63.5259V19.5048H56.8438V19.5048ZM62.0247 23.2635L60.1848 20.9157L58.345 23.2635H57.1259L59.6318 20.0014H60.7492L63.255 23.2635H62.0247ZM61.8554 15.8138H58.5143V16.9651H61.8554V15.8138Z" fill="#626466"/>
<path d="M68.1764 19.0759L66.7655 15.3623L65.3771 19.0759H64.2822L66.2124 13.9626H67.3411L69.2713 19.0759H68.1764ZM65.2642 23.2635V19.7644H66.3027V22.338H70.8854V23.2635H65.2642ZM70.6822 17.0103V21.2205H69.6438V13.9626H70.6822V16.0847H71.5175V17.0103H70.6822Z" fill="#626466"/>
<path d="M77.6466 18.3874V16.6491H76.6984C76.5856 17.1345 76.3373 17.5521 75.9309 17.8795C75.5358 18.2181 75.0618 18.3874 74.52 18.3874C73.9104 18.3874 73.3912 18.1617 72.9623 17.7102C72.5221 17.27 72.3076 16.7282 72.3076 16.1073C72.3076 15.4753 72.5221 14.9335 72.9623 14.5045C73.4025 14.0756 73.9217 13.8499 74.52 13.8499C75.0618 13.8499 75.5358 14.0305 75.9535 14.3917C76.3711 14.7529 76.6194 15.1931 76.721 15.7349H77.6466V13.8611H78.685V18.3987H77.6466V18.3874ZM73.0639 23.2636V19.076H74.1023V19.979H77.6466V19.076H78.685V23.2636H73.0639ZM75.3327 15.1705C75.1069 14.9109 74.8247 14.7754 74.5087 14.7754C74.2039 14.7754 73.9217 14.9109 73.696 15.1705C73.4589 15.4301 73.3461 15.7461 73.3461 16.1073C73.3461 16.4685 73.4589 16.7846 73.696 17.0555C73.933 17.3264 74.2039 17.4506 74.5087 17.4506C74.8247 17.4506 75.1069 17.3151 75.3327 17.0555C75.5584 16.7846 75.6713 16.4685 75.6713 16.1073C75.6826 15.7461 75.5584 15.4301 75.3327 15.1705ZM77.6466 20.9045H74.1023V22.3267H77.6466V20.9045Z" fill="#626466"/>
<path d="M83.787 19.0533L82.4325 16.1524L81.078 19.0533H79.9832L81.9133 14.8882H80.2541V13.9626H84.611V14.8882H82.9631L84.8706 19.0533H83.787ZM80.8523 23.2635V19.7644H81.8907V22.338H86.6992V23.2635H80.8523ZM85.4463 21.1528V13.9626H86.4847V21.1528H85.4463Z" fill="#626466"/>
<path d="M88.0198 19.3354V18.4098H94.702V19.3354H88.0198ZM88.5729 15.0461V14.1206H90.8642V13.6917H91.9027V14.1206H94.2166V15.0461H93.0088C93.1217 15.2042 93.2007 15.3848 93.2685 15.5767C93.3362 15.7685 93.3588 15.9717 93.3588 16.1862C93.3588 16.7393 93.1669 17.2021 92.7831 17.5971C92.388 17.9809 91.9252 18.1728 91.3722 18.1728C90.8191 18.1728 90.345 17.9809 89.9499 17.5971C89.5549 17.2021 89.363 16.7393 89.363 16.1862C89.363 15.9717 89.3968 15.7685 89.4646 15.5767C89.5323 15.3848 89.6226 15.2042 89.7242 15.0461H88.5729ZM92.8508 23.0603C92.4332 23.4779 91.9365 23.6924 91.3496 23.6924C90.7739 23.6924 90.2773 23.4779 89.8596 23.0603C89.4307 22.6426 89.2275 22.1347 89.2275 21.5477C89.2275 20.9495 89.442 20.4528 89.8596 20.0465C90.2773 19.6289 90.7852 19.4257 91.3496 19.4257C91.9365 19.4257 92.4332 19.6289 92.8508 20.0465C93.2685 20.4641 93.4716 20.9608 93.4716 21.5477C93.4716 22.1347 93.2685 22.6426 92.8508 23.0603ZM92.1171 20.7125C91.9027 20.4754 91.6431 20.3513 91.3383 20.3513C91.0335 20.3513 90.7739 20.4754 90.5708 20.7125C90.3676 20.9495 90.266 21.2317 90.266 21.559C90.266 21.8976 90.3676 22.1911 90.5708 22.4169C90.7739 22.6539 91.0335 22.7668 91.3383 22.7668C91.6431 22.7668 91.9027 22.6539 92.1171 22.4169C92.3316 22.1911 92.4332 21.8976 92.4332 21.559C92.4332 21.2317 92.3316 20.9495 92.1171 20.7125ZM92.0494 15.3735C91.8575 15.159 91.6318 15.0461 91.3722 15.0461C91.1013 15.0461 90.8642 15.159 90.6836 15.3735C90.4917 15.5879 90.4014 15.8476 90.4014 16.1523C90.4014 16.4571 90.4917 16.7167 90.6836 16.9312C90.8755 17.1456 91.1013 17.2585 91.3722 17.2585C91.6318 17.2585 91.8575 17.1456 92.0494 16.9312C92.2413 16.7167 92.3316 16.4571 92.3316 16.1523C92.3203 15.8476 92.23 15.5879 92.0494 15.3735Z" fill="#626466"/>
<path d="M98.709 19.0759V21.1979H97.6706V19.0759H95.605V18.1503H100.617V19.0759H98.709ZM99.5669 17.4166C99.1605 17.8343 98.6639 18.0375 98.0769 18.0375C97.5126 18.0375 97.0159 17.8343 96.5983 17.4166C96.1806 17.0103 95.9775 16.5136 95.9775 15.938C95.9775 15.3623 96.1806 14.877 96.5983 14.4706C97.0159 14.0643 97.5013 13.8611 98.0769 13.8611C98.6639 13.8611 99.1492 14.0643 99.5669 14.4706C99.9732 14.877 100.176 15.3623 100.176 15.938C100.176 16.5249 99.9732 17.0103 99.5669 17.4166ZM96.2597 23.2636V20.4981H97.2981V22.338H102.276V23.2636H96.2597ZM98.8332 15.1479C98.63 14.9221 98.3817 14.8092 98.0769 14.8092C97.7835 14.8092 97.5351 14.9221 97.3207 15.1479C97.1175 15.3736 97.0159 15.6445 97.0159 15.9493C97.0159 16.2766 97.1175 16.5475 97.3207 16.7733C97.5239 16.999 97.7722 17.1119 98.0769 17.1119C98.3704 17.1119 98.63 16.999 98.8332 16.7733C99.0364 16.5475 99.138 16.2766 99.138 15.9493C99.138 15.6445 99.0364 15.3736 98.8332 15.1479ZM101.034 21.2205V20.5207H99.3976V19.5951H101.034V13.9627H102.073V21.2205H101.034Z" fill="#626466"/>
<path d="M29.2345 28.072L28.6476 26.8756L28.3315 27.327V28.072H27.9478V25.5098H28.3315V26.7062L29.1442 25.5098H29.6183L28.9072 26.5256L29.686 28.072H29.2345Z" fill="#626466"/>
<path d="M30.5551 28.0945C30.3293 28.0945 30.1261 28.0042 29.9681 27.8123C29.8665 27.6995 29.8101 27.5527 29.7762 27.3834C29.7649 27.2818 29.7537 27.0787 29.7537 26.7852C29.7537 26.4917 29.7649 26.2998 29.7762 26.1869C29.7988 26.0176 29.8665 25.8709 29.9681 25.758C30.1261 25.5774 30.318 25.4758 30.5551 25.4758C30.7808 25.4758 30.984 25.5661 31.142 25.758C31.2436 25.8709 31.3 26.0176 31.3226 26.1869C31.3339 26.2885 31.3452 26.4917 31.3452 26.7852C31.3452 27.0787 31.3339 27.2818 31.3226 27.3834C31.3 27.5527 31.2323 27.6995 31.142 27.8123C30.9727 28.0042 30.7808 28.0945 30.5551 28.0945ZM30.5551 25.8935C30.4309 25.8935 30.3406 25.9386 30.2616 26.0402C30.2052 26.1192 30.16 26.2321 30.1487 26.3901C30.1374 26.4466 30.1374 26.582 30.1374 26.7965C30.1374 27.0109 30.1374 27.1464 30.1487 27.2028C30.16 27.3608 30.1939 27.485 30.2616 27.5527C30.3406 27.6543 30.4309 27.6995 30.5551 27.6995C30.6792 27.6995 30.7695 27.6543 30.8485 27.5527C30.905 27.4737 30.9501 27.3608 30.9614 27.2028C30.9727 27.1464 30.9727 27.0109 30.9727 26.7965C30.9727 26.582 30.9727 26.4466 30.9614 26.3901C30.9501 26.2321 30.9163 26.1079 30.8485 26.0402C30.7695 25.9386 30.6679 25.8935 30.5551 25.8935Z" fill="#626466"/>
<path d="M32.869 28.072L32.4175 27.0223H32.0676V28.072H31.6838V25.5098H32.5417C32.7449 25.5098 32.9142 25.5775 33.0383 25.7242C33.1625 25.8597 33.2302 26.0516 33.2302 26.266C33.2302 26.4466 33.1851 26.5934 33.1061 26.7175C33.027 26.8304 32.9367 26.9094 32.8126 26.9546L33.3092 28.072H32.869V28.072ZM32.5191 26.6385C32.6207 26.6385 32.6997 26.6047 32.7561 26.5482C32.8126 26.4805 32.8464 26.3902 32.8464 26.2773C32.8464 26.1644 32.8126 26.0741 32.7561 26.0064C32.6997 25.9387 32.6207 25.9161 32.5191 25.9161H32.0676V26.6385H32.5191V26.6385Z" fill="#626466"/>
<path d="M33.5688 28.072V25.5098H34.9798V25.9161H33.9526V26.5821H34.833V26.9884H33.9526V27.677H34.9798V28.072H33.5688Z" fill="#626466"/>
<path d="M36.5151 28.072L36.3684 27.5754H35.5782L35.4315 28.072H35.0251L35.8266 25.5098H36.1313L36.9327 28.072H36.5151ZM36.2668 27.1916L35.9846 26.2209L35.6911 27.1916H36.2668Z" fill="#626466"/>
<path d="M38.1064 25.5098H37.7227V28.072H38.1064V25.5098Z" fill="#626466"/>
<path d="M39.8448 28.072L38.9079 26.4015V28.072H38.5242V25.5098H38.8741L39.7997 27.1803V25.5098H40.1834V28.072H39.8448Z" fill="#626466"/>
<path d="M41.1991 28.0945C40.8718 28.0945 40.6122 27.9816 40.4203 27.7558L40.3977 27.7333L40.6573 27.4398L40.6799 27.4624C40.8041 27.6091 40.9847 27.6881 41.1991 27.6881C41.3346 27.6881 41.4362 27.6543 41.5039 27.5978C41.5716 27.5414 41.6055 27.4511 41.6055 27.3382C41.6055 27.2366 41.5829 27.1576 41.5265 27.1012C41.4813 27.056 41.4136 27.0222 41.312 27.0109L41.0637 26.9657C40.8831 26.9319 40.7363 26.8641 40.646 26.7513C40.5332 26.6271 40.488 26.4691 40.488 26.2546C40.488 26.0289 40.5557 25.837 40.6912 25.7015C40.8266 25.5661 41.0072 25.4871 41.233 25.4871C41.5039 25.4871 41.7409 25.5886 41.9102 25.7805L41.9328 25.8031L41.6845 26.0853L41.6619 26.0627C41.549 25.9386 41.4023 25.8821 41.2217 25.8821C41.1088 25.8821 41.0185 25.916 40.9621 25.9837C40.8944 26.0514 40.8718 26.1304 40.8718 26.2433C40.8718 26.3336 40.8944 26.4013 40.9508 26.4578C40.9959 26.5142 41.075 26.5481 41.1765 26.5594L41.4136 26.6045C41.5942 26.6384 41.7296 26.7061 41.8312 26.7964C41.9554 26.9206 42.0118 27.1012 42.0118 27.3269C42.0118 27.564 41.9328 27.7558 41.7861 27.8913C41.628 28.0267 41.4362 28.0945 41.1991 28.0945Z" fill="#626466"/>
<path d="M42.6892 28.072V25.9161H42.1023V25.5098H43.66V25.9161H43.073V28.072H42.6892Z" fill="#626466"/>
<path d="M44.2695 25.5098H43.8857V28.072H44.2695V25.5098Z" fill="#626466"/>
<path d="M45.0821 28.072V25.9161H44.4951V25.5098H46.0528V25.9161H45.4658V28.072H45.0821Z" fill="#626466"/>
<path d="M47.0462 28.0946C46.8205 28.0946 46.6286 28.0156 46.4819 27.8463C46.3351 27.677 46.2561 27.4625 46.2561 27.2029V25.5098H46.6399V27.1803C46.6399 27.3383 46.6737 27.4625 46.7528 27.5528C46.8318 27.6431 46.9221 27.6882 47.0462 27.6882C47.1704 27.6882 47.272 27.6431 47.3397 27.5528C47.4187 27.4625 47.4526 27.3383 47.4526 27.1803V25.5098H47.8364V27.2029C47.8364 27.4625 47.7573 27.677 47.6106 27.8463C47.4639 28.0156 47.272 28.0946 47.0462 28.0946Z" fill="#626466"/>
<path d="M48.6265 28.072V25.9161H48.0396V25.5098H49.5859V25.9161H49.0103V28.072H48.6265Z" fill="#626466"/>
<path d="M49.8228 28.072V25.5098H51.245V25.9161H50.2065V26.5821H51.087V26.9884H50.2065V27.677H51.245V28.072H49.8228Z" fill="#626466"/>
<path d="M52.1819 28.072V25.5098H53.6041V25.9161H52.5769V26.6159H53.4573V27.0223H52.5769V28.072H52.1819Z" fill="#626466"/>
<path d="M54.5749 28.0945C54.3491 28.0945 54.1459 28.0042 53.9879 27.8123C53.8863 27.6995 53.8299 27.5527 53.796 27.3834C53.7847 27.2818 53.7734 27.0787 53.7734 26.7852C53.7734 26.4917 53.7847 26.2998 53.796 26.1869C53.8186 26.0176 53.8863 25.8709 53.9879 25.758C54.1459 25.5774 54.3378 25.4758 54.5749 25.4758C54.8006 25.4758 55.0038 25.5661 55.1618 25.758C55.2634 25.8709 55.3198 26.0176 55.3424 26.1869C55.3537 26.2885 55.365 26.4917 55.365 26.7852C55.365 27.0787 55.3537 27.2818 55.3424 27.3834C55.3198 27.5527 55.2521 27.6995 55.1618 27.8123C55.0038 28.0042 54.8119 28.0945 54.5749 28.0945ZM54.5749 25.8935C54.4507 25.8935 54.3604 25.9386 54.2814 26.0402C54.2249 26.1192 54.1798 26.2321 54.1685 26.3901C54.1572 26.4466 54.1572 26.582 54.1572 26.7965C54.1572 27.0109 54.1572 27.1464 54.1685 27.2028C54.1798 27.3608 54.2136 27.485 54.2814 27.5527C54.3604 27.6543 54.4507 27.6995 54.5749 27.6995C54.699 27.6995 54.7893 27.6543 54.8683 27.5527C54.9248 27.4737 54.9699 27.3608 54.9812 27.2028C54.9925 27.1464 54.9925 27.0109 54.9925 26.7965C54.9925 26.582 54.9925 26.4466 54.9812 26.3901C54.9699 26.2321 54.9361 26.1079 54.8683 26.0402C54.7893 25.9386 54.699 25.8935 54.5749 25.8935Z" fill="#626466"/>
<path d="M56.8887 28.072L56.4372 27.0223H56.0986V28.072H55.7148V25.5098H56.5727C56.7759 25.5098 56.9452 25.5775 57.0693 25.7242C57.1935 25.8597 57.2612 26.0516 57.2612 26.266C57.2612 26.4466 57.2161 26.5934 57.1371 26.7175C57.0581 26.8304 56.9678 26.9094 56.8436 26.9546L57.3402 28.072H56.8887V28.072ZM56.5388 26.6385C56.6404 26.6385 56.7194 26.6047 56.7759 26.5482C56.8323 26.4805 56.8662 26.3902 56.8662 26.2773C56.8662 26.1644 56.8323 26.0741 56.7759 26.0064C56.7194 25.9387 56.6404 25.9161 56.5388 25.9161H56.0873V26.6385H56.5388V26.6385Z" fill="#626466"/>
<path d="M59.4171 28.072L58.9656 27.0223H58.6157V28.072H58.2319V25.5098H59.0898C59.293 25.5098 59.4623 25.5775 59.5864 25.7242C59.7106 25.8597 59.7783 26.0516 59.7783 26.266C59.7783 26.4466 59.7332 26.5934 59.6542 26.7175C59.5751 26.8304 59.4848 26.9094 59.3607 26.9546L59.8573 28.072H59.4171V28.072ZM59.0672 26.6385C59.1688 26.6385 59.2478 26.6047 59.3042 26.5482C59.3607 26.4805 59.3945 26.3902 59.3945 26.2773C59.3945 26.1644 59.3607 26.0741 59.3042 26.0064C59.2478 25.9387 59.1688 25.9161 59.0672 25.9161H58.6157V26.6385H59.0672V26.6385Z" fill="#626466"/>
<path d="M60.8283 28.0945C60.6025 28.0945 60.3993 28.0042 60.2413 27.8123C60.1397 27.6995 60.0833 27.5527 60.0494 27.3834C60.0381 27.2818 60.0269 27.0787 60.0269 26.7852C60.0269 26.4917 60.0381 26.2998 60.0494 26.1869C60.072 26.0176 60.1397 25.8709 60.2413 25.758C60.3993 25.5774 60.5912 25.4758 60.8283 25.4758C61.054 25.4758 61.2572 25.5661 61.4152 25.758C61.5168 25.8709 61.5732 26.0176 61.5958 26.1869C61.6071 26.2885 61.6184 26.4917 61.6184 26.7852C61.6184 27.0787 61.6071 27.2818 61.5958 27.3834C61.5732 27.5527 61.5055 27.6995 61.4152 27.8123C61.2572 28.0042 61.0653 28.0945 60.8283 28.0945ZM60.8283 25.8935C60.7041 25.8935 60.6138 25.9386 60.5348 26.0402C60.4784 26.1192 60.4332 26.2321 60.4219 26.3901C60.4106 26.4466 60.4106 26.582 60.4106 26.7965C60.4106 27.0109 60.4106 27.1464 60.4219 27.2028C60.4332 27.3608 60.4671 27.485 60.5348 27.5527C60.6138 27.6543 60.7041 27.6995 60.8283 27.6995C60.9524 27.6995 61.0427 27.6543 61.1217 27.5527C61.1782 27.4737 61.2233 27.3608 61.2346 27.2028C61.2459 27.1464 61.2459 27.0109 61.2459 26.7965C61.2459 26.582 61.2459 26.4466 61.2346 26.3901C61.2233 26.2321 61.1895 26.1079 61.1217 26.0402C61.0427 25.9386 60.9524 25.8935 60.8283 25.8935Z" fill="#626466"/>
<path d="M61.9683 28.072V25.5098H62.8261C63.0293 25.5098 63.1986 25.5775 63.3228 25.7017C63.4469 25.8258 63.5034 26.0064 63.5034 26.2209C63.5034 26.3563 63.4695 26.4692 63.4131 26.5821C63.3679 26.6611 63.3115 26.7175 63.255 26.7514C63.4469 26.8643 63.5372 27.0562 63.5372 27.327C63.5372 27.5641 63.4808 27.7447 63.3566 27.8688C63.2325 27.993 63.0744 28.0607 62.8713 28.0607H61.9683V28.072ZM62.8261 27.677C62.9277 27.677 63.0067 27.6431 63.0631 27.5867C63.1196 27.5189 63.1534 27.4399 63.1534 27.327C63.1534 27.2255 63.1196 27.1352 63.0631 27.0787C63.0067 27.011 62.9277 26.9884 62.8261 26.9884H62.352V27.6882H62.8261V27.677ZM62.7922 26.5708C62.8938 26.5708 62.9616 26.5482 63.018 26.4918C63.0744 26.4353 63.1083 26.3563 63.1083 26.2435C63.1083 26.1419 63.0744 26.0516 63.018 25.9951C62.9616 25.9387 62.8825 25.9161 62.7922 25.9161H62.3407V26.5708H62.7922V26.5708Z" fill="#626466"/>
<path d="M64.5868 28.0945C64.3611 28.0945 64.1579 28.0042 63.9999 27.8123C63.8983 27.6995 63.8418 27.5527 63.808 27.3834C63.7967 27.2818 63.7854 27.0787 63.7854 26.7852C63.7854 26.4917 63.7967 26.2998 63.808 26.1869C63.8306 26.0176 63.8983 25.8709 63.9999 25.758C64.1579 25.5774 64.3498 25.4758 64.5868 25.4758C64.8126 25.4758 65.0157 25.5661 65.1738 25.758C65.2754 25.8709 65.3318 26.0176 65.3544 26.1869C65.3656 26.2885 65.3769 26.4917 65.3769 26.7852C65.3769 27.0787 65.3656 27.2818 65.3544 27.3834C65.3318 27.5527 65.2641 27.6995 65.1738 27.8123C65.0157 28.0042 64.8126 28.0945 64.5868 28.0945ZM64.5868 25.8935C64.4627 25.8935 64.3723 25.9386 64.2933 26.0402C64.2369 26.1192 64.1917 26.2321 64.1805 26.3901C64.1692 26.4466 64.1692 26.582 64.1692 26.7965C64.1692 27.0109 64.1692 27.1464 64.1805 27.2028C64.1917 27.3608 64.2256 27.485 64.2933 27.5527C64.3723 27.6543 64.4627 27.6995 64.5868 27.6995C64.711 27.6995 64.8013 27.6543 64.8803 27.5527C64.9367 27.4737 64.9819 27.3608 64.9932 27.2028C65.0044 27.1464 65.0045 27.0109 65.0045 26.7965C65.0045 26.582 65.0044 26.4466 64.9932 26.3901C64.9819 26.2321 64.948 26.1079 64.8803 26.0402C64.8013 25.9386 64.711 25.8935 64.5868 25.8935Z" fill="#626466"/>
<path d="M66.1219 28.072V25.9161H65.5349V25.5098H67.0926V25.9161H66.5056V28.072H66.1219Z" fill="#626466"/>
<path d="M68.3457 25.5098H67.9619V28.072H68.3457V25.5098Z" fill="#626466"/>
<path d="M70.0838 28.072L69.147 26.4015V28.072H68.7632V25.5098H69.1018L70.0387 27.1803V25.5098H70.4224V28.072H70.0838Z" fill="#626466"/>
<path d="M70.8401 28.072V25.5098H71.6189C71.856 25.5098 72.0478 25.5888 72.1946 25.7581C72.2962 25.8823 72.3639 26.0403 72.3978 26.2322C72.4091 26.3338 72.4203 26.5144 72.4203 26.774C72.4203 27.0336 72.4091 27.2255 72.3978 27.327C72.3639 27.5302 72.2962 27.6995 72.1946 27.8237C72.0591 27.9817 71.8673 28.072 71.6189 28.072H70.8401ZM71.5851 27.677C71.7318 27.677 71.8447 27.6205 71.9237 27.5189C71.9688 27.4625 72.0027 27.3609 72.014 27.2255C72.0253 27.1352 72.0253 26.9884 72.0253 26.774C72.0253 26.5708 72.0253 26.4241 72.014 26.345C72.0027 26.2209 71.9688 26.1306 71.9237 26.0741C71.8447 25.9726 71.7318 25.9161 71.5851 25.9161H71.2239V27.677H71.5851V27.677Z" fill="#626466"/>
<path d="M73.5152 28.0946C73.2895 28.0946 73.0976 28.0156 72.9508 27.8463C72.8041 27.677 72.7251 27.4625 72.7251 27.2029V25.5098H73.1089V27.1803C73.1089 27.3383 73.1427 27.4625 73.2217 27.5528C73.3008 27.6431 73.3911 27.6882 73.5152 27.6882C73.6394 27.6882 73.741 27.6431 73.8087 27.5528C73.8877 27.4625 73.9216 27.3383 73.9216 27.1803V25.5098H74.3053V27.2029C74.3053 27.4625 74.2263 27.677 74.0796 27.8463C73.9329 28.0156 73.741 28.0946 73.5152 28.0946Z" fill="#626466"/>
<path d="M75.2875 28.0945C74.9602 28.0945 74.7005 27.9816 74.5087 27.7558L74.4861 27.7333L74.7457 27.4398L74.7683 27.4624C74.8924 27.6091 75.073 27.6881 75.2875 27.6881C75.4229 27.6881 75.5245 27.6543 75.5923 27.5978C75.66 27.5414 75.6938 27.4511 75.6938 27.3382C75.6938 27.2366 75.6713 27.1576 75.6148 27.1012C75.5697 27.056 75.502 27.0222 75.4004 27.0109L75.152 26.9657C74.9714 26.9319 74.8247 26.8641 74.7344 26.7513C74.6215 26.6271 74.5764 26.4691 74.5764 26.2546C74.5764 26.0289 74.6441 25.837 74.7796 25.7015C74.915 25.5661 75.0956 25.4871 75.3214 25.4871C75.5923 25.4871 75.8293 25.5886 75.9986 25.7805L76.0212 25.8031L75.7729 26.0853L75.7503 26.0627C75.6374 25.9386 75.4907 25.8821 75.3101 25.8821C75.1972 25.8821 75.1069 25.916 75.0505 25.9837C74.9827 26.0514 74.9602 26.1304 74.9602 26.2433C74.9602 26.3336 74.9827 26.4013 75.0392 26.4578C75.0843 26.5142 75.1633 26.5481 75.2536 26.5594L75.4907 26.6045C75.6713 26.6384 75.8067 26.7061 75.9083 26.7964C76.0325 26.9206 76.0889 27.1012 76.0889 27.3269C76.0889 27.564 76.0099 27.7558 75.8631 27.8913C75.7164 28.0267 75.5245 28.0945 75.2875 28.0945Z" fill="#626466"/>
<path d="M76.7774 28.072V25.9161H76.1904V25.5098H77.7481V25.9161H77.1612V28.072H76.7774Z" fill="#626466"/>
<path d="M79.1591 28.072L78.7076 27.0223H78.3577V28.072H77.9739V25.5098H78.8317C79.0349 25.5098 79.2042 25.5775 79.3397 25.7242C79.4638 25.8597 79.5316 26.0516 79.5316 26.266C79.5316 26.4466 79.4864 26.5934 79.4074 26.7175C79.3284 26.8304 79.2381 26.9094 79.1139 26.9546L79.6106 28.072H79.1591V28.072ZM78.8092 26.6385C78.9107 26.6385 78.9898 26.6047 79.0462 26.5482C79.1026 26.4805 79.1365 26.3902 79.1365 26.2773C79.1365 26.1644 79.1026 26.0741 79.0462 26.0064C78.9898 25.9387 78.9107 25.9161 78.8092 25.9161H78.3577V26.6385H78.8092V26.6385Z" fill="#626466"/>
<path d="M80.2313 28.072V27.0223L79.5767 25.5098H79.9943L80.4232 26.5595L80.8409 25.5098H81.2698L80.6151 27.0223V28.072H80.2313Z" fill="#626466"/>
<path d="M83.279 28.072L83.1323 27.5754H82.3422L82.1954 28.072H81.7891L82.5905 25.5098H82.8952L83.6966 28.072H83.279ZM83.0194 27.1916L82.7372 26.2209L82.4437 27.1916H83.0194Z" fill="#626466"/>
<path d="M83.832 28.072V25.5098H84.6109C84.8479 25.5098 85.0398 25.5888 85.1865 25.7581C85.2881 25.8823 85.3558 26.0403 85.3897 26.2322C85.401 26.3338 85.4123 26.5144 85.4123 26.774C85.4123 27.0336 85.401 27.2255 85.3897 27.327C85.3558 27.5302 85.2881 27.6995 85.1865 27.8237C85.0511 27.9817 84.8592 28.072 84.6109 28.072H83.832ZM84.577 27.677C84.7237 27.677 84.8366 27.6205 84.9156 27.5189C84.9608 27.4625 84.9946 27.3609 85.0059 27.2255C85.0172 27.1352 85.0172 26.9884 85.0172 26.774C85.0172 26.5708 85.0172 26.4241 85.0059 26.345C84.9946 26.2209 84.9608 26.1306 84.9156 26.0741C84.8366 25.9726 84.7237 25.9161 84.577 25.9161H84.2158V27.677H84.577V27.677Z" fill="#626466"/>
<path d="M86.1911 28.072L85.48 25.5098H85.875L86.3378 27.248L86.8006 25.5098H87.207L86.4846 28.072H86.1911Z" fill="#626466"/>
<path d="M88.5842 28.072L88.4374 27.5754H87.6473L87.5006 28.072H87.0942L87.8957 25.5098H88.2004L89.0018 28.072H88.5842ZM88.3359 27.1916L88.0537 26.2209L87.7602 27.1916H88.3359Z" fill="#626466"/>
<path d="M90.4691 28.072L89.5322 26.4015V28.072H89.1484V25.5098H89.4871L90.4239 27.1803V25.5098H90.8077V28.072H90.4691Z" fill="#626466"/>
<path d="M91.9479 28.0945C91.7221 28.0945 91.519 28.0042 91.3609 27.8123C91.2594 27.6995 91.2029 27.5527 91.1691 27.3834C91.1578 27.2818 91.1465 27.0787 91.1465 26.7852C91.1465 26.4917 91.1578 26.2998 91.1691 26.1869C91.1916 26.0176 91.2594 25.8709 91.3609 25.758C91.519 25.5774 91.7109 25.4758 91.9479 25.4758C92.1511 25.4758 92.3317 25.5436 92.4671 25.6903C92.6026 25.8257 92.6929 26.0289 92.738 26.2772V26.3111H92.343V26.2885C92.2865 26.0176 92.1624 25.8822 91.9479 25.8822C91.8237 25.8822 91.7334 25.9273 91.6544 26.0176C91.598 26.0966 91.5528 26.2095 91.5415 26.3788C91.5303 26.4353 91.5303 26.5707 91.5303 26.7852C91.5303 26.9996 91.5303 27.1351 91.5415 27.1915C91.5528 27.3496 91.598 27.4737 91.6544 27.5527C91.7334 27.643 91.8237 27.6882 91.9479 27.6882C92.1624 27.6882 92.2978 27.5527 92.3542 27.2818V27.2593H92.738V27.2931C92.7042 27.5414 92.6139 27.7333 92.4671 27.8801C92.3204 28.0268 92.1511 28.0945 91.9479 28.0945Z" fill="#626466"/>
<path d="M93.0312 28.072V25.5098H94.4422V25.9161H93.415V26.5821H94.2954V26.9884H93.415V27.677H94.4422V28.072H93.0312Z" fill="#626466"/>
<path d="M96.3047 28.072V26.5369L95.8645 27.6205H95.5823L95.1308 26.5369V28.072H94.7471V25.5098H95.1308L95.7291 27.011L96.316 25.5098H96.6885V28.072H96.3047Z" fill="#626466"/>
<path d="M97.1062 28.072V25.5098H98.5171V25.9161H97.49V26.5821H98.3704V26.9884H97.49V27.677H98.5171V28.072H97.1062Z" fill="#626466"/>
<path d="M100.143 28.072L99.2058 26.4015V28.072H98.822V25.5098H99.1719L100.109 27.1803V25.5098H100.493V28.072H100.143Z" fill="#626466"/>
<path d="M101.305 28.072V25.9161H100.718V25.5098H102.276V25.9161H101.689V28.072H101.305Z" fill="#626466"/>
</g>
<defs>
<clipPath id="clip0">
<rect width="102.276" height="32" fill="white"/>
</clipPath>
</defs>
</svg>
