<svg width="157" height="32" viewBox="0 0 157 32" fill="none" xmlns="http://www.w3.org/2000/svg">
<g clip-path="url(#clip0)">
<path fill-rule="evenodd" clip-rule="evenodd" d="M23.7273 11.8903C23.7273 11.1189 23.5145 10.4805 23.0623 9.9751C22.5569 9.3899 21.8387 9.07069 20.9343 9.07069C19.9767 9.07069 19.2585 9.3899 18.7531 10.0017C18.3275 10.5071 18.1413 11.1455 18.1413 11.8637V21.0142C18.1413 21.8388 18.3541 22.5304 18.7531 23.1156C19.2319 23.8604 19.9767 24.2328 20.9609 24.2328C21.9983 24.2328 22.7431 23.8604 23.2219 23.1156C23.5677 22.557 23.7539 21.8388 23.7539 20.9078V11.8903H23.7273ZM26.9193 20.1364C26.8927 22.0516 26.6001 23.5146 25.9883 24.5254C25.0573 26.0416 23.3549 26.813 20.8811 26.813C18.3807 26.813 16.6783 26.0416 15.7739 24.5254C15.1887 23.5412 14.8961 22.0782 14.8961 20.1364V12.9277C14.8695 11.0923 15.1887 9.7091 15.8005 8.72489C16.7315 7.23528 18.4339 6.49048 20.9077 6.49048C23.3549 6.49048 25.0573 7.23528 26.0149 8.72489C26.6267 9.7091 26.9459 11.1189 26.9459 12.9277V20.1364H26.9193Z" fill="#E50013"/>
<path fill-rule="evenodd" clip-rule="evenodd" d="M55.5677 6.78296V26.5203H52.3225V9.97498L49.1571 26.5203H45.9651L42.6932 9.97498V26.5203H39.4746V6.78296H45.2468L46.1246 11.7838L47.5345 21.7057L49.8753 6.78296H55.5677Z" fill="#E50013"/>
<path fill-rule="evenodd" clip-rule="evenodd" d="M0 26.4937V25.2435C1.01081 25.2435 1.51621 24.8711 1.51621 24.1263L1.56941 22.5569V10.7198L1.51621 9.15037C1.51621 8.43217 1.01081 8.05977 0 8.05977V6.80956H6.22444V8.05977C5.63924 8.08637 5.26683 8.16617 5.10723 8.24597C4.94763 8.35237 4.86783 8.64497 4.86783 9.15037L4.81463 10.7198V15.6142L8.96426 10.64L9.89526 9.38977C10.2943 8.85777 10.5071 8.53857 10.5071 8.37897C10.5071 8.13957 10.2677 8.03317 9.81546 8.03317H9.54946V6.78296H13.6725V8.03317H13.4065C12.8745 8.03317 12.3425 8.35237 11.8371 8.99077L10.3741 10.7198L7.07564 14.6832L11.8637 22.6633L12.9543 24.2593C13.3533 24.8977 13.8321 25.2169 14.3375 25.2169V26.4671H8.40565V25.2169C8.77806 25.1903 8.93766 25.0573 8.93766 24.7913C8.93766 24.7115 8.80465 24.4189 8.53865 23.9135L7.84705 22.6101L4.81463 17.2634V22.5569L4.86783 24.1263C4.86783 24.8711 5.29343 25.2435 6.11804 25.2435V26.4937H0V26.4937Z" fill="#E50013"/>
<path fill-rule="evenodd" clip-rule="evenodd" d="M29.739 26.5204V25.2702C30.7498 25.2702 31.2286 24.8978 31.2286 24.153L31.2818 22.5835V1.59601H27.9035C27.2651 1.59601 26.8927 1.72901 26.8129 1.99501C26.7331 2.26101 26.6799 2.79302 26.6799 3.64422V3.96342H25.5361V0H40.3258V3.96342H39.182V3.64422C39.182 2.81962 39.1288 2.26101 39.049 1.99501C38.9692 1.72901 38.5968 1.59601 37.9318 1.59601H34.527V22.6101L34.5802 24.1796C34.5802 24.9244 35.0856 25.2968 36.0964 25.2968V26.547H29.739V26.5204Z" fill="#E50013"/>
<path fill-rule="evenodd" clip-rule="evenodd" d="M58.4939 26.4937V25.2435C59.5047 25.2435 60.0101 24.8711 60.0101 24.1263L60.0633 22.5569V10.7198L60.0101 9.15039C60.0101 8.43218 59.5047 8.05978 58.4939 8.05978V6.80957H64.8513V8.05978C63.8405 8.05978 63.3617 8.43218 63.3617 9.15039L63.3085 10.7198V22.5303L63.3617 24.0997C63.3617 24.8445 63.8671 25.2169 64.8513 25.2169V26.4671H58.4939V26.4937Z" fill="#E50013"/>
<path d="M64.8246 30.1646H0.0266113V32H64.8246V30.1646Z" fill="#B8AA7C"/>
<path fill-rule="evenodd" clip-rule="evenodd" d="M132.017 22.3708C132.017 22.158 132.07 21.9984 132.176 21.8654C132.283 21.7324 132.416 21.6792 132.549 21.6792C132.682 21.6792 132.815 21.7324 132.921 21.8654C133.028 21.9984 133.081 22.158 133.081 22.3708C133.081 22.5836 133.028 22.7432 132.921 22.8762C132.815 23.0092 132.682 23.0624 132.549 23.0624C132.416 23.0624 132.283 23.0092 132.176 22.8762C132.07 22.7432 132.017 22.557 132.017 22.3708ZM132.549 21.1471C132.176 21.1471 131.857 21.2535 131.591 21.4664C131.325 21.6792 131.192 21.9718 131.192 22.3442C131.192 22.7166 131.325 23.0092 131.591 23.222C131.857 23.4614 132.176 23.5678 132.549 23.5678C132.921 23.5678 133.24 23.4614 133.506 23.222C133.772 22.9826 133.905 22.69 133.905 22.3442C133.905 21.9718 133.772 21.6792 133.506 21.4664C133.24 21.2535 132.921 21.1471 132.549 21.1471ZM132.097 24.4988V25.4298C132.097 25.5096 132.097 25.5362 132.123 25.5628C132.15 25.5894 132.176 25.616 132.23 25.616H132.469C132.575 25.616 132.682 25.5628 132.762 25.4564C132.841 25.35 132.868 25.217 132.868 25.0574V24.4988H133.081C133.48 24.4988 133.772 24.4722 133.959 24.3924C134.145 24.3126 134.331 24.2328 134.464 24.0998C134.544 24.0466 134.57 23.9668 134.544 23.9136C134.544 23.8338 134.491 23.8338 134.384 23.8604C134.225 23.9136 134.065 23.9402 133.905 23.9402C133.746 23.9668 133.453 23.9668 133.001 23.9668H131.405C131.245 23.9668 131.139 23.9668 131.086 23.9402C131.006 23.9136 130.926 23.887 130.846 23.8338C130.793 23.7806 130.74 23.8072 130.713 23.8604C130.687 23.9136 130.687 23.9668 130.713 24.0466L130.9 24.3658C130.926 24.419 130.953 24.4456 131.006 24.4722C131.033 24.4988 131.112 24.4988 131.192 24.4988H132.097ZM134.757 25.5894V26.0682C134.757 26.148 134.757 26.1746 134.783 26.2012C134.81 26.2278 134.836 26.2544 134.89 26.2544H135.076C135.182 26.2544 135.289 26.2012 135.368 26.0682C135.448 25.9352 135.475 25.8022 135.475 25.6426V21.3067C135.475 21.2801 135.475 21.2536 135.475 21.227C135.475 21.2004 135.422 21.1737 135.368 21.1471L134.331 20.9875C134.304 20.9875 134.251 21.0141 134.251 21.0673C134.225 21.1205 134.251 21.1738 134.304 21.227C134.358 21.2802 134.464 21.3334 134.57 21.4132C134.677 21.493 134.73 21.5994 134.73 21.759V25.0042H133.852C133.772 25.0042 133.693 24.9776 133.586 24.9244C133.506 24.8712 133.427 24.8712 133.373 24.9244C133.347 24.951 133.347 25.0042 133.347 25.0574C133.347 25.1106 133.373 25.1638 133.4 25.1904L133.586 25.5096C133.613 25.5362 133.613 25.5628 133.639 25.5628C133.666 25.5628 133.666 25.5894 133.693 25.5894H134.757ZM131.724 25.8288L132.815 25.9352C132.895 25.9618 132.921 26.0416 132.921 26.1214C132.921 26.281 132.921 26.3874 132.921 26.9726C132.921 27.1322 132.948 27.2652 133.001 27.345C133.054 27.4248 133.134 27.4514 133.294 27.4514H135.315C135.475 27.4514 135.555 27.5312 135.555 27.6908C135.555 27.8504 135.475 27.9302 135.315 27.9302H132.708C132.602 27.9302 132.469 27.877 132.336 27.7972C132.203 27.6908 132.123 27.5046 132.123 27.212C132.123 27.079 132.123 26.9992 132.123 26.5204C132.123 26.3874 132.07 26.3076 131.964 26.2544C131.857 26.2012 131.777 26.148 131.724 26.1214C131.644 26.0682 131.644 26.0416 131.644 25.9618C131.671 25.8554 131.698 25.8288 131.724 25.8288Z" fill="#005B4A"/>
<path fill-rule="evenodd" clip-rule="evenodd" d="M75.252 22.9825L75.917 22.9293C76.05 22.9293 76.1032 23.0092 76.1032 23.222C76.1032 23.4348 76.05 23.5412 75.917 23.5412H75.252V25.5362C75.252 25.6958 75.2254 25.8288 75.1722 25.9618C75.119 26.0682 75.0126 26.148 74.9062 26.148H74.6402C74.587 26.148 74.5604 26.1214 74.5338 26.0948C74.5338 26.0682 74.5072 26.015 74.5072 25.9618V21.7589C74.5072 21.5993 74.454 21.4929 74.3742 21.4131C74.2944 21.3599 74.2146 21.3067 74.1348 21.2535C74.055 21.2003 74.0284 21.1471 74.0284 21.0673C74.055 20.9875 74.0816 20.9609 74.1614 20.9609L75.119 21.1205C75.1722 21.1205 75.2254 21.1471 75.2254 21.2003C75.2254 21.2269 75.2254 21.2801 75.2254 21.2801V22.9825H75.252ZM71.7408 23.6476C71.7408 23.9402 71.794 24.1796 71.927 24.3658C72.0334 24.552 72.193 24.6318 72.326 24.6318C72.4856 24.6318 72.6186 24.5254 72.725 24.3658C72.858 24.1796 72.9112 23.9402 72.9112 23.6476C72.9112 23.3816 72.858 23.1421 72.725 22.9293C72.592 22.7165 72.459 22.6101 72.326 22.6101C72.1664 22.6101 72.0334 22.7165 71.927 22.9027C71.794 23.1421 71.7408 23.3816 71.7408 23.6476ZM71.5546 25.5894L72.6452 25.6958C72.725 25.7224 72.7516 25.8022 72.7516 25.882C72.7516 26.0416 72.7516 26.3874 72.7516 26.9726C72.7516 27.1322 72.7782 27.2652 72.8314 27.345C72.8846 27.4248 72.9644 27.4514 73.124 27.4514H75.1456C75.3052 27.4514 75.385 27.5312 75.385 27.6908C75.385 27.8504 75.3052 27.9302 75.1456 27.9302H72.5388C72.4324 27.9302 72.2994 27.877 72.1664 27.7972C72.0334 27.6908 71.9536 27.5046 71.9536 27.212C71.9536 27.079 71.9536 26.7598 71.9536 26.281C71.9536 26.148 71.9004 26.0682 71.794 26.015C71.6876 25.9618 71.6078 25.9086 71.5546 25.882C71.4748 25.8288 71.4748 25.8022 71.4748 25.7224C71.5014 25.616 71.528 25.5894 71.5546 25.5894ZM71.3684 22.5569H70.8364C70.8098 22.5569 70.7566 22.5569 70.7566 22.5303C70.73 22.5037 70.7034 22.4771 70.6768 22.4505L70.4906 22.1047C70.4374 21.9983 70.4374 21.9451 70.464 21.8919C70.5172 21.8653 70.5438 21.8653 70.597 21.8919C70.6768 21.9451 70.7832 21.9983 70.8364 21.9983C70.9162 22.0249 70.996 22.0249 71.0758 22.0249H71.927C71.927 21.9983 71.927 21.8653 71.927 21.6791C71.927 21.5461 71.9004 21.4663 71.8738 21.4131C71.8472 21.3599 71.794 21.3333 71.7408 21.2801C71.661 21.2003 71.6078 21.1471 71.6344 21.0673C71.661 21.0141 71.6876 20.9609 71.7674 20.9875L72.592 21.0939C72.6186 21.0939 72.6452 21.1205 72.6718 21.1471C72.6984 21.1737 72.6984 21.2003 72.725 21.2801L72.6984 22.0515H73.7624C73.922 22.0515 74.0018 22.1313 74.0018 22.3175C74.0018 22.4771 73.922 22.5835 73.7624 22.5835H73.257C73.39 22.7165 73.4964 22.8761 73.5762 23.089C73.656 23.2752 73.6826 23.488 73.6826 23.7008C73.6826 24.0998 73.5496 24.4722 73.2836 24.7648C73.0176 25.0574 72.6984 25.217 72.326 25.217C71.9536 25.217 71.6344 25.0574 71.3684 24.7648C71.1024 24.4722 70.9694 24.0998 70.9694 23.7008C70.9694 23.488 70.996 23.2752 71.0758 23.089C71.129 22.8761 71.2354 22.7165 71.3684 22.5569Z" fill="#005B4A"/>
<path fill-rule="evenodd" clip-rule="evenodd" d="M80.8379 23.8336H81.7956C81.9818 23.8336 82.0616 23.9134 82.0616 24.073C82.0616 24.2326 81.9818 24.339 81.7956 24.339H79.6409V25.536H81.1039C81.1571 25.536 81.1837 25.536 81.2103 25.5626C81.2369 25.5892 81.2369 25.6158 81.2369 25.6956V27.3182C81.2369 27.5842 81.2103 27.7704 81.1305 27.93C81.0507 28.063 80.9443 28.1428 80.8113 28.1428H80.5719C80.5187 28.1428 80.4921 28.1162 80.4655 28.0896C80.4389 28.063 80.4389 28.0098 80.4389 27.9566V26.0414H77.5927C77.5395 26.0414 77.5129 26.0414 77.4863 26.0148C77.4597 25.9882 77.4331 25.9616 77.4065 25.935L77.1937 25.5892C77.1671 25.5094 77.1405 25.4562 77.1937 25.4296C77.2203 25.403 77.2735 25.403 77.3267 25.4296C77.4065 25.4828 77.4863 25.5094 77.5395 25.536C77.5927 25.536 77.6725 25.5626 77.7257 25.5626H78.8429V24.339H76.9011C76.8479 24.339 76.7947 24.339 76.7681 24.3124C76.7415 24.2858 76.7149 24.2858 76.7149 24.2592L76.5021 23.9134C76.4755 23.8336 76.4755 23.7538 76.5021 23.7006C76.5287 23.6474 76.5819 23.6474 76.6351 23.7006C76.7415 23.7538 76.8213 23.807 76.8745 23.807C76.9277 23.8336 77.0075 23.8336 77.1139 23.8336H80.3857C80.4389 23.5676 80.4655 23.2483 80.4921 22.8759C80.5187 22.5035 80.5187 22.1843 80.5187 21.8917H77.8587C77.8055 21.8917 77.7789 21.8917 77.7523 21.8651C77.6991 21.8651 77.6725 21.8119 77.6193 21.7587L77.4065 21.4661C77.3799 21.4129 77.3799 21.3863 77.3799 21.3331C77.4065 21.2799 77.4331 21.2799 77.5129 21.3065C77.5927 21.3597 77.6725 21.3863 77.7523 21.3863C77.8055 21.3863 77.9119 21.4129 78.0183 21.4129C80.1197 21.4129 81.1838 21.4129 81.1838 21.4129C81.2636 21.4129 81.3167 21.4661 81.3699 21.5193C81.3965 21.5991 81.4232 21.6789 81.3966 21.7853C81.3966 22.0247 81.3433 22.3705 81.2369 22.7695C81.1571 23.1951 81.0241 23.541 80.8379 23.8336Z" fill="#005B4A"/>
<path fill-rule="evenodd" clip-rule="evenodd" d="M86.7432 22.7698V21.7589C86.7432 21.5993 86.69 21.4929 86.5836 21.4131C86.4772 21.3333 86.3974 21.2801 86.3176 21.2269C86.2644 21.1737 86.2378 21.1205 86.2644 21.0673C86.291 21.0141 86.3176 20.9609 86.3442 20.9875L87.3816 21.1471C87.4348 21.1471 87.488 21.1737 87.488 21.2269C87.488 21.2801 87.488 21.3067 87.488 21.3067V24.552C87.488 24.7116 87.4614 24.8446 87.4082 24.9776C87.355 25.084 87.2486 25.1638 87.1422 25.1638H86.8762C86.823 25.1638 86.7964 25.1372 86.7698 25.1106C86.7432 25.084 86.7432 25.0308 86.7432 24.9776V23.3284H85.7058C85.6792 23.3284 85.6526 23.3284 85.6526 23.3284C85.626 23.3284 85.626 23.3018 85.5728 23.2486L85.3866 22.956C85.36 22.9028 85.36 22.8762 85.3334 22.823C85.3334 22.7698 85.3334 22.7432 85.36 22.7166C85.4132 22.6634 85.4664 22.6634 85.5462 22.7166C85.626 22.7698 85.7324 22.7964 85.8388 22.7964H86.7432V22.7698ZM84.9078 27.3184C84.9078 27.3982 84.9344 27.478 84.961 27.5046C85.0142 27.5578 85.0408 27.5578 85.1206 27.5578H86.4506C86.5038 27.5578 86.557 27.5312 86.6102 27.478C86.6634 27.4248 86.6634 27.3716 86.6634 27.2918V25.9086H84.9078V27.3184ZM87.4614 27.4514C87.4614 27.6376 87.4082 27.7706 87.355 27.8504C87.2752 27.9302 87.1954 27.9834 87.0624 27.9834H84.5354C84.429 27.9834 84.3492 27.9302 84.2694 27.8504C84.1896 27.7706 84.1364 27.6376 84.1364 27.4514V26.281C84.1364 26.1746 84.1098 26.0682 84.0832 26.015C84.0566 25.9618 84.0034 25.9086 83.9768 25.8554C83.9236 25.8022 83.8704 25.7756 83.8172 25.749C83.764 25.7224 83.7374 25.6958 83.7374 25.6426C83.7374 25.616 83.7374 25.5894 83.764 25.5628C83.764 25.5362 83.7906 25.5096 83.8438 25.5096H87.355C87.4082 25.5096 87.4348 25.5096 87.4348 25.5362C87.4614 25.5628 87.4614 25.5894 87.4614 25.6692V27.4514V27.4514ZM84.3226 23.5412C84.1098 23.887 83.897 24.1796 83.631 24.4722C83.365 24.7648 83.1256 24.9776 82.8596 25.1106C82.7266 25.1904 82.6468 25.1638 82.6202 25.1106C82.5936 25.0308 82.5936 24.951 82.6734 24.8712C83.1256 24.3658 83.4714 23.8338 83.7108 23.3018C83.9502 22.7698 84.0566 22.3708 84.0832 22.1048C84.1098 21.9717 84.0566 21.8654 83.9236 21.7589C83.8172 21.6791 83.7374 21.6259 83.6842 21.5993C83.631 21.5727 83.6044 21.5195 83.631 21.4397C83.631 21.3599 83.6842 21.3067 83.764 21.3333L84.9078 21.4929C84.961 21.4929 85.0142 21.5195 85.0142 21.5727C85.0408 21.6259 85.0408 21.6791 85.0408 21.7323C85.0142 21.9185 84.9876 22.1314 84.9078 22.3708C84.828 22.6102 84.7482 22.823 84.6152 23.0624C84.7216 23.1688 84.8014 23.222 84.8812 23.2752C84.961 23.3284 85.0408 23.3816 85.1472 23.4348C85.2536 23.488 85.3334 23.5412 85.3866 23.5412C85.4398 23.5412 85.5196 23.5944 85.5728 23.6476C85.7058 23.7806 85.8122 23.9668 85.892 24.1796C85.9718 24.3924 85.9984 24.5254 85.9452 24.6318C85.9186 24.7116 85.8654 24.7382 85.7856 24.7648C85.7324 24.7648 85.626 24.7382 85.493 24.685C85.3334 24.6052 85.1472 24.4722 84.961 24.2594C84.7216 24.0998 84.5354 23.8604 84.3226 23.5412Z" fill="#005B4A"/>
<path fill-rule="evenodd" clip-rule="evenodd" d="M91.3714 21.626C91.0787 21.626 90.8394 21.7324 90.6266 21.9186C90.4137 22.1314 90.3339 22.3708 90.3339 22.6634C90.3339 22.956 90.4403 23.1954 90.6266 23.4082C90.8394 23.621 91.0787 23.7274 91.3714 23.7274C91.664 23.7274 91.93 23.621 92.1162 23.4082C92.329 23.1954 92.4088 22.956 92.4088 22.6634C92.4088 22.3708 92.3024 22.1314 92.1162 21.9186C91.9034 21.7324 91.664 21.626 91.3714 21.626ZM91.3714 21.1206C91.9034 21.1206 92.3556 21.2536 92.728 21.5462C93.1004 21.8388 93.2866 22.2112 93.2866 22.6634C93.2866 23.1156 93.1004 23.488 92.728 23.7806C92.3556 24.0732 91.9034 24.2328 91.3714 24.2328C90.8393 24.2328 90.3871 24.0732 90.0147 23.7806C89.6423 23.488 89.4561 23.1156 89.4561 22.6634C89.4561 22.2112 89.6423 21.8122 90.0147 21.5462C90.3871 21.2536 90.8393 21.1206 91.3714 21.1206ZM90.8393 25.3234V27.5046C90.8393 27.6642 90.7861 27.8238 90.7063 27.9302C90.6265 28.0632 90.5201 28.1164 90.4137 28.1164H90.2807C90.2275 28.1164 90.2009 28.0898 90.1743 28.0632C90.1477 28.0366 90.1477 27.9834 90.1477 27.9302V25.2968H89.0571C88.9773 25.2968 88.9507 25.2968 88.8975 25.2702C88.8709 25.2436 88.8443 25.217 88.8177 25.1638L88.6581 24.8978C88.6315 24.818 88.6315 24.7382 88.6581 24.685C88.6847 24.6318 88.7379 24.6318 88.7911 24.685C88.8975 24.7382 88.9773 24.7914 89.0305 24.7914C89.0837 24.818 89.2167 24.818 89.3763 24.818H93.792C93.9782 24.818 94.058 24.8978 94.058 25.0574C94.058 25.217 93.9782 25.2968 93.792 25.2968H92.6216V27.478C92.6216 27.6376 92.5684 27.7972 92.4886 27.9036C92.4088 28.0366 92.3024 28.0898 92.196 28.0898H92.063C92.0098 28.0898 91.9832 28.0632 91.9566 28.0366C91.93 28.01 91.93 27.9568 91.93 27.9036V25.2702H90.8393V25.3234Z" fill="#005B4A"/>
<path fill-rule="evenodd" clip-rule="evenodd" d="M98.0216 20.9875L99.0058 21.1471C99.059 21.1471 99.1122 21.1737 99.1122 21.2269C99.1122 21.2535 99.1122 21.3067 99.1122 21.3067V27.5578C99.1122 27.7174 99.0856 27.8504 99.0324 27.9834C98.9792 28.0898 98.8728 28.1696 98.7664 28.1696H98.5004C98.4472 28.1696 98.4206 28.143 98.394 28.1164C98.3674 28.0898 98.3674 28.0366 98.3674 27.9834V21.7589C98.3674 21.5993 98.3142 21.4929 98.2344 21.4131C98.1546 21.3599 98.0748 21.3067 97.995 21.2535C97.9152 21.2003 97.8886 21.1471 97.8886 21.0673C97.8886 21.0141 97.9418 20.9609 98.0216 20.9875ZM95.0956 22.3708C95.0424 22.3708 95.0158 22.3708 94.9892 22.3442C94.9626 22.3176 94.936 22.291 94.9094 22.2644L94.7232 21.9717C94.6966 21.9185 94.6966 21.8919 94.7232 21.8387C94.7498 21.7855 94.7764 21.7855 94.8296 21.8121C94.936 21.8387 94.9892 21.8654 95.0424 21.892C95.0956 21.892 95.1488 21.9186 95.2286 21.9186H97.33C97.4364 21.9186 97.5162 21.9718 97.5428 22.0516C97.5694 22.1314 97.5694 22.2378 97.5428 22.3176C97.5162 22.6368 97.3832 23.0624 97.1438 23.5678C96.9044 24.0732 96.6916 24.4988 96.4788 24.7914C96.2926 25.084 96.0266 25.4032 95.6808 25.749C95.335 26.0948 95.0424 26.3608 94.7764 26.4938C94.6966 26.547 94.6168 26.5204 94.5636 26.4672C94.5104 26.414 94.537 26.3342 94.6168 26.2278C94.9094 25.9884 95.1754 25.6692 95.4148 25.2702C95.6542 24.8712 95.867 24.552 96 24.286C96.133 24.0466 96.266 23.754 96.4256 23.355C96.5852 22.9826 96.665 22.6368 96.6916 22.3974H95.0956V22.3708Z" fill="#005B4A"/>
<path fill-rule="evenodd" clip-rule="evenodd" d="M104.14 20.9875L104.938 21.1471C104.991 21.1471 105.044 21.1738 105.044 21.227C105.044 21.2802 105.044 21.3068 105.044 21.3068V27.5844C105.044 27.744 105.017 27.877 104.964 27.9834C104.911 28.0898 104.831 28.143 104.698 28.143H104.485C104.432 28.143 104.406 28.1164 104.379 28.0898C104.379 28.0632 104.352 28.01 104.352 27.9568V21.759C104.352 21.5994 104.326 21.493 104.273 21.4398C104.219 21.3866 104.166 21.3334 104.086 21.2536C104.007 21.2004 103.98 21.1471 104.007 21.0673C104.06 21.0141 104.086 20.9875 104.14 20.9875ZM102.464 23.3284C102.278 23.887 102.012 24.4722 101.666 25.0574C101.32 25.6426 100.921 26.0682 100.495 26.3608C100.442 26.3874 100.389 26.3874 100.336 26.3342C100.283 26.281 100.283 26.2012 100.336 26.1214C100.735 25.6426 101.081 25.0042 101.373 24.2328C101.666 23.4614 101.825 22.8496 101.852 22.3708H101.001C100.948 22.3708 100.921 22.3708 100.894 22.3708C100.868 22.3708 100.841 22.3442 100.815 22.291L100.575 21.9452C100.549 21.892 100.522 21.8388 100.549 21.7856C100.575 21.7324 100.602 21.7324 100.682 21.759C100.761 21.8122 100.841 21.8388 100.894 21.8654C100.948 21.892 101.027 21.892 101.134 21.892H102.544C102.65 21.892 102.73 21.9452 102.756 22.025C102.783 22.1048 102.783 22.2112 102.756 22.291C102.73 22.3974 102.73 22.5038 102.703 22.6102C102.677 22.7166 102.65 22.8496 102.623 22.9826C102.65 23.0092 102.703 23.0092 102.73 23.0358C102.783 23.0358 102.81 23.0624 102.863 23.0624H103.235V21.8654C103.235 21.7058 103.209 21.5994 103.155 21.5462C103.102 21.493 103.049 21.4132 102.969 21.36C102.889 21.3068 102.863 21.2535 102.889 21.1737C102.916 21.1205 102.943 21.0673 102.996 21.0939L103.82 21.2536C103.874 21.2536 103.927 21.2801 103.927 21.3333C103.927 21.3866 103.927 21.3866 103.927 21.4132V27.5312C103.927 27.6908 103.9 27.8238 103.847 27.9302C103.794 28.0366 103.714 28.0898 103.581 28.0898H103.368C103.315 28.0898 103.288 28.0632 103.262 28.0366C103.235 28.01 103.235 27.9568 103.235 27.9036V25.1372H102.703C102.677 25.1372 102.65 25.1372 102.623 25.1372C102.597 25.1372 102.597 25.1106 102.544 25.084L102.331 24.8446C102.304 24.7914 102.304 24.7648 102.278 24.7116C102.278 24.6584 102.278 24.6318 102.304 24.6052C102.357 24.552 102.411 24.552 102.49 24.6052C102.57 24.6584 102.677 24.685 102.783 24.685H103.155V23.5412H102.623C102.597 23.5412 102.57 23.5412 102.544 23.5412C102.517 23.5412 102.517 23.5146 102.464 23.4614V23.3284Z" fill="#005B4A"/>
<path fill-rule="evenodd" clip-rule="evenodd" d="M121.908 23.5944C122.041 23.5944 122.201 23.5944 122.387 23.5944C122.573 23.5944 122.733 23.5944 122.893 23.5944V22.6368H121.908C121.935 22.7166 121.935 22.7964 121.962 22.8762C121.962 22.956 121.988 23.0358 121.988 23.1156C121.988 23.1954 121.988 23.2752 121.962 23.355C121.935 23.4348 121.908 23.5146 121.908 23.5944ZM119.807 23.1156C119.807 23.4348 119.86 23.7274 119.993 23.9668C120.126 24.2062 120.286 24.3126 120.472 24.3126C120.685 24.3126 120.844 24.2062 120.977 23.9668C121.11 23.7274 121.164 23.4614 121.164 23.1156C121.164 22.7698 121.11 22.5038 120.977 22.2644C120.844 22.0249 120.685 21.9185 120.472 21.9185C120.286 21.9185 120.126 22.0249 119.993 22.2644C119.86 22.5038 119.807 22.7698 119.807 23.1156ZM119.701 25.4564L120.765 25.5362C120.844 25.5628 120.871 25.6426 120.871 25.7224C120.871 25.882 120.871 26.3076 120.871 26.9992C120.871 27.1588 120.898 27.2918 120.951 27.3716C120.977 27.4514 121.084 27.478 121.243 27.478H123.531C123.691 27.478 123.77 27.5578 123.77 27.6908C123.77 27.8238 123.691 27.9036 123.531 27.9036H120.685C120.578 27.9036 120.445 27.8504 120.312 27.7706C120.179 27.6908 120.1 27.478 120.1 27.1854C120.1 27.0524 120.1 26.7066 120.1 26.1214C120.1 25.9884 120.046 25.9086 119.94 25.8554C119.834 25.8022 119.754 25.749 119.701 25.7224C119.621 25.6692 119.621 25.6426 119.621 25.5628C119.621 25.483 119.647 25.4564 119.701 25.4564ZM121.722 22.1313H122.893V21.7589C122.893 21.5993 122.839 21.4929 122.733 21.4131C122.627 21.3333 122.547 21.2801 122.467 21.2269C122.414 21.1737 122.387 21.1205 122.414 21.0673C122.44 21.0141 122.467 20.9609 122.494 20.9875L123.504 21.1471C123.558 21.1471 123.611 21.1737 123.611 21.2269C123.611 21.2801 123.611 21.3067 123.611 21.3067V25.5628C123.611 25.7224 123.584 25.8554 123.531 25.9884C123.478 26.0948 123.371 26.1746 123.265 26.1746H122.999C122.946 26.1746 122.919 26.1746 122.893 26.1214C122.866 26.0948 122.866 26.0416 122.866 25.9884V24.0998C122.733 24.0998 122.547 24.0998 122.334 24.0998C122.095 24.0998 121.908 24.0998 121.722 24.0998C121.589 24.3392 121.43 24.552 121.19 24.7116C120.977 24.8712 120.711 24.951 120.445 24.951C120.02 24.951 119.674 24.7648 119.408 24.419C119.115 24.0732 118.982 23.6476 118.982 23.1688C118.982 22.69 119.115 22.2644 119.408 21.9185C119.701 21.5727 120.046 21.4131 120.445 21.4131C120.711 21.4131 120.951 21.4929 121.164 21.6259C121.403 21.7057 121.589 21.8919 121.722 22.1313Z" fill="#005B4A"/>
<path fill-rule="evenodd" clip-rule="evenodd" d="M127.761 24.7648V27.5046C127.761 27.6642 127.707 27.7972 127.628 27.9302C127.548 28.0632 127.441 28.1164 127.308 28.1164H127.149C127.096 28.1164 127.069 28.0898 127.042 28.0632C127.016 28.0366 127.016 27.9834 127.016 27.9302V24.7382H125.127C125.074 24.7382 125.021 24.7382 124.994 24.7116C124.968 24.7116 124.941 24.685 124.941 24.6584L124.728 24.3126C124.702 24.2328 124.675 24.153 124.728 24.0998C124.755 24.0466 124.808 24.0466 124.861 24.0998C124.968 24.153 125.047 24.2062 125.101 24.2062C125.154 24.2062 125.234 24.2328 125.34 24.2328H128.479C128.505 24.02 128.532 23.6742 128.559 23.222C128.585 22.7698 128.612 22.3442 128.612 21.9452H125.845C125.739 21.9452 125.686 21.9186 125.659 21.9186C125.633 21.892 125.606 21.8654 125.579 21.8122L125.393 21.5462C125.367 21.4664 125.367 21.3866 125.393 21.36C125.42 21.3068 125.473 21.3068 125.526 21.36C125.633 21.4132 125.712 21.4664 125.766 21.4664C125.819 21.4664 125.925 21.4664 126.111 21.4664C128.213 21.4664 129.25 21.4664 129.25 21.4664C129.33 21.4664 129.383 21.5196 129.41 21.5994C129.436 21.6792 129.463 21.759 129.463 21.8388C129.41 22.3974 129.357 22.8762 129.25 23.2752C129.144 23.6742 129.037 23.9934 128.931 24.2328C128.931 24.2328 129.224 24.2328 129.835 24.2328C130.022 24.2328 130.101 24.3126 130.101 24.4722C130.101 24.6318 130.022 24.7116 129.835 24.7116H127.761V24.7648Z" fill="#005B4A"/>
<path fill-rule="evenodd" clip-rule="evenodd" d="M108.103 22.4506C108.103 22.158 108.209 21.9186 108.396 21.759C108.582 21.5728 108.821 21.493 109.114 21.493C109.38 21.493 109.593 21.5728 109.805 21.759C110.018 21.9452 110.125 22.158 110.125 22.4506C110.125 22.7432 110.018 22.9826 109.805 23.1422C109.593 23.3284 109.353 23.4082 109.114 23.4082C108.848 23.4082 108.608 23.3284 108.396 23.1422C108.209 22.9826 108.103 22.7432 108.103 22.4506ZM109.114 20.9875C108.688 20.9875 108.289 21.1206 107.917 21.36C107.544 21.5994 107.358 21.9718 107.358 22.4506C107.358 22.9294 107.544 23.2752 107.917 23.5412C108.289 23.7806 108.688 23.9136 109.114 23.9136C109.539 23.9136 109.938 23.7806 110.311 23.5412C110.683 23.3018 110.869 22.9294 110.869 22.4506C110.869 21.9718 110.683 21.626 110.311 21.36C109.938 21.0939 109.539 20.9875 109.114 20.9875ZM108.156 26.6534C108.156 26.3608 108.263 26.0948 108.449 25.9086C108.635 25.7224 108.848 25.616 109.114 25.616C109.353 25.616 109.566 25.7224 109.779 25.9086C109.965 26.0948 110.071 26.3342 110.071 26.6534C110.071 26.946 109.965 27.212 109.779 27.3982C109.593 27.5844 109.353 27.6642 109.114 27.6642C108.874 27.6642 108.635 27.5844 108.449 27.3982C108.263 27.212 108.156 26.9726 108.156 26.6534ZM107.81 25.6426C107.677 25.7756 107.571 25.9086 107.491 26.0682C107.411 26.2278 107.358 26.414 107.358 26.6268C107.358 27.1056 107.544 27.478 107.917 27.7174C108.289 27.9568 108.688 28.0898 109.114 28.0898C109.539 28.0898 109.938 27.9568 110.311 27.7174C110.683 27.478 110.869 27.1056 110.869 26.6268C110.869 26.3874 110.816 26.2012 110.736 26.015C110.63 25.8288 110.524 25.6958 110.364 25.5628C110.417 25.5096 110.47 25.4298 110.497 25.35C110.524 25.2702 110.55 25.1638 110.55 25.0574V24.7382H111.614C111.8 24.7382 111.88 24.6584 111.88 24.4722C111.88 24.3126 111.8 24.2062 111.614 24.2062H107.199C107.039 24.2062 106.906 24.2062 106.853 24.1796C106.8 24.1796 106.72 24.1264 106.613 24.0732C106.56 24.02 106.507 24.0466 106.48 24.0732C106.454 24.1264 106.454 24.1796 106.48 24.286L106.693 24.6052C106.72 24.6584 106.746 24.685 106.773 24.7116C106.8 24.7382 106.853 24.7382 106.959 24.7382H107.864V25.5362C107.864 25.5628 107.864 25.5894 107.864 25.5894C107.81 25.616 107.81 25.6426 107.81 25.6426ZM109.699 25.2702C109.593 25.2436 109.513 25.217 109.406 25.217C109.3 25.1904 109.22 25.1904 109.114 25.1904C109.034 25.1904 108.928 25.1904 108.848 25.217C108.768 25.217 108.662 25.2436 108.582 25.2702C108.582 25.217 108.608 25.1904 108.608 25.1638C108.608 25.1372 108.608 25.084 108.608 25.0574V24.7914H109.699V25.2702Z" fill="#005B4A"/>
<path fill-rule="evenodd" clip-rule="evenodd" d="M113.157 22.4507H112.625C112.599 22.4507 112.545 22.4507 112.545 22.4241C112.519 22.3975 112.492 22.3709 112.466 22.3443L112.279 21.9985C112.226 21.8921 112.226 21.8389 112.253 21.7857C112.306 21.7591 112.333 21.7591 112.386 21.7857C112.466 21.8389 112.572 21.8921 112.625 21.8921C112.705 21.9187 112.785 21.9187 112.865 21.9187H113.716C113.716 21.8921 113.716 21.7591 113.716 21.5729C113.716 21.4399 113.689 21.3601 113.663 21.3069C113.636 21.2537 113.583 21.2271 113.53 21.1739C113.45 21.0941 113.397 21.0409 113.423 20.9611C113.45 20.8813 113.476 20.8547 113.556 20.8813L114.381 20.9877C114.407 20.9877 114.434 21.0143 114.461 21.0409C114.487 21.0675 114.487 21.0941 114.514 21.1739L114.487 21.9453H115.551C115.711 21.9453 115.791 22.0251 115.791 22.2113C115.791 22.3709 115.711 22.4773 115.551 22.4773H115.046C115.179 22.6103 115.285 22.7699 115.365 22.9827C115.445 23.1689 115.471 23.3817 115.471 23.5945C115.471 23.9935 115.338 24.3659 115.072 24.6585C114.806 24.9511 114.487 25.1107 114.115 25.1107C113.742 25.1107 113.423 24.9511 113.157 24.6585C112.891 24.3659 112.758 23.9935 112.758 23.5945C112.758 23.3817 112.785 23.1689 112.865 22.9827C112.918 22.7433 113.024 22.5837 113.157 22.4507ZM113.53 23.5413C113.53 23.8339 113.583 24.0733 113.716 24.2595C113.822 24.4457 113.982 24.5255 114.115 24.5255C114.274 24.5255 114.407 24.4191 114.514 24.2595C114.647 24.0733 114.7 23.8339 114.7 23.5413C114.7 23.2753 114.647 23.0359 114.514 22.8231C114.381 22.6103 114.248 22.5039 114.115 22.5039C113.955 22.5039 113.822 22.6103 113.716 22.7965C113.609 23.0093 113.53 23.2487 113.53 23.5413ZM117.121 22.6635L117.786 22.6103C117.919 22.6103 117.972 22.6901 117.972 22.9029C117.972 23.1157 117.919 23.2221 117.786 23.2221H117.121V24.4457C117.121 24.6053 117.094 24.7383 117.041 24.8713C116.988 24.9777 116.881 25.0575 116.775 25.0575H116.509C116.456 25.0575 116.429 25.0309 116.402 25.0043C116.402 24.9777 116.376 24.9245 116.376 24.8713V21.7591C116.376 21.5995 116.323 21.4931 116.243 21.4133C116.163 21.3601 116.083 21.3069 116.003 21.2537C115.924 21.2005 115.897 21.1473 115.897 21.0675C115.924 20.9877 115.95 20.9611 116.03 20.9611L116.988 21.1207C117.041 21.1207 117.094 21.1473 117.094 21.2005C117.094 21.2271 117.094 21.2803 117.094 21.2803V22.6635H117.121ZM116.269 26.7334V27.159C116.269 27.2654 116.243 27.3452 116.216 27.3984C116.19 27.4516 116.11 27.4782 116.03 27.4516H114.673C114.567 27.4516 114.514 27.425 114.487 27.3718C114.461 27.3186 114.434 27.2388 114.434 27.1324V26.7334H116.269ZM114.461 26.1747V25.6693C114.461 25.6693 114.461 25.6427 114.461 25.5895C114.461 25.5363 114.407 25.5097 114.354 25.5097C114.328 25.5097 114.221 25.4831 113.982 25.4565C113.742 25.4299 113.583 25.3767 113.476 25.3767C113.45 25.3767 113.423 25.4033 113.397 25.4831C113.37 25.5629 113.397 25.6161 113.476 25.6693C113.53 25.7225 113.583 25.7491 113.636 25.8289C113.689 25.8821 113.716 25.9885 113.716 26.1481V27.4516C113.716 27.691 113.769 27.824 113.849 27.8772C113.955 27.9304 114.062 27.957 114.168 27.957H116.615C116.722 27.957 116.828 27.9304 116.934 27.8772C117.041 27.824 117.094 27.691 117.094 27.4516V25.5895C117.094 25.5629 117.094 25.5363 117.094 25.5097C117.094 25.4831 117.041 25.4565 116.988 25.4299C116.961 25.4299 116.855 25.4033 116.642 25.3767C116.429 25.3501 116.243 25.2969 116.11 25.2969C116.057 25.2969 116.03 25.3235 116.03 25.4033C116.03 25.4831 116.057 25.5363 116.11 25.5895C116.163 25.6427 116.216 25.6959 116.269 25.7491C116.323 25.8023 116.349 25.9353 116.349 26.0949V26.2545H114.461V26.1747Z" fill="#005B4A"/>
<path fill-rule="evenodd" clip-rule="evenodd" d="M105.656 16.0397C105.656 15.7737 105.603 15.4545 105.443 15.2683C105.31 15.1087 105.097 15.0821 104.884 15.0821C104.512 15.0821 104.246 15.2683 104.086 15.6141C104.033 15.7471 104.007 15.9067 103.98 16.0663H105.656V16.0397ZM95.9999 16.0397C95.9999 15.7737 95.9467 15.4545 95.7871 15.2683C95.6541 15.1087 95.4413 15.0821 95.2285 15.0821C94.8561 15.0821 94.5901 15.2683 94.4305 15.6141C94.3773 15.7471 94.3507 15.9067 94.3241 16.0663H95.9999V16.0397ZM91.1055 18.1412C90.9459 18.2742 90.8395 18.4338 90.8395 18.62C90.8395 18.9392 91.0789 19.0988 91.3715 19.152C91.4779 19.1786 91.6109 19.1786 91.7173 19.1786C92.0365 19.1786 92.4089 19.1254 92.6217 18.8594C92.6749 18.7796 92.7015 18.6732 92.7015 18.5668C92.7015 18.3806 92.6483 18.2742 92.4621 18.1944C92.3291 18.1412 92.0631 18.1412 91.9301 18.1412H91.1055V18.1412ZM92.4089 15.8269C92.4089 15.6141 92.3557 15.3481 92.1961 15.2151C92.0631 15.1087 91.8769 15.0821 91.7173 15.0821C91.2119 15.0821 91.0257 15.3481 91.0257 15.8269C91.0257 16.0397 91.0523 16.2791 91.2385 16.4387C91.3715 16.5451 91.5577 16.5717 91.7173 16.5717C92.1695 16.5451 92.4089 16.3057 92.4089 15.8269ZM87.0091 16.0397C87.0091 15.7737 86.9559 15.4545 86.7963 15.2683C86.6633 15.1087 86.4505 15.0821 86.2377 15.0821C85.8653 15.0821 85.5993 15.2683 85.4397 15.6141C85.3865 15.7471 85.3598 15.9067 85.3332 16.0663H87.0091V16.0397ZM76.9276 16.4121C76.9276 16.0663 76.8744 15.5875 76.635 15.3215C76.4754 15.1619 76.2626 15.0821 76.0232 15.0821C75.5976 15.0821 75.3316 15.3215 75.2252 15.7205C75.1454 15.9333 75.1454 16.1993 75.1454 16.4121C75.1454 16.7579 75.1986 17.2368 75.438 17.5028C75.5976 17.6624 75.8104 17.7422 76.0232 17.7422C76.4488 17.7422 76.7148 17.5028 76.8212 17.1038C76.901 16.891 76.9276 16.6249 76.9276 16.4121ZM103.98 16.5451C103.98 16.9176 104.06 17.3166 104.406 17.5294C104.645 17.6624 105.017 17.689 105.283 17.689H106.268V18.1146H106.241C105.842 18.221 105.416 18.2476 105.017 18.2476C104.645 18.2476 104.246 18.1678 103.927 17.955C103.448 17.6092 103.315 17.024 103.315 16.4653C103.315 15.8801 103.448 15.2151 103.927 14.8161C104.219 14.5767 104.565 14.4969 104.938 14.4969C105.523 14.4969 106.002 14.7363 106.214 15.2949C106.321 15.5609 106.347 15.9067 106.347 16.1993V16.4919H103.98V16.5451ZM103.076 18.1678C102.783 18.2476 102.411 18.2742 102.118 18.2742C101.48 18.2742 100.974 18.0348 100.682 17.4496C100.549 17.157 100.495 16.7845 100.495 16.4653C100.495 16.0131 100.575 15.5343 100.868 15.1885C101.16 14.8161 101.586 14.6299 102.065 14.6033C102.171 14.6033 102.278 14.5767 102.384 14.5767C102.57 14.5767 102.783 14.5767 102.969 14.6033H102.996V15.1353H102.57C102.278 15.1353 101.932 15.1885 101.692 15.3481C101.347 15.5875 101.24 16.0131 101.24 16.4121C101.24 16.7845 101.32 17.2634 101.639 17.5028C101.852 17.6624 102.145 17.689 102.411 17.689H103.049L103.076 18.1678ZM97.9151 15.2151V18.1944H97.1969V14.6299H97.8353L97.8619 14.8161C98.2077 14.6565 98.5535 14.5767 98.9525 14.5767C99.1919 14.5767 99.5111 14.6033 99.7239 14.7363C100.043 14.9491 100.123 15.3747 100.123 15.7471V18.221H99.3781V15.7737C99.3781 15.5875 99.3515 15.3481 99.1919 15.2417C99.0589 15.1619 98.8195 15.1353 98.6865 15.1353C98.3939 15.1087 98.1545 15.1619 97.9151 15.2151ZM94.3241 16.5451C94.3241 16.9176 94.4039 17.3166 94.7497 17.5294C94.9891 17.6624 95.3615 17.689 95.6275 17.689H96.6117V18.1146H96.5851C96.1861 18.221 95.7605 18.2476 95.3615 18.2476C94.9891 18.2476 94.5901 18.1678 94.2709 17.955C93.7921 17.6092 93.6591 17.024 93.6591 16.4653C93.6591 15.8801 93.7921 15.2151 94.2709 14.8161C94.5635 14.5767 94.9093 14.4969 95.2817 14.4969C95.8669 14.4969 96.3457 14.7363 96.5585 15.2949C96.6649 15.5609 96.6915 15.9067 96.6915 16.1993V16.4919H94.3241V16.5451ZM92.9143 15.1353C93.0739 15.3215 93.1005 15.5875 93.1005 15.8269C93.1005 16.3057 92.9409 16.6781 92.4887 16.891C92.2227 17.024 91.8769 17.0506 91.5843 17.0506H91.2651V17.5826H92.0631C92.3291 17.5826 92.7015 17.6092 92.9675 17.7156C93.2867 17.8752 93.4197 18.1412 93.4197 18.487C93.4197 18.9392 93.2335 19.2584 92.8345 19.4446C92.4887 19.6308 92.0365 19.6574 91.6375 19.6574C91.3183 19.6574 90.9193 19.6308 90.6001 19.4712C90.2543 19.285 90.1213 18.9924 90.1213 18.62C90.1213 18.1678 90.3873 17.9018 90.7597 17.7156C90.6267 17.6092 90.5735 17.4496 90.5735 17.29C90.5735 17.0772 90.6799 16.9442 90.8395 16.8644C90.5735 16.7047 90.4139 16.4919 90.3075 16.1993C90.2809 16.0663 90.2543 15.9333 90.2543 15.8003C90.2543 15.3481 90.4139 14.9491 90.8129 14.7363C91.0789 14.6033 91.3715 14.5501 91.6641 14.5501C91.9567 14.5501 92.2227 14.6033 92.4887 14.7363C92.7547 14.6565 93.0473 14.6033 93.3133 14.5501C93.3931 14.5235 93.4729 14.5235 93.5527 14.5235H93.5793V15.1353H92.9143V15.1353ZM88.9243 15.4013V18.1944H88.2061V14.6299H88.8445L88.8711 14.9225C89.1637 14.6565 89.4829 14.5501 89.8819 14.5501C89.9883 14.5501 90.1213 14.5501 90.2277 14.5501H90.2543V15.1353H89.8287C89.4829 15.1353 89.1637 15.2151 88.9243 15.4013ZM85.3332 16.5451C85.3332 16.9176 85.413 17.3166 85.7589 17.5294C85.9983 17.6624 86.3707 17.689 86.6367 17.689H87.6209V18.1146H87.5943C87.1953 18.221 86.7697 18.2476 86.3707 18.2476C85.9983 18.2476 85.5993 18.1678 85.2801 17.955C84.8012 17.6092 84.6682 17.024 84.6682 16.4653C84.6682 15.8801 84.8012 15.2151 85.2801 14.8161C85.5727 14.5767 85.9185 14.4969 86.2909 14.4969C86.8761 14.4969 87.3549 14.7363 87.5677 15.2949C87.6741 15.5609 87.7007 15.9067 87.7007 16.1993V16.4919H85.3332V16.5451ZM82.9126 17.6624L83.8436 14.6299H84.5884L83.418 18.221H82.4338L81.2368 14.6299H81.9816L82.9126 17.6624ZM78.8694 15.2151V18.1944H78.1512V14.6299H78.7896L78.8162 14.8161C79.162 14.6565 79.5078 14.5767 79.9068 14.5767C80.1462 14.5767 80.4654 14.6033 80.6782 14.7363C80.9974 14.9491 81.0772 15.3747 81.0772 15.7471V18.221H80.3324V15.7737C80.3324 15.5875 80.3058 15.3481 80.1462 15.2417C80.0132 15.1619 79.7738 15.1353 79.6408 15.1353C79.3482 15.1087 79.1088 15.1619 78.8694 15.2151ZM77.6724 16.3855C77.6724 16.8111 77.5926 17.29 77.3532 17.6358C77.1138 18.0082 76.7414 18.1944 76.3158 18.2476C76.2094 18.2742 76.1296 18.2742 76.0232 18.2742C75.6774 18.2742 75.3316 18.1944 75.039 17.9816C74.7464 17.7688 74.5868 17.4762 74.507 17.157C74.4538 16.9176 74.4272 16.6515 74.4272 16.4121C74.4272 15.9865 74.507 15.5077 74.7464 15.1619C74.906 14.9225 75.1454 14.7363 75.438 14.6299C75.6508 14.5501 75.8636 14.5235 76.0764 14.5235C76.4222 14.5235 76.768 14.6033 77.0606 14.7895C77.3532 14.9757 77.5128 15.2949 77.5926 15.6407C77.6458 15.9067 77.6724 16.1461 77.6724 16.3855ZM74.108 18.1412C73.709 18.221 73.31 18.2476 72.911 18.2476C72.4588 18.2476 71.9534 18.1944 71.581 17.9284C71.2086 17.689 70.9958 17.3166 70.8894 16.891C70.8096 16.5983 70.783 16.2791 70.783 15.9599C70.783 15.3747 70.8894 14.7895 71.2618 14.3107C71.6342 13.8319 72.1928 13.6191 72.8046 13.5925C72.9642 13.5925 73.0972 13.5925 73.2568 13.5925C73.4962 13.5925 73.7888 13.5925 74.0548 13.6457H74.0814V14.2043H73.4164C73.0174 14.2043 72.512 14.2575 72.1662 14.4703C71.6608 14.7895 71.5544 15.4013 71.5544 15.9599C71.5544 16.4919 71.6608 17.1038 72.1396 17.423C72.4322 17.6092 72.911 17.6358 73.2834 17.6358H74.1612V18.1412H74.108Z" fill="#005B4A"/>
<path fill-rule="evenodd" clip-rule="evenodd" d="M110.178 16.4388H109.327V18.221H108.608V13.6192H109.938C110.337 13.6192 110.843 13.6458 111.215 13.7788C111.694 13.965 111.907 14.3906 111.907 14.896C111.907 15.2418 111.8 15.5344 111.561 15.8004C111.401 15.9866 111.135 16.1462 110.896 16.2526L112.12 18.1944H111.268L110.178 16.4388ZM112.811 16.5452C112.811 16.9176 112.891 17.3166 113.237 17.5294C113.476 17.6624 113.849 17.689 114.115 17.689H115.099V18.1146H115.072C114.673 18.221 114.248 18.2476 113.849 18.2476C113.476 18.2476 113.077 18.1678 112.758 17.955C112.279 17.6092 112.146 17.024 112.146 16.4654C112.146 15.8802 112.279 15.2152 112.758 14.8162C113.051 14.5768 113.396 14.497 113.769 14.497C114.354 14.497 114.833 14.7364 115.046 15.295C115.152 15.561 115.179 15.9068 115.179 16.1994V16.492H112.811V16.5452ZM117.865 17.3166C117.865 17.7156 117.679 17.9816 117.307 18.1146C117.041 18.221 116.721 18.2476 116.429 18.2476C116.136 18.2476 115.79 18.2476 115.498 18.1678H115.471V17.6624H116.535C116.775 17.6624 117.147 17.6358 117.147 17.3166C117.147 17.1304 116.908 16.9442 116.775 16.8644C116.482 16.6782 116.189 16.4654 115.897 16.2792C115.631 16.0664 115.445 15.8004 115.445 15.4546C115.445 15.0556 115.657 14.8162 116.003 14.6566C116.269 14.5502 116.588 14.5236 116.881 14.5236C117.147 14.5236 117.44 14.5502 117.706 14.5768H117.732V15.0822H116.775C116.562 15.0822 116.136 15.1088 116.136 15.428C116.136 15.561 116.269 15.694 116.376 15.7472C116.562 15.8802 116.748 16.0132 116.961 16.1462C117.2 16.3058 117.573 16.5718 117.732 16.8112C117.839 16.9974 117.865 17.157 117.865 17.3166ZM118.823 16.5452C118.823 16.9176 118.903 17.3166 119.248 17.5294C119.488 17.6624 119.86 17.689 120.126 17.689H121.11V18.1146H121.084C120.685 18.221 120.259 18.2476 119.86 18.2476C119.488 18.2476 119.089 18.1678 118.77 17.955C118.291 17.6092 118.158 17.024 118.158 16.4654C118.158 15.8802 118.291 15.2152 118.77 14.8162C119.062 14.5768 119.408 14.497 119.78 14.497C120.366 14.497 120.844 14.7364 121.057 15.295C121.164 15.561 121.19 15.9068 121.19 16.1994V16.492H118.823V16.5452ZM123.558 18.0348C123.238 18.221 122.866 18.3008 122.52 18.3008C122.254 18.3008 121.962 18.2742 121.775 18.1146C121.536 17.9284 121.456 17.6624 121.456 17.3698C121.456 16.9442 121.722 16.6516 122.121 16.492C122.467 16.3324 122.866 16.226 123.238 16.1462C123.345 16.1196 123.425 16.093 123.531 16.0664V15.6408C123.531 15.4812 123.504 15.295 123.345 15.2152C123.212 15.1354 122.972 15.1354 122.839 15.1354H121.722V14.7098H121.749C122.174 14.6034 122.627 14.5502 123.079 14.5502C123.478 14.5502 123.93 14.63 124.143 15.029C124.223 15.1886 124.249 15.3748 124.249 15.561V17.7156H124.755V18.1412H124.728C124.542 18.2476 124.329 18.2742 124.116 18.2742C123.877 18.2476 123.664 18.221 123.558 18.0348ZM125.659 15.4014V18.1944H124.941V14.63H125.579L125.606 14.9226C125.899 14.6566 126.218 14.5502 126.617 14.5502C126.723 14.5502 126.856 14.5502 126.963 14.5502H126.989V15.1354H126.564C126.218 15.1354 125.925 15.2152 125.659 15.4014ZM129.41 18.1678C129.117 18.2476 128.745 18.2742 128.452 18.2742C127.814 18.2742 127.308 18.0348 127.016 17.4496C126.883 17.157 126.83 16.7846 126.83 16.4654C126.83 16.0132 126.909 15.5344 127.202 15.1886C127.495 14.8162 127.92 14.63 128.399 14.6034C128.505 14.6034 128.612 14.5768 128.718 14.5768C128.904 14.5768 129.117 14.5768 129.303 14.6034H129.33V15.1354H128.904C128.612 15.1354 128.266 15.1886 128.027 15.3482C127.681 15.5876 127.574 16.0132 127.574 16.4122C127.574 16.7846 127.654 17.2634 127.973 17.5028C128.186 17.6624 128.479 17.689 128.745 17.689H129.383L129.41 18.1678ZM130.58 15.2418V18.221H129.862V13.1936H130.58V14.763C130.899 14.63 131.245 14.5502 131.618 14.5502C131.804 14.5502 132.043 14.5768 132.229 14.63C132.416 14.7098 132.575 14.8694 132.655 15.0556C132.761 15.2418 132.761 15.5078 132.761 15.7206V18.1944H132.043V15.7472C132.043 15.561 132.017 15.295 131.83 15.1886C131.697 15.1088 131.511 15.1088 131.378 15.1088C131.112 15.1088 130.82 15.1354 130.58 15.2418ZM135.661 18.1944H134.916V13.6192H135.661V18.1944ZM137.124 15.2152V18.1944H136.406V14.63H137.044L137.071 14.8162C137.416 14.6566 137.762 14.5768 138.161 14.5768C138.401 14.5768 138.72 14.6034 138.933 14.7364C139.252 14.9492 139.332 15.3748 139.332 15.7472V18.221H138.587V15.7738C138.587 15.5876 138.56 15.3482 138.401 15.2418C138.268 15.162 138.028 15.1354 137.895 15.1354C137.603 15.1088 137.363 15.1354 137.124 15.2152ZM142.098 17.3166C142.098 17.7156 141.912 17.9816 141.539 18.1146C141.273 18.221 140.954 18.2476 140.662 18.2476C140.369 18.2476 140.023 18.2476 139.731 18.1678H139.704V17.6624H140.768C141.007 17.6624 141.38 17.6358 141.38 17.3166C141.38 17.1304 141.14 16.9442 141.007 16.8644C140.715 16.6782 140.422 16.4654 140.13 16.2792C139.864 16.0664 139.677 15.8004 139.677 15.4546C139.677 15.0556 139.89 14.8162 140.236 14.6566C140.502 14.5502 140.821 14.5236 141.114 14.5236C141.38 14.5236 141.672 14.5502 141.938 14.5768H141.965V15.0822H141.007C140.795 15.0822 140.369 15.1088 140.369 15.428C140.369 15.561 140.502 15.694 140.608 15.7472C140.795 15.8802 140.981 16.0132 141.194 16.1462C141.433 16.3058 141.805 16.5718 141.965 16.8112C142.071 16.9974 142.098 17.157 142.098 17.3166ZM142.763 15.1354H142.151V14.63H142.763V13.9118L143.481 13.6724V14.63H144.545V15.1354H143.508V17.0772C143.508 17.2102 143.508 17.4762 143.614 17.5826C143.721 17.6624 143.907 17.689 144.04 17.689H144.545V18.1678H144.519C144.332 18.221 144.12 18.2476 143.933 18.2476C143.854 18.2476 143.774 18.2476 143.694 18.2476C143.481 18.2476 143.189 18.221 143.029 18.0614C142.79 17.8486 142.763 17.423 142.763 17.1304V15.1354ZM145.476 18.1944H144.731V14.63H145.476V18.1944ZM146.327 15.1354H145.716V14.63H146.327V13.9118L147.046 13.6724V14.63H148.11V15.1354H147.072V17.0772C147.072 17.2102 147.072 17.4762 147.179 17.5826C147.285 17.6624 147.471 17.689 147.604 17.689H148.11V18.1678H148.083C147.897 18.221 147.684 18.2476 147.498 18.2476C147.418 18.2476 147.338 18.2476 147.258 18.2476C147.046 18.2476 146.753 18.221 146.593 18.0614C146.354 17.8486 146.327 17.423 146.327 17.1304V15.1354ZM150.557 18.0082C150.211 18.1678 149.839 18.2476 149.466 18.2476C149.227 18.2476 148.934 18.221 148.721 18.088C148.402 17.8752 148.322 17.4496 148.322 17.0772V14.63H149.067V17.1038C149.067 17.29 149.094 17.5294 149.253 17.6358C149.386 17.7156 149.626 17.7422 149.759 17.7422C149.998 17.7422 150.264 17.7156 150.504 17.6358V14.63H151.222V18.221H150.61L150.557 18.0082ZM152.073 15.1354H151.461V14.63H152.073V13.9118L152.791 13.6724V14.63H153.855V15.1354H152.818V17.0772C152.818 17.2102 152.818 17.4762 152.924 17.5826C153.031 17.6624 153.217 17.689 153.35 17.689H153.855V18.1678H153.829C153.642 18.221 153.43 18.2476 153.243 18.2476C153.164 18.2476 153.084 18.2476 153.004 18.2476C152.791 18.2476 152.499 18.221 152.339 18.0614C152.1 17.8486 152.073 17.423 152.073 17.1304V15.1354ZM154.573 16.5452C154.573 16.9176 154.653 17.3166 154.999 17.5294C155.238 17.6624 155.611 17.689 155.877 17.689H156.861V18.1146H156.834C156.435 18.221 156.01 18.2476 155.611 18.2476C155.238 18.2476 154.839 18.1678 154.52 17.955C154.041 17.6092 153.908 17.024 153.908 16.4654C153.908 15.8802 154.041 15.2152 154.52 14.8162C154.813 14.5768 155.159 14.497 155.531 14.497C156.116 14.497 156.595 14.7364 156.808 15.295C156.914 15.561 156.941 15.9068 156.941 16.1994V16.492H154.573V16.5452ZM109.327 14.2044V15.8802H110.391C110.843 15.7206 111.189 15.4546 111.189 14.9492C111.189 14.6566 111.082 14.4438 110.816 14.3108C110.603 14.231 110.284 14.2044 110.045 14.2044H109.327ZM114.487 16.0398C114.487 15.7738 114.434 15.4546 114.274 15.2684C114.141 15.1088 113.928 15.0822 113.716 15.0822C113.343 15.0822 113.077 15.2684 112.918 15.6142C112.864 15.7472 112.838 15.9068 112.811 16.0664H114.487V16.0398ZM120.499 16.0398C120.499 15.7738 120.445 15.4546 120.286 15.2684C120.153 15.1088 119.94 15.0822 119.727 15.0822C119.355 15.0822 119.089 15.2684 118.929 15.6142C118.876 15.7472 118.849 15.9068 118.823 16.0664H120.499V16.0398ZM123.478 17.6358V16.5186C123.185 16.5984 122.893 16.6782 122.627 16.7846C122.52 16.8378 122.387 16.891 122.307 16.9708C122.228 17.0506 122.201 17.1836 122.201 17.3166C122.201 17.689 122.494 17.7688 122.786 17.7688C123.026 17.7688 123.265 17.7156 123.478 17.6358ZM156.249 16.0398C156.249 15.7738 156.196 15.4546 156.036 15.2684C155.903 15.1088 155.691 15.0822 155.478 15.0822C155.105 15.0822 154.839 15.2684 154.68 15.6142C154.627 15.7472 154.6 15.9068 154.573 16.0664H156.249V16.0398Z" fill="#005B4A"/>
<path d="M145.503 13.2734H144.705V13.9118H145.503V13.2734Z" fill="#005B4A"/>
<path fill-rule="evenodd" clip-rule="evenodd" d="M111.455 7.71405C111.375 7.87365 111.322 8.03325 111.242 8.19285C111.215 8.27266 111.189 8.35246 111.136 8.40566L110.151 10.2411H109.673L108.662 8.40566C108.529 8.19286 108.422 7.95345 108.343 7.71405L108.369 7.95345C108.396 8.16625 108.396 8.37906 108.396 8.59186V11.4381H107.731V6.83625H108.555L109.939 9.46966L111.322 6.83625H112.146V11.4381H111.428V8.56526C111.428 8.29926 111.428 8.00665 111.455 7.71405ZM114.514 11.2519C114.195 11.4381 113.822 11.4913 113.476 11.4913C113.21 11.4913 112.918 11.4647 112.732 11.3051C112.492 11.1189 112.412 10.8529 112.412 10.5603C112.412 10.1347 112.678 9.84207 113.077 9.68246C113.423 9.52286 113.822 9.41646 114.195 9.33666C114.301 9.31006 114.381 9.28346 114.487 9.25686V8.83126C114.487 8.67166 114.461 8.48546 114.301 8.40566C114.168 8.32586 113.929 8.32586 113.796 8.32586H112.678V7.90025H112.705C113.131 7.79385 113.583 7.74065 114.035 7.74065C114.434 7.74065 114.886 7.82045 115.099 8.21946C115.179 8.37906 115.205 8.56526 115.205 8.75146V10.9061H115.711V11.3317H115.684C115.498 11.4381 115.285 11.4647 115.072 11.4647C114.833 11.4647 114.62 11.4381 114.514 11.2519ZM118.264 11.3849C117.972 11.4647 117.599 11.4913 117.307 11.4913C116.668 11.4913 116.163 11.2519 115.87 10.6667C115.737 10.3741 115.684 10.0017 115.684 9.68246C115.684 9.23026 115.764 8.75146 116.057 8.40566C116.349 8.03325 116.775 7.84705 117.254 7.82045C117.36 7.82045 117.466 7.79385 117.573 7.79385C117.759 7.79385 117.972 7.79385 118.158 7.82045H118.185V8.35246H117.759C117.466 8.35246 117.121 8.40566 116.881 8.56526C116.535 8.80466 116.429 9.23026 116.429 9.62926C116.429 10.0017 116.509 10.4805 116.828 10.7199C117.041 10.8795 117.36 10.9061 117.599 10.9061H118.238L118.264 11.3849ZM119.435 8.43226V11.4115H118.717V6.41064H119.435V7.98005C119.754 7.84705 120.1 7.76725 120.472 7.76725C120.658 7.76725 120.898 7.79385 121.084 7.84705C121.27 7.92685 121.43 8.08645 121.51 8.27266C121.616 8.45886 121.616 8.72486 121.616 8.93766V11.4115H120.898V8.96426C120.898 8.77806 120.871 8.51206 120.685 8.40566C120.552 8.32586 120.366 8.32586 120.233 8.32586C119.94 8.32586 119.674 8.35246 119.435 8.43226ZM123.026 7.12885H122.228V6.49044H123.026V7.12885ZM122.973 11.4115H122.228V7.82045H122.973V11.4115ZM124.356 8.43226V11.4115H123.638V7.82045H124.276L124.303 8.00665C124.648 7.84705 124.994 7.76725 125.393 7.76725C125.633 7.76725 125.952 7.79385 126.165 7.92685C126.484 8.13965 126.564 8.56526 126.564 8.93766V11.4115H125.819V8.96426C125.819 8.77806 125.792 8.53866 125.633 8.43226C125.5 8.35246 125.26 8.32586 125.127 8.32586C124.861 8.32586 124.595 8.35246 124.356 8.43226ZM127.681 9.76226C127.681 10.1347 127.761 10.5337 128.106 10.7465C128.346 10.8795 128.718 10.9061 128.984 10.9061H129.968V11.3317H129.942C129.543 11.4381 129.117 11.4647 128.718 11.4647C128.346 11.4647 127.947 11.3849 127.628 11.1721C127.149 10.8263 127.016 10.2411 127.016 9.68246C127.016 9.09726 127.149 8.43226 127.628 8.03325C127.92 7.82045 128.266 7.71405 128.638 7.71405C129.224 7.71405 129.702 7.95345 129.915 8.51206C130.022 8.77806 130.048 9.12386 130.048 9.41646V9.70906H127.681V9.76226ZM131.272 8.61846V11.4115H130.554V7.82045H131.192L131.219 8.11305C131.511 7.84705 131.83 7.74065 132.229 7.74065C132.336 7.74065 132.469 7.74065 132.575 7.74065H132.602V8.32586H132.176C131.83 8.35246 131.511 8.43226 131.272 8.61846ZM134.145 11.4115H133.932L132.575 7.82045H133.347L134.358 10.7997L135.368 7.82045H136.113L134.358 12.7947H133.613L134.145 11.4115ZM114.434 10.8529V9.73566C114.141 9.81546 113.849 9.89526 113.583 10.0017C113.476 10.0549 113.343 10.1081 113.264 10.1879C113.184 10.2677 113.157 10.4007 113.157 10.5337C113.157 10.9061 113.45 10.9859 113.742 10.9859C113.982 10.9859 114.221 10.9327 114.434 10.8529ZM129.357 9.25686C129.357 8.99086 129.303 8.67166 129.144 8.48546C129.011 8.32586 128.798 8.29926 128.585 8.29926C128.213 8.29926 127.947 8.48546 127.787 8.83126C127.734 8.96426 127.707 9.12386 127.681 9.28346H129.357V9.25686Z" fill="#005B4A"/>
<path fill-rule="evenodd" clip-rule="evenodd" d="M90.0948 7.39485V11.4115H89.35V7.39485H87.9136V6.80965H91.5046V7.39485H90.0948ZM91.744 9.76226C91.744 10.1347 91.8238 10.5337 92.1696 10.7465C92.409 10.8795 92.7814 10.9061 93.0474 10.9061H94.0316V11.3317H94.005C93.606 11.4381 93.1804 11.4647 92.7814 11.4647C92.409 11.4647 92.01 11.3849 91.6908 11.1721C91.212 10.8263 91.079 10.2411 91.079 9.68246C91.079 9.09726 91.212 8.43226 91.6908 8.03325C91.9834 7.82045 92.3292 7.71405 92.7016 7.71405C93.2868 7.71405 93.7656 7.95345 93.9784 8.51206C94.0848 8.77806 94.1114 9.12386 94.1114 9.41646V9.70906H91.744V9.76226ZM95.734 9.97507L94.803 11.4115H94.005L95.2552 9.54946L94.0582 7.82045H94.8828L95.734 9.15046L96.5852 7.82045H97.3567L96.1862 9.54946L97.4897 11.4115H96.6384L95.734 9.97507ZM98.1015 8.35246H97.4897V7.84705H98.1015V7.12885L98.8197 6.88945V7.84705H99.8837V8.35246H98.8463V10.2943C98.8463 10.4273 98.8463 10.6933 98.9527 10.7997C99.0591 10.8795 99.2453 10.9061 99.3783 10.9061H99.8837V11.3849H99.8571C99.6709 11.4381 99.4581 11.4647 99.2719 11.4647C99.1921 11.4647 99.1123 11.4647 99.0325 11.4647C98.8197 11.4647 98.5271 11.4381 98.3675 11.2785C98.1281 11.0657 98.1015 10.6401 98.1015 10.3475V8.35246ZM100.868 7.12885H100.07V6.49044H100.868V7.12885ZM100.815 11.4115H100.07V7.82045H100.815V11.4115ZM102.198 11.4115H101.453V6.41064H102.198V11.4115ZM103.368 9.76226C103.368 10.1347 103.448 10.5337 103.794 10.7465C104.033 10.8795 104.406 10.9061 104.672 10.9061H105.656V11.3317H105.629C105.23 11.4381 104.805 11.4647 104.406 11.4647C104.033 11.4647 103.634 11.3849 103.315 11.1721C102.836 10.8263 102.703 10.2411 102.703 9.68246C102.703 9.09726 102.836 8.43226 103.315 8.03325C103.608 7.82045 103.954 7.71405 104.326 7.71405C104.911 7.71405 105.39 7.95345 105.603 8.51206C105.709 8.77806 105.736 9.12386 105.736 9.41646V9.70906H103.368V9.76226ZM93.4198 9.25686C93.4198 8.99086 93.3666 8.67166 93.207 8.48546C93.074 8.32586 92.8612 8.29926 92.6484 8.29926C92.276 8.29926 92.01 8.48546 91.8504 8.83126C91.7972 8.96426 91.7706 9.12386 91.744 9.28346H93.4198V9.25686ZM105.044 9.25686C105.044 8.99086 104.991 8.67166 104.831 8.48546C104.698 8.32586 104.486 8.29926 104.273 8.29926C103.9 8.29926 103.634 8.48546 103.475 8.83126C103.421 8.96426 103.395 9.12386 103.368 9.28346H105.044V9.25686Z" fill="#005B4A"/>
<path fill-rule="evenodd" clip-rule="evenodd" d="M72.246 9.3898H71.6608V11.438H70.916V6.83618H71.6608V8.83119H72.2194L73.6558 6.83618H74.507L72.8312 9.07059L74.5602 11.4114H73.6824L72.246 9.3898ZM77.7788 9.6026C77.7788 10.0282 77.699 10.507 77.4596 10.8528C77.2202 11.2252 76.8478 11.4114 76.4222 11.4646C76.3158 11.4912 76.236 11.4912 76.1296 11.4912C75.7838 11.4912 75.438 11.4114 75.1454 11.1986C74.8528 10.9858 74.6932 10.6932 74.6134 10.374C74.5602 10.1346 74.5336 9.8686 74.5336 9.6292C74.5336 9.2036 74.6134 8.72479 74.8528 8.37899C75.0124 8.13959 75.2518 7.95339 75.5444 7.84699C75.7572 7.76719 75.97 7.74059 76.1828 7.74059C76.5286 7.74059 76.8744 7.82039 77.167 8.00659C77.4596 8.19279 77.6192 8.51199 77.699 8.85779C77.7788 9.0972 77.7788 9.3632 77.7788 9.6026ZM78.9758 8.61839V11.4114H78.2577V7.82039H78.8961L78.9227 8.11299C79.2153 7.84699 79.5345 7.74059 79.9335 7.74059C80.0399 7.74059 80.1729 7.74059 80.2793 7.74059H80.3059V8.32579H79.8803C79.5344 8.35239 79.2418 8.43219 78.9758 8.61839ZM80.8911 9.7622C80.8911 10.1346 80.9709 10.5336 81.3167 10.7464C81.5561 10.8794 81.9285 10.906 82.1945 10.906H83.1787V11.3316H83.1521C82.7531 11.438 82.3275 11.4646 81.9285 11.4646C81.5561 11.4646 81.1571 11.3848 80.8379 11.172C80.3591 10.8262 80.2261 10.241 80.2261 9.6824C80.2261 9.0972 80.3591 8.43219 80.8379 8.03319C81.1305 7.79379 81.4763 7.71399 81.8487 7.71399C82.4339 7.71399 82.9127 7.95339 83.1255 8.51199C83.2319 8.77799 83.2585 9.1238 83.2585 9.4164V9.709H80.8911V9.7622ZM85.6259 11.2518C85.3067 11.438 84.9343 11.4912 84.5885 11.4912C84.3225 11.4912 84.0299 11.4646 83.8437 11.305C83.6043 11.1188 83.5245 10.8528 83.5245 10.5602C83.5245 10.1346 83.7905 9.842 84.1895 9.6824C84.5353 9.5228 84.9343 9.4164 85.3067 9.3366C85.4131 9.31 85.4929 9.2834 85.5993 9.2568V8.83119C85.5993 8.67159 85.5727 8.48539 85.4131 8.40559C85.2801 8.32579 85.0407 8.32579 84.9077 8.32579H83.7905V7.90019H83.8171C84.2427 7.79379 84.6949 7.74059 85.1471 7.74059C85.5461 7.74059 85.9983 7.82039 86.2111 8.21939C86.2909 8.37899 86.3175 8.56519 86.3175 8.75139V10.906H86.8229V11.3316H86.7963C86.6101 11.438 86.3973 11.4646 86.1845 11.4646C85.9185 11.4646 85.7057 11.438 85.6259 11.2518ZM77.0606 9.6292C77.0606 9.2834 77.0074 8.80459 76.768 8.53859C76.6084 8.37899 76.3956 8.29919 76.1562 8.29919C75.7306 8.29919 75.4646 8.53859 75.3582 8.93759C75.2784 9.1504 75.2784 9.4164 75.2784 9.6292C75.2784 9.975 75.3316 10.4538 75.571 10.7198C75.7306 10.8794 75.9434 10.9592 76.1562 10.9592C76.5818 10.9592 76.8478 10.7198 76.9542 10.3208C77.034 10.108 77.0606 9.842 77.0606 9.6292ZM82.5669 9.2568C82.5669 8.99079 82.5137 8.67159 82.3541 8.48539C82.2211 8.32579 82.0083 8.29919 81.7955 8.29919C81.4231 8.29919 81.1571 8.48539 80.9975 8.83119C80.9443 8.96419 80.9177 9.1238 80.8911 9.2834H82.5669V9.2568ZM85.5461 10.8528V9.7356C85.2535 9.8154 84.9609 9.8952 84.6949 10.0016C84.5885 10.0548 84.4555 10.108 84.3757 10.1878C84.2959 10.2676 84.2693 10.4006 84.2693 10.5336C84.2693 10.906 84.5619 10.9858 84.8545 10.9858C85.0673 10.9858 85.3067 10.9326 85.5461 10.8528Z" fill="#005B4A"/>
</g>
<defs>
<clipPath id="clip0">
<rect width="156.941" height="32" fill="white"/>
</clipPath>
</defs>
</svg>
