<svg width="120" height="120" viewBox="0 0 120 120" fill="none" xmlns="http://www.w3.org/2000/svg">
<path d="M95.9 100.8H23.7C18.4 100.8 13.6 97.3 12.3 92.1C10.5 84.5 16.2 77.8 23.5 77.8H95.7C101 77.8 105.8 81.3 107.1 86.5C108.8 94 103.1 100.8 95.9 100.8ZM23.3 81.8C18.6 81.8 14.9 86.2 16 91.1C16.8 94.5 20 96.8001 23.4 96.8001H95.8C99.3 96.8001 102.5 94.5 103.2 91.1C104.3 86.2 100.6 81.8 95.9 81.8H23.3Z" fill="white"/>
<path d="M42.1 94.5C39.1 94.5 36.6 92 36.6 89C36.6 86 39.1 83.5 42.1 83.5C45.1 83.5 47.6 86 47.6 89C47.5 92 45.1 94.5 42.1 94.5ZM42.1 87.6C41.3 87.6 40.6 88.3 40.6 89.1C40.6 89.9 41.3 90.6 42.1 90.6C42.9 90.6 43.6 89.9 43.6 89.1C43.5 88.2 42.9 87.6 42.1 87.6Z" fill="white"/>
<path d="M59.7 94.5C56.7 94.5 54.2 92 54.2 89C54.2 86 56.7 83.5 59.7 83.5C62.7 83.5 65.2 86 65.2 89C65.1 92 62.7 94.5 59.7 94.5ZM59.7 87.6C58.9 87.6 58.2 88.3 58.2 89.1C58.2 89.9 58.9 90.6 59.7 90.6C60.5 90.6 61.2 89.9 61.2 89.1C61.1 88.2 60.5 87.6 59.7 87.6Z" fill="white"/>
<path d="M77.3 94.5C74.3 94.5 71.8 92 71.8 89C71.8 86 74.3 83.5 77.3 83.5C80.3 83.5 82.8 86 82.8 89C82.8 92 80.3 94.5 77.3 94.5ZM77.3 87.6C76.5 87.6 75.8 88.3 75.8 89.1C75.8 89.9 76.5 90.6 77.3 90.6C78.1 90.6 78.8 89.9 78.8 89.1C78.8 88.2 78.1 87.6 77.3 87.6Z" fill="white"/>
<path d="M24.5 94.5C21.4 94.5 19 92 19 89C19 86 21.5 83.5 24.5 83.5C27.5 83.5 30 86 30 89C29.9 92 27.5 94.5 24.5 94.5ZM24.5 87.6C23.7 87.6 23 88.3 23 89.1C23 89.9 23.7 90.6 24.5 90.6C25.3 90.6 26 89.9 26 89.1C25.9 88.2 25.3 87.6 24.5 87.6Z" fill="white"/>
<path d="M94.9 94.5C91.9 94.5 89.4 92 89.4 89C89.4 86 91.9 83.5 94.9 83.5C97.9 83.5 100.4 86 100.4 89C100.4 92 97.9 94.5 94.9 94.5ZM94.9 87.6C94.1 87.6 93.4 88.3 93.4 89.1C93.4 89.9 94.1 90.6 94.9 90.6C95.7 90.6 96.4 89.9 96.4 89.1C96.4 88.2 95.7 87.6 94.9 87.6Z" fill="white"/>
<path d="M54.3 72.8H28.3C27.2 72.8 26.3 71.9 26.3 70.8V51.8C26.3 50.7 27.2 49.8 28.3 49.8H54.3C55.4 49.8 56.3 50.7 56.3 51.8V70.8C56.3 71.9 55.4 72.8 54.3 72.8ZM30.3 68.8H52.3V53.8H30.3V68.8V68.8Z" fill="white"/>
<path d="M91.3 72.8H65.3C64.2 72.8 63.3 71.9 63.3 70.8V51.8C63.3 50.7 64.2 49.8 65.3 49.8H91.3C92.4 49.8 93.3 50.7 93.3 51.8V70.8C93.3 71.9 92.4 72.8 91.3 72.8ZM67.3 68.8H89.3V53.8H67.3V68.8Z" fill="white"/>
<path d="M72.3 25.7999H60.3V21.9999C60.3 21.1999 59.8 20.4999 59 20.1999C58.3 19.8999 57.4 19.9999 56.8 20.5999L45.7 31.3999C45.3 31.7999 45.1 32.2999 45.1 32.7999C45.1 33.2999 45.3 33.7999 45.7 34.1999L56.8 44.9999C57.2 45.3999 57.8 45.5999 58.3 45.5999C58.6 45.5999 58.8 45.4999 59 45.3999C59.8 45.0999 60.3 44.3999 60.3 43.5999V39.7999H72.3C73.4 39.7999 74.3 38.8999 74.3 37.7999V27.7999C74.3 26.6999 73.4 25.7999 72.3 25.7999Z" fill="white"/>
</svg>
