<svg width="120" height="120" viewBox="0 0 120 120" fill="none" xmlns="http://www.w3.org/2000/svg">
<g clip-path="url(#clip0)">
<path d="M26.9 47.2L17.7 56.4L24.4 63.0999L33.6 53.9L26.9 47.2Z" fill="white"/>
<path d="M38.3 90.6999C35.5 90.6999 33.3 88.3999 33.3 85.6999C33.3 82.8999 35.6 80.7 38.3 80.7C41.1 80.7 43.3 82.9999 43.3 85.6999C43.4 88.4999 41.1 90.6999 38.3 90.6999ZM38.3 84.6999C37.7 84.6999 37.3 85.1999 37.3 85.6999C37.3 86.2999 37.8 86.6999 38.3 86.6999C38.9 86.6999 39.3 86.1999 39.3 85.6999C39.4 85.0999 38.9 84.6999 38.3 84.6999Z" fill="white"/>
<path d="M53.8 90.6999C51 90.6999 48.8 88.3999 48.8 85.6999C48.8 82.8999 51.1 80.7 53.8 80.7C56.6 80.7 58.8 82.9999 58.8 85.6999C58.8 88.4999 56.6 90.6999 53.8 90.6999ZM53.8 84.6999C53.2 84.6999 52.8 85.1999 52.8 85.6999C52.8 86.2999 53.3 86.6999 53.8 86.6999C54.4 86.6999 54.8 86.1999 54.8 85.6999C54.8 85.0999 54.4 84.6999 53.8 84.6999Z" fill="white"/>
<path d="M22.9 90.6999C20.1 90.6999 17.9 88.3999 17.9 85.6999C17.9 82.8999 20.2 80.7 22.9 80.7C25.7 80.7 27.9 82.9999 27.9 85.6999C27.9 88.4999 25.7 90.6999 22.9 90.6999ZM22.9 84.6999C22.3 84.6999 21.9 85.1999 21.9 85.6999C21.9 86.2999 22.4 86.6999 22.9 86.6999C23.5 86.6999 23.9 86.1999 23.9 85.6999C23.9 85.0999 23.5 84.6999 22.9 84.6999Z" fill="white"/>
<path d="M92 74.4C92 69 87.6 64.5 82.1 64.5C76.7 64.5 72.2 68.9 72.2 74.4C72.2 79.8 76.6 84.3 82.1 84.3C87.6 84.2 92 79.8 92 74.4Z" fill="white"/>
<path d="M78.9 29.2C77.7 26.6 74.6 25.5 72 26.7C69.4 27.9 68.3 31 69.5 33.6C70.7 36.2 73.8 37.3 76.4 36.1C79 34.9 80.1 31.8 78.9 29.2Z" fill="white"/>
<path d="M106.9 98.7L98.8 84.6C100.6 81.6 101.7 78.1 101.7 74.3C101.7 69.6 100 65.2 97.2 61.8L87.3 34C87.9 31.3 87.5 28.4 86.3 25.8C84.2 21.1 79.4 18 74.2 18C72.3 18 70.4 18.4 68.5 19.1C66.2 20.3 64.2 22 62.8 24.1L41.8 39C41 39.6 40.7 40.6 41.1 41.5L42.3 44L40.9 44.7C39.8 43.2 38.2 41.9 36.3 41.2C31.1 39.3 25.3 42 23.4 47.2C23 48.3 23.6 49.4 24.6 49.8C25.7 50.2 26.8 49.6 27.2 48.6C28.3 45.5 31.8 43.9 34.9 45C36.3 45.5 37.4 46.5 38 47.8C38 48 38.1 48.1 38.2 48.2C38.3 48.4 38.4 48.6 38.5 48.7C39 50 39 51.4 38.5 52.8C37.3 55.9 33.8 57.5 30.7 56.4C29.6 56 28.5 56.6 28.1 57.6C27.7 58.7 28.3 59.8 29.3 60.2C30.4 60.6 31.6 60.8 32.7 60.8C36.8 60.8 40.6 58.3 42.3 54.1C43 52.2 43.1 50.2 42.6 48.4L44.1 47.7L45.3 50.2C45.6 51 46.3 51.4 47.1 51.4C47.3 51.4 47.4 51.4 47.6 51.3L65 46.7L65.3 64.4C63.6 67.3 62.5 70.8 62.5 74.4C62.5 74.9 62.5 75.3 62.6 75.7H22.4C16.7 75.7 11.8 80.4 12 86.1C12.2 91.5 16.6 95.7 22 95.7H59L57.3 98.6C56.9 99.2 56.9 100 57.3 100.6C57.6 101.2 58.3 101.6 59 101.6H105.1C105.8 101.6 106.5 101.3 106.8 100.6C107.3 100.1 107.3 99.3 106.9 98.7ZM96.8 69.2C97.4 70.8 97.7 72.6 97.7 74.4C97.7 76.6 97.2 78.6 96.4 80.5C95.8 81.9 95 83.2 94 84.3C93.9 84.5 93.7 84.6 93.6 84.8C92.2 86.4 90.5 87.6 88.5 88.5C86.5 89.4 84.3 89.9 82 89.9C77.2 89.9 72.9 87.7 70.1 84.3C69.1 83.2 68.3 81.9 67.7 80.5C67.6 80.2 67.5 79.9 67.4 79.6C67.2 79.1 67 78.5 66.9 78C66.7 77.2 66.6 76.4 66.5 75.6C66.5 75.1 66.4 74.6 66.4 74.2C66.4 70.9 67.5 67.8 69.2 65.2C72 61.2 76.7 58.6 82 58.6C86.5 58.6 90.6 60.5 93.4 63.6C95 65.3 96.1 67.1 96.8 69.2ZM85 39.3L91.1 56.9C88.4 55.5 85.3 54.7 82 54.7C77.1 54.7 72.6 56.6 69.1 59.6L68.8 45.6L72.4 44.7C72.9 44.8 73.5 44.8 74 44.8C76 44.8 77.9 44.4 79.6 43.6C81.9 42.6 83.7 41.1 85 39.3ZM65.3 28.2C65.5 27.7 65.7 27.3 65.9 26.9C66.2 26.3 66.6 25.8 67.1 25.3C68 24.3 69 23.5 70.2 22.9C71.5 22.3 72.8 22 74.2 22C77.9 22 81.2 24.1 82.7 27.5C83.4 29.1 83.7 30.7 83.5 32.3C83.4 33.1 83.2 33.9 83 34.7C82.7 35.6 82.2 36.4 81.6 37.2C80.7 38.4 79.5 39.4 78.1 40C76.9 40.6 75.6 40.9 74.3 40.9C74.2 40.9 74.1 40.9 74.1 40.9C73.5 40.9 72.9 40.8 72.3 40.7C72 40.6 71.7 40.6 71.4 40.5C69.7 40 68.2 39 67 37.6C66.4 36.9 65.9 36.2 65.6 35.4C64.5 33.1 64.4 30.6 65.3 28.2ZM48.1 47L45.4 41.3L60.8 30.5C60.6 32.7 61 35 62 37C62.7 38.5 63.7 39.9 64.8 41C65.3 41.5 65.8 41.9 66.3 42.3L48.1 47ZM22.7 91.7C19.6 91.7 16.9 89.5 16.5 86.5C16 82.9 18.9 79.7 22.4 79.7H63.2C63.7 81.5 64.4 83.1 65.4 84.7L61.3 91.7H22.7ZM62.4 97.7L63.6 95.7L65.9 91.7L68 88C69.4 89.5 71.1 90.7 72.9 91.7C75.6 93.1 78.7 94 82 94C85.7 94 89.1 93 92.1 91.2C93.6 90.3 94.9 89.2 96.1 88L101.7 97.7H62.4Z" fill="white"/>
<path d="M58.8 61.7H45.8V71.7H58.8V61.7Z" fill="white"/>
</g>
<defs>
<clipPath id="clip0">
<rect width="95.2" height="83.7" fill="white" transform="translate(12 18)"/>
</clipPath>
</defs>
</svg>
