<svg width="272" height="32" viewBox="0 0 272 32" fill="none" xmlns="http://www.w3.org/2000/svg">
<g clip-path="url(#clip0)">
<path d="M83.9436 29.0703H82.4788L80.9013 26.8168L80.676 27.0422V29.0703H79.4365V22.9858H80.676V25.5774L82.3661 22.9858H83.7182L81.5774 25.8027L83.9436 29.0703Z" fill="black"/>
<path d="M88.4506 26.9296C88.4506 27.6056 88.2253 28.169 87.8873 28.6197C87.5492 29.0704 86.9858 29.1831 86.3098 29.1831C85.6337 29.1831 85.0704 28.9577 84.7323 28.6197C84.3943 28.169 84.1689 27.6056 84.1689 26.9296V26.5915C84.1689 25.9155 84.3943 25.3521 84.7323 24.9014C85.0704 24.4507 85.6337 24.2253 86.3098 24.2253C86.9858 24.2253 87.5492 24.4507 87.8873 24.9014C88.2253 25.3521 88.4506 25.9155 88.4506 26.5915V26.9296ZM87.2112 26.8169C87.2112 26.1408 87.0985 25.6901 86.9858 25.4648C86.7605 25.2394 86.5351 25.1267 86.3098 25.1267C86.0844 25.1267 85.8591 25.2394 85.6337 25.4648C85.4084 25.6901 85.4084 26.1408 85.4084 26.7042V26.8169C85.4084 27.4929 85.5211 27.9437 85.6337 28.169C85.7464 28.3944 85.9718 28.507 86.3098 28.507C86.5351 28.507 86.7605 28.3944 86.9858 28.169C87.0985 27.831 87.2112 27.3803 87.2112 26.8169Z" fill="black"/>
<path d="M92.507 25.8028H91.3802C91.3802 25.6901 91.3802 25.5775 91.2676 25.4648C91.2676 25.3521 91.1549 25.3521 90.9295 25.3521C90.8168 25.3521 90.7042 25.3521 90.5915 25.4648L90.3661 25.6901V28.9577H89.1267V24.338H90.2535V25.0141C90.3661 24.7887 90.4788 24.5634 90.7042 24.4507C90.9295 24.338 91.0422 24.2253 91.3802 24.2253C91.7183 24.2253 92.0563 24.338 92.169 24.5634C92.507 25.0141 92.6197 25.3521 92.507 25.8028Z" fill="black"/>
<path d="M97.014 26.9297H94.0844C94.0844 27.4931 94.1971 27.8311 94.4224 28.0564C94.6478 28.2818 94.8731 28.3945 95.3238 28.3945C95.5492 28.3945 95.7745 28.3945 95.9999 28.2818C96.2252 28.1691 96.4506 28.1691 96.7886 27.9438V28.7325C96.5633 28.8452 96.3379 28.9579 96.1126 29.0705C95.8872 29.1832 95.5492 29.1832 95.2112 29.1832C94.5351 29.1832 94.0844 28.9579 93.6337 28.6198C93.2957 28.2818 93.0703 27.7184 93.0703 26.9297V26.5917C93.0703 25.9156 93.2957 25.4649 93.6337 25.0142C93.9717 24.5635 94.5351 24.3381 95.2112 24.3381C95.8872 24.3381 96.3379 24.5635 96.676 24.9015C97.014 25.3522 97.2393 25.8029 97.2393 26.479C97.014 26.817 97.014 26.9297 97.014 26.9297ZM95.8872 26.3663C95.8872 25.9156 95.7745 25.5776 95.6619 25.3522C95.5492 25.1269 95.3238 25.0142 94.9858 25.0142C94.7605 25.0142 94.5351 25.1269 94.4224 25.3522C94.1971 25.5776 94.1971 25.9156 94.0844 26.3663H95.8872Z" fill="black"/>
<path d="M101.408 29.0704H100.282V28.507C100.169 28.7324 100.056 28.845 99.8309 28.9577C99.6056 29.0704 99.3802 29.1831 99.0422 29.1831C98.5915 29.1831 98.2535 29.0704 97.9154 28.845C97.6901 28.6197 97.5774 28.169 97.5774 27.7183V27.6056C97.5774 27.0422 97.6901 26.7042 98.0281 26.3662C98.3661 26.1408 98.8168 25.9155 99.3802 25.9155C99.4929 25.9155 99.7182 25.9155 99.8309 26.0281C99.9436 26.0281 100.056 26.1408 100.169 26.2535V25.8028C100.169 25.6901 100.056 25.4648 99.9436 25.3521C99.8309 25.2394 99.6056 25.2394 99.3802 25.2394C99.1549 25.2394 98.9295 25.2394 98.7042 25.3521C98.4788 25.4648 98.3661 25.4648 98.1408 25.5774V24.7887C98.3661 24.676 98.5915 24.676 98.8168 24.5634C99.0422 24.4507 99.3802 24.4507 99.7182 24.4507C100.282 24.4507 100.732 24.5634 100.958 24.9014C101.183 25.1267 101.408 25.5774 101.408 26.1408V29.0704ZM100.282 27.4929V27.3803C100.282 27.1549 100.169 26.9296 100.056 26.7042C99.9436 26.5915 99.7182 26.4789 99.4929 26.4789C99.2675 26.4789 99.0422 26.5915 98.9295 26.7042C98.8168 26.8169 98.7042 27.0422 98.7042 27.3803V27.4929C98.7042 27.831 98.8168 28.0563 98.9295 28.169C99.0422 28.2817 99.2675 28.2817 99.4929 28.2817C99.7182 28.2817 99.8309 28.169 99.9436 28.0563C100.169 27.9436 100.282 27.831 100.282 27.4929Z" fill="black"/>
<path d="M107.831 29.0703H104.225V22.9858H107.606V23.8872H105.465V25.5774H107.155V26.4788H105.465V28.1689H107.831V29.0703Z" fill="black"/>
<path d="M112.338 24.4507L110.535 29.0704H109.634L107.944 24.4507H109.07L110.197 27.6056L111.437 24.4507H112.338Z" fill="black"/>
<path d="M116.394 29.0704H115.268V28.507C115.155 28.7324 115.042 28.845 114.817 28.9577C114.592 29.0704 114.366 29.1831 114.028 29.1831C113.578 29.1831 113.24 29.0704 112.901 28.845C112.676 28.6197 112.563 28.169 112.563 27.7183V27.6056C112.563 27.0422 112.676 26.7042 113.014 26.3662C113.352 26.1408 113.803 25.9155 114.366 25.9155C114.592 25.9155 114.704 25.9155 114.817 26.0281C114.93 26.0281 115.042 26.1408 115.155 26.2535V25.8028C115.155 25.6901 115.042 25.4648 114.93 25.3521C114.817 25.2394 114.592 25.2394 114.366 25.2394C114.141 25.2394 113.916 25.2394 113.69 25.3521C113.465 25.4648 113.352 25.4648 113.127 25.5774V24.7887C113.352 24.676 113.578 24.676 113.803 24.5634C114.028 24.4507 114.366 24.4507 114.704 24.4507C115.268 24.4507 115.718 24.5634 115.944 24.9014C116.169 25.1267 116.394 25.5774 116.394 26.1408V29.0704ZM115.268 27.4929V27.3803C115.268 27.1549 115.155 26.9296 115.042 26.7042C114.93 26.5915 114.704 26.4789 114.479 26.4789C114.254 26.4789 114.028 26.5915 113.916 26.7042C113.803 26.8169 113.69 27.0422 113.69 27.3803V27.4929C113.69 27.831 113.803 28.0563 113.916 28.169C114.028 28.2817 114.254 28.2817 114.479 28.2817C114.704 28.2817 114.817 28.169 114.93 28.0563C115.155 27.9436 115.268 27.831 115.268 27.4929Z" fill="black"/>
<path d="M118.648 22.9858H117.408V29.0703H118.648V22.9858Z" fill="black"/>
<path d="M123.38 29.0704H122.253V28.3943C122.141 28.6197 121.915 28.7324 121.69 28.9577C121.465 29.1831 121.127 29.1831 120.789 29.1831C120.451 29.1831 120.225 29.0704 120 28.845C119.775 28.6197 119.662 28.2817 119.662 27.7183V24.4507H120.901V27.6056C120.901 27.831 120.901 28.0563 121.014 28.0563C121.127 28.169 121.239 28.169 121.352 28.169C121.577 28.169 121.69 28.169 121.803 28.0563C121.915 27.9436 122.028 27.831 122.141 27.7183V24.4507H123.38V29.0704V29.0704Z" fill="black"/>
<path d="M128 29.0704H126.873V28.507C126.76 28.7324 126.648 28.845 126.422 28.9577C126.197 29.0704 125.972 29.1831 125.634 29.1831C125.183 29.1831 124.845 29.0704 124.507 28.845C124.282 28.6197 124.169 28.169 124.169 27.7183V27.6056C124.169 27.0422 124.282 26.7042 124.62 26.3662C124.958 26.1408 125.408 25.9155 125.972 25.9155C126.084 25.9155 126.31 25.9155 126.422 26.0281C126.535 26.0281 126.648 26.1408 126.76 26.2535V25.8028C126.76 25.6901 126.648 25.4648 126.535 25.3521C126.422 25.2394 126.197 25.2394 125.972 25.2394C125.746 25.2394 125.521 25.2394 125.296 25.3521C125.07 25.4648 124.958 25.4648 124.732 25.5774V24.7887C124.958 24.676 125.183 24.676 125.408 24.5634C125.634 24.4507 125.972 24.4507 126.31 24.4507C126.873 24.4507 127.324 24.5634 127.549 24.9014C127.775 25.1267 128 25.5774 128 26.1408V29.0704ZM126.873 27.4929V27.3803C126.873 27.1549 126.76 26.9296 126.648 26.7042C126.535 26.5915 126.31 26.4789 126.084 26.4789C125.859 26.4789 125.634 26.5915 125.521 26.7042C125.408 26.8169 125.296 27.0422 125.296 27.3803V27.4929C125.296 27.831 125.408 28.0563 125.521 28.169C125.634 28.2817 125.859 28.2817 126.084 28.2817C126.31 28.2817 126.422 28.169 126.535 28.0563C126.761 27.9436 126.873 27.831 126.873 27.4929Z" fill="black"/>
<path d="M131.38 25.2394H130.254V27.6056C130.254 27.8309 130.254 28.0563 130.366 28.1689C130.479 28.2816 130.592 28.3943 130.817 28.3943H131.155L131.38 28.2816V28.9577C131.268 28.9577 131.042 29.0703 130.93 29.0703C130.704 29.0703 130.592 29.0703 130.366 29.0703C130.028 29.0703 129.69 28.9577 129.465 28.6196C129.24 28.3943 129.127 27.9436 129.127 27.4929V25.2394H128.563V24.5633H129.127L129.578 22.9858H130.366V24.5633H131.493V25.2394H131.38Z" fill="black"/>
<path d="M133.07 22.9858C132.958 22.8732 132.845 22.7605 132.62 22.7605C132.394 22.7605 132.282 22.8732 132.169 22.9858C132.056 23.0985 131.944 23.3239 131.944 23.4366C131.944 23.6619 132.056 23.7746 132.169 23.8873C132.282 23.9999 132.394 24.1126 132.62 24.1126C132.845 24.1126 132.958 23.9999 133.07 23.8873C133.183 23.7746 133.296 23.5492 133.296 23.4366C133.296 23.2112 133.296 23.0985 133.07 22.9858ZM133.296 24.4506H132.056V29.0704H133.296V24.4506Z" fill="black"/>
<path d="M138.366 26.9296C138.366 27.6056 138.141 28.169 137.803 28.6197C137.465 29.0704 136.901 29.1831 136.225 29.1831C135.549 29.1831 134.986 28.9577 134.648 28.6197C134.31 28.169 134.084 27.6056 134.084 26.9296V26.5915C134.084 25.9155 134.31 25.3521 134.648 24.9014C134.986 24.4507 135.549 24.2253 136.225 24.2253C136.901 24.2253 137.465 24.4507 137.803 24.9014C138.141 25.3521 138.366 25.9155 138.366 26.5915V26.9296ZM137.239 26.8169C137.239 26.1408 137.127 25.6901 137.014 25.4648C136.789 25.2394 136.563 25.1267 136.338 25.1267C136.113 25.1267 135.887 25.2394 135.662 25.4648C135.549 25.6901 135.437 26.1408 135.437 26.7042V26.8169C135.437 27.4929 135.549 27.9437 135.662 28.169C135.775 28.3944 136 28.507 136.338 28.507C136.563 28.507 136.789 28.3944 137.014 28.169C137.127 27.831 137.239 27.3803 137.239 26.8169Z" fill="black"/>
<path d="M142.986 29.0704H141.747V25.8028C141.747 25.6901 141.747 25.5774 141.634 25.4648C141.521 25.3521 141.409 25.3521 141.183 25.3521C140.958 25.3521 140.845 25.3521 140.732 25.4648C140.62 25.5774 140.507 25.6901 140.394 25.8028V29.0704H139.155V24.4507H140.282V25.2394C140.394 25.0141 140.507 24.7887 140.732 24.676C140.958 24.5634 141.296 24.4507 141.634 24.4507C141.972 24.4507 142.31 24.5634 142.535 24.7887C142.761 25.0141 142.873 25.3521 142.873 25.9155V29.0704H142.986Z" fill="black"/>
<path d="M147.268 22.9858H146.028V29.0703H147.268V22.9858Z" fill="black"/>
<path d="M152.338 29.0704H151.099V25.8028C151.099 25.6901 151.099 25.5774 150.986 25.4648C150.873 25.3521 150.761 25.3521 150.535 25.3521C150.423 25.3521 150.197 25.3521 150.085 25.4648C149.972 25.5774 149.859 25.6901 149.747 25.8028V29.0704H148.507V24.4507H149.634V25.2394C149.747 25.0141 149.859 24.7887 150.085 24.676C150.31 24.5634 150.648 24.4507 150.986 24.4507C151.324 24.4507 151.662 24.5634 151.887 24.7887C152.113 25.0141 152.225 25.3521 152.225 25.9155V29.0704H152.338Z" fill="black"/>
<path d="M156.056 27.6056C156.056 28.0563 155.944 28.3943 155.606 28.7324C155.268 29.0704 154.817 29.1831 154.141 29.1831C153.915 29.1831 153.577 29.1831 153.352 29.0704C153.127 29.0704 153.014 28.9577 152.901 28.845V28.0563C153.014 28.169 153.239 28.169 153.352 28.2817C153.577 28.3943 153.803 28.3943 154.028 28.3943C154.366 28.3943 154.479 28.3943 154.704 28.2817C154.817 28.169 154.93 28.0563 154.93 27.831C154.93 27.7183 154.93 27.4929 154.817 27.4929C154.704 27.3803 154.479 27.2676 154.028 27.1549C153.69 27.0422 153.352 26.8169 153.239 26.5915C153.127 26.3662 153.014 26.0281 153.014 25.6901C153.014 25.3521 153.127 25.0141 153.352 24.7887C153.577 24.5634 154.028 24.4507 154.592 24.4507C154.817 24.4507 155.042 24.4507 155.268 24.5634C155.493 24.5634 155.606 24.676 155.718 24.7887V25.5774C155.606 25.4648 155.493 25.4648 155.268 25.3521C155.042 25.3521 154.817 25.2394 154.704 25.2394C154.479 25.2394 154.253 25.2394 154.141 25.3521C154.028 25.4648 153.915 25.5774 153.915 25.6901C153.915 25.8028 153.915 25.9155 154.028 26.0281C154.141 26.1408 154.366 26.1408 154.704 26.2535C155.155 26.3662 155.493 26.5915 155.718 26.8169C155.944 26.9296 156.056 27.2676 156.056 27.6056Z" fill="black"/>
<path d="M159.211 25.2394H158.084V27.6056C158.084 27.8309 158.084 28.0563 158.197 28.1689C158.31 28.2816 158.422 28.3943 158.648 28.3943C158.76 28.3943 158.873 28.3943 158.986 28.3943L159.211 28.2816V28.9577C159.099 28.9577 158.986 29.0703 158.76 29.0703C158.535 29.0703 158.422 29.0703 158.197 29.0703C157.746 29.0703 157.521 28.9577 157.296 28.6196C157.07 28.3943 156.958 27.9436 156.958 27.4929V25.2394H156.394V24.5633H156.958L157.408 22.9858H158.197V24.5633H159.324V25.2394H159.211Z" fill="black"/>
<path d="M161.014 23.4366C161.014 23.6619 160.901 23.7746 160.789 23.8873C160.676 23.9999 160.563 24.1126 160.338 24.1126C160.113 24.1126 160 23.9999 159.887 23.8873C159.775 23.7746 159.662 23.5492 159.662 23.4366C159.662 23.2112 159.775 23.0985 159.887 22.9858C160 22.8732 160.113 22.7605 160.338 22.7605C160.563 22.7605 160.676 22.8732 160.789 22.9858C161.014 23.0985 161.014 23.2112 161.014 23.4366ZM161.014 29.0704H159.775V24.4506H161.014V29.0704Z" fill="black"/>
<path d="M164.507 25.2394H163.38V27.6056C163.38 27.8309 163.38 28.0563 163.493 28.1689C163.606 28.2816 163.718 28.3943 163.944 28.3943C164.056 28.3943 164.169 28.3943 164.282 28.3943L164.507 28.2816V28.9577C164.394 28.9577 164.169 29.0703 164.056 29.0703C163.831 29.0703 163.718 29.0703 163.493 29.0703C163.155 29.0703 162.817 28.9577 162.592 28.6196C162.366 28.3943 162.254 27.9436 162.254 27.4929V25.2394H161.69V24.5633H162.254L162.704 22.9858H163.493V24.5633H164.62V25.2394H164.507Z" fill="black"/>
<path d="M168.901 29.0704H167.775V28.3943C167.662 28.6197 167.437 28.7324 167.211 28.9577C166.986 29.1831 166.648 29.1831 166.31 29.1831C165.972 29.1831 165.746 29.0704 165.521 28.845C165.296 28.6197 165.183 28.2817 165.183 27.7183V24.4507H166.423V27.6056C166.423 27.831 166.423 28.0563 166.535 28.0563C166.648 28.169 166.761 28.169 166.873 28.169C167.099 28.169 167.211 28.169 167.324 28.0563C167.437 27.9436 167.549 27.831 167.662 27.7183V24.4507H168.901V29.0704Z" fill="black"/>
<path d="M172.282 25.2394H171.155V27.6056C171.155 27.8309 171.155 28.0563 171.268 28.1689C171.38 28.2816 171.493 28.3943 171.718 28.3943C171.831 28.3943 171.944 28.3943 172.056 28.3943L172.282 28.2816V28.9577C172.169 28.9577 172.056 29.0703 171.831 29.0703C171.606 29.0703 171.493 29.0703 171.268 29.0703C170.93 29.0703 170.592 28.9577 170.366 28.6196C170.141 28.3943 170.028 27.9436 170.028 27.4929V25.2394H169.465V24.5633H170.028L170.479 22.9858H171.268V24.5633H172.394V25.2394H172.282Z" fill="black"/>
<path d="M176.901 26.9297H173.972C173.972 27.4931 174.084 27.8311 174.31 28.0564C174.535 28.2818 174.76 28.3945 175.098 28.3945C175.324 28.3945 175.549 28.3945 175.775 28.2818C176 28.1691 176.225 28.1691 176.563 27.9438V28.7325C176.338 28.8452 176.113 28.9579 175.887 29.0705C175.662 29.1832 175.324 29.1832 174.986 29.1832C174.31 29.1832 173.746 28.9579 173.408 28.6198C173.07 28.2818 172.845 27.7184 172.845 26.9297V26.5917C172.845 25.9156 173.07 25.4649 173.408 25.0142C173.746 24.5635 174.31 24.3381 174.986 24.3381C175.662 24.3381 176.113 24.5635 176.451 24.9015C176.789 25.3522 177.014 25.8029 177.014 26.479C176.901 26.817 176.901 26.9297 176.901 26.9297ZM175.887 26.3663C175.887 25.9156 175.775 25.5776 175.662 25.3522C175.549 25.1269 175.324 25.0142 174.986 25.0142C174.76 25.0142 174.535 25.1269 174.422 25.3522C174.197 25.5776 174.197 25.9156 174.084 26.3663H175.887Z" fill="black"/>
<path d="M183.775 26.9296C183.775 27.6056 183.549 28.169 183.211 28.6197C182.873 29.0704 182.31 29.1831 181.634 29.1831C180.958 29.1831 180.394 28.9577 180.056 28.6197C179.718 28.169 179.493 27.6056 179.493 26.9296V26.5915C179.493 25.9155 179.718 25.3521 180.056 24.9014C180.394 24.4507 180.958 24.2253 181.634 24.2253C182.31 24.2253 182.873 24.4507 183.211 24.9014C183.549 25.3521 183.775 25.9155 183.775 26.5915V26.9296ZM182.535 26.8169C182.535 26.1408 182.422 25.6901 182.31 25.4648C182.084 25.2394 181.859 25.1267 181.634 25.1267C181.408 25.1267 181.183 25.2394 180.958 25.4648C180.845 25.6901 180.732 26.1408 180.732 26.7042V26.8169C180.732 27.4929 180.845 27.9437 180.958 28.169C181.07 28.3944 181.296 28.507 181.634 28.507C181.859 28.507 182.084 28.3944 182.31 28.169C182.422 27.831 182.535 27.3803 182.535 26.8169Z" fill="black"/>
<path d="M187.155 23.2113L186.817 23.8874L186.591 23.7747C186.479 23.7747 186.479 23.7747 186.253 23.7747C186.028 23.7747 185.915 23.7747 185.915 23.8874C185.803 24.0001 185.803 24.1127 185.803 24.3381V24.5634H186.591V25.2395H185.915V29.0705H184.676V25.2395H184.113V24.5634H184.676V24.4508C184.676 24.0001 184.789 23.662 185.014 23.324C185.239 23.0986 185.577 22.8733 186.028 22.8733C186.253 22.8733 186.366 22.8733 186.591 22.986C186.817 23.0986 187.042 23.0986 187.155 23.2113Z" fill="black"/>
<path d="M190.31 22.9858H189.07V29.0703H190.31V22.9858Z" fill="black"/>
<path d="M195.38 29.0704H194.141V25.8028C194.141 25.6901 194.141 25.5774 194.028 25.4648C193.916 25.3521 193.803 25.3521 193.577 25.3521C193.352 25.3521 193.239 25.3521 193.127 25.4648C193.014 25.5774 192.901 25.6901 192.789 25.8028V29.0704H191.549V24.4507H192.676V25.2394C192.789 25.0141 192.901 24.7887 193.127 24.676C193.352 24.5634 193.69 24.4507 194.028 24.4507C194.366 24.4507 194.704 24.5634 194.93 24.7887C195.155 25.0141 195.268 25.3521 195.268 25.9155V29.0704H195.38Z" fill="black"/>
<path d="M200.113 29.0705H198.986V28.3944C198.761 28.6198 198.648 28.8451 198.422 28.9578C198.197 29.0705 197.972 29.0705 197.746 29.0705C197.296 29.0705 196.958 28.9578 196.62 28.6198C196.282 28.2817 196.169 27.831 196.169 27.0423V26.5916C196.169 25.9155 196.282 25.3522 196.62 25.0141C196.958 24.6761 197.408 24.4507 197.972 24.4507C198.084 24.4507 198.31 24.4507 198.422 24.5634C198.535 24.5634 198.76 24.6761 198.873 24.7888V23.0986H200.113V29.0705ZM198.986 27.7184V25.4648C198.986 25.3522 198.873 25.2395 198.76 25.2395C198.648 25.1268 198.535 25.1268 198.31 25.1268C198.084 25.1268 197.859 25.2395 197.746 25.4648C197.634 25.6902 197.521 26.1409 197.521 26.7043V27.0423C197.521 27.493 197.634 27.831 197.746 28.0564C197.859 28.2817 198.084 28.3944 198.31 28.3944C198.422 28.3944 198.648 28.3944 198.76 28.2817C198.76 27.9437 198.873 27.831 198.986 27.7184Z" fill="black"/>
<path d="M204.845 29.0704H203.718V28.3943C203.606 28.6197 203.38 28.7324 203.155 28.9577C202.93 29.1831 202.591 29.1831 202.253 29.1831C201.915 29.1831 201.69 29.0704 201.465 28.845C201.239 28.6197 201.127 28.2817 201.127 27.7183V24.4507H202.366V27.6056C202.366 27.831 202.366 28.0563 202.479 28.0563C202.591 28.169 202.704 28.169 202.817 28.169C203.042 28.169 203.155 28.169 203.268 28.0563C203.38 27.9436 203.493 27.831 203.606 27.7183V24.4507H204.845V29.0704Z" fill="black"/>
<path d="M208.676 27.6056C208.676 28.0563 208.563 28.3943 208.225 28.7324C207.887 29.0704 207.436 29.1831 206.76 29.1831C206.535 29.1831 206.197 29.1831 205.972 29.0704C205.746 29.0704 205.634 28.9577 205.521 28.845V28.0563C205.634 28.169 205.746 28.169 205.972 28.2817C206.197 28.3943 206.422 28.3943 206.648 28.3943C206.986 28.3943 207.098 28.3943 207.324 28.2817C207.436 28.169 207.549 28.0563 207.549 27.831C207.549 27.7183 207.549 27.4929 207.436 27.4929C207.324 27.3803 207.098 27.2676 206.648 27.1549C206.31 27.0422 205.972 26.8169 205.859 26.5915C205.746 26.3662 205.634 26.0281 205.634 25.6901C205.634 25.3521 205.746 25.0141 205.972 24.7887C206.197 24.5634 206.648 24.4507 207.211 24.4507C207.436 24.4507 207.662 24.4507 207.887 24.5634C208.113 24.5634 208.225 24.676 208.338 24.7887V25.5774C208.225 25.4648 208.113 25.4648 207.887 25.3521C207.662 25.3521 207.436 25.2394 207.324 25.2394C207.098 25.2394 206.873 25.2394 206.76 25.3521C206.648 25.4648 206.535 25.5774 206.535 25.6901C206.535 25.8028 206.535 25.9155 206.648 26.0281C206.76 26.1408 206.986 26.1408 207.324 26.2535C207.775 26.3662 208.113 26.5915 208.338 26.8169C208.563 26.9296 208.676 27.2676 208.676 27.6056Z" fill="black"/>
<path d="M211.718 25.2394H210.592V27.6056C210.592 27.8309 210.592 28.0563 210.704 28.1689C210.817 28.2816 210.93 28.3943 211.155 28.3943H211.493L211.718 28.2816V28.9577C211.606 28.9577 211.38 29.0703 211.268 29.0703C211.042 29.0703 210.93 29.0703 210.704 29.0703C210.366 29.0703 210.028 28.9577 209.803 28.6196C209.577 28.3943 209.465 27.9436 209.465 27.4929V25.2394H208.901V24.5633H209.465L209.915 22.9858H210.704V24.5633H211.831V25.2394H211.718Z" fill="black"/>
<path d="M215.662 25.8028H214.535C214.535 25.6901 214.535 25.5775 214.423 25.4648C214.423 25.3521 214.31 25.3521 214.085 25.3521C213.972 25.3521 213.859 25.3521 213.747 25.4648L213.521 25.6901V28.9577H212.282V24.338H213.408V25.0141C213.521 24.7887 213.634 24.5634 213.859 24.4507C214.085 24.338 214.197 24.2253 214.535 24.2253C214.873 24.2253 215.211 24.338 215.324 24.5634C215.662 25.0141 215.662 25.3521 215.662 25.8028Z" fill="black"/>
<path d="M217.352 23.4366C217.352 23.6619 217.239 23.7746 217.127 23.8873C217.014 23.9999 216.901 24.1126 216.676 24.1126C216.451 24.1126 216.338 23.9999 216.225 23.8873C216.113 23.7746 216 23.5492 216 23.4366C216 23.2112 216.113 23.0985 216.225 22.9858C216.338 22.8732 216.451 22.7605 216.676 22.7605C216.901 22.7605 217.014 22.8732 217.127 22.9858C217.239 23.0985 217.352 23.2112 217.352 23.4366ZM217.352 29.0704H216.113V24.4506H217.352V29.0704Z" fill="black"/>
<path d="M221.859 29.0704H220.732V28.507C220.62 28.7324 220.507 28.845 220.282 28.9577C220.056 29.0704 219.831 29.1831 219.493 29.1831C219.042 29.1831 218.704 29.0704 218.366 28.845C218.141 28.6197 218.028 28.169 218.028 27.7183V27.6056C218.028 27.0422 218.141 26.7042 218.479 26.3662C218.817 26.1408 219.268 25.9155 219.831 25.9155C219.944 25.9155 220.169 25.9155 220.282 26.0281C220.394 26.0281 220.507 26.1408 220.62 26.2535V25.8028C220.62 25.6901 220.507 25.4648 220.394 25.3521C220.282 25.2394 220.056 25.2394 219.831 25.2394C219.606 25.2394 219.38 25.2394 219.155 25.3521C218.929 25.4648 218.817 25.4648 218.591 25.5774V24.7887C218.817 24.676 219.042 24.676 219.268 24.5634C219.493 24.4507 219.831 24.4507 220.169 24.4507C220.732 24.4507 221.183 24.5634 221.408 24.9014C221.634 25.1267 221.859 25.5774 221.859 26.1408V29.0704V29.0704ZM220.732 27.4929V27.3803C220.732 27.1549 220.62 26.9296 220.507 26.7042C220.394 26.5915 220.169 26.4789 219.944 26.4789C219.718 26.4789 219.493 26.5915 219.38 26.7042C219.268 26.8169 219.155 27.0422 219.155 27.3803V27.4929C219.155 27.831 219.268 28.0563 219.38 28.169C219.493 28.2817 219.718 28.2817 219.944 28.2817C220.169 28.2817 220.282 28.169 220.394 28.0563C220.732 27.9436 220.732 27.831 220.732 27.4929Z" fill="black"/>
<path d="M224.113 22.9858H222.873V29.0703H224.113V22.9858Z" fill="black"/>
<path d="M230.197 23.8872H228.958V29.0703H227.718V23.8872H226.479V22.9858H230.197V23.8872Z" fill="black"/>
<path d="M234.704 26.9297H231.775C231.775 27.4931 231.887 27.8311 232.113 28.0564C232.338 28.2818 232.563 28.3945 233.014 28.3945C233.239 28.3945 233.465 28.3945 233.69 28.2818C233.915 28.1691 234.141 28.1691 234.479 27.9438V28.7325C234.253 28.8452 234.028 28.9579 233.803 29.0705C233.577 29.1832 233.239 29.1832 232.901 29.1832C232.225 29.1832 231.662 28.9579 231.324 28.6198C230.986 28.2818 230.76 27.7184 230.76 26.9297V26.5917C230.76 25.9156 230.986 25.4649 231.324 25.0142C231.662 24.5635 232.225 24.3381 232.901 24.3381C233.577 24.3381 234.028 24.5635 234.366 24.9015C234.704 25.3522 234.93 25.8029 234.93 26.479C234.704 26.817 234.704 26.9297 234.704 26.9297ZM233.577 26.3663C233.577 25.9156 233.465 25.5776 233.352 25.3522C233.239 25.1269 233.014 25.0142 232.676 25.0142C232.451 25.0142 232.225 25.1269 232.113 25.3522C231.887 25.5776 231.887 25.9156 231.775 26.3663H233.577Z" fill="black"/>
<path d="M238.761 28.8452C238.761 28.8452 238.535 28.9579 238.31 29.0705C238.085 29.1832 237.859 29.1832 237.634 29.1832C236.958 29.1832 236.394 28.9579 235.944 28.6198C235.493 28.2818 235.38 27.6057 235.38 26.9297V26.7043C235.38 26.0283 235.606 25.4649 235.944 25.0142C236.394 24.5635 236.845 24.3381 237.521 24.3381C237.747 24.3381 238.085 24.3381 238.31 24.4508C238.535 24.5635 238.648 24.5635 238.761 24.6762V25.4649C238.648 25.3522 238.535 25.2395 238.31 25.2395C238.085 25.1269 237.972 25.1269 237.747 25.1269C237.409 25.1269 237.071 25.2395 236.958 25.5776C236.732 25.8029 236.62 26.2536 236.62 26.7043V26.817C236.62 27.3804 236.732 27.7184 236.845 27.9438C236.958 28.1691 237.296 28.2818 237.634 28.2818C237.859 28.2818 238.085 28.2818 238.31 28.1691C238.535 28.0564 238.648 28.0564 238.761 27.9438V28.8452V28.8452Z" fill="black"/>
<path d="M243.38 29.0703H242.141V25.8027C242.141 25.6901 242.141 25.5774 242.028 25.4647C241.915 25.352 241.803 25.352 241.69 25.352C241.465 25.352 241.352 25.352 241.239 25.4647C241.127 25.5774 241.014 25.6901 240.901 25.8027V29.0703H239.662V22.9858H240.901V25.1267C241.014 24.9013 241.239 24.7887 241.465 24.5633C241.69 24.4506 242.028 24.338 242.366 24.338C242.704 24.338 243.042 24.4506 243.155 24.676C243.38 24.9013 243.38 25.2394 243.38 25.8027V29.0703V29.0703Z" fill="black"/>
<path d="M248.113 29.0704H246.873V25.8028C246.873 25.6901 246.873 25.5774 246.761 25.4648C246.648 25.3521 246.535 25.3521 246.31 25.3521C246.085 25.3521 245.972 25.3521 245.859 25.4648C245.747 25.5774 245.634 25.6901 245.521 25.8028V29.0704H244.282V24.4507H245.408V25.2394C245.521 25.0141 245.634 24.7887 245.859 24.676C246.085 24.5634 246.423 24.4507 246.761 24.4507C247.099 24.4507 247.437 24.5634 247.549 24.7887C247.775 25.0141 247.887 25.3521 247.887 25.9155V29.0704H248.113Z" fill="black"/>
<path d="M253.296 26.9296C253.296 27.6056 253.07 28.169 252.732 28.6197C252.394 29.0704 251.831 29.1831 251.155 29.1831C250.479 29.1831 249.916 28.9577 249.578 28.6197C249.24 28.169 249.014 27.6056 249.014 26.9296V26.5915C249.014 25.9155 249.24 25.3521 249.578 24.9014C249.916 24.4507 250.479 24.2253 251.155 24.2253C251.831 24.2253 252.394 24.4507 252.732 24.9014C253.07 25.3521 253.296 25.9155 253.296 26.5915V26.9296ZM252.056 26.8169C252.056 26.1408 251.944 25.6901 251.831 25.4648C251.606 25.2394 251.38 25.1267 251.155 25.1267C250.93 25.1267 250.704 25.2394 250.479 25.4648C250.254 25.6901 250.254 26.1408 250.254 26.7042V26.8169C250.254 27.4929 250.366 27.9437 250.479 28.169C250.592 28.3944 250.817 28.507 251.155 28.507C251.38 28.507 251.606 28.3944 251.831 28.169C251.944 27.831 252.056 27.3803 252.056 26.8169Z" fill="black"/>
<path d="M255.437 22.9858H254.197V29.0703H255.437V22.9858Z" fill="black"/>
<path d="M260.62 26.9296C260.62 27.6056 260.394 28.169 260.056 28.6197C259.718 29.0704 259.155 29.1831 258.479 29.1831C257.803 29.1831 257.239 28.9577 256.901 28.6197C256.563 28.169 256.338 27.6056 256.338 26.9296V26.5915C256.338 25.9155 256.563 25.3521 256.901 24.9014C257.239 24.4507 257.803 24.2253 258.479 24.2253C259.155 24.2253 259.718 24.4507 260.056 24.9014C260.394 25.3521 260.62 25.9155 260.62 26.5915V26.9296ZM259.38 26.8169C259.38 26.1408 259.267 25.6901 259.155 25.4648C258.929 25.2394 258.817 25.1267 258.479 25.1267C258.253 25.1267 258.028 25.2394 257.803 25.4648C257.69 25.6901 257.577 26.1408 257.577 26.7042V26.8169C257.577 27.4929 257.69 27.9437 257.803 28.169C257.915 28.3944 258.141 28.507 258.479 28.507C258.704 28.507 258.929 28.3944 259.155 28.169C259.267 27.831 259.38 27.3803 259.38 26.8169Z" fill="black"/>
<path d="M265.352 28.3945C265.352 29.0705 265.127 29.5212 264.789 29.9719C264.338 30.31 263.887 30.5353 263.211 30.5353C262.986 30.5353 262.761 30.5353 262.535 30.4226C262.31 30.4226 262.084 30.31 261.859 30.1973V29.2959C262.084 29.4086 262.31 29.5212 262.535 29.5212C262.761 29.5212 262.986 29.6339 263.099 29.6339C263.549 29.6339 263.887 29.5212 264.113 29.4086C264.225 29.1832 264.338 28.9579 264.338 28.7325V28.1691C264.225 28.2818 264.113 28.5071 263.887 28.7325C263.662 28.9579 263.324 28.9579 262.986 28.9579C262.535 28.9579 262.197 28.7325 261.859 28.3945C261.521 28.0564 261.408 27.4931 261.408 26.7043V26.5917C261.408 25.8029 261.521 25.2395 261.859 24.9015C262.197 24.5635 262.648 24.3381 263.211 24.3381C263.437 24.3381 263.662 24.3381 263.887 24.4508C264.113 24.5635 264.225 24.6762 264.338 24.7888V24.3381H265.465V28.3945H265.352ZM264.113 26.5917V26.2536C264.113 25.8029 264 25.4649 263.887 25.2395C263.775 25.0142 263.549 24.9015 263.324 24.9015C263.099 24.9015 262.873 25.0142 262.761 25.2395C262.648 25.4649 262.535 25.8029 262.535 26.3663V26.479C262.535 27.0424 262.648 27.4931 262.761 27.6057C262.873 27.8311 263.099 27.9438 263.324 27.9438C263.549 27.9438 263.775 27.8311 263.887 27.6057C264 27.6057 264.113 27.155 264.113 26.5917Z" fill="black"/>
<path d="M270.197 24.4507L267.831 30.4225H266.817L267.493 28.845L265.803 24.4507H267.042L268.056 27.4929L269.296 24.4507H270.197Z" fill="black"/>
<path d="M119.099 11.2676L116.282 7.2113C115.042 9.23947 113.24 10.7043 111.099 11.6057C110.986 11.6057 110.873 11.6057 110.873 11.6057L110.085 11.0423L109.972 10.9296L110.085 10.8169C113.014 9.23947 114.817 6.98595 115.38 4.05637C115.38 3.9437 115.38 3.71834 115.38 3.60567C115.38 3.04229 115.155 2.70426 114.592 2.36623C114.479 2.36623 114.479 2.25356 114.479 2.14088C114.479 2.0282 114.592 1.91553 114.704 1.91553H117.972C118.085 1.91553 118.197 2.0282 118.197 2.14088C118.085 3.49299 117.634 4.73243 117.071 5.97187L121.352 9.80285C121.465 9.91553 121.465 10.0282 121.352 10.1409L119.549 11.2676C119.211 11.3803 119.099 11.3803 119.099 11.2676ZM116.958 17.3521C116.958 17.4648 117.071 17.5775 117.183 17.5775H125.747C126.085 17.5775 126.31 17.8029 126.31 18.2536C126.31 18.7043 126.085 18.9296 125.747 18.9296H115.268C115.042 18.9296 114.817 18.8169 114.817 18.5916L114.704 15.0986C114.704 14.6479 114.592 14.1972 114.479 14.0845C114.366 13.8592 114.028 13.6338 113.578 13.4085C113.465 13.4085 113.465 13.2958 113.465 13.1831C113.465 13.0705 113.578 12.9578 113.69 12.9578H116.845C116.958 12.9578 117.071 13.0705 117.071 13.1831V17.3521H116.958Z" fill="black"/>
<path d="M162.704 7.54925V8.78869V18.0281C162.704 18.5915 162.366 19.2676 161.69 19.2676C161.127 19.2676 160.901 18.9295 160.676 18.4788L160.563 18.3662V18.1408V18.0281V9.23939L160.451 3.15489V3.04221V2.70418C160.451 2.1408 160.225 1.80278 159.775 1.46475L159.662 1.12672C159.662 1.01404 159.775 0.901367 159.887 0.901367H161.803C162.141 0.901367 162.704 1.12672 162.817 2.1408V2.25348L162.704 5.97179V7.54925Z" fill="black"/>
<path d="M89.5776 17.5776H81.1269C81.0142 17.5776 80.9015 17.4649 80.9015 17.3522V13.5213C80.9015 13.4086 80.7889 13.2959 80.6762 13.2959H77.5213C77.4086 13.2959 77.2959 13.4086 77.2959 13.5213C77.2959 13.6339 77.2959 13.6339 77.4086 13.7466C77.8593 13.972 78.1973 14.1973 78.31 14.4227C78.4227 14.648 78.5353 14.986 78.5353 15.4367L78.648 18.5917C78.648 18.817 78.7607 18.9297 79.0987 18.9297H89.5776C89.9156 18.9297 90.141 18.7043 90.141 18.2536C90.2536 17.8029 90.0283 17.5776 89.5776 17.5776Z" fill="black"/>
<path d="M88.4507 17.5774H89.5774C89.9155 17.5774 90.4789 17.8027 90.4789 18.2534C90.4789 18.7042 90.0281 18.9295 89.5774 18.9295H88.5634" fill="black"/>
<path d="M137.127 9.35207C138.028 8.67601 138.479 7.77461 138.704 6.76052H142.31V9.23939V10.0281V10.1408V10.3662L142.423 10.4788C142.535 10.9295 142.873 11.2676 143.437 11.2676C144.113 11.2676 144.451 10.5915 144.451 10.0281V8.67601V7.43658V5.97179L144.563 2.25348V2.1408C144.451 1.12672 143.887 1.01404 143.549 0.901367H141.634C141.521 0.901367 141.409 0.901367 141.409 1.01404L141.521 1.2394C141.972 1.46475 142.197 1.91545 142.197 2.47883V2.81686V2.92954V5.07038H138.592C138.366 4.0563 137.803 3.15489 137.014 2.47883C136.113 1.80278 135.099 1.46475 134.085 1.46475C132.845 1.46475 131.718 1.91545 130.817 2.81686C129.916 3.71827 129.465 4.73235 129.465 5.85911C129.465 7.09855 129.916 8.11263 130.817 8.90137C131.718 9.80277 132.845 10.2535 134.085 10.2535C135.324 10.3662 136.225 10.0281 137.127 9.35207ZM132.507 8.11263C132.056 7.54925 131.831 6.76052 131.831 5.97179C131.831 5.07038 132.056 4.39432 132.507 3.83094C132.958 3.26756 133.521 2.92954 134.197 2.92954C134.873 2.92954 135.437 3.26756 135.887 3.83094C136.338 4.39432 136.563 5.18306 136.563 5.97179C136.563 6.8732 136.338 7.54925 135.887 8.11263C135.324 8.67601 134.761 9.01404 134.085 9.01404C133.521 9.01404 132.958 8.67601 132.507 8.11263ZM144.451 11.6056H141.521C141.409 11.6056 141.296 11.7183 141.296 11.8309C141.296 11.9436 141.296 11.9436 141.409 12.0563C141.747 12.2816 142.085 12.507 142.197 12.7324C142.31 12.9577 142.31 13.2957 142.31 13.8591V14.1971H135.662V12.2816C135.662 12.169 135.549 12.0563 135.437 12.0563H132.282C132.169 12.0563 132.056 12.169 132.056 12.2816C132.056 12.3943 132.056 12.3943 132.169 12.507C132.62 12.7324 132.958 12.9577 133.07 13.1831C133.183 13.4084 133.296 13.7464 133.296 14.1971L133.409 18.7042C133.409 18.9295 133.521 19.0422 133.859 19.0422H144.113C144.338 19.0422 144.451 18.9295 144.451 18.7042L144.563 11.9436C144.676 11.7183 144.563 11.6056 144.451 11.6056ZM142.31 17.3521C142.31 17.4647 142.197 17.5774 142.085 17.5774H135.775C135.662 17.5774 135.549 17.4647 135.549 17.3521V15.4366H142.197V17.3521H142.31Z" fill="black"/>
<path d="M148.169 14.0844C148.056 14.0844 147.944 14.0844 147.944 13.9717L147.155 13.2957C147.042 13.183 147.042 13.0703 147.267 13.0703C151.662 11.7182 154.028 8.67594 154.479 3.94355H149.183C149.07 3.94355 148.958 3.83087 148.845 3.7182L148.056 2.70411V2.59144L148.169 2.47876H157.07C157.183 2.47876 157.296 2.59144 157.296 2.70411C157.07 5.63369 156.056 8.11256 154.366 10.1407C152.676 12.1689 150.648 13.4083 148.169 14.0844Z" fill="black"/>
<path d="M202.141 14.0844C202.028 14.0844 201.915 14.0844 201.915 13.9717L201.127 13.2957C201.014 13.183 201.014 13.0703 201.239 13.0703C205.634 11.7182 208 8.67594 208.451 3.94355H203.155C203.042 3.94355 202.93 3.83087 202.817 3.7182L202.028 2.70411V2.59144L202.141 2.47876H211.042C211.155 2.47876 211.268 2.59144 211.268 2.70411C211.042 5.63369 210.028 8.11256 208.338 10.1407C206.535 12.1689 204.62 13.4083 202.141 14.0844Z" fill="black"/>
<path d="M252.845 2.36616V2.1408C252.732 1.12672 252.169 1.01404 251.831 0.901367H249.915C249.803 0.901367 249.69 1.01404 249.69 1.12672L249.803 1.35207C250.254 1.57742 250.479 2.02813 250.479 2.59151V2.92954V3.15489L250.592 9.23939V11.8309L241.239 12.0563C241.014 12.0563 241.014 11.9436 241.014 11.8309V8.45066H246.986C247.324 8.45066 247.549 8.22531 247.549 7.77461C247.549 7.43658 247.437 7.21123 247.099 7.09855L247.324 2.59151C247.324 2.47883 247.324 2.36616 247.099 2.36616H237.859L237.746 2.47883V2.59151L238.423 3.60559C238.535 3.71827 238.648 3.83094 238.761 3.83094H244.845V7.21123H237.859C237.746 7.21123 237.634 7.21123 237.634 7.43658L237.746 7.66193C238.084 7.88728 238.31 8.11263 238.423 8.22531C238.535 8.45066 238.535 8.78869 238.648 9.12672L238.761 13.4084C238.761 13.6338 238.873 13.8591 239.099 13.8591L250.479 13.1831V18.0281V18.1408V18.3662L250.592 18.4788C250.704 18.9295 251.042 19.2676 251.606 19.2676C252.282 19.2676 252.62 18.5915 252.62 18.0281V8.67601V7.43658V5.97179L252.845 2.36616Z" fill="black"/>
<path d="M91.7184 6.08458H89.6902L89.8029 2.36627V2.2536C89.6902 1.23951 89.1268 1.12684 88.7888 1.01416H86.8733C86.7606 1.01416 86.6479 1.12684 86.6479 1.23951L86.7606 1.46486C87.2113 1.69022 87.4367 2.14092 87.4367 2.7043V3.04233V3.26768L87.5494 12.5071V13.6339V13.7466V13.9719L87.662 14.0846C87.7747 14.5353 88.1127 14.8733 88.6761 14.8733C89.3522 14.8733 89.6902 14.1973 89.6902 13.6339V10.4789L89.8029 7.54937V7.43669H91.831C92.1691 7.43669 92.7325 7.21134 92.7325 6.76064C92.6198 6.30993 92.0564 6.08458 91.7184 6.08458Z" fill="black"/>
<path d="M109.521 7.99992H107.042L107.606 2.02809C107.606 1.91541 107.493 1.80273 107.38 1.80273H94.8733L94.7606 1.91541V2.02809L95.4367 3.04217C95.5493 3.15485 95.662 3.26752 95.7747 3.26752H105.127L105.014 8.11259H92.3944L92.2817 8.22527V8.33795L93.0705 9.35203C93.1831 9.46471 93.2958 9.57738 93.4085 9.57738H100.056V12.9577H94.986L94.8733 13.0703V13.183L95.5493 14.1971C95.662 14.3098 95.7747 14.4225 95.8874 14.4225H104.901V18.4788L105.014 18.5915C105.127 19.0422 105.465 19.4929 106.028 19.4929C106.704 19.4929 107.042 18.8168 107.042 18.2534V17.014L107.155 13.2957C107.155 13.183 107.042 13.0703 106.93 13.0703H102.197V9.69006H109.296C109.408 9.69006 109.521 9.69006 109.521 9.57738C109.859 9.46471 110.197 9.23935 110.197 8.90133C110.31 8.22527 109.859 7.99992 109.521 7.99992Z" fill="black"/>
<path d="M127.775 5.85923H125.746L125.859 2.36627V2.2536C125.746 1.23951 125.183 1.12684 124.845 1.01416H122.93C122.817 1.01416 122.817 1.01416 122.817 1.12684L122.93 1.35219C123.38 1.57754 123.606 2.02824 123.606 2.59162V2.92965V3.04233L123.718 11.3804V12.2818V12.5071V12.6198V12.8451L123.831 12.9578C123.944 13.4085 124.282 13.7466 124.845 13.7466C125.521 13.7466 125.859 13.0705 125.859 12.5071V10.4789V7.21134H127.887C128.225 7.21134 128.789 6.98599 128.789 6.53529C128.676 6.08458 128.225 5.85923 127.775 5.85923Z" fill="black"/>
<path d="M166.986 8.11261C167.099 8.22529 167.099 8.22529 167.211 8.22529C169.69 7.66191 171.718 6.64783 173.408 4.95768L178.254 7.99994C178.366 7.99994 178.479 7.99994 178.479 7.99994L180.282 6.7605L180.394 6.53515L180.282 6.42247L174.197 3.9436C174.761 3.15487 175.099 2.36614 175.324 1.5774C175.324 1.46473 175.324 1.35205 175.099 1.35205H171.606C171.493 1.35205 171.38 1.46473 171.38 1.5774C171.38 1.69008 171.38 1.69008 171.493 1.80275C171.944 2.02811 172.169 2.36614 172.169 2.70416C172.169 2.92952 172.056 3.15487 171.944 3.38022C170.93 5.18304 169.014 6.42247 166.197 7.21121L166.085 7.32388L166.197 7.43656L166.986 8.11261ZM180.958 8.90135H178.93H164.62L164.507 9.01402V9.1267L165.296 10.1408C165.408 10.2535 165.521 10.3661 165.634 10.3661H172.282V12.169H167.099L166.986 12.2816V12.3943L167.662 13.4084C167.775 13.5211 167.887 13.6337 168 13.6337H176.901V14.8732H167.099C166.986 14.8732 166.873 14.9859 166.873 15.0985C166.873 15.2112 166.873 15.2112 166.986 15.3239C167.324 15.5492 167.549 15.7746 167.662 15.9999C167.775 16.2253 167.775 16.4506 167.775 16.9013L167.887 18.7042C167.887 18.9295 168 19.0422 168.225 19.0422H178.93C179.268 19.0422 179.493 18.8168 179.493 18.3661C179.493 17.9154 179.268 17.6901 178.93 17.6901H170.141C170.028 17.6901 169.916 17.5774 169.916 17.4647V16.2253H178.704C179.042 16.2253 179.268 15.9999 179.268 15.5492C179.268 15.2112 179.155 14.9859 178.817 14.8732L179.042 12.3943C179.042 12.2816 179.042 12.169 178.817 12.169H174.31V10.3661H180.732H180.845H180.958C181.296 10.2535 181.521 10.0281 181.521 9.69008C181.859 9.1267 181.408 8.90135 180.958 8.90135Z" fill="black"/>
<path d="M194.141 10.1408C194.479 10.1408 194.817 9.91545 194.817 9.46475C194.817 9.01404 194.366 8.78869 193.915 8.78869H192.225L192.338 3.60559H194.028C194.366 3.60559 194.93 3.38024 194.93 2.92954C194.93 2.47883 194.479 2.25348 194.028 2.25348H193.577H182.986H182.873V2.36616L183.549 3.38024C183.662 3.49292 183.775 3.60559 183.887 3.60559H185.014L185.127 8.90137H182.873L182.76 9.01404L183.437 10.0281C183.437 10.1408 183.549 10.1408 183.662 10.1408H193.803C193.915 10.1408 194.028 10.1408 194.141 10.1408ZM190.197 8.78869H187.268V3.49292H190.197V8.78869ZM198.873 2.36616V2.1408C198.761 1.12672 198.197 1.01404 197.859 0.901367H195.944C195.831 0.901367 195.718 0.901367 195.718 1.01404L195.831 1.2394C196.282 1.46475 196.507 1.91545 196.507 2.47883V2.81686V2.92954V4.16897H194.479C194.141 4.16897 193.577 4.39432 193.577 4.84503C193.577 5.29573 194.028 5.52109 194.479 5.52109H196.62V6.64785H194.479C194.141 6.64785 193.577 6.8732 193.577 7.3239C193.577 7.77461 194.028 7.99996 194.479 7.99996H196.62V9.01404V9.80277V9.91545V10.1408L196.732 10.2535C196.845 10.7042 197.183 11.0422 197.746 11.0422C198.422 11.0422 198.761 10.3662 198.761 9.80277V8.67601V7.43658V5.97179L198.873 2.36616ZM196.732 12.2816C195.831 11.4929 194.704 11.0422 193.465 11.0422C192.225 11.0422 191.099 11.4929 190.197 12.2816C189.296 13.0704 188.845 14.0845 188.845 15.2112C188.845 16.338 189.296 17.2394 190.197 18.0281C191.099 18.8169 192.225 19.2676 193.465 19.2676C194.704 19.2676 195.831 18.8169 196.732 18.0281C197.634 17.2394 198.084 16.2253 198.084 15.2112C198.197 14.0845 197.746 13.0704 196.732 12.2816ZM195.155 17.1267C194.704 17.6901 194.141 17.9154 193.465 17.9154C192.789 17.9154 192.225 17.6901 191.775 17.1267C191.324 16.5633 191.099 16 191.099 15.2112C191.099 14.4225 191.324 13.7464 191.775 13.2957C192.225 12.7324 192.789 12.507 193.465 12.507C194.141 12.507 194.704 12.7324 195.155 13.2957C195.606 13.8591 195.831 14.4225 195.831 15.2112C195.944 16 195.718 16.5633 195.155 17.1267Z" fill="black"/>
<path d="M218.366 7.77472H216V7.54937V6.08458L216.113 2.36627V2.2536C216 1.23951 215.437 1.12684 215.099 1.01416H213.183C213.07 1.01416 212.958 1.01416 212.958 1.12684L213.07 1.35219C213.521 1.57754 213.746 2.02824 213.746 2.59162V2.92965V3.15501L213.859 9.23951V17.9156V18.0282V18.2536L213.972 18.3663C214.085 18.817 214.423 19.155 214.986 19.155C215.662 19.155 216 18.4789 216 17.9156V9.12684H218.366C218.704 9.12684 219.268 8.90148 219.268 8.45078C219.268 7.8874 218.704 7.77472 218.366 7.77472Z" fill="black"/>
<path d="M221.07 3.71827H227.718V8.67601L227.831 8.78869H227.944L229.634 7.99996C229.746 7.99996 229.746 7.88728 229.746 7.77461L229.972 2.59151C229.972 2.47883 229.859 2.36616 229.746 2.36616H220.169L220.056 2.47883V2.59151L220.732 3.60559C220.732 3.71827 220.845 3.71827 221.07 3.71827ZM234.254 17.5774H225.69C225.577 17.5774 225.465 17.4647 225.465 17.3521V13.5211C225.465 13.4084 225.352 13.2957 225.239 13.2957H222.085C221.972 13.2957 221.859 13.4084 221.859 13.5211C221.859 13.6338 221.859 13.6338 221.972 13.7464C222.423 13.9718 222.761 14.1971 222.873 14.4225C222.986 14.6478 223.099 14.9859 223.099 15.4366L223.211 18.5915C223.211 18.8169 223.324 18.9295 223.662 18.9295H234.141C234.479 18.9295 234.704 18.7042 234.704 18.2535C234.817 17.8028 234.704 17.5774 234.254 17.5774ZM236.62 5.97179H234.366L234.479 2.36616V2.1408C234.366 1.12672 233.803 1.01404 233.465 0.901367H231.549C231.437 0.901367 231.324 0.901367 231.324 1.01404L231.437 1.2394C231.887 1.46475 232.113 1.91545 232.113 2.47883V2.81686V2.92954L232.225 9.01404V9.6901L225.465 9.91545V6.30982C225.465 6.19714 225.352 6.08447 225.239 6.08447H222.535C222.423 6.08447 222.31 6.19714 222.31 6.30982L222.423 6.53517C222.873 6.8732 223.099 7.3239 223.099 7.99996V10.1408H218.93L218.817 10.2535V10.3662L219.718 11.3802C219.831 11.4929 219.944 11.6056 220.056 11.6056L232.225 11.0422V12.169V12.2816V12.507L232.338 12.6197C232.451 13.0704 232.789 13.4084 233.352 13.4084C234.028 13.4084 234.366 12.7324 234.366 12.169V8.67601V7.43658V7.3239H236.732C237.07 7.3239 237.634 7.09855 237.634 6.64785C237.634 6.19714 237.07 5.97179 236.62 5.97179Z" fill="black"/>
<path d="M258.366 7.21123C259.268 7.88728 260.169 8.22531 261.408 8.22531C262.535 8.22531 263.549 7.88728 264.451 7.21123C265.352 6.53517 265.69 5.74644 265.69 4.73235C265.69 3.83094 265.239 2.92954 264.451 2.25348C263.549 1.57742 262.648 1.2394 261.408 1.2394C260.282 1.2394 259.268 1.57742 258.366 2.25348C257.465 2.92954 257.127 3.71827 257.127 4.73235C257.127 5.74644 257.577 6.53517 258.366 7.21123ZM259.944 3.26756C260.282 2.81686 260.732 2.59151 261.296 2.59151C261.859 2.59151 262.31 2.81686 262.76 3.26756C263.099 3.71827 263.324 4.16897 263.324 4.84503C263.324 5.40841 263.099 5.97179 262.76 6.30982C262.422 6.76052 261.972 6.8732 261.296 6.8732C260.732 6.8732 260.282 6.64785 259.944 6.30982C259.606 5.85911 259.38 5.40841 259.38 4.84503C259.38 4.16897 259.606 3.71827 259.944 3.26756ZM268.056 1.35207C268.507 1.57742 268.732 2.02813 268.732 2.59151V2.92954V3.04221L268.845 9.12672V11.0422H266.817C266.479 11.0422 266.028 11.2676 266.028 11.6056C266.028 12.0563 266.479 12.169 266.817 12.169H268.845V12.6197V12.7324V12.9577L268.958 13.0704C269.07 13.5211 269.408 13.8591 269.972 13.8591C270.648 13.8591 270.986 13.1831 270.986 12.6197V8.67601V7.43658V5.97179L271.099 2.25348V2.1408C270.986 1.12672 270.422 1.01404 270.084 0.901367H268.169C268.056 0.901367 267.944 0.901367 267.944 1.01404L268.056 1.35207ZM270.986 17.5774H262.422C262.31 17.5774 262.197 17.4647 262.197 17.3521V14.0845C262.197 13.9718 262.084 13.8591 261.972 13.8591H258.817C258.704 13.8591 258.591 13.9718 258.591 14.0845C258.591 14.1971 258.591 14.1971 258.704 14.3098C259.155 14.5352 259.493 14.7605 259.606 14.9859C259.718 15.2112 259.831 15.5493 259.831 16.1126L259.944 18.7042C259.944 18.9295 260.056 19.0422 260.394 19.0422H270.873C271.211 19.0422 271.437 18.8169 271.437 18.3662C271.549 17.8028 271.324 17.5774 270.986 17.5774ZM259.831 13.0704C259.831 13.2957 259.944 13.2957 260.056 13.2957L261.859 12.7324C261.972 12.7324 261.972 12.6197 261.972 12.507V10.3662L265.803 10.1408H267.38C267.718 10.1408 268.169 9.91545 268.169 9.57742C268.169 9.12672 267.718 9.01404 267.38 9.01404C267.268 9.01404 267.268 9.01404 267.155 9.01404H265.127H265.014L255.324 9.23939L255.211 9.35207V9.46475L256.113 10.4788C256.225 10.5915 256.338 10.7042 256.451 10.7042L259.718 10.5915L259.831 13.0704Z" fill="black"/>
<path d="M84.9578 3.38036H81.3521V2.7043V2.2536C81.2395 1.23951 80.6761 1.01416 80.3381 1.01416H78.3099C78.1972 1.01416 78.0845 1.12684 78.0845 1.23951L78.1972 1.46486C78.6479 1.69022 78.8733 2.14092 78.8733 2.7043V3.38036H74.2535H74.1409V3.49303L74.9296 4.50712C75.0423 4.61979 75.155 4.73247 75.2676 4.73247H76.9578C76.0564 5.5212 75.6057 6.53529 75.6057 7.66205C75.6057 8.78881 76.0564 9.69022 76.9578 10.4789C77.8592 11.2677 78.8733 11.7184 80.1127 11.7184C81.3521 11.7184 82.3662 11.2677 83.2676 10.4789C84.0564 9.69022 84.5071 8.78881 84.5071 7.66205C84.5071 6.53529 84.0564 5.5212 83.155 4.73247H84.9578C85.2958 4.73247 85.8592 4.50712 85.8592 4.05641C85.8592 3.60571 85.2958 3.38036 84.9578 3.38036ZM81.5775 9.57754C81.1268 10.1409 80.6761 10.3663 80 10.3663C79.4366 10.3663 78.8733 10.1409 78.4226 9.57754C77.9719 9.01416 77.7465 8.45078 77.7465 7.66205C77.7465 6.87331 77.9719 6.30993 78.4226 5.74655C78.8733 5.18317 79.324 4.95782 80 4.95782C80.5634 4.95782 81.1268 5.18317 81.5775 5.74655C82.0282 6.30993 82.2535 6.87331 82.2535 7.66205C82.2535 8.45078 82.0282 9.01416 81.5775 9.57754Z" fill="black"/>
<path d="M53.5212 3.38024C53.5212 4.28165 53.1831 5.07038 52.5071 5.74644C51.831 6.42249 50.9296 6.76052 49.9155 6.76052C49.1268 6.76052 48.4507 6.53517 47.8874 6.08447C47.4367 5.63376 47.0986 4.95771 47.0986 4.28165C47.0986 3.38024 47.4367 2.59151 48.1127 1.91545C48.7888 1.2394 49.6902 0.901367 50.7043 0.901367C51.493 0.901367 52.1691 1.12672 52.7324 1.57742C53.2958 2.02813 53.5212 2.59151 53.5212 3.38024Z" fill="#6FBA2C"/>
<path d="M42.4789 30.3099H45.0704C47.5493 29.8592 48.338 27.7183 48.6761 26.7042L52.2817 8.22535H46.8732L42.4789 30.3099ZM29.6338 26.8169C27.3803 26.8169 25.9155 25.9155 25.2394 24.1127C24.338 21.9718 24.5634 20.169 24.6761 19.2676V19.0423C24.7887 18.7042 24.7887 18.5915 24.7887 18.5915C24.9014 18.3662 25.0141 18.1408 25.0141 17.9155C25.6901 16.2254 26.8169 14.1972 27.7183 13.4085C29.1831 12.0563 30.6479 11.2676 32.2254 11.2676C33.0141 11.2676 33.5775 11.493 34.0282 11.9437C34.4789 12.3944 34.7042 12.9577 34.7042 13.6338C34.7042 14.7606 34.1408 15.662 33.0141 16.6761C31.5493 17.9155 29.4084 19.0423 27.493 19.1549C27.3803 19.2676 26.7042 19.2676 25.6901 19.2676C25.1268 19.3803 25.0141 19.831 25.0141 19.831C24.9014 20.507 25.3521 20.6197 25.5775 20.7324H26.1408C30.1972 20.7324 33.4648 20.0563 35.9437 18.7042C38.4225 17.3521 39.662 15.5493 39.662 13.4085C39.662 11.9437 39.0986 10.7042 37.9718 9.80282C36.8451 8.90141 35.2676 8.4507 33.2394 8.4507C29.4084 8.4507 26.1408 9.80282 23.2113 12.6197C20.2817 15.4366 18.9296 18.5915 18.9296 22.3099C18.9296 23.5493 19.1549 24.6761 19.493 25.5775C16.4507 24 13.5211 21.2958 11.1549 16.6761L27.9437 0.112676H21.7465C21.2958 0.676056 19.831 2.3662 15.8873 6.30986C11.9437 10.1408 9.80282 12.2817 9.46479 12.8451L11.9437 0H6.19718L0 30.5352H1.80282H1.69014C4.84507 30.5352 6.08451 28.2817 6.42253 27.1549L9.01408 14.8732C10.4789 18.8169 19.6056 39.662 40.4507 29.0704L42.0282 22.1972C42.0282 22.1972 37.6338 25.3521 31.8873 26.7042C30.8732 26.8169 30.0845 26.8169 29.6338 26.8169Z" fill="url(#paint0_radial)"/>
<path d="M62.4225 11.155H65.1267C67.6056 10.9296 68.2817 8.67611 68.2817 8.11273H62.8732L64.2253 1.46484L58.5915 2.81696L57.5774 8.11273H54.6479L54.0845 11.155H56.9014L54.7605 22.1972C54.3098 24.5634 54.0845 26.0282 54.0845 26.4789C54.0845 29.2958 55.8873 30.7606 59.3802 30.7606C61.2957 30.7606 63.2112 30.3099 65.1267 29.5212L64.7887 26.7043C63.5493 27.155 62.5352 27.3803 61.7464 27.3803C60.3943 27.3803 59.7183 26.7043 59.7183 25.2395C59.7183 24.6761 59.9436 23.5494 60.169 21.8592L62.4225 11.155Z" fill="url(#paint1_radial)"/>
</g>
<defs>
<radialGradient id="paint0_radial" cx="0" cy="0" r="1" gradientUnits="userSpaceOnUse" gradientTransform="translate(35.8961 9.69805) scale(22.3834)">
<stop stop-color="#B3CF23"/>
<stop offset="0.1461" stop-color="#B3CF23"/>
<stop offset="0.5506" stop-color="#00A0DF"/>
<stop offset="1" stop-color="#004F98"/>
</radialGradient>
<radialGradient id="paint1_radial" cx="0" cy="0" r="1" gradientUnits="userSpaceOnUse" gradientTransform="translate(86.7268 -1.98642) scale(36.3223)">
<stop stop-color="#00A0DF"/>
<stop offset="0.5506" stop-color="#00A0DF"/>
<stop offset="1" stop-color="#004F98"/>
</radialGradient>
<clipPath id="clip0">
<rect width="271.549" height="32" fill="white"/>
</clipPath>
</defs>
</svg>
